<svg width="29" height="19" viewBox="0 0 29 19" fill="none" xmlns="http://www.w3.org/2000/svg">
<path d="M-8.19738e-07 0.246571C0.164254 0.0485248 0.377218 1.89086e-06 0.629831 1.87982e-06C9.8768 0.00395159 19.1232 0.00395119 28.3702 6.67249e-07C28.6222 6.56232e-07 28.8352 0.0485236 29 0.246569L29 0.641534C28.8697 0.841273 28.6726 0.912364 28.4461 0.919135C28.2399 0.924777 28.0332 0.920264 27.827 0.92365C27.1241 0.934933 27.2153 0.811368 27.2051 1.58606C27.2028 1.76041 27.281 1.81457 27.4435 1.81119C27.7528 1.80498 28.0632 1.82022 28.3724 1.80668C28.6245 1.79539 28.8346 1.85915 28.9994 2.05212L28.9994 2.44708C28.8703 2.65077 28.6715 2.72073 28.4438 2.72751C28.2365 2.73371 28.0286 2.72863 27.8208 2.73202C27.1235 2.74274 27.2159 2.62538 27.2034 3.37694C27.2 3.56595 27.2816 3.62294 27.4583 3.61843C27.7602 3.61053 28.0626 3.62576 28.3639 3.61392C28.616 3.60376 28.8289 3.66921 28.9989 3.85766L28.9989 4.25263C28.8652 4.46478 28.6619 4.53757 28.4228 4.53869C28.2257 4.53982 28.0286 4.53644 27.8321 4.54039C27.1207 4.5528 27.2147 4.42133 27.2045 5.19377C27.2023 5.3636 27.2714 5.42792 27.4384 5.42454C27.7477 5.41833 28.0581 5.43244 28.3668 5.42059C28.6177 5.411 28.8284 5.47927 28.9989 5.66321L28.9989 6.05818C28.8777 6.26638 28.6839 6.34142 28.4546 6.34537C28.2388 6.34875 28.023 6.34424 27.8072 6.34819C27.1252 6.36004 27.2142 6.23309 27.204 6.99819C27.2017 7.16576 27.2668 7.23517 27.4356 7.23178C27.7454 7.22557 28.0553 7.23968 28.3645 7.2284C28.6149 7.21937 28.8256 7.2882 28.9983 7.46932L28.9983 7.86429C28.8782 8.07531 28.6845 8.15035 28.4546 8.15374C28.2382 8.15712 28.0218 8.15261 27.8055 8.156C27.123 8.16672 27.217 8.05161 27.2023 8.7806C27.1983 8.97978 27.2776 9.04523 27.4685 9.04015C27.7879 9.03112 28.1079 9.03789 28.4279 9.03902C28.6681 9.03902 28.8737 9.10729 28.9977 9.33129L28.9977 9.66983C28.8799 9.88255 28.6868 9.95816 28.4557 9.96098C28.2393 9.9638 28.023 9.95929 27.8066 9.96323C27.1235 9.97621 27.2125 9.8391 27.2028 10.6132C27.2006 10.7836 27.2714 10.848 27.4379 10.8457C27.767 10.8406 28.0966 10.8446 28.4257 10.8457C28.6653 10.8463 28.8714 10.914 28.9977 11.1363L28.9977 11.5312C28.825 11.7124 28.6143 11.7863 28.3634 11.7716C28.1855 11.7609 28.0065 11.7665 27.8287 11.7705C27.119 11.7857 27.213 11.6368 27.2034 12.4233C27.2011 12.5948 27.2765 12.6558 27.4401 12.6535C27.7687 12.649 28.0972 12.6524 28.4257 12.6535C28.6641 12.6546 28.8697 12.7223 28.9977 12.9418L28.9977 13.3368C28.8267 13.5207 28.616 13.5935 28.3656 13.5788C28.1787 13.5681 27.9907 13.5738 27.8026 13.5772C27.1241 13.5913 27.2125 13.4485 27.2034 14.2266C27.2011 14.3953 27.2708 14.4624 27.4367 14.4607C27.7653 14.4568 28.0932 14.4607 28.4217 14.4613C28.6607 14.4624 28.8641 14.5352 28.9977 14.7474L28.9977 15.1423C28.8278 15.3308 28.6149 15.4008 28.3628 15.3855C28.1748 15.3742 27.9856 15.3804 27.797 15.3838C27.1258 15.3968 27.2147 15.2631 27.2028 16.0175C27.2 16.1991 27.2708 16.2725 27.452 16.2691C27.7636 16.2629 28.0751 16.2669 28.386 16.2691C28.6318 16.2714 28.855 16.3272 28.9977 16.5524L28.9977 16.9473C28.8323 17.1403 28.6222 17.2091 28.3702 17.1922C28.1833 17.1792 27.9952 17.1871 27.8072 17.1905C27.1218 17.2029 27.217 17.076 27.2011 17.8066C27.1966 18.0216 27.2884 18.0842 27.4866 18.0786C27.7868 18.0701 28.087 18.0758 28.3872 18.0786C28.6313 18.0809 28.8533 18.1373 28.9972 18.3585L28.9972 18.7534C28.8352 18.9515 28.6222 19 28.3696 19C19.1232 18.996 9.87623 18.996 0.629831 19C0.377219 19 0.164255 18.9515 -1.07779e-08 18.7534L-2.80423e-08 18.3585C0.130271 18.1587 0.327376 18.0876 0.553934 18.0809C0.760102 18.0752 0.966837 18.0797 1.173 18.0763C1.8759 18.0651 1.78471 18.1886 1.79491 17.4139C1.79717 17.2396 1.71901 17.1854 1.55645 17.1888C1.2472 17.195 0.936818 17.1798 0.627566 17.1933C0.37552 17.2046 0.165387 17.1409 0.000566305 16.9479L0.000566288 16.5529C0.129704 16.3492 0.328509 16.2793 0.5562 16.2725C0.763501 16.2663 0.971368 16.2714 1.17923 16.268C1.87647 16.2573 1.78414 16.3746 1.79661 15.6231C1.8 15.434 1.71844 15.3771 1.54173 15.3816C1.23984 15.3895 0.937384 15.3742 0.636062 15.3861C0.384016 15.3962 0.171051 15.3308 0.00113262 15.1423L0.0011326 14.7474C0.134802 14.5352 0.338138 14.4624 0.577156 14.4613C0.774262 14.4602 0.971368 14.4636 1.16791 14.4596C1.8793 14.4472 1.78528 14.5787 1.79547 13.8062C1.79774 13.6364 1.72864 13.5721 1.56155 13.5755C1.2523 13.5817 0.941915 13.5676 0.63323 13.5794C0.382317 13.589 0.171617 13.5207 0.00113254 13.3368L0.00113253 12.9418C0.122341 12.7336 0.316048 12.6586 0.545438 12.6546C0.761235 12.6512 0.977031 12.6558 1.19283 12.6518C1.87477 12.64 1.78584 12.7669 1.79604 12.0018C1.7983 11.8342 1.73317 11.7648 1.56438 11.7682C1.25457 11.7744 0.944747 11.7603 0.635495 11.7716C0.385148 11.7806 0.174449 11.7118 0.00169886 11.5307L0.00169884 11.1357C0.121775 10.9247 0.315482 10.8496 0.545438 10.8463C0.761801 10.8429 0.978164 10.8474 1.19453 10.844C1.87703 10.8333 1.78301 10.9484 1.79774 10.2194C1.8017 10.0202 1.72241 9.95477 1.53153 9.95985C1.21209 9.96888 0.892072 9.96211 0.572059 9.96098C0.331907 9.96098 0.126306 9.89271 0.00226517 9.66871L0.00226516 9.33017C0.120075 9.11745 0.313216 9.04184 0.544305 9.03902C0.760668 9.0362 0.977031 9.04071 1.19339 9.03676C1.87647 9.02379 1.78754 9.1609 1.79717 8.38677C1.79944 8.21637 1.72864 8.15205 1.56212 8.1543C1.23304 8.15938 0.9034 8.15543 0.574324 8.1543C0.334739 8.15374 0.128571 8.08603 0.00226509 7.86372L0.00226508 7.46876C0.175016 7.28764 0.385715 7.21373 0.636628 7.2284C0.814476 7.23912 0.993457 7.23347 1.1713 7.22952C1.881 7.21429 1.78698 7.36325 1.7966 6.57671C1.79887 6.40518 1.72354 6.34424 1.55985 6.3465C1.23134 6.35101 0.902833 6.34763 0.574324 6.3465C0.335872 6.34537 0.13027 6.27766 0.00226501 6.05818L0.002265 5.66321C0.174449 5.47758 0.386847 5.40592 0.638893 5.42116C0.817308 5.43188 0.997421 5.42623 1.17697 5.42285C1.87987 5.40874 1.78528 5.54811 1.79774 4.78639C1.80057 4.60132 1.72411 4.53531 1.54569 4.5387C1.22511 4.5449 0.903966 4.53982 0.58282 4.5387C0.342102 4.5387 0.137633 4.46478 0.00226494 4.25263L0.00226492 3.85767C0.172183 3.66921 0.385148 3.59925 0.637194 3.61448C0.825237 3.62576 1.01441 3.61956 1.20302 3.61617C1.8742 3.6032 1.78528 3.73692 1.79717 2.98254C1.8 2.80086 1.7292 2.72751 1.54796 2.73089C1.23644 2.7371 0.924923 2.73315 0.613972 2.73089C0.368156 2.72863 0.144996 2.67278 0.00226486 2.44765L0.00226484 2.05268C0.167652 1.85972 0.377785 1.79088 0.629831 1.8078C0.816741 1.82078 1.00478 1.81288 1.19283 1.8095C1.87817 1.79708 1.78301 1.92347 1.79887 1.19335C1.8034 0.978382 1.71165 0.915752 1.51341 0.921394C1.21322 0.929857 0.913028 0.924215 0.612839 0.921394C0.368722 0.919138 0.146696 0.862715 0.00283117 0.641535L0.00283116 0.246571L-8.19738e-07 0.246571ZM14.5303 0.923086C10.7179 0.923086 6.90492 0.923086 3.09252 0.923086C2.82102 0.923086 2.68509 1.05719 2.68471 1.32539C2.68471 6.76855 2.68471 12.2123 2.68471 17.6554C2.68471 17.9357 2.82386 18.076 3.10215 18.0763C10.6992 18.0763 18.2963 18.0763 25.8933 18.0763C26.1743 18.0763 26.3149 17.9375 26.3153 17.6599C26.3153 12.2258 26.3153 6.79224 26.3153 1.35811C26.3153 1.06847 26.1714 0.923461 25.8837 0.923085C22.0996 0.923085 18.315 0.923085 14.5309 0.923086L14.5303 0.923086Z" fill="#BBBBBB"/>
<path d="M14.5093 5.27389C14.6362 5.28517 14.7438 5.34216 14.8452 5.41213C16.6027 6.62974 18.362 7.84567 20.1167 9.06723C20.4922 9.32847 20.4899 9.67266 20.1121 9.93559C18.3648 11.1515 16.6124 12.3607 14.8656 13.5772C14.6158 13.7509 14.3927 13.7577 14.1401 13.5817C12.3927 12.3652 10.6409 11.1566 8.89297 9.94067C8.50442 9.6704 8.50669 9.32678 8.8975 9.05482C10.6375 7.84454 12.3803 6.63934 14.1225 5.43188C14.2392 5.35119 14.3598 5.27728 14.5088 5.27333L14.5093 5.27389ZM19.0858 9.49943C19.0615 9.41649 18.9861 9.38772 18.9261 9.34653C17.5169 8.36871 16.106 7.39372 14.6997 6.41195C14.5507 6.30813 14.4431 6.31264 14.2964 6.41477C12.89 7.39597 11.4803 8.37379 10.0671 9.3454C9.88303 9.47179 9.89606 9.53724 10.0711 9.65742C11.3993 10.5704 12.7201 11.4934 14.0477 12.4064C14.5971 12.7838 14.404 12.7827 14.9557 12.4035C16.2759 11.4963 17.5905 10.5805 18.9068 9.66701C18.9737 9.62074 19.0603 9.59084 19.0864 9.49943L19.0858 9.49943Z" fill="#BBBBBB"/>
<path d="M14.5122 1.8157C14.673 1.82135 14.7942 1.91444 14.9177 2.00021C17.4348 3.74425 19.9518 5.4883 22.4683 7.23234C23.3123 7.81745 24.159 8.39918 25.0012 8.98655C25.5235 9.35104 25.5274 9.64501 25.0131 10.0039C24.1324 10.6189 23.2477 11.2282 22.3647 11.8393C22.2067 11.9488 22.043 12.0424 21.8391 11.9708C21.6737 11.9127 21.5729 11.7959 21.5406 11.6255C21.5004 11.4116 21.6085 11.2627 21.7722 11.1481C22.3279 10.7588 22.8858 10.3729 23.4425 9.9858C23.5972 9.8786 23.7478 9.7635 23.9098 9.66758C24.1092 9.54909 24.1041 9.46332 23.9115 9.33299C23.1627 8.82518 22.4219 8.30608 21.6788 7.79094C19.3786 6.19698 17.0768 4.60584 14.7823 3.00341C14.5654 2.8522 14.4199 2.86236 14.2092 3.00962C12.1469 4.45011 10.0773 5.881 8.00939 7.31303C7.90914 7.38243 7.80719 7.45578 7.69561 7.50205C7.47811 7.59289 7.28441 7.54267 7.14904 7.34519C7.02047 7.1573 7.04596 6.96941 7.19548 6.80353C7.25779 6.73469 7.33425 6.67601 7.41071 6.62241C9.63268 5.08149 11.8558 3.54169 14.0789 2.00247C14.2103 1.91162 14.3389 1.81119 14.5122 1.81627L14.5122 1.8157Z" fill="#BBBBBB"/>
<path d="M20.9634 12.5751C20.943 12.7934 20.8009 12.9232 20.6321 13.04C19.4155 13.8818 18.2 14.7254 16.9845 15.5683C16.2873 16.0513 15.5912 16.5354 14.8922 17.0162C14.5547 17.2486 14.4419 17.2486 14.101 17.0122C10.7309 14.6791 7.36087 12.3454 3.99252 10.0095C3.4737 9.65009 3.4754 9.35443 3.99139 8.99219C4.52323 8.61867 5.05961 8.25079 5.59485 7.88121C5.64923 7.84397 5.70417 7.80617 5.76194 7.7757C6.00379 7.64762 6.253 7.69784 6.38724 7.89814C6.52487 8.10465 6.48692 8.35291 6.26093 8.51936C5.89674 8.78737 5.51895 9.03676 5.14797 9.29518C4.85514 9.49944 4.85457 9.50169 5.15023 9.70651C8.18611 11.8111 11.2237 13.9129 14.2562 16.0225C14.4453 16.154 14.5779 16.1388 14.7586 16.0129C16.52 14.7829 18.2872 13.5608 20.0538 12.3381C20.154 12.2687 20.2588 12.197 20.3721 12.1587C20.6672 12.0588 20.9742 12.2811 20.9646 12.5756L20.9634 12.5751Z" fill="#BBBBBB"/>
<path d="M21.2993 1.81006C22.4508 1.81006 23.6023 1.80893 24.7532 1.81063C25.2476 1.81119 25.3921 1.95676 25.3926 2.45047C25.3938 3.83227 25.3932 5.21465 25.3926 6.59645C25.3926 6.69012 25.396 6.7866 25.3756 6.87688C25.3258 7.09693 25.1712 7.22106 24.9525 7.2267C24.7345 7.23178 24.5663 7.11837 24.5175 6.89663C24.4836 6.74203 24.4751 6.58009 24.4745 6.42098C24.4711 5.32129 24.4734 4.22103 24.4722 3.12134C24.4722 2.73879 24.4654 2.73258 24.0712 2.73258C22.0515 2.73258 20.0323 2.73258 18.0125 2.73258C17.8613 2.73258 17.71 2.73597 17.5633 2.69027C17.3458 2.62312 17.2309 2.46739 17.2365 2.2496C17.2422 2.02842 17.3764 1.88228 17.5928 1.8315C17.6919 1.80781 17.799 1.81175 17.9021 1.81175C19.0343 1.81062 20.1671 1.81119 21.2993 1.81119L21.2993 1.81006Z" fill="#BBBBBB"/>
<path d="M21.3038 17.1899C20.1716 17.1899 19.0388 17.1905 17.9066 17.1888C17.7939 17.1888 17.6766 17.1911 17.5696 17.1629C17.3674 17.1093 17.2422 16.9648 17.236 16.756C17.2292 16.5371 17.3419 16.3808 17.5577 16.3114C17.7038 16.2646 17.8556 16.268 18.0063 16.268C20.026 16.268 22.0452 16.268 24.065 16.268C24.4688 16.268 24.4705 16.2657 24.4711 15.8555C24.4717 14.7649 24.47 13.6742 24.4728 12.5841C24.4728 12.4346 24.483 12.2828 24.5085 12.1355C24.5498 11.8974 24.7158 11.7693 24.9463 11.7739C25.1904 11.7789 25.3467 11.9234 25.3841 12.1733C25.3938 12.2382 25.3921 12.3048 25.3921 12.3703C25.3921 13.7712 25.3932 15.1717 25.3921 16.5727C25.3921 17.041 25.2403 17.1882 24.7577 17.1888C23.6062 17.1905 22.4547 17.1894 21.3038 17.1894L21.3038 17.1899Z" fill="#BBBBBB"/>
<path d="M7.70354 1.81006C8.83576 1.81006 9.96855 1.81006 11.1008 1.81062C11.2044 1.81062 11.3109 1.80667 11.41 1.83094C11.6258 1.88341 11.7595 2.03068 11.7635 2.25129C11.7674 2.46909 11.6519 2.62425 11.4338 2.69027C11.2866 2.73484 11.1359 2.73145 10.9847 2.73145C8.9649 2.73145 6.9457 2.73145 4.92594 2.73145C4.53399 2.73145 4.52833 2.7371 4.52776 3.1236C4.52663 4.22329 4.5289 5.32354 4.5255 6.42323C4.5255 6.57276 4.51587 6.7251 4.48811 6.87123C4.44337 7.10821 4.27515 7.23178 4.04406 7.22501C3.81241 7.21824 3.65891 7.08057 3.617 6.84585C3.60227 6.76347 3.60624 6.67714 3.60624 6.5925C3.60567 5.2107 3.6051 3.82832 3.60624 2.44652C3.60624 1.9545 3.75123 1.81006 4.24853 1.80949C5.40001 1.8078 6.55149 1.80949 7.70241 1.80949L7.70354 1.81006Z" fill="#BBBBBB"/>
<path d="M7.67579 17.1899C6.53393 17.1899 5.39208 17.1911 4.25023 17.1899C3.7518 17.1894 3.60737 17.0455 3.6068 16.554C3.60567 15.1722 3.6068 13.7899 3.6068 12.4081C3.6068 12.3234 3.60284 12.2377 3.61757 12.1547C3.65891 11.92 3.81184 11.7823 4.04349 11.7744C4.27458 11.7671 4.4428 11.8901 4.48812 12.1271C4.51587 12.2738 4.5255 12.4256 4.5255 12.5751C4.52833 13.6844 4.52663 14.7936 4.52776 15.9029C4.52776 16.2544 4.54079 16.2674 4.89649 16.2674C6.92531 16.2685 8.95471 16.2674 10.9835 16.2674C11.1348 16.2674 11.2854 16.264 11.4327 16.3086C11.6507 16.3746 11.7669 16.5292 11.7635 16.747C11.7601 16.9676 11.6264 17.1155 11.4112 17.1685C11.312 17.1928 11.205 17.1888 11.1019 17.1888C9.96006 17.1899 8.81821 17.1894 7.67635 17.1894L7.67579 17.1899Z" fill="#BBBBBB"/>
<path d="M5.42153 4.76382C5.42153 4.54772 5.41417 4.33162 5.42323 4.11552C5.43626 3.81309 5.59768 3.6331 5.89504 3.62351C6.33796 3.60884 6.78145 3.60997 7.22437 3.62351C7.49058 3.63141 7.65823 3.80576 7.67465 4.04161C7.69108 4.28197 7.55288 4.4676 7.28384 4.50935C7.07144 4.54208 6.85168 4.54377 6.63589 4.53587C6.41216 4.52797 6.33286 4.62051 6.34079 4.83604C6.34816 5.05102 6.35495 5.26712 6.31361 5.48209C6.2649 5.73261 6.11084 5.86069 5.86502 5.87028C5.6345 5.87875 5.44419 5.69312 5.42776 5.43921C5.41304 5.21465 5.42493 4.98839 5.42493 4.76326C5.42437 4.76326 5.42323 4.76326 5.42267 4.76326L5.42153 4.76382Z" fill="#BBBBBB"/>
<path d="M5.42323 14.252C5.42323 14.0263 5.41361 13.8006 5.42607 13.576C5.44023 13.3159 5.61468 13.1416 5.8486 13.128C6.08195 13.1145 6.27056 13.2663 6.30964 13.5292C6.33853 13.7227 6.34929 13.9225 6.33909 14.1183C6.3255 14.3693 6.40876 14.4839 6.6761 14.4641C6.87207 14.45 7.07371 14.4568 7.26798 14.4856C7.53929 14.5262 7.68485 14.7051 7.67635 14.9415C7.66786 15.1875 7.49114 15.3686 7.21248 15.3771C6.77918 15.3895 6.34476 15.3906 5.91147 15.3771C5.59768 15.3675 5.44023 15.1903 5.42153 14.8721C5.4204 14.8534 5.4204 14.8343 5.4204 14.8156C5.4204 14.6278 5.4204 14.4399 5.4204 14.252C5.42153 14.252 5.42267 14.252 5.42323 14.252Z" fill="#BBBBBB"/>
<path d="M23.5779 14.2621C23.5779 14.4686 23.5853 14.6757 23.5762 14.8822C23.5632 15.1869 23.404 15.3663 23.1067 15.3765C22.6637 15.3912 22.2202 15.39 21.7773 15.3765C21.51 15.3686 21.3423 15.1965 21.3253 14.9607C21.3072 14.7113 21.4556 14.5234 21.7411 14.4844C21.9546 14.4551 22.1738 14.4585 22.3896 14.463C22.5839 14.4669 22.662 14.3857 22.6575 14.1944C22.653 13.9975 22.6524 13.7989 22.6745 13.6037C22.7107 13.2837 22.9005 13.1094 23.1599 13.1303C23.4125 13.1506 23.5649 13.3374 23.5779 13.6426C23.5785 13.6612 23.5785 13.6804 23.5785 13.699C23.5785 13.8869 23.5785 14.0748 23.5785 14.2627C23.5785 14.2627 23.5773 14.2627 23.5768 14.2627L23.5779 14.2621Z" fill="#BBBBBB"/>
<path d="M22.4309 3.61899C22.6479 3.61899 22.8654 3.60997 23.0817 3.62125C23.3984 3.63761 23.5683 3.80519 23.5756 4.12116C23.5858 4.54377 23.5847 4.96695 23.5756 5.38956C23.5694 5.67224 23.4012 5.85336 23.1576 5.87141C22.9146 5.88947 22.7226 5.73148 22.6858 5.44993C22.6575 5.23722 22.6558 5.01942 22.6586 4.80388C22.6609 4.61035 22.5793 4.53249 22.3873 4.53869C22.1897 4.5449 21.9903 4.54829 21.7938 4.52797C21.4885 4.49638 21.318 4.31751 21.3231 4.06587C21.3287 3.80068 21.5202 3.63423 21.8374 3.61843C21.8561 3.6173 21.8753 3.61787 21.894 3.61787C22.073 3.61787 22.2525 3.61787 22.4315 3.61787C22.4315 3.61843 22.4315 3.61899 22.4315 3.62012L22.4309 3.61899Z" fill="#BBBBBB"/>
<path d="M15.8562 9.50056C15.8562 9.76124 15.6461 9.95929 15.3136 9.95421C15.0463 9.95026 14.9494 10.0309 14.9557 10.3052C14.963 10.6381 14.7671 10.8463 14.5059 10.8508C14.2352 10.8553 14.0364 10.6414 14.0432 10.2894C14.0483 10.0247 13.9514 9.95195 13.6983 9.95477C13.3601 9.95872 13.1528 9.77309 13.1432 9.51298C13.1336 9.2444 13.3505 9.04071 13.6994 9.0441C13.9543 9.04692 14.0472 8.97075 14.0426 8.70782C14.0364 8.3563 14.2363 8.14189 14.5071 8.1481C14.7761 8.15374 14.9619 8.36589 14.9568 8.72361C14.9534 8.97526 15.0452 9.04523 15.2864 9.04353C15.6416 9.04071 15.8562 9.23142 15.8557 9.5L15.8562 9.50056Z" fill="#BBBBBB"/>
</svg>
