<svg width="19" height="25" viewBox="0 0 19 25" fill="none" xmlns="http://www.w3.org/2000/svg">
<path d="M10.5428 0.616669C11.2109 0.740827 11.8705 0.889533 12.4823 1.20536C14.3499 2.1703 15.4803 3.69372 15.7927 5.77373C16.2334 8.70727 14.5063 11.4723 11.7155 12.4009C8.31156 13.5339 4.64781 11.393 3.93366 7.85514C3.32523 4.83994 5.09039 1.80821 7.99865 0.876316C8.37029 0.75735 8.75508 0.691258 9.13706 0.616669H10.5428ZM9.82442 10.6371C12.0106 10.6371 13.803 8.85172 13.8072 6.66786C13.8107 6.14263 13.7106 5.6219 13.5127 5.13574C13.3149 4.64959 13.0231 4.20762 12.6544 3.83534C12.2856 3.46307 11.8472 3.16785 11.3643 2.96675C10.8814 2.76564 10.3636 2.66262 9.84087 2.66362C9.32191 2.66108 8.80753 2.76133 8.32715 2.95864C7.84677 3.15596 7.40981 3.44646 7.04123 3.81356C6.67265 4.18066 6.3797 4.61715 6.1791 5.09808C5.97851 5.57901 5.87422 6.09494 5.87219 6.61639C5.86138 8.83236 7.64205 10.6357 9.82442 10.6371Z" fill="#AAD3D1"/>
<path d="M18.8377 24.0335C18.74 24.2025 18.662 24.3843 18.5088 24.5146C18.1912 24.7808 17.8294 24.845 17.4573 24.6888C17.0472 24.5198 16.8231 24.1888 16.8113 23.7356C16.7892 22.8741 16.6638 22.0314 16.3415 21.2298C15.4643 19.0511 13.9068 17.6122 11.6502 16.9862C9.66891 16.4362 7.78911 16.7502 6.06858 17.8615C4.3302 18.9874 3.30314 20.6095 2.96768 22.6659C2.91241 23.0222 2.88102 23.3817 2.87372 23.7422C2.85539 24.3456 2.40106 24.7671 1.78605 24.7563C1.24856 24.7468 0.834642 24.2941 0.829004 23.7177C0.789538 19.5983 3.74197 15.6649 8.15323 14.8302C13.0277 13.9078 17.6965 17.049 18.6967 21.9781C18.7555 22.2689 18.7931 22.5644 18.8405 22.858L18.8377 24.0335Z" fill="#AAD3D1"/>
</svg>
