<svg width="34" height="39" viewBox="0 0 34 39" fill="none" xmlns="http://www.w3.org/2000/svg">
<g filter="url(#filter0_d_358_2001)">
<path d="M22.9838 0.014175C24.5383 0.014175 26.0941 0.0502557 27.6472 0.00128904C28.7353 -0.0328587 29.7862 0.610151 29.9577 2.08495C30.0914 3.23244 29.8899 4.32581 29.6074 5.42305C29.1117 7.34628 28.6283 9.27338 28.1391 11.1985C28.0888 11.397 28.0484 11.5954 28.0621 11.8022C28.083 12.1231 28.0014 12.4201 27.824 12.6894C27.7268 12.837 27.6844 13.0019 27.6439 13.1694C27.5911 13.3885 27.55 13.6127 27.4737 13.824C26.9427 15.2943 27.0021 16.8207 27.019 18.3438C27.0262 18.9978 26.8847 19.1298 26.2147 19.1298C23.3341 19.1298 20.4528 19.1298 17.5722 19.1298C17.2613 19.1298 17.1058 19.2806 17.1058 19.5821C17.1058 19.6788 17.111 19.7754 17.1058 19.8721C17.0947 20.0538 17.1828 20.1085 17.3596 20.1188C18.0719 20.1581 18.1495 20.2451 18.1495 20.9493C18.1495 21.6046 18.1567 22.2592 18.1462 22.9144C18.1423 23.1399 18.2245 23.2314 18.4502 23.2095C18.6942 23.1857 18.9218 23.2533 19.1495 23.3339C20.929 23.964 22.7085 24.5948 24.4907 25.2172C25.5481 25.5863 26.231 26.2796 26.4633 27.3788C26.5083 27.5914 26.5252 27.8085 26.477 28.0179C26.4365 28.1912 26.4404 28.351 26.4717 28.5243C26.6727 29.6441 25.9518 30.7092 24.8377 30.9521C23.7353 31.1924 22.6159 30.5062 22.3322 29.409C22.2474 29.0817 22.2454 28.7479 22.3328 28.4213C22.3843 28.228 22.3432 28.1345 22.1365 28.0733C20.9916 27.7357 19.8488 27.3884 18.7092 27.0334C18.4855 26.9639 18.4078 27.0302 18.3367 27.2377C18.111 27.8949 18.1482 28.5714 18.1489 29.246C18.1489 29.6325 18.1547 30.0191 18.1462 30.4057C18.1384 30.7852 17.9434 30.9785 17.5572 30.9823C16.8945 30.9894 16.231 30.9894 15.5676 30.9823C15.1671 30.9785 14.9773 30.7833 14.9734 30.378C14.9675 29.7872 14.9545 29.1963 14.9766 28.6062C14.9943 28.1358 14.899 27.6906 14.7829 27.2428C14.7281 27.0322 14.6433 26.9606 14.4157 27.0315C13.2761 27.3872 12.1345 27.7357 10.9884 28.0714C10.7555 28.1397 10.751 28.2505 10.794 28.4483C11.0458 29.6113 10.3315 30.695 9.15865 30.9475C8.02819 31.1911 6.86642 30.4701 6.67464 29.3188C6.5657 28.6642 6.56309 27.9715 6.68247 27.3144C6.86055 26.3344 7.47568 25.6476 8.42154 25.3041C10.3289 24.6115 12.2467 23.9485 14.1593 23.2707C14.3282 23.2108 14.4998 23.1973 14.6733 23.2102C14.9016 23.2276 14.978 23.1335 14.9747 22.9112C14.9649 22.2134 14.9701 21.5157 14.9714 20.8173C14.9727 20.2844 15.1312 20.1124 15.6655 20.1208C15.9342 20.1253 16.0275 20.0422 16.0197 19.7729C15.9975 19.0306 16.0973 19.1318 15.383 19.1311C12.6759 19.1273 9.96883 19.1311 7.26237 19.1292C5.82663 19.1286 4.66225 18.3535 4.20171 17.0971C3.72813 15.8053 4.09799 14.4838 5.21084 13.5644C5.39936 13.4085 5.37066 13.2816 5.2963 13.0941C4.537 11.1876 5.6355 9.20379 7.66616 8.81399C7.84554 8.77984 8.03341 8.77791 8.21736 8.77727C9.69616 8.77469 11.1743 8.77984 12.6531 8.77469C13.5252 8.77147 14.3602 8.94156 15.1534 9.29077C15.3824 9.39193 15.4496 9.33716 15.4978 9.11359C15.6825 8.25345 15.8801 7.39525 16.0771 6.53769C16.1241 6.33216 16.1071 6.14016 16.0341 5.94042C15.7523 5.17049 15.5279 4.38831 15.5624 3.55523C15.6009 2.63582 15.8325 1.77246 16.3289 0.991574C16.732 0.357586 17.3165 0.0128864 18.0921 0.0135307C19.7229 0.0154636 21.3537 0.0135307 22.9845 0.0135307L22.9838 0.014175ZM21.3954 5.68399C22.6994 5.68399 24.0034 5.68399 25.3067 5.68399C25.6987 5.68399 25.6968 5.6827 25.5794 5.30579C25.1658 3.97789 25.2447 2.68221 25.8507 1.4239C26.0092 1.09402 26.0099 1.09144 25.6518 1.09144C23.1965 1.0908 20.7405 1.09337 18.2852 1.08951C17.7679 1.08886 17.4007 1.28924 17.1613 1.75829C16.5552 2.94637 16.5618 4.14606 17.0112 5.37602C17.096 5.60732 17.203 5.69173 17.4515 5.68979C18.7659 5.67884 20.081 5.68464 21.3954 5.68464V5.68399ZM10.762 18.0539C11.9349 18.0539 13.1084 18.0552 14.2813 18.0513C14.3837 18.0513 14.5233 18.1086 14.5813 18.001C14.6309 17.9089 14.5063 17.8367 14.4574 17.7581C13.7399 16.6081 13.7268 15.4561 14.4365 14.2976C14.49 14.21 14.6237 14.1288 14.5709 14.0251C14.5168 13.9188 14.3733 13.9774 14.2702 13.9774C11.9786 13.9742 9.68638 13.9735 7.39479 13.9774C7.16844 13.9774 6.93817 14.0012 6.71639 14.0444C5.70204 14.2403 4.98123 15.2686 5.14365 16.273C5.32174 17.3728 6.12669 18.0416 7.30804 18.05C8.45937 18.0584 9.61071 18.0519 10.762 18.0519V18.0539ZM20.0099 15.1938C20.1795 15.5952 20.3021 15.9895 20.2063 16.4161C20.0712 17.014 19.5663 17.4927 18.9884 17.5732C18.3165 17.6673 17.6994 17.3838 17.4046 16.7988C17.0177 16.0308 16.659 15.2486 16.2924 14.4709C16.2134 14.3041 16.1417 14.1874 15.9349 14.3343C15.3119 14.7763 14.9793 15.3813 15.0412 16.1261C15.1371 17.2846 15.9571 18.039 17.1358 18.0474C19.9708 18.0674 22.8057 18.0526 25.6407 18.0584C25.8775 18.0584 25.9381 17.9637 25.9336 17.7504C25.9231 17.2891 25.9186 16.8271 25.9349 16.3664C25.944 16.1132 25.856 16.0308 25.5989 16.034C24.5239 16.0449 23.4476 16.0114 22.3732 16.0469C21.4613 16.0765 20.6446 15.9212 20.0099 15.1945V15.1938ZM16.5722 9.42543C16.6818 9.36744 16.7294 9.34747 16.7718 9.31912C17.3478 8.93512 17.9786 8.76245 18.6772 8.77211C19.8827 8.78886 21.0882 8.78693 22.2937 8.7734C23.2206 8.76309 24.1397 8.78435 25.0256 9.09748C25.1841 9.15354 25.2565 9.1123 25.2937 8.93898C25.4293 8.2992 25.5787 7.66263 25.7281 7.02542C25.7718 6.83858 25.7359 6.75546 25.5135 6.7561C22.8201 6.76255 20.1267 6.7619 17.4333 6.75739C17.2291 6.75739 17.1417 6.83986 17.1038 7.02735C17.0184 7.44744 16.9212 7.86559 16.8279 8.28438C16.7477 8.64454 16.6668 9.0047 16.5729 9.42543H16.5722ZM21.0053 9.85324C20.1149 9.85324 19.3974 9.841 18.6811 9.85582C16.9982 9.88997 16.0654 11.3712 16.7731 12.875C17.2676 13.9252 17.7653 14.9741 18.2591 16.025C18.4457 16.4225 18.6524 16.561 18.9016 16.4425C19.1319 16.3329 19.1619 16.1042 18.9806 15.7054C18.5892 14.8446 18.1854 13.989 17.7979 13.1263C17.2826 11.9794 18.0223 10.8442 19.2845 10.8397C20.3276 10.8358 21.3706 10.8609 22.413 10.8332C23.7888 10.7971 24.9682 11.2295 25.9675 12.1611C26.2571 12.4311 26.5813 12.4349 26.807 12.1972C27.0314 11.9607 27.0066 11.6354 26.7235 11.3699C25.9571 10.6515 25.0588 10.1754 24.0177 9.97502C22.9623 9.77206 21.8951 9.8861 21.0066 9.85389L21.0053 9.85324ZM16.1997 24.2849C15.7438 24.2849 15.2871 24.2868 14.8312 24.2836C14.6877 24.2823 14.5513 24.3029 14.4163 24.3506C12.5761 25 10.7346 25.6476 8.89512 26.2989C8.50634 26.4368 8.18083 26.6597 7.96883 27.0218C7.81488 27.2847 7.83837 27.3105 8.13974 27.3343C9.18735 27.4187 10.1815 27.2119 11.1704 26.8814C12.3524 26.4858 13.5533 26.1462 14.747 25.7848C15.3074 25.6153 15.5468 25.7506 15.7007 26.3163C15.7151 26.3679 15.7255 26.4207 15.7386 26.4729C15.9656 27.3756 15.9656 27.371 16.9036 27.3356C17.0856 27.3285 17.1795 27.2712 17.2232 27.0934C17.4333 26.239 17.6485 25.386 17.8703 24.5349C17.9218 24.3377 17.8507 24.2829 17.6661 24.2842C17.1776 24.2881 16.6883 24.2855 16.1997 24.2855V24.2849ZM28.8749 2.96764C28.8912 2.64871 28.8553 2.31883 28.8038 1.98959C28.7288 1.51023 28.4593 1.2145 28.0106 1.12752C27.6068 1.04892 27.2095 1.23898 26.9858 1.64683C26.5513 2.43931 26.353 3.27754 26.4717 4.18665C26.5441 4.73623 26.7353 5.24716 26.9121 5.76389C27.0092 6.04802 27.0321 6.31863 26.9603 6.61372C26.7809 7.35337 26.6616 8.10977 26.4437 8.83783C26.2747 9.40288 26.3158 9.79848 26.8997 10.0897C27.2278 10.2534 27.2121 10.301 27.3047 9.93571C27.7679 8.10526 28.2291 6.27481 28.6935 4.44501C28.8155 3.96436 28.8931 3.47921 28.8742 2.96764H28.8749ZM21.1352 11.9137C20.6974 11.9137 20.3719 11.9118 20.0458 11.9137C19.7633 11.9156 19.4789 11.9034 19.1997 11.933C18.9512 11.9595 18.7555 12.1154 18.7522 12.3699C18.749 12.6134 18.807 12.8827 19.1051 12.9568C19.8638 13.145 20.3785 13.6166 20.749 14.2744C20.9571 14.6442 21.278 14.8652 21.7072 14.92C22.3896 15.007 23.0745 14.9419 23.7581 14.958C23.9094 14.9612 23.9577 14.8691 23.9864 14.7383C24.141 14.036 24.2969 13.3344 24.4639 12.6353C24.5017 12.4768 24.4522 12.3918 24.3165 12.3261C24.0614 12.203 23.7992 12.1038 23.5233 12.0381C22.6981 11.8415 21.8573 11.9395 21.1352 11.9131V11.9137ZM10.6675 9.8526C9.77444 9.8526 9.05754 9.83907 8.3413 9.85518C6.90425 9.88804 6.02102 10.8912 6.20693 12.2591C6.28325 12.8209 6.39479 12.9188 6.93883 12.9014C6.96035 12.9008 6.98253 12.8982 7.00406 12.9008C7.24019 12.9304 7.31391 12.8608 7.29107 12.6005C7.19975 11.5684 7.88794 10.841 8.93165 10.8384C10.0941 10.8352 11.2558 10.8403 12.4183 10.8377C13.0484 10.8364 13.6401 10.9911 14.218 11.2288C14.4535 11.3261 14.7059 11.6218 14.8997 11.5078C15.098 11.3912 15.038 11.0175 15.1241 10.7662C15.1926 10.5665 15.1162 10.4705 14.9401 10.3932C14.522 10.2095 14.0967 10.0549 13.6446 9.97244C12.5996 9.78173 11.5435 9.87901 10.6681 9.85324L10.6675 9.8526ZM24.2056 27.3305C24.5578 27.3305 24.8077 27.326 25.0575 27.3317C25.2624 27.3363 25.2754 27.2486 25.1939 27.0946C25.0034 26.7358 24.7111 26.489 24.3341 26.3428C24.0308 26.2248 23.7222 26.1224 23.4156 26.0135C22.0758 25.54 20.7333 25.0748 19.3987 24.5883C19.1032 24.4807 18.9871 24.5439 18.9408 24.8415C18.9029 25.0844 18.8384 25.3254 18.7633 25.5599C18.6864 25.7996 18.7659 25.9059 19.0053 25.9768C20.2226 26.3363 21.4385 26.7003 22.6479 27.0837C23.1912 27.2557 23.7314 27.3962 24.2056 27.3298V27.3305ZM11.6022 12.8995C12.5239 12.8995 13.4463 12.9001 14.368 12.8982C14.4496 12.8982 14.5657 12.9369 14.599 12.8363C14.6303 12.7416 14.5246 12.6894 14.4581 12.6411C13.959 12.2803 13.4085 12.0355 12.7901 11.9736C11.5135 11.8467 10.2324 11.9401 8.95383 11.9189C8.86968 11.9176 8.78096 11.9414 8.70138 11.9717C8.42806 12.0774 8.37783 12.2938 8.42349 12.5509C8.4672 12.7958 8.59375 12.9098 8.86837 12.9053C9.779 12.8905 10.6903 12.8995 11.6016 12.8995H11.6022ZM8.75487 28.4084C8.5383 28.4084 8.32108 28.4187 8.10582 28.4058C7.8886 28.3929 7.79727 28.4921 7.75226 28.6906C7.67007 29.0482 7.81162 29.4566 8.11951 29.6873C8.44437 29.9308 8.90099 29.9566 9.24932 29.7511C9.5944 29.5475 9.77835 29.15 9.72356 28.7692C9.68768 28.5205 9.59244 28.3749 9.30673 28.4051C9.12473 28.4245 8.93882 28.409 8.75487 28.409V28.4084ZM24.4046 28.4084C24.188 28.4084 23.9714 28.4161 23.7555 28.4058C23.5592 28.3961 23.462 28.476 23.4137 28.6648C23.323 29.0211 23.4528 29.4328 23.7542 29.6705C24.0706 29.9205 24.5305 29.9586 24.8827 29.7633C25.2304 29.5707 25.4287 29.1699 25.385 28.793C25.3524 28.5108 25.2343 28.3646 24.9238 28.4039C24.7535 28.4251 24.5781 28.4077 24.4046 28.4077V28.4084ZM17.0588 22.2173C17.0588 22.0994 17.0608 21.9809 17.0588 21.8629C17.0438 21.102 17.1926 21.2 16.3583 21.1916C16.3367 21.1916 16.3145 21.1935 16.293 21.1916C16.126 21.1819 16.0601 21.2631 16.0608 21.4242C16.0647 21.9396 16.0621 22.4551 16.0621 22.9705C16.0621 23.0845 16.0797 23.1735 16.2239 23.2057C16.8697 23.35 17.0588 23.2095 17.0588 22.571C17.0588 22.4531 17.0588 22.3346 17.0588 22.2167V22.2173ZM25.1188 14.777C25.0804 14.9361 25.1723 14.9638 25.3015 14.9606C25.4417 14.9574 25.5839 14.9464 25.7222 14.9632C25.9708 14.9928 26.0712 14.873 26.1169 14.6507C26.173 14.3794 26.2389 14.1088 26.3211 13.844C26.3961 13.6005 26.4019 13.4388 26.068 13.4304C25.9251 13.4272 25.7809 13.344 25.644 13.2828C25.5305 13.2319 25.4698 13.2332 25.4398 13.373C25.338 13.8421 25.2271 14.3086 25.1195 14.7763L25.1188 14.777ZM17.0588 29.1835C17.0367 28.2943 17.2239 28.4213 16.3335 28.4058C16.1423 28.4026 16.0536 28.4657 16.0588 28.6648C16.068 28.9869 16.0699 29.3091 16.0582 29.6312C16.0504 29.8426 16.1365 29.9141 16.3459 29.9109C17.1952 29.8967 17.0425 29.9953 17.0582 29.2479C17.0582 29.2266 17.0582 29.2047 17.0582 29.1835H17.0588Z" fill="#BBBBBB"/>
</g>
<defs>
<filter id="filter0_d_358_2001" x="0" y="0" width="34" height="39" filterUnits="userSpaceOnUse" color-interpolation-filters="sRGB">
<feFlood flood-opacity="0" result="BackgroundImageFix"/>
<feColorMatrix in="SourceAlpha" type="matrix" values="0 0 0 0 0 0 0 0 0 0 0 0 0 0 0 0 0 0 127 0" result="hardAlpha"/>
<feOffset dy="4"/>
<feGaussianBlur stdDeviation="2"/>
<feComposite in2="hardAlpha" operator="out"/>
<feColorMatrix type="matrix" values="0 0 0 0 0 0 0 0 0 0 0 0 0 0 0 0 0 0 0.25 0"/>
<feBlend mode="normal" in2="BackgroundImageFix" result="effect1_dropShadow_358_2001"/>
<feBlend mode="normal" in="SourceGraphic" in2="effect1_dropShadow_358_2001" result="shape"/>
</filter>
</defs>
</svg>
