<svg width="30" height="30" viewBox="0 0 30 30" fill="none" xmlns="http://www.w3.org/2000/svg">
<path d="M24.2451 6.83167C23.8492 6.39011 23.2829 6.13591 22.6902 6.13591H7.97368L7.52891 4.79929C7.08057 3.45669 5.83094 2.55566 4.41795 2.55566H4.00538C3.51173 2.55566 3.11108 2.95665 3.11108 3.45073C3.11108 3.9448 3.51173 4.34579 4.00538 4.34579H4.41795C5.06065 4.34579 5.62943 4.75632 5.83213 5.36616L6.45218 7.22789L7.39894 15.7465C7.58257 17.4113 8.98364 18.6668 10.6566 18.6668H20.6965C22.3695 18.6668 23.7705 17.4113 23.9542 15.7477L24.765 8.45472C24.8306 7.86517 24.641 7.27324 24.2451 6.83167ZM22.1775 15.5508C22.094 16.3074 21.4573 16.8778 20.6965 16.8778H10.6566C9.89582 16.8778 9.25908 16.3074 9.17561 15.5508L8.32901 7.92723H22.6914C22.8071 7.92723 22.8798 7.98929 22.9144 8.02628C22.9466 8.06328 23.0014 8.14324 22.9883 8.2578L22.1775 15.5508Z" fill="white"/>
<path d="M10.2408 20.8889C8.76101 20.8889 7.55566 22.01 7.55566 23.3889C7.55566 24.7678 8.76101 25.8889 10.2408 25.8889C11.7207 25.8889 12.926 24.7678 12.926 23.3889C12.926 22.01 11.7207 20.8889 10.2408 20.8889ZM10.2408 24.2222C9.74797 24.2222 9.34579 23.8489 9.34579 23.3889C9.34579 22.9289 9.74797 22.5556 10.2408 22.5556C10.7337 22.5556 11.1359 22.9289 11.1359 23.3889C11.1359 23.8489 10.7337 24.2222 10.2408 24.2222ZM20.9816 20.8889C19.5018 20.8889 18.2964 22.01 18.2964 23.3889C18.2964 24.7678 19.5018 25.8889 20.9816 25.8889C22.4614 25.8889 23.6668 24.7678 23.6668 23.3889C23.6668 22.01 22.4614 20.8889 20.9816 20.8889ZM20.9816 24.2222C20.4887 24.2222 20.0865 23.8489 20.0865 23.3889C20.0865 22.9289 20.4887 22.5556 20.9816 22.5556C21.4745 22.5556 21.8767 22.9289 21.8767 23.3889C21.8767 23.8489 21.4745 24.2222 20.9816 24.2222Z" fill="white"/>
</svg>
