<?xml version="1.0" encoding="utf-8"?>
<!-- Generator: Adobe Illustrator 26.0.1, SVG Export Plug-In . SVG Version: 6.00 Build 0)  -->
<svg version="1.1" id="Capa_1" xmlns="http://www.w3.org/2000/svg" xmlns:xlink="http://www.w3.org/1999/xlink" x="0px" y="0px"
	 viewBox="0 0 55.91 53.93" style="enable-background:new 0 0 55.91 53.93;" xml:space="preserve">
<style type="text/css">
	.st0{fill:none;stroke:#020203;stroke-width:2;stroke-linecap:round;stroke-linejoin:round;stroke-miterlimit:10;}
	.st1{fill:#020203;}
	.st2{font-family:'SegoeUI';}
	.st3{font-size:18.197px;}
</style>
<g>
	<g>
		<g>
			<path class="st0" d="M26.78,23.17h17.41l-3.64,16.41H22.67c-1.64,0-3.13-0.97-3.8-2.47l-4.7-10.59"/>
			<path class="st0" d="M44.19,23.17l0.8-2.56c0.35-1.13,1.4-1.9,2.58-1.9h4.7"/>
			<path class="st0" d="M40.55,39.58l-0.84,3.59c-0.32,1.36-1.53,2.32-2.92,2.32H21.05"/>
			<circle class="st0" cx="23.98" cy="48.77" r="1.63"/>
			<circle class="st0" cx="36.8" cy="48.77" r="1.63"/>
		</g>
		<line class="st0" x1="16.32" y1="31.38" x2="42.37" y2="31.38"/>
		<line class="st0" x1="22.96" y1="26.79" x2="26.44" y2="39.58"/>
		<line class="st0" x1="36.8" y1="23.17" x2="34.62" y2="39.58"/>
	</g>
	<path class="st0" d="M33.8,11.88c0,1.59-0.44,3.07-1.21,4.33c-0.01,0.01-0.01,0.02-0.02,0.03c-0.16,0.23-0.31,0.47-0.48,0.7
		c-4.92,7.01-13.38,13.37-13.38,13.37s-8.43-6.34-13.34-13.33c-0.18-0.25-0.36-0.51-0.53-0.76c-0.01-0.01-0.01-0.02-0.02-0.03
		c-0.75-1.25-1.19-2.72-1.19-4.3c0-1.26,0.28-2.45,0.78-3.52c1.32-2.85,4.22-4.83,7.57-4.83c2.77,0,5.22,1.35,6.74,3.42
		c1.52-2.07,3.97-3.42,6.74-3.42c3.35,0,6.24,1.98,7.57,4.83C33.52,9.43,33.8,10.63,33.8,11.88z"/>
</g>
<text transform="matrix(1 0 0 1 13.1515 23.1739)" class="st1 st2 st3">1</text>
</svg>
