<?xml version="1.0" encoding="utf-8"?>
<!-- Generator: Adobe Illustrator 26.0.1, SVG Export Plug-In . SVG Version: 6.00 Build 0)  -->
<svg version="1.1" xmlns="http://www.w3.org/2000/svg" xmlns:xlink="http://www.w3.org/1999/xlink" x="0px" y="0px"
	 viewBox="0 0 84 84" style="enable-background:new 0 0 84 84;" xml:space="preserve">
<style type="text/css">
	.st0{fill:url(#dark_background_00000057149943206527676800000000598410610788852105_);}
	.st1{fill:#FFFFFF;}
	.st2{fill:#484751;}
	.st3{opacity:0.65;}
	.st4{opacity:0.2;}
	.st5{opacity:0.65;fill:none;stroke:#FFFFFF;stroke-width:2;stroke-miterlimit:10;}
	.st6{opacity:0.65;fill:none;stroke:#FFFFFF;stroke-width:0.7;stroke-miterlimit:10;}
	.st7{opacity:0.76;}
	.st8{fill:none;stroke:#484751;stroke-width:2.6322;stroke-linecap:square;stroke-miterlimit:10;}
	.st9{fill:none;stroke:#484751;stroke-width:2.6322;stroke-miterlimit:10;}
	.st10{fill:none;stroke:#484751;stroke-width:2.632;stroke-linecap:square;stroke-miterlimit:10;}
	.st11{fill:none;stroke:#000000;stroke-width:6;stroke-linecap:square;stroke-miterlimit:10;}
	.st12{stroke:#000000;stroke-width:6;stroke-linecap:square;stroke-miterlimit:10;}
	.st13{fill:none;stroke:#484751;stroke-width:6;stroke-linecap:square;stroke-miterlimit:10;}
</style>
<g id="Design_1_">
	
		<linearGradient id="dark_background_00000160187431868630058130000011627707544580712127_" gradientUnits="userSpaceOnUse" x1="-443.691" y1="818.8268" x2="-1003.691" y2="258.8269">
		<stop  offset="0" style="stop-color:#3D3D44"/>
		<stop  offset="0.3718" style="stop-color:#46464E"/>
		<stop  offset="0.9974" style="stop-color:#5D5D68"/>
	</linearGradient>
	
		<rect id="dark_background" x="-897.69" y="152.83" style="fill:url(#dark_background_00000160187431868630058130000011627707544580712127_);" width="348" height="772"/>
	<rect id="white_backgroung" x="-549.69" y="152.83" class="st1" width="812" height="772"/>
	<g id="Descriptions">
		<g>
			<path class="st2" d="M-443.98,356.12v1.4h-6.22v-1.16l3.17-3.26c0.3-0.3,0.55-0.6,0.73-0.9c0.18-0.29,0.28-0.55,0.28-0.77
				c0-0.3-0.12-0.54-0.36-0.71c-0.24-0.17-0.57-0.26-1-0.26c-0.37,0-0.76,0.09-1.18,0.28c-0.42,0.18-0.81,0.44-1.18,0.77l-0.64-1.24
				c0.5-0.38,1.02-0.68,1.57-0.89c0.55-0.21,1.1-0.32,1.65-0.32c0.55,0,1.04,0.09,1.46,0.26c0.42,0.18,0.75,0.43,0.99,0.75
				c0.24,0.32,0.35,0.7,0.35,1.12c0,0.41-0.14,0.84-0.42,1.3c-0.28,0.45-0.67,0.95-1.18,1.48l-2.14,2.16H-443.98z"/>
			<path class="st2" d="M-436.51,354.16v1.38h-1.21v1.98h-1.49v-1.98h-4.02v-1.19l2.74-5.23h1.55l-2.57,5.04h2.3v-1.94h1.49v1.94
				H-436.51z"/>
			<path class="st2" d="M-431.68,349.12h1.61v3.59h4.19v-3.59h1.61v8.4h-1.61v-3.41h-4.19v3.41h-1.61V349.12z"/>
			<path class="st2" d="M-415.87,349.58c0.68,0.38,1.22,0.89,1.61,1.55c0.39,0.66,0.59,1.38,0.59,2.18c0,0.8-0.2,1.53-0.59,2.19
				c-0.39,0.66-0.93,1.18-1.61,1.57c-0.68,0.38-1.44,0.58-2.27,0.58s-1.59-0.19-2.27-0.58c-0.68-0.38-1.22-0.91-1.61-1.57
				c-0.39-0.66-0.59-1.39-0.59-2.19c0-0.8,0.2-1.53,0.59-2.18c0.39-0.66,0.93-1.17,1.61-1.55c0.68-0.38,1.44-0.56,2.27-0.56
				S-416.55,349.2-415.87,349.58z M-419.54,350.83c-0.44,0.25-0.79,0.6-1.04,1.03c-0.26,0.44-0.38,0.92-0.38,1.45
				c0,0.53,0.13,1.01,0.39,1.45c0.26,0.44,0.61,0.79,1.04,1.04c0.44,0.26,0.91,0.38,1.42,0.38c0.5,0,0.97-0.13,1.4-0.38
				c0.43-0.26,0.77-0.6,1.03-1.04c0.25-0.44,0.38-0.92,0.38-1.45c0-0.53-0.13-1.01-0.38-1.45c-0.25-0.44-0.59-0.78-1.03-1.03
				c-0.43-0.25-0.9-0.38-1.4-0.38C-418.63,350.45-419.1,350.58-419.54,350.83z"/>
			<path class="st2" d="M-409.99,355.62c0.38,0.38,0.88,0.56,1.51,0.56c0.63,0,1.13-0.19,1.49-0.56c0.36-0.38,0.55-0.9,0.55-1.56
				v-4.94h1.61v4.94c0,0.73-0.15,1.36-0.44,1.9c-0.3,0.54-0.72,0.95-1.27,1.24c-0.55,0.29-1.19,0.43-1.94,0.43
				c-0.75,0-1.41-0.14-1.96-0.43c-0.56-0.29-0.98-0.7-1.28-1.24c-0.3-0.54-0.44-1.17-0.44-1.9v-4.94h1.61v4.94
				C-410.56,354.73-410.37,355.25-409.99,355.62z"/>
			<path class="st2" d="M-397.44,357.52l-1.45-2.48c-0.06,0.01-0.16,0.01-0.3,0.01h-1.9v2.47h-1.61v-8.4h3.5
				c1.09,0,1.93,0.25,2.52,0.76c0.59,0.5,0.89,1.22,0.89,2.14c0,0.66-0.14,1.22-0.43,1.68c-0.28,0.46-0.7,0.81-1.24,1.04l1.85,2.78
				H-397.44z M-401.09,353.63h1.9c0.61,0,1.07-0.13,1.39-0.4c0.32-0.26,0.48-0.66,0.48-1.18c0-0.51-0.16-0.9-0.48-1.15
				c-0.32-0.26-0.78-0.38-1.39-0.38h-1.9V353.63z"/>
			<path class="st2" d="M-389.83,350.67c-0.45-0.14-0.85-0.22-1.19-0.22c-0.38,0-0.69,0.07-0.91,0.22c-0.22,0.14-0.34,0.34-0.34,0.6
				c0,0.23,0.08,0.43,0.23,0.58c0.16,0.16,0.35,0.29,0.59,0.38c0.24,0.1,0.56,0.21,0.97,0.33c0.57,0.17,1.03,0.34,1.4,0.5
				c0.36,0.17,0.67,0.42,0.93,0.74c0.26,0.33,0.38,0.76,0.38,1.29c0,0.51-0.14,0.96-0.41,1.34c-0.28,0.38-0.66,0.67-1.14,0.87
				c-0.48,0.2-1.04,0.3-1.66,0.3c-0.66,0-1.3-0.12-1.92-0.37s-1.17-0.57-1.63-0.98l0.67-1.37c0.42,0.39,0.9,0.7,1.43,0.92
				s1.02,0.34,1.48,0.34c0.45,0,0.8-0.09,1.06-0.26c0.26-0.17,0.38-0.41,0.38-0.7c0-0.24-0.08-0.44-0.23-0.59
				c-0.16-0.16-0.35-0.28-0.59-0.38c-0.24-0.1-0.57-0.21-0.98-0.32c-0.57-0.17-1.03-0.33-1.39-0.49c-0.36-0.16-0.67-0.4-0.92-0.73
				c-0.26-0.32-0.38-0.75-0.38-1.28c0-0.49,0.13-0.91,0.39-1.28c0.26-0.36,0.63-0.65,1.1-0.85c0.48-0.2,1.03-0.3,1.65-0.3
				c0.54,0,1.08,0.08,1.61,0.24c0.53,0.16,1.01,0.38,1.42,0.65l-0.65,1.4C-388.93,351.01-389.37,350.81-389.83,350.67z"/>
		</g>
		<g>
			<path class="st2" d="M-303.2,349.12h6.16v1.4h-4.55v2.08h4.08v1.4h-4.08v2.11h4.69v1.4h-6.3V349.12z"/>
			<path class="st2" d="M-295.35,352.86h3.01v1.08h-3.01V352.86z"/>
			<path class="st2" d="M-290.35,349.12h1.84l2.78,5.41l2.76-5.41h1.84v8.4h-1.48v-6.02l-2.62,5.16h-1.03l-2.63-5.16v6.02h-1.46
				V349.12z"/>
			<path class="st2" d="M-272.61,357.52l-0.74-1.78h-4.1l-0.74,1.78h-1.67l3.68-8.4h1.67l3.64,8.4H-272.61z M-276.89,354.36h2.95
				l-1.46-3.53L-276.89,354.36z"/>
			<path class="st2" d="M-269.63,349.12h1.61v8.4h-1.61V349.12z"/>
			<path class="st2" d="M-265.71,349.12h1.61v6.95h3.62v1.45h-5.23V349.12z"/>
		</g>
		<g>
			<path class="st2" d="M-170.38,350.67c-0.45-0.14-0.85-0.22-1.19-0.22c-0.38,0-0.69,0.07-0.91,0.22c-0.22,0.14-0.34,0.34-0.34,0.6
				c0,0.23,0.08,0.43,0.23,0.58c0.16,0.16,0.35,0.29,0.59,0.38c0.24,0.1,0.56,0.21,0.97,0.33c0.57,0.17,1.03,0.34,1.4,0.5
				c0.36,0.17,0.67,0.42,0.93,0.74c0.26,0.33,0.38,0.76,0.38,1.29c0,0.51-0.14,0.96-0.41,1.34c-0.28,0.38-0.66,0.67-1.14,0.87
				c-0.48,0.2-1.04,0.3-1.66,0.3c-0.66,0-1.3-0.12-1.92-0.37c-0.62-0.24-1.17-0.57-1.63-0.98l0.67-1.37c0.42,0.39,0.9,0.7,1.43,0.92
				c0.53,0.22,1.02,0.34,1.48,0.34c0.45,0,0.8-0.09,1.06-0.26c0.26-0.17,0.38-0.41,0.38-0.7c0-0.24-0.08-0.44-0.23-0.59
				c-0.16-0.16-0.35-0.28-0.59-0.38c-0.24-0.1-0.57-0.21-0.98-0.32c-0.57-0.17-1.03-0.33-1.39-0.49c-0.36-0.16-0.67-0.4-0.92-0.73
				c-0.26-0.32-0.38-0.75-0.38-1.28c0-0.49,0.13-0.91,0.39-1.28c0.26-0.36,0.63-0.65,1.1-0.85c0.48-0.2,1.03-0.3,1.65-0.3
				c0.54,0,1.08,0.08,1.61,0.24c0.53,0.16,1.01,0.38,1.42,0.65l-0.65,1.4C-169.49,351.01-169.93,350.81-170.38,350.67z"/>
			<path class="st2" d="M-164.54,355.62c0.38,0.38,0.88,0.56,1.51,0.56c0.63,0,1.13-0.19,1.49-0.56c0.36-0.38,0.55-0.9,0.55-1.56
				v-4.94h1.61v4.94c0,0.73-0.15,1.36-0.44,1.9c-0.3,0.54-0.72,0.95-1.27,1.24c-0.55,0.29-1.19,0.43-1.94,0.43
				c-0.75,0-1.41-0.14-1.96-0.43c-0.56-0.29-0.98-0.7-1.28-1.24c-0.3-0.54-0.44-1.17-0.44-1.9v-4.94h1.61v4.94
				C-165.11,354.73-164.92,355.25-164.54,355.62z"/>
			<path class="st2" d="M-151.35,349.88c0.58,0.5,0.87,1.22,0.87,2.14c0,0.96-0.29,1.71-0.87,2.24c-0.58,0.53-1.4,0.8-2.45,0.8
				h-1.84v2.47h-1.61v-8.4h3.44C-152.75,349.12-151.93,349.37-151.35,349.88z M-152.49,353.24c0.32-0.26,0.49-0.66,0.49-1.18
				c0-0.51-0.16-0.9-0.49-1.15c-0.32-0.26-0.79-0.38-1.4-0.38h-1.75v3.11h1.75C-153.28,353.63-152.82,353.5-152.49,353.24z"/>
			<path class="st2" d="M-143.01,349.88c0.58,0.5,0.87,1.22,0.87,2.14c0,0.96-0.29,1.71-0.87,2.24c-0.58,0.53-1.4,0.8-2.45,0.8
				h-1.84v2.47h-1.61v-8.4h3.44C-144.41,349.12-143.59,349.37-143.01,349.88z M-144.15,353.24c0.32-0.26,0.49-0.66,0.49-1.18
				c0-0.51-0.16-0.9-0.49-1.15c-0.32-0.26-0.79-0.38-1.4-0.38h-1.75v3.11h1.75C-144.94,353.63-144.47,353.5-144.15,353.24z"/>
			<path class="st2" d="M-134.48,349.58c0.68,0.38,1.22,0.89,1.61,1.55c0.39,0.66,0.59,1.38,0.59,2.18c0,0.8-0.2,1.53-0.59,2.19
				c-0.39,0.66-0.93,1.18-1.61,1.57c-0.68,0.38-1.44,0.58-2.27,0.58c-0.83,0-1.59-0.19-2.27-0.58c-0.68-0.38-1.22-0.91-1.61-1.57
				c-0.39-0.66-0.59-1.39-0.59-2.19c0-0.8,0.2-1.53,0.59-2.18c0.39-0.66,0.93-1.17,1.61-1.55c0.68-0.38,1.44-0.56,2.27-0.56
				C-135.92,349.01-135.16,349.2-134.48,349.58z M-138.16,350.83c-0.44,0.25-0.79,0.6-1.04,1.03c-0.26,0.44-0.38,0.92-0.38,1.45
				c0,0.53,0.13,1.01,0.39,1.45c0.26,0.44,0.61,0.79,1.04,1.04c0.44,0.26,0.91,0.38,1.42,0.38c0.5,0,0.97-0.13,1.4-0.38
				c0.43-0.26,0.77-0.6,1.03-1.04c0.25-0.44,0.38-0.92,0.38-1.45c0-0.53-0.13-1.01-0.38-1.45c-0.25-0.44-0.59-0.78-1.03-1.03
				c-0.43-0.25-0.9-0.38-1.4-0.38C-137.24,350.45-137.72,350.58-138.16,350.83z"/>
			<path class="st2" d="M-125.36,357.52l-1.45-2.48c-0.06,0.01-0.16,0.01-0.3,0.01h-1.9v2.47h-1.61v-8.4h3.5
				c1.09,0,1.93,0.25,2.52,0.76c0.59,0.5,0.89,1.22,0.89,2.14c0,0.66-0.14,1.22-0.43,1.68c-0.28,0.46-0.7,0.81-1.24,1.04l1.85,2.78
				H-125.36z M-129.01,353.63h1.9c0.61,0,1.07-0.13,1.39-0.4c0.32-0.26,0.48-0.66,0.48-1.18c0-0.51-0.16-0.9-0.48-1.15
				c-0.32-0.26-0.78-0.38-1.39-0.38h-1.9V353.63z"/>
			<path class="st2" d="M-122.64,349.12h6.85v1.43h-2.62v6.97h-1.62v-6.97h-2.62V349.12z"/>
		</g>
		<g>
			<path class="st2" d="M-29.89,350.67c-0.45-0.14-0.85-0.22-1.19-0.22c-0.38,0-0.69,0.07-0.91,0.22c-0.22,0.14-0.34,0.34-0.34,0.6
				c0,0.23,0.08,0.43,0.23,0.58c0.16,0.16,0.35,0.29,0.59,0.38c0.24,0.1,0.56,0.21,0.97,0.33c0.57,0.17,1.03,0.34,1.4,0.5
				c0.36,0.17,0.67,0.42,0.93,0.74c0.26,0.33,0.38,0.76,0.38,1.29c0,0.51-0.14,0.96-0.41,1.34c-0.28,0.38-0.66,0.67-1.14,0.87
				c-0.48,0.2-1.04,0.3-1.66,0.3c-0.66,0-1.3-0.12-1.92-0.37s-1.17-0.57-1.63-0.98l0.67-1.37c0.42,0.39,0.9,0.7,1.43,0.92
				c0.53,0.22,1.02,0.34,1.48,0.34c0.45,0,0.8-0.09,1.06-0.26c0.26-0.17,0.38-0.41,0.38-0.7c0-0.24-0.08-0.44-0.23-0.59
				c-0.16-0.16-0.35-0.28-0.59-0.38c-0.24-0.1-0.57-0.21-0.98-0.32c-0.57-0.17-1.03-0.33-1.39-0.49c-0.36-0.16-0.67-0.4-0.92-0.73
				c-0.26-0.32-0.38-0.75-0.38-1.28c0-0.49,0.13-0.91,0.39-1.28c0.26-0.36,0.63-0.65,1.1-0.85c0.48-0.2,1.03-0.3,1.65-0.3
				c0.54,0,1.08,0.08,1.61,0.24c0.53,0.16,1.01,0.38,1.42,0.65l-0.65,1.4C-28.99,351.01-29.44,350.81-29.89,350.67z"/>
			<path class="st2" d="M-26.07,349.12h6.16v1.4h-4.55v2.08h4.08v1.4h-4.08v2.11h4.69v1.4h-6.3V349.12z"/>
			<path class="st2" d="M-11.68,357.52l-0.74-1.78h-4.1l-0.74,1.78h-1.67l3.68-8.4h1.67l3.64,8.4H-11.68z M-15.95,354.36H-13
				l-1.46-3.53L-15.95,354.36z"/>
			<path class="st2" d="M-3.43,357.52l-1.45-2.48c-0.06,0.01-0.16,0.01-0.3,0.01h-1.9v2.47h-1.61v-8.4h3.5
				c1.09,0,1.93,0.25,2.52,0.76c0.59,0.5,0.89,1.22,0.89,2.14c0,0.66-0.14,1.22-0.43,1.68c-0.28,0.46-0.7,0.81-1.24,1.04l1.85,2.78
				H-3.43z M-7.08,353.63h1.9c0.61,0,1.07-0.13,1.39-0.4c0.32-0.26,0.48-0.66,0.48-1.18c0-0.51-0.16-0.9-0.48-1.15
				c-0.32-0.26-0.78-0.38-1.39-0.38h-1.9V353.63z"/>
			<path class="st2" d="M5.26,350.74c-0.4-0.19-0.81-0.29-1.23-0.29c-0.52,0-1,0.12-1.43,0.37c-0.43,0.25-0.77,0.59-1.02,1.03
				c-0.25,0.44-0.37,0.91-0.37,1.43c0,0.52,0.12,1,0.37,1.43c0.25,0.44,0.59,0.78,1.02,1.03c0.43,0.25,0.91,0.38,1.43,0.38
				c0.4,0,0.8-0.09,1.21-0.26c0.4-0.18,0.76-0.42,1.07-0.73l0.95,1.06c-0.44,0.45-0.95,0.8-1.54,1.06s-1.18,0.39-1.78,0.39
				c-0.81,0-1.55-0.19-2.22-0.58c-0.67-0.38-1.2-0.91-1.58-1.57c-0.38-0.66-0.58-1.39-0.58-2.19c0-0.8,0.2-1.53,0.59-2.18
				c0.39-0.66,0.93-1.17,1.6-1.55c0.68-0.38,1.43-0.56,2.25-0.56c0.6,0,1.19,0.12,1.76,0.36c0.58,0.24,1.07,0.57,1.48,1l-0.94,1.18
				C6.01,351.2,5.66,350.93,5.26,350.74z"/>
			<path class="st2" d="M8.82,349.12h1.61v3.59h4.19v-3.59h1.61v8.4h-1.61v-3.41h-4.19v3.41H8.82V349.12z"/>
		</g>
		<g>
			<path class="st2" d="M90.3,350.74c-0.4-0.19-0.81-0.29-1.23-0.29c-0.52,0-1,0.12-1.43,0.37c-0.43,0.25-0.77,0.59-1.02,1.03
				c-0.25,0.44-0.37,0.91-0.37,1.43c0,0.52,0.12,1,0.37,1.43c0.25,0.44,0.59,0.78,1.02,1.03c0.43,0.25,0.91,0.38,1.43,0.38
				c0.4,0,0.8-0.09,1.21-0.26c0.4-0.18,0.76-0.42,1.07-0.73l0.95,1.06c-0.44,0.45-0.95,0.8-1.54,1.06s-1.18,0.39-1.78,0.39
				c-0.81,0-1.55-0.19-2.22-0.58c-0.67-0.38-1.2-0.91-1.58-1.57c-0.38-0.66-0.58-1.39-0.58-2.19c0-0.8,0.2-1.53,0.59-2.18
				c0.39-0.66,0.93-1.17,1.6-1.55c0.68-0.38,1.43-0.56,2.25-0.56c0.6,0,1.19,0.12,1.76,0.36c0.58,0.24,1.07,0.57,1.48,1l-0.94,1.18
				C91.05,351.2,90.7,350.93,90.3,350.74z"/>
			<path class="st2" d="M93.86,349.12h1.61v3.59h4.19v-3.59h1.61v8.4h-1.61v-3.41h-4.19v3.41h-1.61V349.12z"/>
			<path class="st2" d="M109.79,357.52l-0.74-1.78h-4.1l-0.74,1.78h-1.67l3.68-8.4h1.67l3.64,8.4H109.79z M105.52,354.36h2.95
				l-1.46-3.53L105.52,354.36z"/>
			<path class="st2" d="M110.99,349.12h6.85v1.43h-2.62v6.97h-1.62v-6.97h-2.62V349.12z"/>
			<path class="st2" d="M128.26,349.68c0.52,0.38,0.77,0.89,0.77,1.54c0,0.46-0.13,0.86-0.39,1.19c-0.26,0.33-0.62,0.55-1.07,0.67
				c0.56,0.1,1,0.34,1.31,0.72c0.32,0.38,0.47,0.84,0.47,1.4c0,0.72-0.28,1.29-0.83,1.7c-0.56,0.41-1.31,0.62-2.27,0.62h-3.84v-8.4
				h3.73C127.03,349.12,127.74,349.31,128.26,349.68z M127.03,352.27c0.24-0.18,0.35-0.44,0.35-0.77c0-0.32-0.12-0.57-0.35-0.74
				c-0.24-0.18-0.56-0.26-0.98-0.25h-2.04v2.04h2.04C126.47,352.55,126.8,352.46,127.03,352.27z M127.25,355.84
				c0.29-0.2,0.43-0.48,0.43-0.84c0-0.34-0.14-0.61-0.43-0.81c-0.29-0.2-0.69-0.29-1.2-0.28h-2.04v2.22h2.04
				C126.57,356.14,126.97,356.04,127.25,355.84z"/>
			<path class="st2" d="M133.17,355.62c0.38,0.38,0.88,0.56,1.51,0.56c0.63,0,1.13-0.19,1.49-0.56c0.36-0.38,0.55-0.9,0.55-1.56
				v-4.94h1.61v4.94c0,0.73-0.15,1.36-0.44,1.9c-0.3,0.54-0.72,0.95-1.27,1.24c-0.55,0.29-1.19,0.43-1.94,0.43
				c-0.75,0-1.41-0.14-1.96-0.43c-0.56-0.29-0.98-0.7-1.28-1.24c-0.3-0.54-0.44-1.17-0.44-1.9v-4.94h1.61v4.94
				C132.61,354.73,132.79,355.25,133.17,355.62z"/>
			<path class="st2" d="M146.32,349.68c0.52,0.38,0.77,0.89,0.77,1.54c0,0.46-0.13,0.86-0.39,1.19c-0.26,0.33-0.62,0.55-1.07,0.67
				c0.56,0.1,1,0.34,1.31,0.72c0.32,0.38,0.47,0.84,0.47,1.4c0,0.72-0.28,1.29-0.83,1.7c-0.56,0.41-1.31,0.62-2.27,0.62h-3.84v-8.4
				h3.73C145.09,349.12,145.8,349.31,146.32,349.68z M145.09,352.27c0.24-0.18,0.35-0.44,0.35-0.77c0-0.32-0.12-0.57-0.35-0.74
				c-0.24-0.18-0.56-0.26-0.98-0.25h-2.04v2.04h2.04C144.53,352.55,144.86,352.46,145.09,352.27z M145.31,355.84
				c0.29-0.2,0.43-0.48,0.43-0.84c0-0.34-0.14-0.61-0.43-0.81c-0.29-0.2-0.69-0.29-1.2-0.28h-2.04v2.22h2.04
				C144.63,356.14,145.03,356.04,145.31,355.84z"/>
			<path class="st2" d="M155.06,349.68c0.52,0.38,0.77,0.89,0.77,1.54c0,0.46-0.13,0.86-0.39,1.19c-0.26,0.33-0.62,0.55-1.07,0.67
				c0.56,0.1,1,0.34,1.31,0.72c0.32,0.38,0.47,0.84,0.47,1.4c0,0.72-0.28,1.29-0.83,1.7c-0.56,0.41-1.31,0.62-2.27,0.62h-3.84v-8.4
				h3.73C153.84,349.12,154.55,349.31,155.06,349.68z M153.84,352.27c0.24-0.18,0.35-0.44,0.35-0.77c0-0.32-0.12-0.57-0.35-0.74
				c-0.24-0.18-0.56-0.26-0.98-0.25h-2.04v2.04h2.04C153.28,352.55,153.6,352.46,153.84,352.27z M154.06,355.84
				c0.29-0.2,0.43-0.48,0.43-0.84c0-0.34-0.14-0.61-0.43-0.81c-0.29-0.2-0.69-0.29-1.2-0.28h-2.04v2.22h2.04
				C153.37,356.14,153.77,356.04,154.06,355.84z"/>
			<path class="st2" d="M157.96,349.12h1.61v6.95h3.62v1.45h-5.23V349.12z"/>
			<path class="st2" d="M164.69,349.12h6.16v1.4h-4.55v2.08h4.08v1.4h-4.08v2.11h4.69v1.4h-6.3V349.12z"/>
		</g>
		<g>
			<path class="st2" d="M-447.66,506.74c-0.4-0.19-0.81-0.29-1.23-0.29c-0.52,0-1,0.12-1.43,0.37c-0.43,0.25-0.77,0.59-1.02,1.03
				c-0.25,0.44-0.37,0.91-0.37,1.43c0,0.52,0.12,1,0.37,1.43c0.25,0.44,0.59,0.78,1.02,1.03c0.43,0.25,0.91,0.38,1.43,0.38
				c0.4,0,0.8-0.09,1.21-0.26c0.4-0.18,0.76-0.42,1.07-0.73l0.95,1.06c-0.44,0.45-0.95,0.8-1.54,1.06
				c-0.58,0.26-1.18,0.39-1.78,0.39c-0.81,0-1.55-0.19-2.22-0.58c-0.67-0.38-1.2-0.91-1.58-1.57c-0.38-0.66-0.58-1.39-0.58-2.19
				c0-0.8,0.2-1.53,0.59-2.18c0.39-0.66,0.93-1.17,1.6-1.55c0.68-0.38,1.43-0.56,2.25-0.56c0.6,0,1.19,0.12,1.76,0.36
				c0.58,0.24,1.07,0.57,1.48,1l-0.94,1.18C-446.91,507.2-447.26,506.93-447.66,506.74z"/>
			<path class="st2" d="M-437.96,513.52l-0.74-1.78h-4.1l-0.74,1.78h-1.67l3.68-8.4h1.67l3.64,8.4H-437.96z M-442.23,510.36h2.95
				l-1.46-3.53L-442.23,510.36z"/>
			<path class="st2" d="M-434.97,505.12h1.61v6.95h3.62v1.45h-5.23V505.12z"/>
			<path class="st2" d="M-428.24,505.12h6.16v1.4h-4.55v2.08h4.08v1.4h-4.08v2.11h4.69v1.4h-6.3V505.12z"/>
			<path class="st2" d="M-414.21,505.12h1.56v8.4h-1.52l-4.32-5.78v5.78h-1.57v-8.4h1.52l4.33,5.8V505.12z"/>
			<path class="st2" d="M-404.6,505.65c0.66,0.36,1.18,0.85,1.56,1.49c0.38,0.64,0.56,1.36,0.56,2.17c0,0.81-0.19,1.53-0.57,2.17
				c-0.38,0.64-0.91,1.13-1.58,1.49c-0.67,0.36-1.44,0.54-2.29,0.54h-3.43v-8.4h3.49C-406.01,505.12-405.26,505.3-404.6,505.65z
				 M-405.43,511.75c0.41-0.24,0.73-0.56,0.97-0.98c0.23-0.42,0.35-0.9,0.35-1.43c0-0.54-0.12-1.02-0.36-1.45
				c-0.24-0.43-0.57-0.76-0.99-1c-0.42-0.24-0.89-0.35-1.41-0.35h-1.86v5.57h1.92C-406.31,512.1-405.84,511.99-405.43,511.75z"/>
			<path class="st2" d="M-394.83,513.52l-0.74-1.78h-4.1l-0.74,1.78h-1.67l3.68-8.4h1.67l3.64,8.4H-394.83z M-399.1,510.36h2.95
				l-1.46-3.53L-399.1,510.36z"/>
			<path class="st2" d="M-386.59,513.52l-1.45-2.48c-0.06,0.01-0.16,0.01-0.3,0.01h-1.9v2.47h-1.61v-8.4h3.5
				c1.09,0,1.93,0.25,2.52,0.76c0.59,0.5,0.89,1.22,0.89,2.14c0,0.66-0.14,1.22-0.43,1.68c-0.28,0.46-0.7,0.81-1.24,1.04l1.85,2.78
				H-386.59z M-390.23,509.63h1.9c0.61,0,1.07-0.13,1.39-0.4c0.32-0.26,0.48-0.66,0.48-1.18c0-0.51-0.16-0.9-0.48-1.15
				c-0.32-0.26-0.78-0.38-1.39-0.38h-1.9V509.63z"/>
		</g>
		<g>
			<path class="st2" d="M-296.78,505.12h1.84l2.78,5.41l2.76-5.41h1.84v8.4h-1.48v-6.02l-2.62,5.16h-1.03l-2.63-5.16v6.02h-1.46
				V505.12z"/>
			<path class="st2" d="M-279.04,513.52l-0.74-1.78h-4.1l-0.74,1.78h-1.67l3.68-8.4h1.67l3.64,8.4H-279.04z M-283.31,510.36h2.95
				l-1.46-3.53L-283.31,510.36z"/>
			<path class="st2" d="M-276.05,505.12h1.61v8.4h-1.61V505.12z"/>
			<path class="st2" d="M-272.14,505.12h1.61v6.95h3.62v1.45h-5.23V505.12z"/>
		</g>
		<g>
			<path class="st2" d="M-168.59,513.52l-0.74-1.78h-4.1l-0.74,1.78h-1.67l3.68-8.4h1.67l3.64,8.4H-168.59z M-172.87,510.36h2.95
				l-1.46-3.53L-172.87,510.36z"/>
			<path class="st2" d="M-159.86,505.65c0.66,0.36,1.18,0.85,1.56,1.49c0.38,0.64,0.56,1.36,0.56,2.17c0,0.81-0.19,1.53-0.57,2.17
				c-0.38,0.64-0.91,1.13-1.58,1.49c-0.67,0.36-1.44,0.54-2.29,0.54h-3.43v-8.4h3.49C-161.27,505.12-160.52,505.3-159.86,505.65z
				 M-160.69,511.75c0.41-0.24,0.73-0.56,0.97-0.98c0.23-0.42,0.35-0.9,0.35-1.43c0-0.54-0.12-1.02-0.36-1.45
				c-0.24-0.43-0.57-0.76-0.99-1c-0.42-0.24-0.89-0.35-1.41-0.35H-164v5.57h1.92C-161.57,512.1-161.1,511.99-160.69,511.75z"/>
			<path class="st2" d="M-150.34,505.65c0.66,0.36,1.18,0.85,1.56,1.49c0.38,0.64,0.56,1.36,0.56,2.17c0,0.81-0.19,1.53-0.57,2.17
				c-0.38,0.64-0.91,1.13-1.58,1.49c-0.67,0.36-1.44,0.54-2.29,0.54h-3.43v-8.4h3.49C-151.76,505.12-151.01,505.3-150.34,505.65z
				 M-151.18,511.75c0.41-0.24,0.73-0.56,0.97-0.98c0.23-0.42,0.35-0.9,0.35-1.43c0-0.54-0.12-1.02-0.36-1.45
				c-0.24-0.43-0.57-0.76-0.99-1c-0.42-0.24-0.89-0.35-1.41-0.35h-1.86v5.57h1.92C-152.05,512.1-151.59,511.99-151.18,511.75z"/>
			<path class="st2" d="M-141.32,513.52l-1.45-2.48c-0.06,0.01-0.16,0.01-0.3,0.01h-1.9v2.47h-1.61v-8.4h3.5
				c1.09,0,1.93,0.25,2.52,0.76c0.59,0.5,0.89,1.22,0.89,2.14c0,0.66-0.14,1.22-0.43,1.68c-0.28,0.46-0.7,0.81-1.24,1.04l1.85,2.78
				H-141.32z M-144.97,509.63h1.9c0.61,0,1.07-0.13,1.39-0.4c0.32-0.26,0.48-0.66,0.48-1.18c0-0.51-0.16-0.9-0.48-1.15
				c-0.32-0.26-0.78-0.38-1.39-0.38h-1.9V509.63z"/>
			<path class="st2" d="M-137.66,505.12h6.16v1.4h-4.55v2.08h4.08v1.4h-4.08v2.11h4.69v1.4h-6.3V505.12z"/>
			<path class="st2" d="M-125.53,506.67c-0.45-0.14-0.85-0.22-1.19-0.22c-0.38,0-0.69,0.07-0.91,0.22c-0.22,0.14-0.34,0.34-0.34,0.6
				c0,0.23,0.08,0.43,0.23,0.58c0.16,0.16,0.35,0.29,0.59,0.38c0.24,0.1,0.56,0.21,0.97,0.33c0.57,0.17,1.03,0.34,1.4,0.5
				c0.36,0.17,0.67,0.42,0.93,0.74c0.26,0.33,0.38,0.76,0.38,1.29c0,0.51-0.14,0.96-0.41,1.34c-0.28,0.38-0.66,0.67-1.14,0.87
				c-0.48,0.2-1.04,0.3-1.66,0.3c-0.66,0-1.3-0.12-1.92-0.37c-0.62-0.24-1.17-0.57-1.63-0.98l0.67-1.37c0.42,0.39,0.9,0.7,1.43,0.92
				c0.53,0.22,1.02,0.34,1.48,0.34c0.45,0,0.8-0.09,1.06-0.26c0.26-0.17,0.38-0.41,0.38-0.7c0-0.24-0.08-0.44-0.23-0.59
				c-0.16-0.16-0.35-0.28-0.59-0.38c-0.24-0.1-0.57-0.21-0.98-0.32c-0.57-0.17-1.03-0.33-1.39-0.49c-0.36-0.16-0.67-0.4-0.92-0.73
				c-0.26-0.32-0.38-0.75-0.38-1.28c0-0.49,0.13-0.91,0.39-1.28c0.26-0.36,0.63-0.65,1.1-0.85c0.48-0.2,1.03-0.3,1.65-0.3
				c0.54,0,1.08,0.08,1.61,0.24c0.53,0.16,1.01,0.38,1.42,0.65l-0.65,1.4C-124.64,507.01-125.08,506.81-125.53,506.67z"/>
			<path class="st2" d="M-117.76,506.67c-0.45-0.14-0.85-0.22-1.19-0.22c-0.38,0-0.69,0.07-0.91,0.22c-0.22,0.14-0.34,0.34-0.34,0.6
				c0,0.23,0.08,0.43,0.23,0.58c0.16,0.16,0.35,0.29,0.59,0.38c0.24,0.1,0.56,0.21,0.97,0.33c0.57,0.17,1.03,0.34,1.4,0.5
				c0.36,0.17,0.67,0.42,0.93,0.74c0.26,0.33,0.38,0.76,0.38,1.29c0,0.51-0.14,0.96-0.41,1.34c-0.28,0.38-0.66,0.67-1.14,0.87
				c-0.48,0.2-1.04,0.3-1.66,0.3c-0.66,0-1.3-0.12-1.92-0.37c-0.62-0.24-1.17-0.57-1.63-0.98l0.67-1.37c0.42,0.39,0.9,0.7,1.43,0.92
				c0.53,0.22,1.02,0.34,1.48,0.34c0.45,0,0.8-0.09,1.06-0.26c0.26-0.17,0.38-0.41,0.38-0.7c0-0.24-0.08-0.44-0.23-0.59
				c-0.16-0.16-0.35-0.28-0.59-0.38c-0.24-0.1-0.57-0.21-0.98-0.32c-0.57-0.17-1.03-0.33-1.39-0.49c-0.36-0.16-0.67-0.4-0.92-0.73
				c-0.26-0.32-0.38-0.75-0.38-1.28c0-0.49,0.13-0.91,0.39-1.28c0.26-0.36,0.63-0.65,1.1-0.85c0.48-0.2,1.03-0.3,1.65-0.3
				c0.54,0,1.08,0.08,1.61,0.24c0.53,0.16,1.01,0.38,1.42,0.65l-0.65,1.4C-116.86,507.01-117.31,506.81-117.76,506.67z"/>
		</g>
		<g>
			<path class="st2" d="M-24.7,505.88c0.58,0.5,0.87,1.22,0.87,2.14c0,0.96-0.29,1.71-0.87,2.24c-0.58,0.53-1.4,0.8-2.45,0.8h-1.84
				v2.47h-1.61v-8.4h3.44C-26.1,505.12-25.28,505.37-24.7,505.88z M-25.85,509.24c0.32-0.26,0.49-0.66,0.49-1.18
				c0-0.51-0.16-0.9-0.49-1.15c-0.32-0.26-0.79-0.38-1.4-0.38h-1.75v3.11h1.75C-26.64,509.63-26.17,509.5-25.85,509.24z"/>
			<path class="st2" d="M-22.26,505.12h1.61v3.59h4.19v-3.59h1.61v8.4h-1.61v-3.41h-4.19v3.41h-1.61V505.12z"/>
			<path class="st2" d="M-6.45,505.58c0.68,0.38,1.22,0.89,1.61,1.55c0.39,0.66,0.59,1.38,0.59,2.18c0,0.8-0.2,1.53-0.59,2.19
				c-0.39,0.66-0.93,1.18-1.61,1.57c-0.68,0.38-1.44,0.58-2.27,0.58c-0.83,0-1.59-0.19-2.27-0.58c-0.68-0.38-1.22-0.91-1.61-1.57
				c-0.39-0.66-0.59-1.39-0.59-2.19c0-0.8,0.2-1.53,0.59-2.18c0.39-0.66,0.93-1.17,1.61-1.55c0.68-0.38,1.44-0.56,2.27-0.56
				C-7.9,505.01-7.14,505.2-6.45,505.58z M-10.13,506.83c-0.44,0.25-0.79,0.6-1.04,1.03c-0.26,0.44-0.38,0.92-0.38,1.45
				c0,0.53,0.13,1.01,0.39,1.45c0.26,0.44,0.61,0.79,1.04,1.04c0.44,0.26,0.91,0.38,1.42,0.38c0.5,0,0.97-0.13,1.4-0.38
				c0.43-0.26,0.77-0.6,1.03-1.04c0.25-0.44,0.38-0.92,0.38-1.45c0-0.53-0.13-1.01-0.38-1.45c-0.25-0.44-0.59-0.78-1.03-1.03
				c-0.43-0.25-0.9-0.38-1.4-0.38C-9.22,506.45-9.69,506.58-10.13,506.83z"/>
			<path class="st2" d="M3.26,505.12h1.56v8.4H3.3l-4.32-5.78v5.78h-1.57v-8.4h1.52l4.33,5.8V505.12z"/>
			<path class="st2" d="M7.13,505.12h6.16v1.4H8.73v2.08h4.08v1.4H8.73v2.11h4.69v1.4h-6.3V505.12z"/>
		</g>
		<g>
			<path class="st2" d="M104.55,505.12h1.84l2.78,5.41l2.76-5.41h1.84v8.4h-1.48v-6.02l-2.62,5.16h-1.03l-2.63-5.16v6.02h-1.46
				V505.12z"/>
			<path class="st2" d="M122.16,505.58c0.68,0.38,1.22,0.89,1.61,1.55c0.39,0.66,0.59,1.38,0.59,2.18c0,0.8-0.2,1.53-0.59,2.19
				c-0.39,0.66-0.93,1.18-1.61,1.57c-0.68,0.38-1.44,0.58-2.27,0.58c-0.83,0-1.59-0.19-2.27-0.58c-0.68-0.38-1.22-0.91-1.61-1.57
				c-0.39-0.66-0.59-1.39-0.59-2.19c0-0.8,0.2-1.53,0.59-2.18c0.39-0.66,0.93-1.17,1.61-1.55c0.68-0.38,1.44-0.56,2.27-0.56
				C120.72,505.01,121.48,505.2,122.16,505.58z M118.48,506.83c-0.44,0.25-0.79,0.6-1.04,1.03c-0.26,0.44-0.38,0.92-0.38,1.45
				c0,0.53,0.13,1.01,0.39,1.45c0.26,0.44,0.61,0.79,1.04,1.04c0.44,0.26,0.91,0.38,1.42,0.38c0.5,0,0.97-0.13,1.4-0.38
				c0.43-0.26,0.77-0.6,1.03-1.04c0.25-0.44,0.38-0.92,0.38-1.45c0-0.53-0.13-1.01-0.38-1.45c-0.25-0.44-0.59-0.78-1.03-1.03
				c-0.43-0.25-0.9-0.38-1.4-0.38C119.4,506.45,118.92,506.58,118.48,506.83z"/>
			<path class="st2" d="M131.87,505.68c0.52,0.38,0.77,0.89,0.77,1.54c0,0.46-0.13,0.86-0.39,1.19c-0.26,0.33-0.62,0.55-1.07,0.67
				c0.56,0.1,1,0.34,1.31,0.72c0.32,0.38,0.47,0.84,0.47,1.4c0,0.72-0.28,1.29-0.83,1.7c-0.56,0.41-1.31,0.62-2.27,0.62h-3.84v-8.4
				h3.73C130.65,505.12,131.35,505.31,131.87,505.68z M130.64,508.27c0.24-0.18,0.35-0.44,0.35-0.77c0-0.32-0.12-0.57-0.35-0.74
				c-0.24-0.18-0.56-0.26-0.98-0.25h-2.04v2.04h2.04C130.08,508.55,130.41,508.46,130.64,508.27z M130.87,511.84
				c0.29-0.2,0.43-0.48,0.43-0.84c0-0.34-0.14-0.61-0.43-0.81c-0.29-0.2-0.69-0.29-1.2-0.28h-2.04v2.22h2.04
				C130.18,512.14,130.58,512.04,130.87,511.84z"/>
			<path class="st2" d="M134.77,505.12h1.61v8.4h-1.61V505.12z"/>
			<path class="st2" d="M138.68,505.12h1.61v6.95h3.62v1.45h-5.23V505.12z"/>
			<path class="st2" d="M145.41,505.12h6.16v1.4h-4.55v2.08h4.08v1.4h-4.08v2.11h4.69v1.4h-6.3V505.12z"/>
		</g>
		<g>
			<path class="st2" d="M-431.68,661.12h1.67l-2.84,8.4h-1.67l-1.92-6.37l-1.96,6.37h-1.64l-2.83-8.4h1.73l1.98,6.66l1.97-6.66h1.58
				l1.98,6.68L-431.68,661.12z"/>
			<path class="st2" d="M-422.78,661.58c0.68,0.38,1.22,0.89,1.61,1.55c0.39,0.66,0.59,1.38,0.59,2.18c0,0.8-0.2,1.53-0.59,2.19
				c-0.39,0.66-0.93,1.18-1.61,1.57c-0.68,0.38-1.44,0.58-2.27,0.58c-0.83,0-1.59-0.19-2.27-0.58c-0.68-0.38-1.22-0.91-1.61-1.57
				c-0.39-0.66-0.59-1.39-0.59-2.19c0-0.8,0.2-1.53,0.59-2.18c0.39-0.66,0.93-1.17,1.61-1.55c0.68-0.38,1.44-0.56,2.27-0.56
				C-424.22,661.01-423.46,661.2-422.78,661.58z M-426.46,662.83c-0.44,0.25-0.79,0.6-1.04,1.03c-0.26,0.44-0.38,0.92-0.38,1.45
				c0,0.53,0.13,1.01,0.39,1.45c0.26,0.44,0.61,0.79,1.04,1.04c0.44,0.26,0.91,0.38,1.42,0.38c0.5,0,0.97-0.13,1.4-0.38
				c0.43-0.26,0.77-0.6,1.03-1.04c0.25-0.44,0.38-0.92,0.38-1.45c0-0.53-0.13-1.01-0.38-1.45c-0.25-0.44-0.59-0.78-1.03-1.03
				c-0.43-0.25-0.9-0.38-1.4-0.38C-425.54,662.45-426.02,662.58-426.46,662.83z"/>
			<path class="st2" d="M-413.66,669.52l-1.45-2.48c-0.06,0.01-0.16,0.01-0.3,0.01h-1.9v2.47h-1.61v-8.4h3.5
				c1.09,0,1.93,0.25,2.52,0.76c0.59,0.5,0.89,1.22,0.89,2.14c0,0.66-0.14,1.22-0.43,1.68c-0.28,0.46-0.7,0.81-1.24,1.04l1.85,2.78
				H-413.66z M-417.31,665.63h1.9c0.61,0,1.07-0.13,1.39-0.4c0.32-0.26,0.48-0.66,0.48-1.18c0-0.51-0.16-0.9-0.48-1.15
				c-0.32-0.26-0.78-0.38-1.39-0.38h-1.9V665.63z"/>
			<path class="st2" d="M-410,661.12h1.61v6.95h3.62v1.45H-410V661.12z"/>
			<path class="st2" d="M-397.53,661.65c0.66,0.36,1.18,0.85,1.56,1.49c0.38,0.64,0.56,1.36,0.56,2.17c0,0.81-0.19,1.53-0.57,2.17
				c-0.38,0.64-0.91,1.13-1.58,1.49c-0.67,0.36-1.44,0.54-2.29,0.54h-3.43v-8.4h3.49C-398.94,661.12-398.19,661.3-397.53,661.65z
				 M-398.36,667.75c0.41-0.24,0.73-0.56,0.97-0.98c0.23-0.42,0.35-0.9,0.35-1.43c0-0.54-0.12-1.02-0.36-1.45
				c-0.24-0.43-0.57-0.76-0.99-1c-0.42-0.24-0.89-0.35-1.41-0.35h-1.86v5.57h1.92C-399.23,668.1-398.77,667.99-398.36,667.75z"/>
		</g>
		<g>
			<path class="st2" d="M-315.33,661.88c0.58,0.5,0.87,1.22,0.87,2.14c0,0.96-0.29,1.71-0.87,2.24c-0.58,0.53-1.4,0.8-2.45,0.8
				h-1.84v2.47h-1.61v-8.4h3.44C-316.72,661.12-315.91,661.37-315.33,661.88z M-316.47,665.24c0.32-0.26,0.49-0.66,0.49-1.18
				c0-0.51-0.16-0.9-0.49-1.15c-0.32-0.26-0.79-0.38-1.4-0.38h-1.75v3.11h1.75C-317.26,665.63-316.79,665.5-316.47,665.24z"/>
			<path class="st2" d="M-312.88,661.12h1.61v3.59h4.19v-3.59h1.61v8.4h-1.61v-3.41h-4.19v3.41h-1.61V661.12z"/>
			<path class="st2" d="M-297.07,661.58c0.68,0.38,1.22,0.89,1.61,1.55c0.39,0.66,0.59,1.38,0.59,2.18c0,0.8-0.2,1.53-0.59,2.19
				c-0.39,0.66-0.93,1.18-1.61,1.57c-0.68,0.38-1.44,0.58-2.27,0.58s-1.59-0.19-2.27-0.58c-0.68-0.38-1.22-0.91-1.61-1.57
				c-0.39-0.66-0.59-1.39-0.59-2.19c0-0.8,0.2-1.53,0.59-2.18c0.39-0.66,0.93-1.17,1.61-1.55c0.68-0.38,1.44-0.56,2.27-0.56
				S-297.76,661.2-297.07,661.58z M-300.75,662.83c-0.44,0.25-0.79,0.6-1.04,1.03c-0.26,0.44-0.38,0.92-0.38,1.45
				c0,0.53,0.13,1.01,0.39,1.45c0.26,0.44,0.61,0.79,1.04,1.04c0.44,0.26,0.91,0.38,1.42,0.38c0.5,0,0.97-0.13,1.4-0.38
				c0.43-0.26,0.77-0.6,1.03-1.04c0.25-0.44,0.38-0.92,0.38-1.45c0-0.53-0.13-1.01-0.38-1.45c-0.25-0.44-0.59-0.78-1.03-1.03
				c-0.43-0.25-0.9-0.38-1.4-0.38C-299.84,662.45-300.31,662.58-300.75,662.83z"/>
			<path class="st2" d="M-287.36,661.12h1.56v8.4h-1.52l-4.32-5.78v5.78h-1.57v-8.4h1.52l4.33,5.8V661.12z"/>
			<path class="st2" d="M-283.5,661.12h6.16v1.4h-4.55v2.08h4.08v1.4h-4.08v2.11h4.69v1.4h-6.3V661.12z"/>
			<path class="st2" d="M-267.11,662.74c-0.4-0.19-0.81-0.29-1.23-0.29c-0.52,0-1,0.12-1.43,0.37c-0.43,0.25-0.77,0.59-1.02,1.03
				c-0.25,0.44-0.37,0.91-0.37,1.43s0.12,1,0.37,1.43c0.25,0.44,0.59,0.78,1.02,1.03c0.43,0.25,0.91,0.38,1.43,0.38
				c0.4,0,0.8-0.09,1.21-0.26c0.4-0.18,0.76-0.42,1.07-0.73l0.95,1.06c-0.44,0.45-0.95,0.8-1.54,1.06
				c-0.58,0.26-1.18,0.39-1.78,0.39c-0.81,0-1.55-0.19-2.22-0.58c-0.67-0.38-1.2-0.91-1.58-1.57c-0.38-0.66-0.58-1.39-0.58-2.19
				c0-0.8,0.2-1.53,0.59-2.18c0.39-0.66,0.93-1.17,1.6-1.55c0.68-0.38,1.43-0.56,2.25-0.56c0.6,0,1.19,0.12,1.76,0.36
				c0.58,0.24,1.07,0.57,1.48,1l-0.94,1.18C-266.36,663.2-266.71,662.93-267.11,662.74z"/>
			<path class="st2" d="M-257.41,669.52l-0.74-1.78h-4.1l-0.74,1.78h-1.67l3.68-8.4h1.67l3.64,8.4H-257.41z M-261.68,666.36h2.95
				l-1.46-3.53L-261.68,666.36z"/>
			<path class="st2" d="M-254.42,661.12h1.61v6.95h3.62v1.45h-5.23V661.12z"/>
			<path class="st2" d="M-247.69,661.12h1.61v6.95h3.62v1.45h-5.23V661.12z"/>
		</g>
		<g>
			<path class="st2" d="M-175.15,661.12h1.84l2.78,5.41l2.76-5.41h1.84v8.4h-1.48v-6.02l-2.62,5.16h-1.03l-2.63-5.16v6.02h-1.46
				V661.12z"/>
			<path class="st2" d="M-163.63,661.12h6.16v1.4h-4.55v2.08h4.08v1.4h-4.08v2.11h4.69v1.4h-6.3V661.12z"/>
			<path class="st2" d="M-151.5,662.67c-0.45-0.14-0.85-0.22-1.19-0.22c-0.38,0-0.69,0.07-0.91,0.22c-0.22,0.14-0.34,0.34-0.34,0.6
				c0,0.23,0.08,0.43,0.23,0.58c0.16,0.16,0.35,0.29,0.59,0.38c0.24,0.1,0.56,0.21,0.97,0.33c0.57,0.17,1.03,0.34,1.4,0.5
				c0.36,0.17,0.67,0.42,0.93,0.74c0.26,0.33,0.38,0.76,0.38,1.29c0,0.51-0.14,0.96-0.41,1.34c-0.28,0.38-0.66,0.67-1.14,0.87
				c-0.48,0.2-1.04,0.3-1.66,0.3c-0.66,0-1.3-0.12-1.92-0.37c-0.62-0.24-1.17-0.57-1.63-0.98l0.67-1.37c0.42,0.39,0.9,0.7,1.43,0.92
				c0.53,0.22,1.02,0.34,1.48,0.34c0.45,0,0.8-0.09,1.06-0.26c0.26-0.17,0.38-0.41,0.38-0.7c0-0.24-0.08-0.44-0.23-0.59
				c-0.16-0.16-0.35-0.28-0.59-0.38c-0.24-0.1-0.57-0.21-0.98-0.32c-0.57-0.17-1.03-0.33-1.39-0.49c-0.36-0.16-0.67-0.4-0.92-0.73
				c-0.26-0.32-0.38-0.75-0.38-1.28c0-0.49,0.13-0.91,0.39-1.28c0.26-0.36,0.63-0.65,1.1-0.85c0.48-0.2,1.03-0.3,1.65-0.3
				c0.54,0,1.08,0.08,1.61,0.24c0.53,0.16,1.01,0.38,1.42,0.65l-0.65,1.4C-150.61,663.01-151.05,662.81-151.5,662.67z"/>
			<path class="st2" d="M-143.72,662.67c-0.45-0.14-0.85-0.22-1.19-0.22c-0.38,0-0.69,0.07-0.91,0.22c-0.22,0.14-0.34,0.34-0.34,0.6
				c0,0.23,0.08,0.43,0.23,0.58c0.16,0.16,0.35,0.29,0.59,0.38c0.24,0.1,0.56,0.21,0.97,0.33c0.57,0.17,1.03,0.34,1.4,0.5
				c0.36,0.17,0.67,0.42,0.93,0.74c0.26,0.33,0.38,0.76,0.38,1.29c0,0.51-0.14,0.96-0.41,1.34c-0.28,0.38-0.66,0.67-1.14,0.87
				c-0.48,0.2-1.04,0.3-1.66,0.3c-0.66,0-1.3-0.12-1.92-0.37c-0.62-0.24-1.17-0.57-1.63-0.98l0.67-1.37c0.42,0.39,0.9,0.7,1.43,0.92
				c0.53,0.22,1.02,0.34,1.48,0.34c0.45,0,0.8-0.09,1.06-0.26c0.26-0.17,0.38-0.41,0.38-0.7c0-0.24-0.08-0.44-0.23-0.59
				c-0.16-0.16-0.35-0.28-0.59-0.38s-0.57-0.21-0.98-0.32c-0.57-0.17-1.03-0.33-1.39-0.49c-0.36-0.16-0.67-0.4-0.92-0.73
				c-0.26-0.32-0.38-0.75-0.38-1.28c0-0.49,0.13-0.91,0.39-1.28c0.26-0.36,0.63-0.65,1.1-0.85c0.48-0.2,1.03-0.3,1.65-0.3
				c0.54,0,1.08,0.08,1.61,0.24c0.53,0.16,1.01,0.38,1.42,0.65l-0.65,1.4C-142.83,663.01-143.27,662.81-143.72,662.67z"/>
			<path class="st2" d="M-133.75,669.52l-0.74-1.78h-4.1l-0.74,1.78h-1.67l3.68-8.4h1.67l3.64,8.4H-133.75z M-138.02,666.36h2.95
				l-1.46-3.53L-138.02,666.36z"/>
			<path class="st2" d="M-125.27,665.34h1.4v3.19c-0.44,0.33-0.96,0.59-1.56,0.8c-0.6,0.2-1.19,0.31-1.76,0.31
				c-0.82,0-1.57-0.19-2.25-0.58c-0.68-0.38-1.21-0.91-1.6-1.57c-0.39-0.66-0.59-1.39-0.59-2.19c0-0.8,0.2-1.53,0.6-2.18
				c0.4-0.65,0.95-1.17,1.64-1.55c0.69-0.38,1.46-0.57,2.3-0.57c0.6,0,1.19,0.11,1.78,0.32c0.58,0.22,1.09,0.51,1.51,0.89
				l-0.91,1.19c-0.32-0.3-0.69-0.54-1.11-0.71c-0.42-0.17-0.84-0.25-1.27-0.25c-0.53,0-1.01,0.13-1.46,0.38
				c-0.44,0.25-0.79,0.6-1.05,1.04c-0.26,0.44-0.38,0.92-0.38,1.44c0,0.53,0.13,1.01,0.39,1.45c0.26,0.44,0.61,0.79,1.05,1.04
				c0.44,0.26,0.93,0.38,1.46,0.38c0.29,0,0.59-0.04,0.91-0.14c0.32-0.09,0.62-0.22,0.91-0.39V665.34z"/>
			<path class="st2" d="M-121.77,661.12h6.16v1.4h-4.55v2.08h4.08v1.4h-4.08v2.11h4.69v1.4h-6.3V661.12z"/>
		</g>
		<g>
			<path class="st2" d="M-64.08,661.12h1.61v6.95h3.62v1.45h-5.23V661.12z"/>
			<path class="st2" d="M-51.07,669.52l-0.74-1.78h-4.1l-0.74,1.78h-1.67l3.68-8.4h1.67l3.64,8.4H-51.07z M-55.34,666.36h2.95
				l-1.46-3.53L-55.34,666.36z"/>
			<path class="st2" d="M-42.23,661.12h1.56v8.4h-1.52l-4.32-5.78v5.78h-1.57v-8.4h1.52l4.33,5.8V661.12z"/>
			<path class="st2" d="M-32.61,661.65c0.66,0.36,1.18,0.85,1.56,1.49c0.38,0.64,0.56,1.36,0.56,2.17c0,0.81-0.19,1.53-0.57,2.17
				c-0.38,0.64-0.91,1.13-1.58,1.49c-0.67,0.36-1.44,0.54-2.29,0.54h-3.43v-8.4h3.49C-34.03,661.12-33.28,661.3-32.61,661.65z
				 M-33.45,667.75c0.41-0.24,0.73-0.56,0.97-0.98c0.23-0.42,0.35-0.9,0.35-1.43c0-0.54-0.12-1.02-0.36-1.45
				c-0.24-0.43-0.57-0.76-0.99-1c-0.42-0.24-0.89-0.35-1.41-0.35h-1.86v5.57h1.92C-34.32,668.1-33.86,667.99-33.45,667.75z"/>
			<path class="st2" d="M-28.85,661.12h1.61v6.95h3.62v1.45h-5.23V661.12z"/>
			<path class="st2" d="M-22.11,661.12h1.61v8.4h-1.61V661.12z"/>
			<path class="st2" d="M-12.35,661.12h1.56v8.4h-1.52l-4.32-5.78v5.78h-1.57v-8.4h1.52l4.33,5.8V661.12z"/>
			<path class="st2" d="M-8.48,661.12h6.16v1.4h-4.55v2.08h4.08v1.4h-4.08v2.11h4.69v1.4h-6.3V661.12z"/>
			<path class="st2" d="M8.77,661.88c0.58,0.5,0.87,1.22,0.87,2.14c0,0.96-0.29,1.71-0.87,2.24c-0.58,0.53-1.4,0.8-2.45,0.8H4.48
				v2.47H2.87v-8.4h3.44C7.37,661.12,8.19,661.37,8.77,661.88z M7.63,665.24c0.32-0.26,0.49-0.66,0.49-1.18
				c0-0.51-0.16-0.9-0.49-1.15c-0.32-0.26-0.79-0.38-1.4-0.38H4.48v3.11h1.75C6.84,665.63,7.3,665.5,7.63,665.24z"/>
			<path class="st2" d="M11.21,661.12h1.61v3.59h4.19v-3.59h1.61v8.4h-1.61v-3.41h-4.19v3.41h-1.61V661.12z"/>
			<path class="st2" d="M27.02,661.58c0.68,0.38,1.22,0.89,1.61,1.55c0.39,0.66,0.59,1.38,0.59,2.18c0,0.8-0.2,1.53-0.59,2.19
				c-0.39,0.66-0.93,1.18-1.61,1.57c-0.68,0.38-1.44,0.58-2.27,0.58c-0.83,0-1.59-0.19-2.27-0.58c-0.68-0.38-1.22-0.91-1.61-1.57
				c-0.39-0.66-0.59-1.39-0.59-2.19c0-0.8,0.2-1.53,0.59-2.18c0.39-0.66,0.93-1.17,1.61-1.55c0.68-0.38,1.44-0.56,2.27-0.56
				C25.58,661.01,26.34,661.2,27.02,661.58z M23.34,662.83c-0.44,0.25-0.79,0.6-1.04,1.03c-0.26,0.44-0.38,0.92-0.38,1.45
				c0,0.53,0.13,1.01,0.39,1.45c0.26,0.44,0.61,0.79,1.04,1.04c0.44,0.26,0.91,0.38,1.42,0.38c0.5,0,0.97-0.13,1.4-0.38
				c0.43-0.26,0.77-0.6,1.03-1.04c0.25-0.44,0.38-0.92,0.38-1.45c0-0.53-0.13-1.01-0.38-1.45c-0.25-0.44-0.59-0.78-1.03-1.03
				c-0.43-0.25-0.9-0.38-1.4-0.38C24.26,662.45,23.78,662.58,23.34,662.83z"/>
			<path class="st2" d="M36.73,661.12h1.56v8.4h-1.52l-4.32-5.78v5.78h-1.57v-8.4h1.52l4.33,5.8V661.12z"/>
			<path class="st2" d="M40.6,661.12h6.16v1.4h-4.55v2.08h4.08v1.4h-4.08v2.11h4.69v1.4h-6.3V661.12z"/>
		</g>
		<g>
			<path class="st2" d="M110.64,661.12h1.67l-2.84,8.4h-1.67l-1.92-6.37l-1.96,6.37h-1.64l-2.83-8.4h1.73l1.98,6.66l1.97-6.66h1.58
				l1.98,6.68L110.64,661.12z"/>
			<path class="st2" d="M113.6,661.12h6.16v1.4h-4.55v2.08h4.08v1.4h-4.08v2.11h4.69v1.4h-6.3V661.12z"/>
			<path class="st2" d="M127.63,661.68c0.52,0.38,0.77,0.89,0.77,1.54c0,0.46-0.13,0.86-0.39,1.19c-0.26,0.33-0.62,0.55-1.07,0.67
				c0.56,0.1,1,0.34,1.31,0.72c0.32,0.38,0.47,0.84,0.47,1.4c0,0.72-0.28,1.29-0.83,1.7c-0.56,0.41-1.31,0.62-2.27,0.62h-3.84v-8.4
				h3.73C126.4,661.12,127.11,661.31,127.63,661.68z M126.4,664.27c0.24-0.18,0.35-0.44,0.35-0.77c0-0.32-0.12-0.57-0.35-0.74
				c-0.24-0.18-0.56-0.26-0.98-0.25h-2.04v2.04h2.04C125.84,664.55,126.17,664.46,126.4,664.27z M126.62,667.84
				c0.29-0.2,0.43-0.48,0.43-0.84c0-0.34-0.14-0.61-0.43-0.81c-0.29-0.2-0.69-0.29-1.2-0.28h-2.04v2.22h2.04
				C125.94,668.14,126.34,668.04,126.62,667.84z"/>
			<path class="st2" d="M134.48,662.67c-0.45-0.14-0.85-0.22-1.19-0.22c-0.38,0-0.69,0.07-0.91,0.22c-0.22,0.14-0.34,0.34-0.34,0.6
				c0,0.23,0.08,0.43,0.23,0.58c0.16,0.16,0.35,0.29,0.59,0.38c0.24,0.1,0.56,0.21,0.97,0.33c0.57,0.17,1.03,0.34,1.4,0.5
				c0.36,0.17,0.67,0.42,0.93,0.74c0.26,0.33,0.38,0.76,0.38,1.29c0,0.51-0.14,0.96-0.41,1.34c-0.28,0.38-0.66,0.67-1.14,0.87
				c-0.48,0.2-1.04,0.3-1.66,0.3c-0.66,0-1.3-0.12-1.92-0.37c-0.62-0.24-1.17-0.57-1.63-0.98l0.67-1.37c0.42,0.39,0.9,0.7,1.43,0.92
				c0.53,0.22,1.02,0.34,1.48,0.34c0.45,0,0.8-0.09,1.06-0.26c0.26-0.17,0.38-0.41,0.38-0.7c0-0.24-0.08-0.44-0.23-0.59
				c-0.16-0.16-0.35-0.28-0.59-0.38c-0.24-0.1-0.57-0.21-0.98-0.32c-0.57-0.17-1.03-0.33-1.39-0.49c-0.36-0.16-0.67-0.4-0.92-0.73
				c-0.26-0.32-0.38-0.75-0.38-1.28c0-0.49,0.13-0.91,0.39-1.28c0.26-0.36,0.63-0.65,1.1-0.85c0.48-0.2,1.03-0.3,1.65-0.3
				c0.54,0,1.08,0.08,1.61,0.24c0.53,0.16,1.01,0.38,1.42,0.65l-0.65,1.4C135.37,663.01,134.93,662.81,134.48,662.67z"/>
			<path class="st2" d="M138.3,661.12h1.61v8.4h-1.61V661.12z"/>
			<path class="st2" d="M141.28,661.12h6.85v1.43h-2.62v6.97h-1.62v-6.97h-2.62V661.12z"/>
			<path class="st2" d="M149.51,661.12h6.16v1.4h-4.55v2.08h4.08v1.4h-4.08v2.11h4.69v1.4h-6.3V661.12z"/>
		</g>
		<g>
			<path class="st2" d="M-442.48,818.74c-0.4-0.19-0.81-0.29-1.23-0.29c-0.52,0-1,0.12-1.43,0.37c-0.43,0.25-0.77,0.59-1.02,1.03
				c-0.25,0.44-0.37,0.91-0.37,1.43s0.12,1,0.37,1.43c0.25,0.44,0.59,0.78,1.02,1.03c0.43,0.25,0.91,0.38,1.43,0.38
				c0.4,0,0.8-0.09,1.21-0.26c0.4-0.18,0.76-0.42,1.07-0.73l0.95,1.06c-0.44,0.45-0.95,0.8-1.54,1.06
				c-0.58,0.26-1.18,0.39-1.78,0.39c-0.81,0-1.55-0.19-2.22-0.58c-0.67-0.38-1.2-0.91-1.58-1.57c-0.38-0.66-0.58-1.39-0.58-2.19
				c0-0.8,0.2-1.53,0.59-2.18c0.39-0.66,0.93-1.17,1.6-1.55c0.68-0.38,1.43-0.56,2.25-0.56c0.6,0,1.19,0.12,1.76,0.36
				c0.58,0.24,1.07,0.57,1.48,1l-0.94,1.18C-441.73,819.2-442.08,818.93-442.48,818.74z"/>
			<path class="st2" d="M-433,817.58c0.68,0.38,1.22,0.89,1.61,1.55c0.39,0.66,0.59,1.38,0.59,2.18c0,0.8-0.2,1.53-0.59,2.19
				c-0.39,0.66-0.93,1.18-1.61,1.57c-0.68,0.38-1.44,0.58-2.27,0.58c-0.83,0-1.59-0.19-2.27-0.58c-0.68-0.38-1.22-0.91-1.61-1.57
				c-0.39-0.66-0.59-1.39-0.59-2.19c0-0.8,0.2-1.53,0.59-2.18c0.39-0.66,0.93-1.17,1.61-1.55c0.68-0.38,1.44-0.56,2.27-0.56
				C-434.44,817.01-433.69,817.2-433,817.58z M-436.68,818.83c-0.44,0.25-0.79,0.6-1.04,1.03c-0.26,0.44-0.38,0.92-0.38,1.45
				c0,0.53,0.13,1.01,0.39,1.45c0.26,0.44,0.61,0.79,1.04,1.04c0.44,0.26,0.91,0.38,1.42,0.38c0.5,0,0.97-0.13,1.4-0.38
				c0.43-0.26,0.77-0.6,1.03-1.04c0.25-0.44,0.38-0.92,0.38-1.45c0-0.53-0.13-1.01-0.38-1.45c-0.25-0.44-0.59-0.78-1.03-1.03
				c-0.43-0.25-0.9-0.38-1.4-0.38C-435.76,818.45-436.24,818.58-436.68,818.83z"/>
			<path class="st2" d="M-423.29,817.12h1.56v8.4h-1.52l-4.32-5.78v5.78h-1.57v-8.4h1.52l4.33,5.8V817.12z"/>
			<path class="st2" d="M-420.36,817.12h6.85v1.43h-2.62v6.97h-1.62v-6.97h-2.62V817.12z"/>
			<path class="st2" d="M-406.76,825.52l-0.74-1.78h-4.1l-0.74,1.78h-1.67l3.68-8.4h1.67l3.64,8.4H-406.76z M-411.04,822.36h2.95
				l-1.46-3.53L-411.04,822.36z"/>
			<path class="st2" d="M-398.96,818.74c-0.4-0.19-0.81-0.29-1.23-0.29c-0.52,0-1,0.12-1.43,0.37c-0.43,0.25-0.77,0.59-1.02,1.03
				c-0.25,0.44-0.37,0.91-0.37,1.43s0.12,1,0.37,1.43c0.25,0.44,0.59,0.78,1.02,1.03c0.43,0.25,0.91,0.38,1.43,0.38
				c0.4,0,0.8-0.09,1.21-0.26c0.4-0.18,0.76-0.42,1.07-0.73l0.95,1.06c-0.44,0.45-0.95,0.8-1.54,1.06
				c-0.58,0.26-1.18,0.39-1.78,0.39c-0.81,0-1.55-0.19-2.22-0.58c-0.67-0.38-1.2-0.91-1.58-1.57c-0.38-0.66-0.58-1.39-0.58-2.19
				c0-0.8,0.2-1.53,0.59-2.18c0.39-0.66,0.93-1.17,1.6-1.55c0.68-0.38,1.43-0.56,2.25-0.56c0.6,0,1.19,0.12,1.76,0.36
				c0.58,0.24,1.07,0.57,1.48,1l-0.94,1.18C-398.2,819.2-398.55,818.93-398.96,818.74z"/>
			<path class="st2" d="M-396.34,817.12h6.85v1.43h-2.62v6.97h-1.62v-6.97h-2.62V817.12z"/>
		</g>
		<g>
			<path class="st2" d="M-300.77,817.12h1.61v3.59h4.19v-3.59h1.61v8.4h-1.61v-3.41h-4.19v3.41h-1.61V817.12z"/>
			<path class="st2" d="M-284.96,817.58c0.68,0.38,1.22,0.89,1.61,1.55c0.39,0.66,0.59,1.38,0.59,2.18c0,0.8-0.2,1.53-0.59,2.19
				c-0.39,0.66-0.93,1.18-1.61,1.57c-0.68,0.38-1.44,0.58-2.27,0.58c-0.83,0-1.59-0.19-2.27-0.58c-0.68-0.38-1.22-0.91-1.61-1.57
				c-0.39-0.66-0.59-1.39-0.59-2.19c0-0.8,0.2-1.53,0.59-2.18c0.39-0.66,0.93-1.17,1.61-1.55c0.68-0.38,1.44-0.56,2.27-0.56
				C-286.4,817.01-285.65,817.2-284.96,817.58z M-288.64,818.83c-0.44,0.25-0.79,0.6-1.04,1.03c-0.26,0.44-0.38,0.92-0.38,1.45
				c0,0.53,0.13,1.01,0.39,1.45c0.26,0.44,0.61,0.79,1.04,1.04c0.44,0.26,0.91,0.38,1.42,0.38c0.5,0,0.97-0.13,1.4-0.38
				c0.43-0.26,0.77-0.6,1.03-1.04c0.25-0.44,0.38-0.92,0.38-1.45c0-0.53-0.13-1.01-0.38-1.45c-0.25-0.44-0.59-0.78-1.03-1.03
				c-0.43-0.25-0.9-0.38-1.4-0.38C-287.72,818.45-288.2,818.58-288.64,818.83z"/>
			<path class="st2" d="M-281.1,817.12h1.84l2.78,5.41l2.76-5.41h1.84v8.4h-1.48v-6.02l-2.62,5.16h-1.03l-2.63-5.16v6.02h-1.46
				V817.12z"/>
			<path class="st2" d="M-269.58,817.12h6.16v1.4h-4.55v2.08h4.08v1.4h-4.08v2.11h4.69v1.4h-6.3V817.12z"/>
		</g>
		<g>
			<path class="st2" d="M-194.74,818.74c-0.4-0.19-0.81-0.29-1.23-0.29c-0.52,0-1,0.12-1.43,0.37c-0.43,0.25-0.77,0.59-1.02,1.03
				c-0.25,0.44-0.37,0.91-0.37,1.43s0.12,1,0.37,1.43c0.25,0.44,0.59,0.78,1.02,1.03c0.43,0.25,0.91,0.38,1.43,0.38
				c0.4,0,0.8-0.09,1.21-0.26c0.4-0.18,0.76-0.42,1.07-0.73l0.95,1.06c-0.44,0.45-0.95,0.8-1.54,1.06s-1.18,0.39-1.78,0.39
				c-0.81,0-1.55-0.19-2.22-0.58c-0.67-0.38-1.2-0.91-1.58-1.57c-0.38-0.66-0.58-1.39-0.58-2.19c0-0.8,0.2-1.53,0.59-2.18
				c0.39-0.66,0.93-1.17,1.6-1.55c0.68-0.38,1.43-0.56,2.25-0.56c0.6,0,1.19,0.12,1.76,0.36c0.58,0.24,1.07,0.57,1.48,1l-0.94,1.18
				C-193.98,819.2-194.33,818.93-194.74,818.74z"/>
			<path class="st2" d="M-185.26,817.58c0.68,0.38,1.22,0.89,1.61,1.55c0.39,0.66,0.59,1.38,0.59,2.18c0,0.8-0.2,1.53-0.59,2.19
				c-0.39,0.66-0.93,1.18-1.61,1.57c-0.68,0.38-1.44,0.58-2.27,0.58c-0.83,0-1.59-0.19-2.27-0.58c-0.68-0.38-1.22-0.91-1.61-1.57
				c-0.39-0.66-0.59-1.39-0.59-2.19c0-0.8,0.2-1.53,0.59-2.18c0.39-0.66,0.93-1.17,1.61-1.55c0.68-0.38,1.44-0.56,2.27-0.56
				C-186.7,817.01-185.94,817.2-185.26,817.58z M-188.93,818.83c-0.44,0.25-0.79,0.6-1.04,1.03c-0.26,0.44-0.38,0.92-0.38,1.45
				c0,0.53,0.13,1.01,0.39,1.45c0.26,0.44,0.61,0.79,1.04,1.04c0.44,0.26,0.91,0.38,1.42,0.38c0.5,0,0.97-0.13,1.4-0.38
				c0.43-0.26,0.77-0.6,1.03-1.04c0.25-0.44,0.38-0.92,0.38-1.45c0-0.53-0.13-1.01-0.38-1.45c-0.25-0.44-0.59-0.78-1.03-1.03
				c-0.43-0.25-0.9-0.38-1.4-0.38C-188.02,818.45-188.49,818.58-188.93,818.83z"/>
			<path class="st2" d="M-175.54,817.12h1.56v8.4h-1.52l-4.32-5.78v5.78h-1.57v-8.4h1.52l4.33,5.8V817.12z"/>
			<path class="st2" d="M-172.61,817.12h6.85v1.43h-2.62v6.97H-170v-6.97h-2.62V817.12z"/>
			<path class="st2" d="M-159.02,825.52l-0.74-1.78h-4.1l-0.74,1.78h-1.67l3.68-8.4h1.67l3.64,8.4H-159.02z M-163.29,822.36h2.95
				l-1.46-3.53L-163.29,822.36z"/>
			<path class="st2" d="M-151.21,818.74c-0.4-0.19-0.81-0.29-1.23-0.29c-0.52,0-1,0.12-1.43,0.37c-0.43,0.25-0.77,0.59-1.02,1.03
				c-0.25,0.44-0.37,0.91-0.37,1.43s0.12,1,0.37,1.43c0.25,0.44,0.59,0.78,1.02,1.03c0.43,0.25,0.91,0.38,1.43,0.38
				c0.4,0,0.8-0.09,1.21-0.26c0.4-0.18,0.76-0.42,1.07-0.73l0.95,1.06c-0.44,0.45-0.95,0.8-1.54,1.06s-1.18,0.39-1.78,0.39
				c-0.81,0-1.55-0.19-2.22-0.58c-0.67-0.38-1.2-0.91-1.58-1.57c-0.38-0.66-0.58-1.39-0.58-2.19c0-0.8,0.2-1.53,0.59-2.18
				c0.39-0.66,0.93-1.17,1.6-1.55c0.68-0.38,1.43-0.56,2.25-0.56c0.6,0,1.19,0.12,1.76,0.36c0.58,0.24,1.07,0.57,1.48,1l-0.94,1.18
				C-150.46,819.2-150.81,818.93-151.21,818.74z"/>
			<path class="st2" d="M-148.59,817.12h6.85v1.43h-2.62v6.97h-1.62v-6.97h-2.62V817.12z"/>
			<path class="st2" d="M-131.09,817.58c0.68,0.38,1.22,0.89,1.61,1.55c0.39,0.66,0.59,1.38,0.59,2.18c0,0.8-0.2,1.53-0.59,2.19
				c-0.39,0.66-0.93,1.18-1.61,1.57c-0.68,0.38-1.44,0.58-2.27,0.58s-1.59-0.19-2.27-0.58c-0.68-0.38-1.22-0.91-1.61-1.57
				c-0.39-0.66-0.59-1.39-0.59-2.19c0-0.8,0.2-1.53,0.59-2.18c0.39-0.66,0.93-1.17,1.61-1.55c0.68-0.38,1.44-0.56,2.27-0.56
				S-131.77,817.2-131.09,817.58z M-134.77,818.83c-0.44,0.25-0.79,0.6-1.04,1.03c-0.26,0.44-0.38,0.92-0.38,1.45
				c0,0.53,0.13,1.01,0.39,1.45c0.26,0.44,0.61,0.79,1.04,1.04c0.44,0.26,0.91,0.38,1.42,0.38c0.5,0,0.97-0.13,1.4-0.38
				c0.43-0.26,0.77-0.6,1.03-1.04c0.25-0.44,0.38-0.92,0.38-1.45c0-0.53-0.13-1.01-0.38-1.45c-0.25-0.44-0.59-0.78-1.03-1.03
				c-0.43-0.25-0.9-0.38-1.4-0.38C-133.85,818.45-134.33,818.58-134.77,818.83z"/>
			<path class="st2" d="M-121.37,817.12h1.56v8.4h-1.52l-4.32-5.78v5.78h-1.57v-8.4h1.52l4.33,5.8V817.12z"/>
			<path class="st2" d="M-117.51,817.12h1.61v6.95h3.62v1.45h-5.23V817.12z"/>
			<path class="st2" d="M-110.78,817.12h1.61v8.4h-1.61V817.12z"/>
			<path class="st2" d="M-101.01,817.12h1.56v8.4h-1.52l-4.32-5.78v5.78h-1.57v-8.4h1.52l4.33,5.8V817.12z"/>
			<path class="st2" d="M-97.15,817.12h6.16v1.4h-4.55v2.08h4.08v1.4h-4.08v2.11h4.69v1.4h-6.3V817.12z"/>
		</g>
		<g>
			<path class="st2" d="M-38.29,817.12h1.67l-2.84,8.4h-1.67l-1.92-6.37l-1.96,6.37h-1.64l-2.83-8.4h1.73l1.98,6.66l1.97-6.66h1.58
				l1.98,6.68L-38.29,817.12z"/>
			<path class="st2" d="M-30.07,825.52l-1.45-2.48c-0.06,0.01-0.16,0.01-0.3,0.01h-1.9v2.47h-1.61v-8.4h3.5
				c1.09,0,1.93,0.25,2.52,0.76c0.59,0.5,0.89,1.22,0.89,2.14c0,0.66-0.14,1.22-0.43,1.68c-0.28,0.46-0.7,0.81-1.24,1.04l1.85,2.78
				H-30.07z M-33.72,821.63h1.9c0.61,0,1.07-0.13,1.39-0.4c0.32-0.26,0.48-0.66,0.48-1.18c0-0.51-0.16-0.9-0.48-1.15
				c-0.32-0.26-0.78-0.38-1.39-0.38h-1.9V821.63z"/>
			<path class="st2" d="M-26.42,817.12h1.61v8.4h-1.61V817.12z"/>
			<path class="st2" d="M-23.44,817.12h6.85v1.43h-2.62v6.97h-1.62v-6.97h-2.62V817.12z"/>
			<path class="st2" d="M-15.21,817.12h6.16v1.4h-4.55v2.08h4.08v1.4h-4.08v2.11h4.69v1.4h-6.3V817.12z"/>
			<path class="st2" d="M-4.79,817.12h6.85v1.43h-2.62v6.97h-1.62v-6.97h-2.62V817.12z"/>
			<path class="st2" d="M9.05,817.58c0.68,0.38,1.22,0.89,1.61,1.55c0.39,0.66,0.59,1.38,0.59,2.18c0,0.8-0.2,1.53-0.59,2.19
				c-0.39,0.66-0.93,1.18-1.61,1.57c-0.68,0.38-1.44,0.58-2.27,0.58c-0.83,0-1.59-0.19-2.27-0.58c-0.68-0.38-1.22-0.91-1.61-1.57
				c-0.39-0.66-0.59-1.39-0.59-2.19c0-0.8,0.2-1.53,0.59-2.18c0.39-0.66,0.93-1.17,1.61-1.55c0.68-0.38,1.44-0.56,2.27-0.56
				C7.61,817.01,8.37,817.2,9.05,817.58z M5.37,818.83c-0.44,0.25-0.79,0.6-1.04,1.03c-0.26,0.44-0.38,0.92-0.38,1.45
				c0,0.53,0.13,1.01,0.39,1.45c0.26,0.44,0.61,0.79,1.04,1.04c0.44,0.26,0.91,0.38,1.42,0.38c0.5,0,0.97-0.13,1.4-0.38
				c0.43-0.26,0.77-0.6,1.03-1.04c0.25-0.44,0.38-0.92,0.38-1.45c0-0.53-0.13-1.01-0.38-1.45c-0.25-0.44-0.59-0.78-1.03-1.03
				c-0.43-0.25-0.9-0.38-1.4-0.38C6.29,818.45,5.81,818.58,5.37,818.83z"/>
			<path class="st2" d="M18.1,823.62c0.38,0.38,0.88,0.56,1.51,0.56c0.63,0,1.13-0.19,1.49-0.56c0.36-0.38,0.55-0.9,0.55-1.56v-4.94
				h1.61v4.94c0,0.73-0.15,1.36-0.44,1.9c-0.3,0.54-0.72,0.95-1.27,1.24c-0.55,0.29-1.19,0.43-1.94,0.43
				c-0.75,0-1.41-0.14-1.96-0.43c-0.56-0.29-0.98-0.7-1.28-1.24c-0.3-0.54-0.44-1.17-0.44-1.9v-4.94h1.61v4.94
				C17.54,822.73,17.73,823.25,18.1,823.62z"/>
			<path class="st2" d="M29.35,818.67c-0.45-0.14-0.85-0.22-1.19-0.22c-0.38,0-0.69,0.07-0.91,0.22c-0.22,0.14-0.34,0.34-0.34,0.6
				c0,0.23,0.08,0.43,0.23,0.58c0.16,0.16,0.35,0.29,0.59,0.38c0.24,0.1,0.56,0.21,0.97,0.33c0.57,0.17,1.03,0.34,1.4,0.5
				c0.36,0.17,0.67,0.42,0.93,0.74c0.26,0.33,0.38,0.76,0.38,1.29c0,0.51-0.14,0.96-0.41,1.34c-0.28,0.38-0.66,0.67-1.14,0.87
				c-0.48,0.2-1.04,0.3-1.66,0.3c-0.66,0-1.3-0.12-1.92-0.37c-0.62-0.24-1.17-0.57-1.63-0.98l0.67-1.37c0.42,0.39,0.9,0.7,1.43,0.92
				c0.53,0.22,1.02,0.34,1.48,0.34c0.45,0,0.8-0.09,1.06-0.26c0.26-0.17,0.38-0.41,0.38-0.7c0-0.24-0.08-0.44-0.23-0.59
				c-0.16-0.16-0.35-0.28-0.59-0.38c-0.24-0.1-0.57-0.21-0.98-0.32c-0.57-0.17-1.03-0.33-1.39-0.49c-0.36-0.16-0.67-0.4-0.92-0.73
				c-0.26-0.32-0.38-0.75-0.38-1.28c0-0.49,0.13-0.91,0.39-1.28c0.26-0.36,0.63-0.65,1.1-0.85c0.48-0.2,1.03-0.3,1.65-0.3
				c0.54,0,1.08,0.08,1.61,0.24c0.53,0.16,1.01,0.38,1.42,0.65l-0.65,1.4C30.25,819.01,29.81,818.81,29.35,818.67z"/>
		</g>
		<g>
			<path class="st2" d="M97,817.12h1.61v6.95h3.62v1.45H97V817.12z"/>
			<path class="st2" d="M109.82,817.58c0.68,0.38,1.22,0.89,1.61,1.55c0.39,0.66,0.59,1.38,0.59,2.18c0,0.8-0.2,1.53-0.59,2.19
				c-0.39,0.66-0.93,1.18-1.61,1.57c-0.68,0.38-1.44,0.58-2.27,0.58c-0.83,0-1.59-0.19-2.27-0.58c-0.68-0.38-1.22-0.91-1.61-1.57
				c-0.39-0.66-0.59-1.39-0.59-2.19c0-0.8,0.2-1.53,0.59-2.18c0.39-0.66,0.93-1.17,1.61-1.55c0.68-0.38,1.44-0.56,2.27-0.56
				C108.38,817.01,109.13,817.2,109.82,817.58z M106.14,818.83c-0.44,0.25-0.79,0.6-1.04,1.03c-0.26,0.44-0.38,0.92-0.38,1.45
				c0,0.53,0.13,1.01,0.39,1.45c0.26,0.44,0.61,0.79,1.04,1.04c0.44,0.26,0.91,0.38,1.42,0.38c0.5,0,0.97-0.13,1.4-0.38
				c0.43-0.26,0.77-0.6,1.03-1.04c0.25-0.44,0.38-0.92,0.38-1.45c0-0.53-0.13-1.01-0.38-1.45c-0.25-0.44-0.59-0.78-1.03-1.03
				c-0.43-0.25-0.9-0.38-1.4-0.38C107.06,818.45,106.58,818.58,106.14,818.83z"/>
			<path class="st2" d="M118.42,818.74c-0.4-0.19-0.81-0.29-1.23-0.29c-0.52,0-1,0.12-1.43,0.37c-0.43,0.25-0.77,0.59-1.02,1.03
				c-0.25,0.44-0.37,0.91-0.37,1.43s0.12,1,0.37,1.43c0.25,0.44,0.59,0.78,1.02,1.03c0.43,0.25,0.91,0.38,1.43,0.38
				c0.4,0,0.8-0.09,1.21-0.26c0.4-0.18,0.76-0.42,1.07-0.73l0.95,1.06c-0.44,0.45-0.95,0.8-1.54,1.06s-1.18,0.39-1.78,0.39
				c-0.81,0-1.55-0.19-2.22-0.58c-0.67-0.38-1.2-0.91-1.58-1.57c-0.38-0.66-0.58-1.39-0.58-2.19c0-0.8,0.2-1.53,0.59-2.18
				c0.39-0.66,0.93-1.17,1.6-1.55c0.68-0.38,1.43-0.56,2.25-0.56c0.6,0,1.19,0.12,1.76,0.36c0.58,0.24,1.07,0.57,1.48,1l-0.94,1.18
				C119.18,819.2,118.83,818.93,118.42,818.74z"/>
			<path class="st2" d="M128.12,825.52l-0.74-1.78h-4.1l-0.74,1.78h-1.67l3.68-8.4h1.67l3.64,8.4H128.12z M123.85,822.36h2.95
				l-1.46-3.53L123.85,822.36z"/>
			<path class="st2" d="M129.32,817.12h6.85v1.43h-2.62v6.97h-1.62v-6.97h-2.62V817.12z"/>
			<path class="st2" d="M137.56,817.12h1.61v8.4h-1.61V817.12z"/>
			<path class="st2" d="M147.56,817.58c0.68,0.38,1.22,0.89,1.61,1.55c0.39,0.66,0.59,1.38,0.59,2.18c0,0.8-0.2,1.53-0.59,2.19
				c-0.39,0.66-0.93,1.18-1.61,1.57c-0.68,0.38-1.44,0.58-2.27,0.58c-0.83,0-1.59-0.19-2.27-0.58c-0.68-0.38-1.22-0.91-1.61-1.57
				c-0.39-0.66-0.59-1.39-0.59-2.19c0-0.8,0.2-1.53,0.59-2.18c0.39-0.66,0.93-1.17,1.61-1.55c0.68-0.38,1.44-0.56,2.27-0.56
				C146.12,817.01,146.87,817.2,147.56,817.58z M143.88,818.83c-0.44,0.25-0.79,0.6-1.04,1.03c-0.26,0.44-0.38,0.92-0.38,1.45
				c0,0.53,0.13,1.01,0.39,1.45c0.26,0.44,0.61,0.79,1.04,1.04c0.44,0.26,0.91,0.38,1.42,0.38c0.5,0,0.97-0.13,1.4-0.38
				c0.43-0.26,0.77-0.6,1.03-1.04c0.25-0.44,0.38-0.92,0.38-1.45c0-0.53-0.13-1.01-0.38-1.45c-0.25-0.44-0.59-0.78-1.03-1.03
				c-0.43-0.25-0.9-0.38-1.4-0.38C144.8,818.45,144.32,818.58,143.88,818.83z"/>
			<path class="st2" d="M157.27,817.12h1.56v8.4h-1.52l-4.32-5.78v5.78h-1.57v-8.4h1.52l4.33,5.8V817.12z"/>
		</g>
	</g>
	<g id="Left_block">
		<g id="ICONS">
			<path class="st1" d="M-796.31,472.72h6.32v28h-6.32V472.72z"/>
			<path class="st1" d="M-761.29,478.78c-1.29-0.65-2.59-0.98-3.9-0.98c-1.57,0-3.01,0.39-4.32,1.16c-1.31,0.77-2.33,1.83-3.08,3.16
				c-0.75,1.33-1.12,2.81-1.12,4.44c0,1.63,0.37,3.12,1.12,4.46c0.75,1.35,1.77,2.41,3.08,3.2c1.31,0.79,2.75,1.18,4.32,1.18
				c1.25,0,2.53-0.3,3.82-0.9c1.29-0.6,2.45-1.41,3.46-2.42l3.72,4.04c-1.49,1.55-3.25,2.77-5.26,3.68
				c-2.01,0.91-4.03,1.36-6.06,1.36c-2.75,0-5.24-0.63-7.48-1.9c-2.24-1.27-4-3.01-5.28-5.22c-1.28-2.21-1.92-4.68-1.92-7.4
				c0-2.69,0.65-5.13,1.96-7.32c1.31-2.19,3.1-3.91,5.38-5.16c2.28-1.25,4.81-1.88,7.58-1.88c2.03,0,4.03,0.42,6,1.26
				c1.97,0.84,3.65,1.98,5.04,3.42l-3.68,4.52C-758.87,480.33-760,479.44-761.29,478.78z"/>
			<path class="st1" d="M-724.67,474.16c2.29,1.25,4.1,2.98,5.42,5.18c1.32,2.2,1.98,4.65,1.98,7.34c0,2.69-0.66,5.15-1.98,7.36
				c-1.32,2.21-3.13,3.95-5.42,5.22c-2.29,1.27-4.84,1.9-7.64,1.9c-2.8,0-5.35-0.63-7.64-1.9c-2.29-1.27-4.1-3-5.42-5.2
				c-1.32-2.2-1.98-4.66-1.98-7.38c0-2.69,0.66-5.14,1.98-7.34c1.32-2.2,3.12-3.93,5.4-5.18c2.28-1.25,4.83-1.88,7.66-1.88
				C-729.51,472.28-726.96,472.91-724.67,474.16z M-736.55,478.98c-1.33,0.79-2.39,1.86-3.16,3.22c-0.77,1.36-1.16,2.85-1.16,4.48
				c0,1.65,0.39,3.16,1.18,4.52c0.79,1.36,1.84,2.44,3.16,3.24c1.32,0.8,2.75,1.2,4.3,1.2c1.55,0,2.97-0.39,4.26-1.18
				c1.29-0.79,2.32-1.87,3.08-3.24c0.76-1.37,1.14-2.89,1.14-4.54c0-1.63-0.38-3.12-1.14-4.48c-0.76-1.36-1.79-2.43-3.08-3.22
				c-1.29-0.79-2.71-1.18-4.26-1.18C-733.78,477.8-735.22,478.2-736.55,478.98z"/>
			<path class="st1" d="M-688.15,472.72h6v28h-5.76l-13.56-18v18h-6.04v-28h5.76l13.6,18.08V472.72z"/>
			<path class="st1" d="M-656.53,478.42c-1.61-0.52-2.99-0.78-4.14-0.78c-1.09,0-1.96,0.2-2.6,0.6c-0.64,0.4-0.96,0.99-0.96,1.76
				c0,0.99,0.46,1.74,1.38,2.26c0.92,0.52,2.34,1.06,4.26,1.62c1.92,0.56,3.5,1.12,4.74,1.68c1.24,0.56,2.3,1.4,3.18,2.52
				c0.88,1.12,1.32,2.6,1.32,4.44c0,1.79-0.47,3.33-1.42,4.62c-0.95,1.29-2.25,2.27-3.9,2.94c-1.65,0.67-3.53,1-5.64,1
				c-2.27,0-4.49-0.4-6.68-1.2c-2.19-0.8-4.08-1.89-5.68-3.28l2.52-5.16c1.41,1.28,3.04,2.31,4.88,3.08
				c1.84,0.77,3.52,1.16,5.04,1.16c1.31,0,2.33-0.24,3.06-0.72s1.1-1.17,1.1-2.08c0-0.72-0.25-1.31-0.74-1.78
				c-0.49-0.47-1.12-0.85-1.88-1.14c-0.76-0.29-1.81-0.63-3.14-1c-1.92-0.53-3.49-1.07-4.7-1.6c-1.21-0.53-2.26-1.35-3.14-2.44
				c-0.88-1.09-1.32-2.55-1.32-4.36c0-1.68,0.45-3.15,1.36-4.42c0.91-1.27,2.17-2.24,3.8-2.92c1.63-0.68,3.52-1.02,5.68-1.02
				c1.92,0,3.81,0.28,5.68,0.84c1.87,0.56,3.52,1.31,4.96,2.24l-2.44,5.24C-653.39,479.64-654.92,478.94-656.53,478.42z"/>
		</g>
		<g id="HIGH_QUALITY" class="st3">
			<path class="st1" d="M-827.35,440.8h1.31v6.08h8.3v-6.08h1.31v13.28h-1.31v-6.02h-8.3v6.02h-1.31V440.8z"/>
			<path class="st1" d="M-805.41,440.8h1.31v13.28h-1.31V440.8z"/>
			<path class="st1" d="M-783.75,447.58h1.16v4.86c-0.65,0.55-1.4,0.97-2.25,1.28c-0.86,0.31-1.73,0.47-2.61,0.47
				c-1.25,0-2.41-0.3-3.47-0.91c-1.06-0.61-1.9-1.43-2.52-2.47c-0.62-1.04-0.93-2.17-0.93-3.4c0-1.23,0.31-2.36,0.93-3.38
				c0.62-1.03,1.47-1.84,2.54-2.44c1.07-0.6,2.24-0.9,3.51-0.9c0.9,0,1.77,0.16,2.61,0.47c0.84,0.32,1.59,0.76,2.23,1.33l-0.76,0.93
				c-0.54-0.51-1.17-0.9-1.88-1.17c-0.71-0.27-1.44-0.41-2.2-0.41c-1.03,0-1.97,0.25-2.83,0.75c-0.86,0.5-1.55,1.17-2.05,2.02
				c-0.51,0.85-0.76,1.78-0.76,2.79c0,1.03,0.25,1.97,0.76,2.82c0.51,0.86,1.19,1.53,2.06,2.03c0.87,0.5,1.81,0.75,2.84,0.75
				c0.63,0,1.26-0.1,1.89-0.31c0.63-0.21,1.21-0.5,1.74-0.88V447.58z"/>
			<path class="st1" d="M-771.89,440.8h1.31v6.08h8.3v-6.08h1.31v13.28h-1.31v-6.02h-8.3v6.02h-1.31V440.8z"/>
			<path class="st1" d="M-724.53,455.26c-0.51,0.47-1.05,0.83-1.62,1.08c-0.58,0.25-1.14,0.38-1.7,0.38c-1.44,0-2.82-0.84-4.14-2.53
				h-0.25c-1.27,0-2.43-0.3-3.49-0.91c-1.06-0.61-1.9-1.43-2.52-2.47c-0.62-1.04-0.93-2.17-0.93-3.4c0-1.23,0.31-2.36,0.93-3.38
				c0.62-1.03,1.46-1.84,2.52-2.44c1.06-0.6,2.22-0.9,3.49-0.9s2.43,0.3,3.49,0.9c1.06,0.6,1.9,1.42,2.52,2.44
				c0.62,1.03,0.93,2.15,0.93,3.38c0,1.05-0.23,2.04-0.68,2.95c-0.46,0.92-1.08,1.69-1.88,2.33c-0.8,0.63-1.7,1.07-2.72,1.31
				c1.03,1.05,1.98,1.58,2.87,1.58c0.8,0,1.67-0.41,2.6-1.24L-724.53,455.26z M-737.09,450.22c0.51,0.86,1.19,1.54,2.05,2.04
				c0.86,0.5,1.8,0.75,2.81,0.75c1,0,1.93-0.25,2.78-0.75c0.86-0.5,1.54-1.18,2.04-2.04c0.51-0.86,0.76-1.8,0.76-2.81
				s-0.25-1.94-0.76-2.79c-0.51-0.85-1.19-1.52-2.04-2.01c-0.85-0.49-1.78-0.74-2.78-0.74c-1.01,0-1.95,0.25-2.81,0.74
				c-0.86,0.49-1.55,1.17-2.05,2.01c-0.51,0.85-0.76,1.78-0.76,2.79S-737.59,449.36-737.09,450.22z"/>
			<path class="st1" d="M-713.21,451.88c0.74,0.76,1.77,1.14,3.09,1.14c1.32,0,2.34-0.38,3.08-1.14c0.73-0.76,1.1-1.82,1.1-3.19
				v-7.9h1.31v7.9c0,1.72-0.48,3.07-1.45,4.05c-0.97,0.98-2.31,1.46-4.04,1.46c-1.72,0-3.07-0.49-4.05-1.46
				c-0.98-0.98-1.46-2.32-1.46-4.05v-7.9h1.31v7.9C-714.32,450.05-713.95,451.12-713.21,451.88z"/>
			<path class="st1" d="M-684.38,454.08l-1.58-3.53h-7.37l-1.56,3.53h-1.41l5.98-13.28h1.37l5.98,13.28H-684.38z M-692.82,449.37
				h6.35l-3.19-7.18L-692.82,449.37z"/>
			<path class="st1" d="M-673.93,440.8h1.31v12.1h5.85v1.18h-7.16V440.8z"/>
			<path class="st1" d="M-657.34,440.8h1.31v13.28h-1.31V440.8z"/>
			<path class="st1" d="M-646.89,440.78h10.09v1.2h-4.39v12.1h-1.31v-12.1h-4.39V440.78z"/>
			<path class="st1" d="M-618.05,440.8l-5.11,8.55v4.73h-1.31v-4.73l-5.19-8.55h1.37l4.48,7.14l4.39-7.14H-618.05z"/>
		</g>
		<polygon id="ribbon" class="st4" points="-602.52,539.26 -614.63,539.26 -832.75,539.26 -844.86,539.26 -832.75,564.2 
			-844.86,589.15 -832.75,589.15 -614.63,589.15 -602.52,589.15 -614.63,564.21 		"/>
		<g id="list">
			<path class="st1" d="M-793.24,657.4l9.23-0.16l0.04,2.11l-6.82,0.12l0.05,3.11l6.12-0.11l0.04,2.11l-6.12,0.11l0.06,3.17
				l7.04-0.12l0.04,2.11l-9.45,0.17L-793.24,657.4z"/>
			<path class="st1" d="M-771.85,656.49l0.23,13.35l-2.34,0.04l-0.03-1.55c-0.34,0.55-0.78,0.96-1.32,1.26
				c-0.54,0.29-1.17,0.44-1.89,0.46c-0.91,0.02-1.72-0.18-2.41-0.58c-0.7-0.4-1.24-0.97-1.64-1.72c-0.4-0.74-0.6-1.6-0.62-2.57
				c-0.02-0.96,0.16-1.81,0.52-2.56c0.37-0.74,0.89-1.33,1.57-1.75c0.68-0.42,1.47-0.64,2.36-0.65c0.73-0.01,1.38,0.12,1.93,0.4
				c0.56,0.28,1.02,0.68,1.39,1.22l-0.09-5.31L-771.85,656.49z M-774.76,667.22c0.5-0.55,0.74-1.26,0.73-2.13
				c-0.02-0.86-0.28-1.56-0.8-2.1c-0.52-0.54-1.18-0.8-1.99-0.78c-0.8,0.01-1.45,0.3-1.95,0.85c-0.49,0.55-0.74,1.26-0.74,2.13
				c0.03,0.86,0.3,1.56,0.81,2.1c0.51,0.54,1.17,0.8,1.98,0.78C-775.92,668.06-775.26,667.78-774.76,667.22z"/>
			<path class="st1" d="M-766.42,656.53c0.26,0.26,0.39,0.59,0.4,1c0.01,0.4-0.11,0.73-0.36,1c-0.25,0.27-0.56,0.41-0.95,0.41
				c-0.38,0.01-0.7-0.12-0.96-0.38c-0.26-0.26-0.39-0.59-0.39-0.98c-0.01-0.41,0.11-0.75,0.36-1.01c0.25-0.27,0.56-0.41,0.95-0.41
				C-767,656.15-766.68,656.28-766.42,656.53z M-768.46,660.31l2.34-0.04l0.17,9.63l-2.34,0.04L-768.46,660.31z"/>
			<path class="st1" d="M-757.12,669.27c-0.76,0.48-1.56,0.73-2.4,0.74c-0.83,0.01-1.51-0.22-2.05-0.69
				c-0.54-0.48-0.81-1.19-0.83-2.14l-0.08-4.75l-1.35,0.02l-0.05-1.71l1.37-0.02l-0.05-2.65l2.32-0.04l0.05,2.65l2.75-0.05
				l0.03,1.71l-2.75,0.05l0.08,4.34c0.01,0.44,0.1,0.76,0.27,0.94c0.17,0.18,0.42,0.27,0.76,0.27c0.36-0.01,0.81-0.15,1.36-0.42
				L-757.12,669.27z"/>
			<path class="st1" d="M-749.27,669.89l-0.02-1.17c-0.33,0.43-0.75,0.75-1.28,0.98c-0.52,0.23-1.13,0.34-1.81,0.36
				c-0.67,0.01-1.27-0.11-1.78-0.36c-0.51-0.25-0.91-0.6-1.2-1.05c-0.28-0.45-0.43-0.96-0.44-1.52c-0.02-0.9,0.29-1.61,0.92-2.13
				c0.63-0.52,1.52-0.8,2.69-0.83l2.81-0.05l0-0.25c-0.01-0.56-0.2-1-0.58-1.3c-0.38-0.3-0.92-0.45-1.63-0.44
				c-0.91,0.02-1.86,0.33-2.85,0.95l-0.87-1.61c0.75-0.43,1.43-0.75,2.04-0.94c0.61-0.2,1.34-0.3,2.16-0.32
				c1.25-0.02,2.22,0.26,2.92,0.85c0.7,0.59,1.07,1.42,1.1,2.5l0.13,6.3L-749.27,669.89z M-750.14,667.74
				c0.47-0.33,0.74-0.72,0.79-1.19l-0.02-0.86l-2.43,0.04c-0.62,0.01-1.08,0.11-1.37,0.3c-0.29,0.19-0.43,0.5-0.43,0.92
				c0.01,0.41,0.17,0.73,0.48,0.96c0.31,0.24,0.73,0.35,1.26,0.34C-751.19,668.23-750.61,668.06-750.14,667.74z"/>
			<path class="st1" d="M-736.13,660.78c0.7,0.4,1.24,0.97,1.63,1.71c0.39,0.74,0.59,1.59,0.61,2.56c0.02,0.96-0.15,1.81-0.51,2.55
				c-0.36,0.74-0.88,1.32-1.55,1.74c-0.68,0.42-1.46,0.64-2.36,0.65c-0.72,0.01-1.36-0.12-1.92-0.39c-0.56-0.27-1.02-0.67-1.39-1.21
				l0.03,1.57l-2.34,0.04l-0.23-13.35l2.34-0.04l0.09,5.31c0.34-0.55,0.78-0.96,1.32-1.26c0.54-0.29,1.17-0.44,1.89-0.46
				C-737.63,660.19-736.83,660.38-736.13,660.78z M-736.98,667.14c0.49-0.55,0.73-1.26,0.72-2.11c-0.02-0.85-0.28-1.54-0.79-2.07
				c-0.51-0.53-1.17-0.79-1.96-0.78c-0.8,0.01-1.45,0.3-1.95,0.84c-0.49,0.55-0.73,1.25-0.72,2.1c0.02,0.86,0.28,1.56,0.79,2.09
				c0.51,0.53,1.17,0.79,1.98,0.78C-738.12,667.97-737.48,667.69-736.98,667.14z"/>
			<path class="st1" d="M-731.6,656.59l2.34-0.04l0.23,13.35l-2.34,0.04L-731.6,656.59z"/>
			<path class="st1" d="M-718.38,661.47c0.79,0.86,1.2,2.09,1.23,3.67c0.01,0.31,0,0.55-0.01,0.7l-7.11,0.12
				c0.17,0.68,0.5,1.21,0.99,1.59c0.49,0.38,1.09,0.57,1.8,0.55c0.49-0.01,0.96-0.11,1.41-0.3c0.45-0.19,0.84-0.47,1.16-0.82
				l1.28,1.29c-0.47,0.54-1.05,0.95-1.73,1.25c-0.69,0.3-1.45,0.46-2.29,0.47c-0.98,0.02-1.85-0.17-2.61-0.57
				c-0.76-0.39-1.35-0.96-1.77-1.69c-0.42-0.73-0.64-1.58-0.66-2.54c-0.02-0.96,0.18-1.82,0.58-2.57c0.4-0.75,0.97-1.34,1.71-1.77
				c0.74-0.43,1.58-0.65,2.53-0.66C-720.33,660.19-719.17,660.61-718.38,661.47z M-719.31,664.32c-0.04-0.71-0.28-1.27-0.73-1.68
				c-0.45-0.41-1.04-0.61-1.77-0.6c-0.68,0.01-1.25,0.23-1.71,0.65c-0.45,0.42-0.73,0.99-0.83,1.72L-719.31,664.32z"/>
			<path class="st1" d="M-705.89,662.23c-0.5-0.15-0.96-0.22-1.38-0.21c-0.4,0.01-0.71,0.08-0.94,0.22
				c-0.23,0.14-0.34,0.36-0.34,0.64c0.01,0.3,0.16,0.53,0.45,0.69c0.3,0.16,0.76,0.32,1.4,0.49c0.68,0.19,1.23,0.38,1.67,0.57
				c0.44,0.19,0.82,0.48,1.14,0.86c0.32,0.38,0.49,0.89,0.5,1.53c0.02,0.94-0.33,1.66-1.04,2.18c-0.71,0.52-1.61,0.78-2.7,0.8
				c-0.74,0.01-1.47-0.09-2.18-0.31c-0.71-0.22-1.32-0.54-1.82-0.97l0.78-1.65c0.44,0.36,0.96,0.65,1.56,0.85
				c0.6,0.2,1.18,0.29,1.72,0.29c0.43-0.01,0.78-0.09,1.03-0.24c0.26-0.15,0.38-0.38,0.38-0.68c-0.01-0.34-0.16-0.58-0.46-0.75
				c-0.3-0.16-0.79-0.34-1.47-0.53c-0.65-0.18-1.18-0.36-1.59-0.54c-0.41-0.18-0.77-0.46-1.08-0.83c-0.31-0.37-0.47-0.87-0.48-1.48
				c-0.02-0.95,0.32-1.68,1-2.19c0.68-0.51,1.54-0.77,2.59-0.79c0.64-0.01,1.26,0.07,1.89,0.24c0.62,0.17,1.17,0.41,1.66,0.73
				l-0.82,1.71C-704.91,662.59-705.39,662.38-705.89,662.23z"/>
			<path class="st1" d="M-695.4,669.27c-0.76,0.48-1.56,0.73-2.4,0.74c-0.83,0.01-1.51-0.22-2.05-0.69
				c-0.54-0.48-0.81-1.19-0.83-2.14l-0.08-4.75l-1.35,0.02l-0.05-1.71l1.37-0.02l-0.05-2.65l2.32-0.04l0.05,2.65l2.75-0.05
				l0.03,1.71l-2.75,0.05l0.08,4.34c0.01,0.44,0.1,0.76,0.27,0.94c0.17,0.18,0.42,0.27,0.76,0.27c0.36-0.01,0.81-0.15,1.36-0.42
				L-695.4,669.27z"/>
			<path class="st1" d="M-689.74,660.69c0.55-0.34,1.2-0.52,1.94-0.55l0.04,2.27c-1-0.04-1.79,0.2-2.37,0.73
				c-0.58,0.53-0.87,1.24-0.85,2.13l0.08,4.64l-2.34,0.04l-0.17-9.63l2.34-0.04l0.03,1.85
				C-690.73,661.52-690.3,661.03-689.74,660.69z"/>
			<path class="st1" d="M-678.99,660.79c0.77,0.39,1.37,0.96,1.81,1.69c0.44,0.73,0.67,1.58,0.68,2.54
				c0.02,0.97-0.18,1.83-0.59,2.59c-0.41,0.75-1,1.34-1.75,1.76c-0.75,0.42-1.63,0.64-2.63,0.66c-1.01,0.02-1.9-0.17-2.67-0.57
				c-0.78-0.39-1.38-0.96-1.82-1.7c-0.44-0.74-0.67-1.59-0.68-2.56c-0.02-0.96,0.18-1.81,0.59-2.56c0.41-0.75,1-1.33,1.76-1.75
				c0.76-0.42,1.65-0.64,2.65-0.66C-680.64,660.21-679.76,660.39-678.99,660.79z M-683.57,663.06c-0.49,0.55-0.73,1.25-0.72,2.12
				c0.02,0.86,0.28,1.56,0.79,2.09c0.51,0.53,1.18,0.79,1.99,0.78c0.79-0.01,1.44-0.29,1.93-0.84c0.49-0.55,0.73-1.25,0.72-2.12
				c-0.02-0.86-0.28-1.56-0.79-2.09c-0.51-0.53-1.17-0.79-1.96-0.78C-682.42,662.23-683.07,662.52-683.57,663.06z"/>
			<path class="st1" d="M-667.55,669.88l-2.68-4.16l-1.45,1.57l0.05,2.66l-2.34,0.04l-0.23-13.35l2.34-0.04l0.14,7.74l3.89-4.06
				l2.7-0.05l-3.5,3.77l3.88,5.84L-667.55,669.88z"/>
			<path class="st1" d="M-655.53,661.47c0.79,0.86,1.2,2.09,1.23,3.67c0.01,0.31,0,0.55-0.01,0.7l-7.11,0.12
				c0.17,0.68,0.5,1.21,0.99,1.59c0.49,0.38,1.09,0.57,1.8,0.55c0.49-0.01,0.96-0.11,1.41-0.3c0.45-0.19,0.84-0.47,1.17-0.82
				l1.28,1.29c-0.47,0.54-1.05,0.95-1.73,1.25c-0.69,0.3-1.45,0.46-2.29,0.47c-0.98,0.02-1.85-0.17-2.61-0.57
				c-0.76-0.39-1.35-0.96-1.77-1.69c-0.42-0.73-0.64-1.58-0.66-2.54c-0.02-0.96,0.18-1.82,0.58-2.57c0.4-0.75,0.97-1.34,1.71-1.77
				c0.74-0.43,1.58-0.65,2.53-0.66C-657.48,660.19-656.32,660.61-655.53,661.47z M-656.46,664.32c-0.04-0.71-0.28-1.27-0.73-1.68
				c-0.45-0.41-1.04-0.61-1.77-0.6c-0.68,0.01-1.25,0.23-1.71,0.65c-0.45,0.42-0.73,0.99-0.83,1.72L-656.46,664.32z"/>
			<path class="st1" d="M-790.05,699.12c0.57,0.55,1.33,0.82,2.28,0.81c0.95-0.02,1.69-0.31,2.23-0.88c0.54-0.57,0.8-1.36,0.78-2.35
				l-0.13-7.41l2.41-0.04l0.13,7.41c0.02,1.09-0.19,2.05-0.62,2.86c-0.43,0.82-1.05,1.45-1.87,1.9c-0.81,0.45-1.78,0.68-2.9,0.7
				c-1.13,0.02-2.11-0.18-2.95-0.6c-0.84-0.42-1.49-1.03-1.95-1.83c-0.46-0.8-0.7-1.75-0.72-2.84l-0.13-7.41l2.41-0.04l0.13,7.42
				C-790.91,697.79-790.62,698.56-790.05,699.12z"/>
			<path class="st1" d="M-770.94,693.14c0.65,0.65,0.98,1.55,1,2.69l0.1,6.01l-2.36,0.04l-0.09-5.33c-0.01-0.67-0.21-1.2-0.6-1.58
				c-0.39-0.38-0.92-0.57-1.58-0.56c-0.78,0.03-1.39,0.3-1.83,0.82c-0.44,0.52-0.65,1.19-0.64,1.99l0.08,4.73l-2.34,0.04l-0.17-9.63
				l2.34-0.04l0.03,1.8c0.64-1.25,1.78-1.9,3.42-1.95C-772.46,692.16-771.58,692.48-770.94,693.14z"/>
			<path class="st1" d="M-765.02,688.53c0.26,0.26,0.39,0.59,0.4,1c0.01,0.4-0.11,0.73-0.36,1c-0.25,0.27-0.56,0.41-0.95,0.41
				c-0.38,0.01-0.7-0.12-0.96-0.38c-0.26-0.26-0.39-0.59-0.39-0.98c-0.01-0.41,0.11-0.75,0.36-1.01c0.25-0.27,0.56-0.41,0.95-0.41
				C-765.59,688.15-765.27,688.28-765.02,688.53z M-767.06,692.31l2.34-0.04l0.17,9.63l-2.34,0.04L-767.06,692.31z"/>
			<path class="st1" d="M-752.22,692.21l0.23,13.12l-2.34,0.04l-0.09-5.04c-0.34,0.55-0.78,0.96-1.32,1.26
				c-0.54,0.29-1.17,0.44-1.89,0.46c-0.91,0.02-1.72-0.18-2.41-0.58c-0.7-0.4-1.24-0.97-1.64-1.72c-0.4-0.74-0.6-1.6-0.62-2.57
				c-0.02-0.96,0.16-1.81,0.52-2.56c0.37-0.74,0.89-1.33,1.57-1.75c0.68-0.42,1.47-0.64,2.36-0.65c0.73-0.01,1.38,0.12,1.93,0.4
				c0.56,0.28,1.02,0.68,1.39,1.22l-0.03-1.58L-752.22,692.21z M-755.2,699.22c0.5-0.55,0.74-1.26,0.73-2.13
				c-0.02-0.86-0.28-1.56-0.8-2.1c-0.52-0.54-1.18-0.8-1.99-0.78c-0.8,0.01-1.45,0.3-1.95,0.85c-0.49,0.55-0.74,1.26-0.74,2.13
				c0.03,0.86,0.3,1.56,0.81,2.1c0.51,0.54,1.17,0.8,1.98,0.78C-756.36,700.06-755.7,699.78-755.2,699.22z"/>
			<path class="st1" d="M-740.01,692.22l0.17,9.63l-2.36,0.04l-0.03-1.78c-0.63,1.26-1.73,1.9-3.31,1.93
				c-1.08,0.02-1.94-0.3-2.57-0.95c-0.64-0.65-0.96-1.54-0.98-2.68l-0.1-6.03l2.36-0.04l0.09,5.34c0.01,0.67,0.2,1.2,0.58,1.57
				c0.37,0.38,0.88,0.56,1.53,0.55c0.74-0.03,1.33-0.3,1.75-0.82c0.42-0.52,0.63-1.18,0.61-1.97l-0.08-4.75L-740.01,692.22z"/>
			<path class="st1" d="M-729.28,693.47c0.79,0.86,1.2,2.09,1.23,3.67c0.01,0.31,0,0.55-0.01,0.7l-7.11,0.12
				c0.17,0.68,0.5,1.21,0.99,1.59c0.49,0.38,1.09,0.57,1.8,0.55c0.49-0.01,0.96-0.11,1.41-0.3c0.45-0.19,0.84-0.47,1.16-0.82
				l1.28,1.29c-0.47,0.54-1.05,0.95-1.73,1.25c-0.69,0.3-1.45,0.46-2.29,0.47c-0.98,0.02-1.85-0.17-2.61-0.57
				c-0.76-0.39-1.35-0.96-1.77-1.69c-0.42-0.73-0.64-1.58-0.66-2.54c-0.02-0.96,0.18-1.82,0.58-2.57c0.4-0.75,0.97-1.34,1.71-1.77
				c0.74-0.43,1.58-0.65,2.53-0.66C-731.23,692.19-730.07,692.61-729.28,693.47z M-730.21,696.32c-0.04-0.71-0.28-1.27-0.73-1.68
				c-0.45-0.41-1.04-0.61-1.77-0.6c-0.68,0.01-1.25,0.23-1.71,0.65c-0.45,0.42-0.73,0.99-0.83,1.72L-730.21,696.32z"/>
			<path class="st1" d="M-716.8,694.23c-0.5-0.15-0.96-0.22-1.38-0.21c-0.4,0.01-0.71,0.08-0.94,0.22
				c-0.23,0.14-0.34,0.36-0.34,0.64c0.01,0.3,0.16,0.53,0.45,0.69c0.3,0.16,0.76,0.32,1.4,0.49c0.68,0.19,1.23,0.38,1.67,0.57
				c0.44,0.19,0.82,0.48,1.14,0.86c0.32,0.38,0.49,0.89,0.5,1.53c0.02,0.94-0.33,1.66-1.04,2.18c-0.71,0.52-1.61,0.78-2.7,0.8
				c-0.74,0.01-1.47-0.09-2.18-0.31c-0.71-0.22-1.32-0.54-1.82-0.97l0.78-1.65c0.44,0.36,0.96,0.65,1.56,0.85
				c0.6,0.2,1.18,0.29,1.72,0.29c0.43-0.01,0.78-0.09,1.03-0.24c0.26-0.15,0.38-0.38,0.38-0.68c-0.01-0.34-0.16-0.58-0.46-0.75
				c-0.3-0.16-0.79-0.34-1.47-0.53c-0.65-0.18-1.18-0.36-1.59-0.54c-0.41-0.18-0.77-0.46-1.08-0.83c-0.31-0.37-0.47-0.87-0.48-1.48
				c-0.02-0.95,0.32-1.68,1-2.19c0.68-0.51,1.54-0.77,2.59-0.79c0.64-0.01,1.26,0.07,1.89,0.24c0.62,0.17,1.17,0.41,1.66,0.73
				l-0.82,1.71C-715.81,694.59-716.3,694.38-716.8,694.23z"/>
			<path class="st1" d="M-706.31,701.27c-0.76,0.48-1.56,0.73-2.4,0.74c-0.83,0.01-1.51-0.22-2.05-0.69
				c-0.54-0.48-0.81-1.19-0.83-2.14l-0.08-4.75l-1.35,0.02l-0.05-1.71l1.37-0.02l-0.05-2.65l2.32-0.04l0.05,2.65l2.75-0.05
				l0.03,1.71l-2.75,0.05l0.08,4.34c0.01,0.44,0.1,0.76,0.27,0.94c0.17,0.18,0.42,0.27,0.76,0.27c0.36-0.01,0.81-0.15,1.36-0.42
				L-706.31,701.27z"/>
			<path class="st1" d="M-701.26,704.93c-0.55,0.41-1.21,0.62-1.98,0.64c-0.47,0.01-0.89-0.05-1.27-0.19
				c-0.38-0.13-0.76-0.34-1.14-0.64l0.98-1.8c0.23,0.16,0.44,0.28,0.64,0.36c0.19,0.07,0.4,0.11,0.61,0.11
				c0.64-0.01,1.1-0.34,1.39-1l0.28-0.63l-4.14-9.4l2.43-0.04l2.86,6.95l2.38-7.04l2.36-0.04l-4.13,10.91
				C-700.29,703.91-700.71,704.52-701.26,704.93z"/>
			<path class="st1" d="M-694.19,688.59l2.34-0.04l0.23,13.35l-2.34,0.04L-694.19,688.59z"/>
			<path class="st1" d="M-680.96,693.47c0.79,0.86,1.2,2.09,1.23,3.67c0.01,0.31,0,0.55-0.01,0.7l-7.11,0.12
				c0.17,0.68,0.5,1.21,0.99,1.59c0.49,0.38,1.09,0.57,1.8,0.55c0.49-0.01,0.96-0.11,1.41-0.3c0.45-0.19,0.83-0.47,1.16-0.82
				l1.28,1.29c-0.47,0.54-1.05,0.95-1.73,1.25c-0.69,0.3-1.45,0.46-2.29,0.47c-0.98,0.02-1.85-0.17-2.61-0.57
				c-0.76-0.39-1.35-0.96-1.77-1.69c-0.42-0.73-0.64-1.58-0.66-2.54c-0.02-0.96,0.18-1.82,0.58-2.57c0.4-0.75,0.97-1.34,1.71-1.77
				c0.74-0.43,1.58-0.65,2.53-0.66C-682.92,692.19-681.75,692.61-680.96,693.47z M-681.9,696.32c-0.04-0.71-0.28-1.27-0.73-1.68
				c-0.45-0.41-1.04-0.61-1.77-0.6c-0.68,0.01-1.25,0.23-1.71,0.65c-0.45,0.42-0.73,0.99-0.83,1.72L-681.9,696.32z"/>
			<path class="st1" d="M-794.77,721.38l5.06-0.09l0.22,12.6l-2.41,0.04l-0.18-10.47l-2.65,0.05L-794.77,721.38z"/>
			<path class="st1" d="M-777.19,722.8c0.96,1.09,1.45,2.66,1.49,4.73c0.04,2.05-0.4,3.64-1.32,4.76c-0.92,1.12-2.24,1.7-3.98,1.73
				c-1.74,0.03-3.09-0.5-4.04-1.59c-0.96-1.09-1.45-2.66-1.49-4.71c-0.04-2.06,0.4-3.66,1.32-4.78c0.92-1.12,2.24-1.7,3.98-1.73
				C-779.49,721.19-778.14,721.71-777.19,722.8z M-783.39,724.25c-0.47,0.73-0.69,1.88-0.66,3.42c0.03,1.54,0.29,2.67,0.78,3.39
				c0.49,0.72,1.24,1.08,2.23,1.06c1-0.02,1.73-0.4,2.19-1.14c0.47-0.74,0.69-1.88,0.66-3.41c-0.03-1.55-0.29-2.68-0.78-3.4
				c-0.49-0.72-1.24-1.07-2.23-1.05C-782.19,723.14-782.92,723.52-783.39,724.25z"/>
			<path class="st1" d="M-764.17,722.8c0.96,1.09,1.45,2.66,1.49,4.73c0.04,2.05-0.4,3.64-1.32,4.76c-0.92,1.12-2.24,1.7-3.98,1.73
				c-1.74,0.03-3.09-0.5-4.04-1.59c-0.96-1.09-1.45-2.66-1.49-4.71c-0.04-2.06,0.4-3.66,1.32-4.78c0.92-1.12,2.24-1.7,3.98-1.73
				C-766.47,721.19-765.12,721.71-764.17,722.8z M-770.37,724.25c-0.47,0.73-0.69,1.88-0.66,3.42c0.03,1.54,0.29,2.67,0.78,3.39
				c0.49,0.72,1.24,1.08,2.23,1.06c1-0.02,1.73-0.4,2.19-1.14c0.47-0.74,0.69-1.88,0.66-3.41c-0.03-1.55-0.29-2.68-0.78-3.4
				c-0.49-0.72-1.24-1.07-2.23-1.05C-769.17,723.14-769.9,723.52-770.37,724.25z"/>
			<path class="st1" d="M-755.1,722.33c0.61,0.66,0.93,1.57,0.95,2.75c0.02,1.18-0.26,2.11-0.85,2.8c-0.59,0.69-1.41,1.04-2.47,1.06
				c-1.04,0.02-1.87-0.31-2.48-0.97c-0.61-0.67-0.93-1.59-0.95-2.76c-0.02-1.16,0.26-2.09,0.85-2.77c0.59-0.68,1.4-1.03,2.45-1.05
				C-756.54,721.35-755.71,721.67-755.1,722.33z M-758.9,723.39c-0.31,0.42-0.46,1.02-0.45,1.77c0.01,0.77,0.18,1.36,0.51,1.78
				c0.33,0.42,0.78,0.63,1.35,0.62c0.59-0.01,1.04-0.23,1.36-0.66c0.32-0.43,0.47-1.03,0.45-1.8c-0.01-0.76-0.19-1.34-0.52-1.76
				c-0.33-0.41-0.79-0.62-1.38-0.61C-758.15,722.75-758.59,722.97-758.9,723.39z M-749.18,721.26l1.78-0.03l-8.96,12.76l-1.8,0.03
				L-749.18,721.26z M-745.45,727.29c0.61,0.66,0.93,1.57,0.95,2.75s-0.26,2.11-0.85,2.8c-0.59,0.69-1.41,1.04-2.47,1.06
				c-1.04,0.02-1.87-0.31-2.48-0.97c-0.61-0.67-0.93-1.59-0.95-2.77c-0.02-1.16,0.26-2.09,0.85-2.77c0.59-0.68,1.4-1.03,2.45-1.05
				C-746.9,726.32-746.06,726.64-745.45,727.29z M-749.26,728.36c-0.31,0.43-0.46,1.02-0.45,1.77c0.01,0.77,0.18,1.36,0.51,1.78
				c0.33,0.42,0.78,0.62,1.35,0.62c0.59-0.01,1.04-0.23,1.36-0.66c0.32-0.43,0.47-1.03,0.45-1.8c-0.01-0.76-0.19-1.34-0.52-1.75
				c-0.33-0.41-0.79-0.62-1.38-0.61C-748.51,727.71-748.95,727.93-749.26,728.36z"/>
			<path class="st1" d="M-738.99,724.4l2.45-0.06l2.65,7.28l2.34-7.37l2.36-0.04l-3.5,9.69l-2.41,0.04L-738.99,724.4z"/>
			<path class="st1" d="M-720.04,725.47c0.79,0.86,1.2,2.09,1.23,3.67c0.01,0.31,0,0.55-0.01,0.7l-7.11,0.12
				c0.17,0.68,0.5,1.21,0.99,1.59c0.49,0.38,1.09,0.57,1.8,0.55c0.49-0.01,0.96-0.11,1.41-0.3c0.45-0.19,0.83-0.47,1.17-0.82
				l1.28,1.29c-0.47,0.54-1.05,0.95-1.73,1.25c-0.69,0.3-1.45,0.46-2.29,0.47c-0.98,0.02-1.85-0.17-2.61-0.57
				c-0.76-0.39-1.35-0.96-1.77-1.69c-0.42-0.73-0.64-1.58-0.66-2.54c-0.02-0.96,0.18-1.82,0.58-2.57c0.4-0.75,0.97-1.34,1.71-1.77
				c0.74-0.43,1.58-0.65,2.53-0.66C-721.99,724.19-720.83,724.61-720.04,725.47z M-720.97,728.32c-0.04-0.71-0.28-1.27-0.73-1.68
				c-0.45-0.41-1.04-0.61-1.77-0.6c-0.68,0.01-1.25,0.23-1.71,0.65c-0.45,0.42-0.73,0.99-0.83,1.72L-720.97,728.32z"/>
			<path class="st1" d="M-712.43,726.27c-0.78,0.01-1.41,0.29-1.88,0.83c-0.48,0.54-0.71,1.22-0.69,2.06
				c0.02,0.86,0.27,1.56,0.77,2.08c0.5,0.52,1.13,0.77,1.91,0.76c1.15-0.02,2.01-0.41,2.57-1.18l1.48,1.18
				c-0.42,0.63-0.98,1.12-1.68,1.47c-0.7,0.35-1.52,0.53-2.46,0.55c-0.95,0.02-1.79-0.17-2.54-0.57c-0.75-0.4-1.33-0.96-1.75-1.69
				c-0.42-0.73-0.64-1.58-0.66-2.54c-0.02-0.97,0.18-1.83,0.58-2.58c0.4-0.75,0.97-1.34,1.7-1.76c0.73-0.42,1.58-0.64,2.54-0.66
				c0.88-0.02,1.66,0.12,2.36,0.42c0.69,0.29,1.26,0.72,1.71,1.28l-1.4,1.37C-710.56,726.59-711.4,726.25-712.43,726.27z"/>
			<path class="st1" d="M-700.32,733.27c-0.76,0.48-1.56,0.73-2.4,0.74c-0.83,0.01-1.51-0.22-2.05-0.69
				c-0.54-0.48-0.81-1.19-0.83-2.14l-0.08-4.75l-1.35,0.02l-0.05-1.71l1.37-0.02l-0.05-2.65l2.32-0.04l0.05,2.65l2.75-0.05
				l0.03,1.71l-2.75,0.05l0.08,4.34c0.01,0.44,0.1,0.76,0.27,0.94c0.17,0.18,0.42,0.27,0.76,0.27c0.36-0.01,0.81-0.15,1.36-0.42
				L-700.32,733.27z"/>
			<path class="st1" d="M-691.47,724.79c0.77,0.39,1.37,0.96,1.81,1.69c0.44,0.73,0.67,1.58,0.68,2.54
				c0.02,0.97-0.18,1.83-0.59,2.59c-0.41,0.75-1,1.34-1.75,1.76c-0.75,0.42-1.63,0.64-2.63,0.66c-1.01,0.02-1.9-0.17-2.67-0.57
				c-0.78-0.39-1.38-0.96-1.82-1.7c-0.44-0.74-0.67-1.59-0.68-2.56c-0.02-0.96,0.18-1.81,0.59-2.56c0.41-0.75,1-1.33,1.76-1.75
				c0.76-0.42,1.65-0.64,2.65-0.66C-693.12,724.21-692.23,724.39-691.47,724.79z M-696.04,727.06c-0.49,0.55-0.73,1.25-0.72,2.12
				c0.02,0.86,0.28,1.56,0.79,2.09c0.51,0.53,1.18,0.79,1.99,0.78c0.79-0.01,1.44-0.29,1.93-0.84c0.49-0.55,0.73-1.25,0.72-2.12
				c-0.02-0.86-0.28-1.56-0.79-2.09c-0.51-0.53-1.17-0.79-1.96-0.78C-694.89,726.23-695.55,726.52-696.04,727.06z"/>
			<path class="st1" d="M-683.04,724.69c0.55-0.34,1.2-0.52,1.94-0.55l0.04,2.27c-1-0.04-1.79,0.2-2.37,0.73
				c-0.59,0.53-0.87,1.24-0.85,2.13l0.08,4.64l-2.34,0.04l-0.17-9.63l2.34-0.04l0.03,1.85
				C-684.02,725.52-683.59,725.03-683.04,724.69z"/>
		</g>
		<path id="frame" class="st5" d="M-626.45,629.58h-194.48c-6.45,0-11.68,5.23-11.68,11.68v108.32c0,6.45,5.23,11.68,11.68,11.68
			h194.48c6.45,0,11.68-5.23,11.68-11.68V641.25C-614.77,634.8-620,629.58-626.45,629.58z"/>
		<g id="_x32_0">
			<path class="st1" d="M-733.45,416.56h-66.08l36.8-44.32c0.43-0.53,0.85-1.04,1.28-1.52c0.42-0.48,0.8-0.99,1.12-1.52
				c2.67-3.41,5.09-7.06,7.28-10.96c2.19-3.89,3.28-7.97,3.28-12.24v-3.04c-0.53-4.16-2.29-7.23-5.28-9.2
				c-2.99-1.97-6.24-2.96-9.76-2.96c-0.32,0-0.67,0-1.04,0c-0.38,0-0.72,0.05-1.04,0.16c-3.73,0.43-7.15,1.92-10.24,4.48
				c-3.1,2.56-4.69,6.03-4.8,10.4h-15.36c0-9.39,3.39-16.58,10.16-21.6c6.77-5.01,14.37-7.52,22.8-7.52c1.07,0,2.13,0.03,3.2,0.08
				c1.07,0.05,2.19,0.13,3.36,0.24c1.06,0.21,2.13,0.43,3.2,0.64c1.06,0.21,2.13,0.48,3.2,0.8c5.65,2.03,10,5.28,13.04,9.76
				c3.04,4.48,4.56,9.71,4.56,15.68c0,7.47-2,14.4-6,20.8c-4,6.4-8.4,12.38-13.2,17.92c-0.96,1.07-1.9,2.13-2.8,3.2
				c-0.91,1.07-1.84,2.13-2.8,3.2l-12.48,14.56h37.6V416.56z"/>
			<path class="st1" d="M-693.13,317.6c1.92-0.48,3.84-0.83,5.76-1.04c0.53,0,1.09-0.03,1.68-0.08c0.59-0.05,1.15-0.08,1.68-0.08
				c0.75,0,1.49,0.03,2.24,0.08c0.75,0.05,1.55,0.13,2.4,0.24c2.45,0.32,4.88,0.91,7.28,1.76c2.4,0.86,4.56,1.92,6.48,3.2
				c5.23,3.63,9.2,8.83,11.92,15.6c2.72,6.78,4.45,13.9,5.2,21.36c0.21,1.6,0.34,3.17,0.4,4.72c0.05,1.55,0.08,3.12,0.08,4.72
				c0,3.52-0.19,6.96-0.56,10.32c-0.38,3.36-0.88,6.48-1.52,9.36c-2.24,9.17-6.16,16.64-11.76,22.4c-5.6,5.76-12.78,8.64-21.52,8.64
				c-0.86,0-1.74-0.03-2.64-0.08c-0.91-0.05-1.84-0.13-2.8-0.24c-0.43-0.11-0.88-0.19-1.36-0.24c-0.48-0.05-0.93-0.13-1.36-0.24
				c-8.86-1.6-15.34-6.24-19.44-13.92c-4.11-7.68-6.7-15.94-7.76-24.8c-0.21-1.81-0.38-3.62-0.48-5.44
				c-0.11-1.81-0.16-3.62-0.16-5.44c0-2.88,0.1-5.71,0.32-8.48c0.21-2.77,0.53-5.23,0.96-7.36c0.1-0.85,0.24-1.68,0.4-2.48
				c0.16-0.8,0.35-1.62,0.56-2.48c1.39-5.65,3.57-11.04,6.56-16.16c2.98-5.12,7.04-9.06,12.16-11.84
				C-696.81,318.75-695.05,318.08-693.13,317.6z M-665.37,381.36c0.05-0.42,0.13-0.91,0.24-1.44c0.21-1.81,0.4-3.84,0.56-6.08
				c0.16-2.24,0.24-4.53,0.24-6.88c0-1.28-0.03-2.58-0.08-3.92c-0.06-1.33-0.14-2.64-0.24-3.92c-0.43-5.01-1.31-9.78-2.64-14.32
				c-1.34-4.53-3.39-8.08-6.16-10.64c-0.96-0.96-2.14-1.73-3.52-2.32c-1.39-0.58-2.83-0.99-4.32-1.2c-0.43,0-0.85-0.03-1.28-0.08
				c-0.43-0.05-0.86-0.08-1.28-0.08c-0.32,0-0.7,0-1.12,0c-0.43,0-0.8,0.05-1.12,0.16c-0.75,0.11-1.5,0.24-2.24,0.4
				c-0.75,0.16-1.49,0.4-2.24,0.72c-2.88,1.28-5.07,3.31-6.56,6.08c-1.5,2.77-2.67,5.76-3.52,8.96c-0.21,1.07-0.43,2.16-0.64,3.28
				c-0.21,1.12-0.43,2.22-0.64,3.28c-0.32,1.5-0.56,3.36-0.72,5.6c-0.16,2.24-0.29,4.53-0.4,6.88c0,0.43,0,0.88,0,1.36
				c0,0.48,0,0.94,0,1.36c0,1.28,0.02,2.59,0.08,3.92c0.05,1.34,0.13,2.64,0.24,3.92c0.43,5.98,1.54,11.6,3.36,16.88
				c1.81,5.28,4.74,8.83,8.8,10.64c0.21,0,0.4,0.05,0.56,0.16c0.16,0.11,0.34,0.16,0.56,0.16c0.64,0.21,1.3,0.4,2,0.56
				c0.69,0.16,1.41,0.29,2.16,0.4c0.21,0.11,0.48,0.16,0.8,0.16c0.32,0,0.64,0,0.96,0c0.42,0,0.88-0.02,1.36-0.08
				c0.48-0.05,0.98-0.13,1.52-0.24c0.32-0.11,0.67-0.19,1.04-0.24c0.37-0.05,0.72-0.13,1.04-0.24c0.32-0.11,0.64-0.18,0.96-0.24
				c0.32-0.05,0.58-0.13,0.8-0.24c2.88-1.38,5.07-3.46,6.56-6.24c1.49-2.77,2.67-5.65,3.52-8.64c0.21-1.17,0.43-2.29,0.64-3.36
				c0.21-1.07,0.42-2.13,0.64-3.2C-665.45,382.22-665.43,381.79-665.37,381.36z"/>
		</g>
		<g id="lines">
			<line class="st6" x1="-608.47" y1="448.82" x2="-598.69" y2="448.82"/>
			<line class="st6" x1="-848.69" y1="448.82" x2="-838.91" y2="448.82"/>
		</g>
		<g id="markers">
			<path id="marker_2_" class="st1" d="M-803.32,667.64L-803.32,667.64c-1.31,0-2.38-1.06-2.38-2.38l0,0c0-1.31,1.06-2.38,2.38-2.38
				l0,0c1.31,0,2.38,1.06,2.38,2.38l0,0C-800.94,666.57-802,667.64-803.32,667.64z"/>
			<path id="marker_1_" class="st1" d="M-803.32,698.79L-803.32,698.79c-1.31,0-2.38-1.06-2.38-2.38l0,0c0-1.31,1.06-2.38,2.38-2.38
				l0,0c1.31,0,2.38,1.06,2.38,2.38l0,0C-800.94,697.73-802,698.79-803.32,698.79z"/>
			<path id="marker" class="st1" d="M-803.32,729.94L-803.32,729.94c-1.31,0-2.38-1.06-2.38-2.38l0,0c0-1.31,1.06-2.38,2.38-2.38
				l0,0c1.31,0,2.38,1.06,2.38,2.38l0,0C-800.94,728.88-802,729.94-803.32,729.94z"/>
		</g>
		<g id="set_name" class="st7">
			<g>
				<path class="st1" d="M-775.27,559.96c-0.64-0.3-1.29-0.46-1.95-0.46c-0.82,0-1.58,0.2-2.26,0.59c-0.68,0.39-1.22,0.93-1.62,1.62
					c-0.39,0.69-0.59,1.45-0.59,2.27c0,0.82,0.2,1.58,0.59,2.27c0.39,0.69,0.93,1.24,1.62,1.63c0.68,0.4,1.44,0.6,2.26,0.6
					c0.63,0,1.27-0.14,1.91-0.42c0.64-0.28,1.21-0.66,1.7-1.16l1.5,1.67c-0.7,0.71-1.51,1.27-2.43,1.68
					c-0.92,0.41-1.86,0.62-2.81,0.62c-1.28,0-2.45-0.3-3.52-0.91c-1.06-0.61-1.9-1.43-2.51-2.48c-0.61-1.04-0.91-2.2-0.91-3.47
					s0.31-2.42,0.93-3.46c0.62-1.04,1.47-1.86,2.54-2.45c1.07-0.59,2.26-0.89,3.56-0.89c0.95,0,1.88,0.19,2.79,0.57
					c0.91,0.38,1.69,0.91,2.34,1.58l-1.48,1.86C-774.07,560.69-774.63,560.27-775.27,559.96z"/>
				<path class="st1" d="M-760.64,558.12c1.08,0.6,1.93,1.41,2.56,2.45c0.62,1.04,0.93,2.19,0.93,3.46s-0.31,2.42-0.93,3.47
					c-0.62,1.04-1.47,1.87-2.56,2.48c-1.08,0.61-2.28,0.91-3.6,0.91s-2.52-0.3-3.6-0.91c-1.08-0.61-1.94-1.43-2.56-2.48
					c-0.62-1.04-0.93-2.2-0.93-3.47s0.31-2.42,0.93-3.46c0.62-1.04,1.47-1.86,2.56-2.45c1.08-0.59,2.28-0.89,3.6-0.89
					S-761.72,557.53-760.64,558.12z M-766.46,560.11c-0.7,0.4-1.25,0.94-1.65,1.63c-0.41,0.69-0.61,1.45-0.61,2.29
					c0,0.84,0.21,1.6,0.62,2.3c0.41,0.7,0.96,1.25,1.65,1.65c0.69,0.41,1.44,0.61,2.25,0.61c0.8,0,1.54-0.2,2.22-0.61
					c0.68-0.41,1.23-0.96,1.62-1.65c0.4-0.7,0.6-1.46,0.6-2.3c0-0.84-0.2-1.6-0.6-2.29c-0.4-0.69-0.94-1.23-1.62-1.63
					c-0.68-0.4-1.42-0.6-2.22-0.6C-765.01,559.51-765.76,559.71-766.46,560.11z"/>
				<path class="st1" d="M-745.64,557.4h2.47v13.3h-2.41l-6.84-9.16v9.16h-2.49v-13.3h2.41l6.86,9.18V557.4z"/>
				<path class="st1" d="M-741.38,557.4h10.85v2.26h-4.14v11.04h-2.57v-11.04h-4.14V557.4z"/>
				<path class="st1" d="M-720.23,570.7l-1.18-2.81h-6.5l-1.18,2.81h-2.64l5.83-13.3h2.64l5.76,13.3H-720.23z M-727,565.7h4.67
					l-2.32-5.59L-727,565.7z"/>
				<path class="st1" d="M-708.25,559.96c-0.64-0.3-1.29-0.46-1.95-0.46c-0.82,0-1.58,0.2-2.26,0.59c-0.68,0.39-1.22,0.93-1.62,1.62
					c-0.39,0.69-0.59,1.45-0.59,2.27c0,0.82,0.2,1.58,0.59,2.27c0.39,0.69,0.93,1.24,1.62,1.63c0.68,0.4,1.44,0.6,2.26,0.6
					c0.63,0,1.27-0.14,1.91-0.42c0.64-0.28,1.21-0.66,1.7-1.16l1.5,1.67c-0.7,0.71-1.51,1.27-2.43,1.68
					c-0.92,0.41-1.86,0.62-2.81,0.62c-1.28,0-2.45-0.3-3.52-0.91c-1.06-0.61-1.9-1.43-2.51-2.48c-0.61-1.04-0.91-2.2-0.91-3.47
					s0.31-2.42,0.93-3.46c0.62-1.04,1.47-1.86,2.54-2.45c1.07-0.59,2.26-0.89,3.56-0.89c0.95,0,1.88,0.19,2.79,0.57
					c0.91,0.38,1.69,0.91,2.34,1.58l-1.48,1.86C-707.06,560.69-707.61,560.27-708.25,559.96z"/>
				<path class="st1" d="M-704.48,557.4h10.85v2.26h-4.14v11.04h-2.56v-11.04h-4.14V557.4z"/>
				<path class="st1" d="M-683.98,567.7c0.6,0.6,1.39,0.89,2.39,0.89c1,0,1.79-0.3,2.37-0.89c0.58-0.6,0.86-1.42,0.86-2.47v-7.83
					h2.55v7.83c0,1.15-0.23,2.16-0.7,3.01c-0.47,0.86-1.14,1.51-2,1.97c-0.87,0.46-1.89,0.68-3.07,0.68c-1.19,0-2.23-0.23-3.11-0.68
					c-0.88-0.46-1.55-1.11-2.02-1.97c-0.47-0.85-0.7-1.86-0.7-3.01v-7.83h2.55v7.83C-684.87,566.28-684.58,567.1-683.98,567.7z"/>
				<path class="st1" d="M-666.55,559.85c-0.72-0.23-1.35-0.34-1.89-0.34c-0.61,0-1.09,0.11-1.44,0.34
					c-0.36,0.23-0.53,0.54-0.53,0.95c0,0.37,0.12,0.67,0.37,0.92c0.25,0.25,0.56,0.45,0.93,0.61c0.37,0.16,0.88,0.33,1.53,0.52
					c0.9,0.27,1.64,0.53,2.21,0.8c0.58,0.27,1.07,0.66,1.47,1.18c0.41,0.52,0.61,1.2,0.61,2.05c0,0.81-0.22,1.52-0.66,2.12
					c-0.44,0.6-1.04,1.06-1.81,1.38c-0.77,0.32-1.64,0.48-2.63,0.48c-1.04,0-2.05-0.19-3.04-0.58c-0.99-0.39-1.85-0.9-2.58-1.55
					l1.06-2.17c0.67,0.62,1.42,1.11,2.26,1.46c0.84,0.35,1.61,0.53,2.34,0.53c0.71,0,1.27-0.14,1.67-0.41
					c0.41-0.27,0.61-0.64,0.61-1.11c0-0.38-0.12-0.69-0.37-0.94c-0.25-0.25-0.56-0.45-0.94-0.6c-0.38-0.15-0.9-0.32-1.56-0.51
					c-0.9-0.27-1.63-0.53-2.2-0.78c-0.57-0.25-1.06-0.64-1.46-1.15c-0.41-0.51-0.61-1.19-0.61-2.02c0-0.77,0.21-1.45,0.62-2.02
					c0.41-0.58,0.99-1.02,1.75-1.34c0.75-0.32,1.62-0.47,2.61-0.47c0.86,0,1.71,0.13,2.56,0.38c0.84,0.25,1.59,0.6,2.25,1.03
					l-1.03,2.22C-665.13,560.4-665.83,560.08-666.55,559.85z"/>
			</g>
		</g>
	</g>
</g>
<g id="Icons">
	<g id="_x32_0_1_">
		<polyline class="st8" points="112.08,759.98 103.85,759.98 94.73,782.16 161.1,782.16 151.98,759.98 143.74,759.98 		"/>
		<g>
			<path class="st8" d="M144.4,740.66c0,2.58-0.59,5.02-1.65,7.2c-2.67,5.5-14.84,22.51-14.84,22.51s-11.87-16.82-14.63-22.09
				c-1.19-2.28-1.86-4.87-1.86-7.62c0-9.1,7.38-16.49,16.49-16.49C137.02,724.17,144.4,731.55,144.4,740.66z"/>
			<circle class="st8" cx="127.91" cy="740.66" r="6.72"/>
		</g>
		<line class="st8" x1="94.73" y1="787.9" x2="161.1" y2="787.9"/>
	</g>
	<g id="_x31_9">
		<polyline class="st8" points="16.62,758.9 16.62,782.97 -39.46,782.97 -39.46,743.17 -2.12,743.17 		"/>
		<polygon class="st8" points="8.27,760.94 -1.65,765.88 -1.65,754.79 20.36,719.24 30.29,725.39 		"/>
		<line class="st8" x1="16.98" y1="724.69" x2="26.06" y2="730.31"/>
		<g>
			<line class="st8" x1="-8.7" y1="767.02" x2="-28.93" y2="767.02"/>
			<line class="st8" x1="-14.25" y1="759.11" x2="-28.93" y2="759.11"/>
		</g>
	</g>
	<g id="_x31_8">
		<g id="_x32__2_">
			<polyline class="st8" points="-178.82,775.07 -178.53,730.11 -112.23,730.54 -112.52,769.87 			"/>
			<path class="st8" d="M-136.2,775.07l-2.27,1.98h-14.12l-2.27-1.98h-32.29c1.48,4.13,5.4,6.89,9.79,6.89h63.66
				c4.39,0,8.31-2.76,9.79-6.89H-136.2z"/>
		</g>
		<polygon class="st8" points="-139.55,761.14 -142.88,755.18 -138.82,752.88 -152.13,744.8 -152.23,760.36 -148.18,758.1 
			-144.84,764.06 		"/>
	</g>
	<g id="_x31_7">
		<polyline class="st8" points="-250.6,752.76 -282.24,724.19 -313.88,752.76 		"/>
		<polyline class="st8" points="-307.59,755.8 -307.59,787.89 -290.69,787.89 -290.69,771.69 -273.79,771.69 -273.79,787.89 
			-256.9,787.89 -256.9,755.8 		"/>
	</g>
	<g id="_x31_6">
		<path class="st8" d="M-411.46,756.51l-0.56-5.09c3.95-3.42,6.6-9.45,6.6-15.36c0-8.96-1.28-16.22-13.53-16.22
			c-12.25,0-13.53,7.26-13.53,16.22c0,5.92,2.65,11.94,6.6,15.36l-0.57,5.09c-0.2,1.82-1.49,3.33-3.25,3.82l-12.48,3.46
			c-3.26,0.9-5.52,3.87-5.52,7.26v21.19h57.49v-21.19c0-3.38-2.26-6.35-5.52-7.26l-12.48-3.46
			C-409.98,759.84-411.26,758.33-411.46,756.51z"/>
		<path class="st8" d="M-427.08,730.6c0,0,3.58,1.4,6.9,1.4c4.41,0,8.89-1.9,8.89-1.9s2.54,1.94,5.15,1.9"/>
		<path class="st8" d="M-429.71,761.29l0.82,0.68c5.76,4.77,14.1,4.77,19.86,0l0.82-0.68"/>
	</g>
	<g id="_x31_5">
		<rect x="92.27" y="571.54" class="st9" width="71.29" height="56.99"/>
		<line class="st9" x1="92.27" y1="581.3" x2="158.53" y2="581.3"/>
		<line class="st9" x1="96.74" y1="576.47" x2="99.31" y2="576.47"/>
		<line class="st9" x1="101.88" y1="576.47" x2="104.45" y2="576.47"/>
		<line class="st9" x1="107.02" y1="576.47" x2="109.59" y2="576.47"/>
		<line class="st9" x1="106.32" y1="608.5" x2="108.89" y2="608.5"/>
		<polyline class="st8" points="118.54,608.5 112.67,608.5 112.67,598.45 118.54,598.45 		"/>
		<rect x="124.33" y="598.45" class="st8" width="6.68" height="10.05"/>
		<polyline class="st8" points="136.96,608 136.96,598.45 139.03,598.45 141.9,602.23 141.9,602.23 144.67,598.45 146.74,598.45 
			146.74,608 		"/>
	</g>
	<g id="_x31_4">
		<path class="st8" d="M-17.55,590.78l-0.36,1.97c-0.75,4.66-4.84,8.15-9.57,8.15c0,0,0,0-0.01,0l-1.78,0
			c-2.12,0-3.99,1.37-4.64,3.39c-1.24,3.87-3.29,10.3-4.86,15.22c-1.08,3.38,1.44,6.82,4.98,6.82h49.95c3.54,0,6.06-3.45,4.98-6.82
			l-4.86-15.21c-0.65-2.02-2.52-3.39-4.64-3.39l-1.78,0c-4.73,0-8.82-3.5-9.57-8.15l-0.36-1.97"/>
		<path class="st8" d="M2.36,591.23L2.36,591.23L2.36,591.23z"/>
		<path class="st8" d="M3.38,585.37c2.12,0.49,2.33,1.01,2.33,1.01l1.08,5.96c0.22,1.53,1.53,2.66,3.08,2.66l10.04,0
			c1.46,0,2.7-1.09,2.89-2.54l0.5-3.88c0.04-0.33,0.05-0.68,0-1.01c-1.68-10.35-17.21-13.82-32.1-13.82
			c-14.48,0-30.75,3.35-32.12,13.88c-0.04,0.3-0.03,0.6,0.01,0.9l0.51,3.94c0.19,1.45,1.42,2.54,2.89,2.54l10.04,0
			c1.55,0,2.86-1.13,3.08-2.66l1.08-5.96c0,0,0.9-1.91,14.51-1.91c4.86,0,8.1,0.24,10.25,0.55C2.23,585.13,2.86,585.25,3.38,585.37"
			/>
		<circle class="st8" cx="-8.81" cy="609.39" r="6.86"/>
	</g>
	<g id="_x31_3">
		<polyline class="st8" points="-138.27,583.14 -138.27,574.64 -179.81,574.64 -179.81,603.64 -174.74,603.64 -174.74,610.94 
			-167.44,603.64 -138.27,603.64 -138.27,594.42 		"/>
		<polyline class="st8" points="-152.77,597.94 -152.77,589.14 -111.23,589.14 -111.23,618.14 -116.31,618.14 -116.31,625.44 
			-123.61,618.14 -152.77,618.14 -152.77,603.94 		"/>
	</g>
	<g id="_x31_2">
		<g id="_x38__2_">
			<path class="st8" d="M-293.97,593.39c-1.23-1.96-1-2.51-1-2.51l3.66-5.31c0.98-1.32,0.84-3.16-0.32-4.32l-7.58-7.53
				c-1.1-1.1-2.85-1.2-4.08-0.25l-3.29,2.55c-0.28,0.22-0.54,0.47-0.75,0.76c-6.49,9.06,2.62,23.33,13.85,34.5
				c10.92,10.86,25.71,20.54,34.64,13.62c0.25-0.2,0.47-0.43,0.67-0.69l2.57-3.36c0.95-1.24,0.83-2.98-0.28-4.08l-7.57-7.53
				c-1.17-1.16-3.01-1.29-4.32-0.3l-5.29,3.69c0,0-2.11,0.77-12.38-9.44c-3.67-3.65-5.93-6.25-7.32-8.1
				C-293.28,594.44-293.67,593.87-293.97,593.39"/>
		</g>
		<path class="st8" d="M-265.43,598.1c0-2.2-0.48-4.43-1.5-6.54c-2.56-5.29-7.83-8.4-13.33-8.48"/>
		<path class="st8" d="M-256.78,598.1c0-3.46-0.76-6.98-2.37-10.31c-4.05-8.38-12.4-13.28-21.11-13.36"/>
		<path class="st8" d="M-259.15,587.79c-2.95-6.84-12.18-12.98-21.11-13.36"/>
	</g>
	<g id="_x31_1">
		<circle class="st8" cx="-418.96" cy="600.04" r="32.82"/>
		<ellipse class="st8" cx="-418.96" cy="600.04" rx="17.45" ry="32.82"/>
		<line class="st8" x1="-418.96" y1="567.21" x2="-418.96" y2="632.14"/>
		<line class="st8" x1="-442.5" y1="587.73" x2="-390.22" y2="587.73"/>
		<line class="st8" x1="-395.5" y1="612.35" x2="-447.71" y2="612.35"/>
	</g>
	<g id="_x31_0">
		<rect x="110.29" y="414.21" class="st8" width="35.25" height="59.65"/>
		<line class="st8" x1="110.29" y1="462.59" x2="139.43" y2="462.59"/>
		<line class="st8" x1="127.17" y1="468.4" x2="128.65" y2="468.4"/>
		<line class="st8" x1="124.72" y1="420.36" x2="131.11" y2="420.36"/>
	</g>
	<g id="_x39_">
		<path class="st8" d="M-16.06,433.64c-0.39-2.28,0.02-2.7,0.02-2.7l5.39-3.53c1.41-0.85,1.97-2.61,1.33-4.12l-4.16-9.84
			c-0.61-1.43-2.18-2.19-3.68-1.78l-4.01,1.11c-0.34,0.1-0.68,0.23-0.99,0.42c-9.44,5.93-6.41,22.59-0.24,37.17
			c6,14.19,16.02,28.75,26.9,25.72c0.31-0.09,0.6-0.22,0.88-0.38l3.65-2.13c1.34-0.79,1.9-2.45,1.29-3.88l-4.16-9.83
			c-0.64-1.51-2.29-2.33-3.89-1.91l-6.29,1.41c0,0-2.25-0.09-7.89-13.43c-2.01-4.76-3.12-8.03-3.71-10.27
			C-15.82,434.87-15.97,434.2-16.06,433.64"/>
	</g>
	<g id="_x38_">
		<path class="st8" d="M-122.41,434.77c0,3.62-0.83,7.04-2.31,10.09c-3.75,7.71-20.8,31.56-20.8,31.56s-16.65-23.58-20.5-30.97
			c-1.67-3.19-2.61-6.82-2.61-10.68c0-12.76,10.35-23.11,23.11-23.11C-132.76,411.66-122.41,422-122.41,434.77z"/>
		
			<ellipse transform="matrix(0.2307 -0.973 0.973 0.2307 -534.9952 192.874)" class="st8" cx="-145.52" cy="434.77" rx="9.42" ry="9.42"/>
	</g>
	<g id="_x37_">
		<rect x="-313.04" y="420.94" class="st8" width="61.6" height="46.2"/>
		<polyline class="st8" points="-310.77,422.63 -282.24,448.72 -252.84,422.19 		"/>
		<line class="st8" x1="-292.79" y1="448.72" x2="-310.77" y2="465.17"/>
		<line class="st8" x1="-253.72" y1="465.17" x2="-271.7" y2="448.72"/>
	</g>
	<g id="_x36_">
		<g>
			<line class="st10" x1="-440.25" y1="446.82" x2="-436.68" y2="450.39"/>
			<line class="st10" x1="-436.68" y1="446.82" x2="-440.25" y2="450.39"/>
		</g>
		<g>
			<line class="st10" x1="-427.46" y1="446.82" x2="-423.89" y2="450.39"/>
			<line class="st10" x1="-423.89" y1="446.82" x2="-427.46" y2="450.39"/>
		</g>
		<g>
			<line class="st10" x1="-414.67" y1="446.82" x2="-411.1" y2="450.39"/>
			<line class="st10" x1="-411.1" y1="446.82" x2="-414.67" y2="450.39"/>
		</g>
		<polyline class="st8" points="-392.43,420.32 -387.76,420.32 -387.76,473.32 -450.16,473.32 -450.16,420.32 -442.32,420.32 		"/>
		<rect x="-440.16" y="414.75" class="st8" width="8.02" height="11.07"/>
		<rect x="-405.78" y="414.75" class="st8" width="8.02" height="11.07"/>
		<line class="st8" x1="-450.16" y1="432.95" x2="-393.84" y2="432.95"/>
		<line class="st8" x1="-440.8" y1="440.57" x2="-436.14" y2="440.57"/>
		<line class="st8" x1="-428.01" y1="440.57" x2="-423.34" y2="440.57"/>
		<line class="st8" x1="-415.22" y1="440.57" x2="-410.55" y2="440.57"/>
		<line class="st8" x1="-402.43" y1="440.57" x2="-397.76" y2="440.57"/>
		<line class="st8" x1="-402.43" y1="448.99" x2="-397.76" y2="448.99"/>
		<line class="st8" x1="-440.8" y1="457.4" x2="-436.14" y2="457.4"/>
		<line class="st8" x1="-428.01" y1="457.4" x2="-423.34" y2="457.4"/>
		<line class="st8" x1="-415.22" y1="457.4" x2="-410.55" y2="457.4"/>
		<line class="st8" x1="-402.43" y1="457.4" x2="-397.76" y2="457.4"/>
		<line class="st8" x1="-440.8" y1="465.82" x2="-436.14" y2="465.82"/>
		<line class="st8" x1="-428.01" y1="465.82" x2="-423.34" y2="465.82"/>
		<line class="st8" x1="-415.22" y1="465.82" x2="-410.55" y2="465.82"/>
		<line class="st8" x1="-402.43" y1="465.82" x2="-397.76" y2="465.82"/>
		<line class="st8" x1="-426.82" y1="420.32" x2="-405.78" y2="420.32"/>
	</g>
	<g id="_x35_">
		<path class="st8" d="M143.36,307.4l10.05,6.12l-2.16-10.01c6.56-4.32,10.66-10.45,10.66-17.24c0-13.1-15.22-23.72-34-23.72
			c-18.78,0-34,10.62-34,23.72c0,13.1,15.22,23.72,34,23.72c3.12,0,6.14-0.3,9.01-0.85"/>
		<path class="st8" d="M138.95,308.93"/>
		<circle class="st8" cx="111.16" cy="286.27" r="3.61"/>
		<circle class="st8" cx="127.91" cy="286.27" r="3.61"/>
		<circle class="st8" cx="144.67" cy="286.27" r="3.61"/>
	</g>
	<g id="_x34_">
		<path class="st8" d="M6.79,295.24l14.78,14.78c2.32,2.32,2.32,6.08,0,8.39v0c-2.32,2.31-6.07,2.31-8.39,0L1.22,306.45"/>
		<circle class="st8" cx="-15.83" cy="281.01" r="25.09"/>
		<circle class="st8" cx="-15.83" cy="281.01" r="16.12"/>
	</g>
	<g id="_x33_">
		<path class="st11" d="M17.41,44.66v-5.84v-1.25c0-13.58,11.01-24.59,24.59-24.59h0c13.58,0,24.59,11.01,24.59,24.59v25.97
			c0,4.13-3.35,7.48-7.48,7.48H52.4h-7.22c-0.8,0-1.45-0.65-1.45-1.45v-2.71c0-0.8,0.65-1.45,1.45-1.45h5.79
			c0.8,0,1.45,0.65,1.45,1.45v3.3l-6.85-0.31l-0.56-2.44c0,0,1.96,0.13,2.09,0.13c0.13,0,2.97,0.08,2.97,0.08"/>
		<path class="st12" d="M12.09,63.54h5.32V44.66h-5.32c-3.27,0-5.93,2.65-5.93,5.93v7.02C6.17,60.88,8.82,63.54,12.09,63.54z"/>
		<path class="st13" d="M70.36,63.54"/>
		<path class="st12" d="M66.59,44.66h6.13c2.82,0,5.11,2.29,5.11,5.12v8.65c0,2.82-2.29,5.11-5.11,5.11l0,0c-6.13,0-6.13,0-6.13,0"
			/>
		<path class="st11" d="M12.45,44.66h-1.17c-2.82,0-5.12,2.29-5.12,5.12v8.65c0,2.82,2.29,5.11,5.12,5.11h6.13"/>
	</g>
	<g id="_x32_">
		<path class="st8" d="M-273.47,276.77c0,0-7.17-5.56-14.03,0.17c-2.39,1.99-3.58,4.67-4.61,7.82c-1.89,5.73-2.66,18.02,5.76,18.02
			c3.64,0,8.51-1.98,11.51-9.87L-273.47,276.77z"/>
		<path class="st8" d="M-274.83,294.2c0.17,3.08,1.37,10.44,8.99,7.85c11.25-3.82,12.82-34.28-4.61-40.42
			c-16.78-5.91-36.68,3.63-36.68,28.65c0,25.02,21.4,29.28,33.66,23.65"/>
	</g>
	<g id="_x31_">
		<path class="st8" d="M-418.96,319.11c-17.16,0-31.08-13.91-31.08-31.08c0-17.16,13.91-31.08,31.08-31.08
			c17.16,0,31.08,13.91,31.08,31.08"/>
		<line class="st8" x1="-418.96" y1="256.96" x2="-418.96" y2="261.79"/>
		<line class="st8" x1="-418.96" y1="314.29" x2="-418.96" y2="319.11"/>
		<line class="st8" x1="-440.94" y1="266.06" x2="-437.52" y2="269.47"/>
		<line class="st8" x1="-450.04" y1="288.04" x2="-445.21" y2="288.04"/>
		<line class="st8" x1="-392.71" y1="288.04" x2="-387.89" y2="288.04"/>
		<line class="st8" x1="-440.94" y1="310.01" x2="-437.52" y2="306.6"/>
		<line class="st8" x1="-400.4" y1="269.47" x2="-396.99" y2="266.06"/>
		<line class="st8" x1="-405.54" y1="274.62" x2="-416.04" y2="285.12"/>
		<line class="st8" x1="-421.73" y1="284.98" x2="-427.1" y2="279.71"/>
		<path class="st8" d="M-414.84,288.04c0,2.28-1.85,4.13-4.13,4.13c-2.28,0-4.13-1.85-4.13-4.13c0-2.28,1.85-4.13,4.13-4.13
			C-416.68,283.91-414.84,285.76-414.84,288.04z"/>
		<polyline class="st8" points="-412.11,299.08 -412.11,296.46 -402.63,296.46 -402.63,300.01 -411.74,311.34 -411.74,315.78 
			-402.63,315.78 		"/>
		<polyline class="st8" points="-398.11,296.46 -398.11,306.12 -390.3,306.12 		"/>
		<line class="st8" x1="-389.53" y1="296.46" x2="-389.53" y2="315.78"/>
	</g>
</g>
</svg>
