<svg width="13" height="13" viewBox="0 0 13 13" fill="none" xmlns="http://www.w3.org/2000/svg">
<path d="M6.40749 12.4607C4.71468 12.4607 3.02203 12.4605 1.32922 12.4607C0.995512 12.4607 0.751659 12.3173 0.610198 12.0117C0.567548 11.9195 0.553223 11.8206 0.553223 11.7187C0.553874 10.7505 0.55306 9.78235 0.553874 8.81417C0.554199 8.39363 0.872934 8.07025 1.28429 8.0696C1.6937 8.06895 2.01634 8.39233 2.01797 8.81303C2.02057 9.50731 2.02025 10.2016 2.01667 10.8959C2.01618 10.9787 2.0375 10.9982 2.11955 10.9982C4.97888 10.9959 7.83805 10.9959 10.6974 10.9982C10.7809 10.9982 10.7998 10.9763 10.7993 10.895C10.7959 10.2008 10.7959 9.50649 10.798 8.81221C10.7993 8.38907 11.1208 8.07025 11.5404 8.0696C11.9256 8.06895 12.2533 8.38647 12.2613 8.77397C12.2661 9.01256 12.2627 9.25131 12.2627 9.48989C12.2627 10.2384 12.2622 10.987 12.2622 11.7355C12.2622 12.1366 11.9298 12.4603 11.5185 12.4603C10.1052 12.4603 8.69186 12.4603 7.27839 12.4605C6.98814 12.4605 6.69806 12.4605 6.40781 12.4605L6.40749 12.4607Z" fill="#45B2FF"/>
<path d="M5.67544 6.89294C5.67544 5.10566 5.67625 3.31854 5.67463 1.53125C5.67446 1.23945 5.78223 1.00819 6.03406 0.855041C6.49669 0.573652 7.10502 0.888892 7.13416 1.42905C7.14784 1.68326 7.13937 1.93877 7.13954 2.19363C7.13986 3.76918 7.13954 5.3449 7.14002 6.92045C7.14002 6.94925 7.13205 6.97985 7.14947 7.00866C7.18202 7.00247 7.19716 6.9748 7.21702 6.95495C7.75063 6.42244 8.28148 5.88684 8.81802 5.35727C9.20285 4.97741 9.83413 5.11396 10.0189 5.61766C10.1268 5.91207 10.0627 6.17946 9.84064 6.40275C9.36628 6.8796 8.88965 7.35433 8.41399 7.82988C7.92677 8.31698 7.43988 8.80424 6.95233 9.29085C6.63018 9.61244 6.20433 9.61667 5.87339 9.30192C5.7889 9.22152 5.70751 9.1382 5.62498 9.05568C4.86526 8.29647 4.1057 7.53709 3.3463 6.77772C3.21786 6.64915 3.08877 6.52123 2.96229 6.39087C2.67432 6.09402 2.67676 5.63931 2.96636 5.35255C3.25221 5.06937 3.70671 5.06888 3.99858 5.35824C4.53203 5.88701 5.0619 6.41951 5.5934 6.95039C5.61407 6.97106 5.63556 6.99075 5.67544 7.029V6.89294Z" fill="#45B2FF"/>
</svg>
