<svg width="428" height="133" viewBox="0 0 428 133" fill="none" xmlns="http://www.w3.org/2000/svg">
<path d="M45.144 70.112C46.936 70.112 48.308 69.048 48.308 67.452C48.308 65.576 46.726 65.156 45.312 64.848C44.08 64.582 42.932 64.33 42.932 63.098C42.932 62.118 43.884 61.404 44.99 61.404C46.096 61.404 46.922 61.908 47.342 62.818L48.084 62.426C47.566 61.194 46.362 60.55 45.018 60.55C43.394 60.55 42.036 61.656 42.036 63.126C42.036 64.988 43.646 65.408 45.06 65.716C46.292 65.968 47.412 66.206 47.412 67.452C47.412 68.6 46.432 69.258 45.144 69.258C43.94 69.258 43.016 68.74 42.61 67.816L41.854 68.194C42.372 69.426 43.66 70.112 45.144 70.112ZM52.7458 70.14C54.7478 70.14 56.3018 68.544 56.3018 66.584C56.3018 64.652 54.7758 63.056 52.7458 63.056C50.7578 63.056 49.1758 64.638 49.1758 66.584C49.1758 68.544 50.7298 70.14 52.7458 70.14ZM52.7458 69.314C51.2338 69.314 50.0438 68.082 50.0438 66.598C50.0438 65.114 51.2338 63.882 52.7458 63.882C54.2438 63.882 55.4338 65.114 55.4338 66.598C55.4338 68.082 54.2438 69.314 52.7458 69.314ZM57.6966 60.088V70H58.5646V60.088H57.6966ZM61.1647 61.572C61.5147 61.572 61.7807 61.292 61.7807 60.928C61.7807 60.564 61.5147 60.284 61.1647 60.284C60.8147 60.284 60.5347 60.564 60.5347 60.928C60.5347 61.292 60.8147 61.572 61.1647 61.572ZM60.7307 63.21V70H61.5987V63.21H60.7307ZM66.4528 70.14C67.6568 70.14 68.7488 69.608 69.3788 68.46L68.6508 68.054C68.1608 68.908 67.3628 69.314 66.4528 69.314C65.0528 69.314 63.8628 68.082 63.8628 66.598C63.8628 65.114 65.0528 63.882 66.4528 63.882C67.3628 63.882 68.1608 64.288 68.6508 65.156L69.3788 64.736C68.7488 63.588 67.6568 63.056 66.4528 63.056C64.5768 63.056 62.9948 64.638 62.9948 66.598C62.9948 68.558 64.5768 70.154 66.4528 70.14ZM71.0746 61.572C71.4246 61.572 71.6906 61.292 71.6906 60.928C71.6906 60.564 71.4246 60.284 71.0746 60.284C70.7246 60.284 70.4446 60.564 70.4446 60.928C70.4446 61.292 70.7246 61.572 71.0746 61.572ZM70.6406 63.21V70H71.5086V63.21H70.6406ZM76.1387 70.154C76.6427 70.154 77.1467 69.986 77.4967 69.72V68.88C77.1607 69.16 76.6987 69.342 76.2087 69.342C75.3127 69.342 74.7247 68.754 74.7247 67.746V63.994H77.4967V63.21H74.7247V61.404H73.8567V63.21H72.4147V63.994H73.8567V67.774C73.8567 69.216 74.6967 70.154 76.1387 70.154ZM81.707 70.14C82.995 70.14 84.045 69.44 84.563 68.418V70H85.389V66.584C85.389 64.596 83.821 63.056 81.819 63.056C79.789 63.056 78.263 64.652 78.263 66.584C78.263 68.544 79.747 70.14 81.707 70.14ZM81.819 69.314C80.321 69.314 79.131 68.082 79.131 66.598C79.131 65.114 80.321 63.882 81.819 63.882C83.331 63.882 84.521 65.114 84.521 66.598C84.521 68.082 83.331 69.314 81.819 69.314ZM87.864 70V65.856C87.864 64.694 88.508 63.952 89.544 63.952C89.936 63.952 90.314 64.05 90.65 64.246V63.364C90.3 63.196 89.894 63.112 89.474 63.112C87.906 63.112 86.996 64.232 86.996 65.814V70H87.864ZM93.873 70H94.783L95.595 67.396L100.425 67.382L101.223 70H102.133L99.501 61.628C99.263 60.872 98.703 60.508 98.003 60.508C97.303 60.508 96.743 60.872 96.505 61.628L93.873 70ZM97.289 61.894C97.401 61.502 97.625 61.32 98.003 61.32C98.381 61.32 98.605 61.502 98.731 61.894L100.173 66.57H95.847L97.289 61.894ZM104.117 70V65.856C104.117 64.694 104.761 63.952 105.797 63.952C106.189 63.952 106.567 64.05 106.903 64.246V63.364C106.553 63.196 106.147 63.112 105.727 63.112C104.159 63.112 103.249 64.232 103.249 65.814V70H104.117ZM115.61 63.042C114.252 63.042 113.3 63.868 112.992 65.058C112.684 63.868 111.676 63.042 110.262 63.042C108.372 63.042 107.294 64.526 107.294 66.43V70H108.162V66.528C108.162 65.114 108.862 63.868 110.318 63.868C111.746 63.868 112.53 65.058 112.53 66.5V70H113.398V66.486C113.398 65.058 114.168 63.868 115.568 63.868C117.024 63.868 117.766 65.114 117.766 66.542V70H118.634V66.416C118.634 64.526 117.528 63.042 115.61 63.042ZM123.195 70.14C124.483 70.14 125.533 69.44 126.051 68.418V70H126.877V66.584C126.877 64.596 125.309 63.056 123.307 63.056C121.277 63.056 119.751 64.652 119.751 66.584C119.751 68.544 121.235 70.14 123.195 70.14ZM123.307 69.314C121.809 69.314 120.619 68.082 120.619 66.598C120.619 65.114 121.809 63.882 123.307 63.882C124.819 63.882 126.009 65.114 126.009 66.598C126.009 68.082 124.819 69.314 123.307 69.314ZM131.55 70.154C133.552 70.154 135.12 68.6 135.12 66.612V60.088H134.252L134.238 64.512C133.664 63.644 132.656 63.056 131.508 63.056C129.506 63.056 127.994 64.61 127.994 66.612C127.994 68.558 129.52 70.154 131.55 70.154ZM131.55 69.328C130.052 69.328 128.862 68.096 128.862 66.612C128.862 65.128 130.052 63.882 131.55 63.882C133.062 63.882 134.252 65.128 134.252 66.612C134.252 68.096 133.062 69.328 131.55 69.328ZM139.807 70.14C141.809 70.14 143.363 68.544 143.363 66.584C143.363 64.652 141.837 63.056 139.807 63.056C137.819 63.056 136.237 64.638 136.237 66.584C136.237 68.544 137.791 70.14 139.807 70.14ZM139.807 69.314C138.295 69.314 137.105 68.082 137.105 66.598C137.105 65.114 138.295 63.882 139.807 63.882C141.305 63.882 142.495 65.114 142.495 66.598C142.495 68.082 141.305 69.314 139.807 69.314Z" fill="black" fill-opacity="0.74"/>
<path d="M46.306 17.154C47.874 17.154 49.26 16.37 50.002 15.082L49.274 14.648C48.644 15.684 47.524 16.3 46.278 16.3C44.22 16.3 42.554 14.55 42.554 12.31C42.554 10.098 44.234 8.348 46.278 8.348C47.524 8.348 48.644 8.978 49.274 10.014L50.002 9.58C49.26 8.292 47.874 7.494 46.306 7.494C43.744 7.494 41.63 9.636 41.63 12.31C41.63 15.012 43.744 17.154 46.306 17.154ZM53.8776 17.14C55.1656 17.14 56.2156 16.44 56.7336 15.418V17H57.5596V13.584C57.5596 11.596 55.9916 10.056 53.9896 10.056C51.9596 10.056 50.4336 11.652 50.4336 13.584C50.4336 15.544 51.9176 17.14 53.8776 17.14ZM53.9896 16.314C52.4916 16.314 51.3016 15.082 51.3016 13.598C51.3016 12.114 52.4916 10.882 53.9896 10.882C55.5016 10.882 56.6916 12.114 56.6916 13.598C56.6916 15.082 55.5016 16.314 53.9896 16.314ZM59.4466 7.088V17H60.3146V7.088H59.4466ZM65.1687 17.14C66.3727 17.14 67.4647 16.608 68.0947 15.46L67.3667 15.054C66.8767 15.908 66.0787 16.314 65.1687 16.314C63.7687 16.314 62.5787 15.082 62.5787 13.598C62.5787 12.114 63.7687 10.882 65.1687 10.882C66.0787 10.882 66.8767 11.288 67.3667 12.156L68.0947 11.736C67.4647 10.588 66.3727 10.056 65.1687 10.056C63.2927 10.056 61.7107 11.638 61.7107 13.598C61.7107 15.558 63.2927 17.154 65.1687 17.14ZM72.2406 16.314C70.7706 16.314 69.9446 15.04 69.9446 13.598V10.21H69.0766V13.668C69.0766 15.628 70.2666 17.14 72.2406 17.14C74.2426 17.14 75.4466 15.642 75.4466 13.682V10.21H74.5786V13.584C74.5786 15.04 73.7246 16.314 72.2406 16.314ZM77.2441 7.088V17H78.1121V7.088H77.2441ZM82.9522 17.14C84.2402 17.14 85.2902 16.44 85.8082 15.418V17H86.6342V13.584C86.6342 11.596 85.0662 10.056 83.0642 10.056C81.0342 10.056 79.5082 11.652 79.5082 13.584C79.5082 15.544 80.9922 17.14 82.9522 17.14ZM83.0642 16.314C81.5662 16.314 80.3762 15.082 80.3762 13.598C80.3762 12.114 81.5662 10.882 83.0642 10.882C84.5762 10.882 85.7662 12.114 85.7662 13.598C85.7662 15.082 84.5762 16.314 83.0642 16.314ZM89.1093 17V12.856C89.1093 11.694 89.7533 10.952 90.7893 10.952C91.1813 10.952 91.5593 11.05 91.8953 11.246V10.364C91.5453 10.196 91.1393 10.112 90.7193 10.112C89.1513 10.112 88.2413 11.232 88.2413 12.814V17H89.1093ZM99.7942 17.154C101.362 17.154 102.748 16.37 103.49 15.082L102.762 14.648C102.132 15.684 101.012 16.3 99.7662 16.3C97.7082 16.3 96.0422 14.55 96.0422 12.31C96.0422 10.098 97.7222 8.348 99.7662 8.348C101.012 8.348 102.132 8.978 102.762 10.014L103.49 9.58C102.748 8.292 101.362 7.494 99.7942 7.494C97.2322 7.494 95.1182 9.636 95.1182 12.31C95.1182 15.012 97.2322 17.154 99.7942 17.154ZM107.492 17.14C109.494 17.14 111.048 15.544 111.048 13.584C111.048 11.652 109.522 10.056 107.492 10.056C105.504 10.056 103.922 11.638 103.922 13.584C103.922 15.544 105.476 17.14 107.492 17.14ZM107.492 16.314C105.98 16.314 104.79 15.082 104.79 13.598C104.79 12.114 105.98 10.882 107.492 10.882C108.99 10.882 110.18 12.114 110.18 13.598C110.18 15.082 108.99 16.314 107.492 16.314ZM114.431 17.126C115.775 17.126 116.937 16.356 116.937 15.124C116.937 12.548 112.905 13.682 112.905 12.03C112.905 11.33 113.633 10.924 114.389 10.924C115.103 10.924 115.691 11.12 116.055 11.806L116.769 11.4C116.321 10.588 115.481 10.112 114.375 10.112C113.073 10.112 112.037 10.91 112.037 12.044C112.037 14.62 116.069 13.43 116.069 15.138C116.069 15.922 115.313 16.314 114.403 16.314C113.577 16.314 112.947 16.034 112.541 15.25L111.827 15.642C112.331 16.636 113.283 17.126 114.431 17.126ZM120.949 17.154C121.453 17.154 121.957 16.986 122.307 16.72V15.88C121.971 16.16 121.509 16.342 121.019 16.342C120.123 16.342 119.535 15.754 119.535 14.746V10.994H122.307V10.21H119.535V8.404H118.667V10.21H117.225V10.994H118.667V14.774C118.667 16.216 119.507 17.154 120.949 17.154ZM126.643 17.14C128.645 17.14 130.199 15.544 130.199 13.584C130.199 11.652 128.673 10.056 126.643 10.056C124.655 10.056 123.073 11.638 123.073 13.584C123.073 15.544 124.627 17.14 126.643 17.14ZM126.643 16.314C125.131 16.314 123.941 15.082 123.941 13.598C123.941 12.114 125.131 10.882 126.643 10.882C128.141 10.882 129.331 12.114 129.331 13.598C129.331 15.082 128.141 16.314 126.643 16.314ZM143.131 12.254C143.131 9.496 141.129 7.648 138.161 7.648H135.123V17H138.063C140.891 17 143.131 15.222 143.131 12.254ZM142.207 12.254C142.207 14.718 140.331 16.16 138.063 16.16H136.019V8.488H138.161C140.527 8.488 142.207 10 142.207 12.254ZM147.405 17.14C148.651 17.14 149.715 16.58 150.331 15.46L149.659 15.096C149.169 15.964 148.329 16.314 147.405 16.314C145.963 16.314 144.899 15.292 144.759 13.906H150.513V13.388C150.513 11.456 149.225 10.042 147.251 10.042C145.263 10.042 143.905 11.624 143.905 13.584C143.905 15.614 145.403 17.14 147.405 17.14ZM144.787 13.206C144.913 11.89 145.837 10.868 147.251 10.868C148.623 10.868 149.617 11.792 149.645 13.206H144.787ZM161.706 17V16.16H156.288V12.744H161.328V11.904H156.288V8.488H161.58V7.648H156.288C155.616 7.648 155.392 7.984 155.392 8.53V16.118C155.392 16.664 155.616 17 156.288 17H161.706ZM166.234 10.882C167.816 10.882 168.67 12.156 168.67 13.612V17H169.538V13.514C169.538 11.554 168.32 10.056 166.234 10.056C164.19 10.056 163 11.568 163 13.528V17H163.868V13.598C163.868 12.156 164.694 10.882 166.234 10.882ZM172.451 16.314C172.661 16.874 173.095 17.154 173.585 17.154C174.089 17.154 174.495 16.874 174.705 16.314L177.001 10.21H176.077L173.907 16.09C173.851 16.244 173.753 16.342 173.585 16.342C173.431 16.342 173.319 16.244 173.263 16.09L171.093 10.21H170.169L172.451 16.314ZM178.815 8.964L180.425 6.99H179.501L177.905 8.964H178.815ZM177.975 10.21V17H178.843V10.21H177.975ZM183.809 17.14C185.811 17.14 187.365 15.544 187.365 13.584C187.365 11.652 185.839 10.056 183.809 10.056C181.821 10.056 180.239 11.638 180.239 13.584C180.239 15.544 181.793 17.14 183.809 17.14ZM183.809 16.314C182.297 16.314 181.107 15.082 181.107 13.598C181.107 12.114 182.297 10.882 183.809 10.882C185.307 10.882 186.497 12.114 186.497 13.598C186.497 15.082 185.307 16.314 183.809 16.314Z" fill="black" fill-opacity="0.74"/>
<path d="M296.144 15.112C297.936 15.112 299.308 14.048 299.308 12.452C299.308 10.576 297.726 10.156 296.312 9.848C295.08 9.582 293.932 9.33 293.932 8.098C293.932 7.118 294.884 6.404 295.99 6.404C297.096 6.404 297.922 6.908 298.342 7.818L299.084 7.426C298.566 6.194 297.362 5.55 296.018 5.55C294.394 5.55 293.036 6.656 293.036 8.126C293.036 9.988 294.646 10.408 296.06 10.716C297.292 10.968 298.412 11.206 298.412 12.452C298.412 13.6 297.432 14.258 296.144 14.258C294.94 14.258 294.016 13.74 293.61 12.816L292.854 13.194C293.372 14.426 294.66 15.112 296.144 15.112ZM303.676 15.14C304.922 15.14 305.986 14.58 306.602 13.46L305.93 13.096C305.44 13.964 304.6 14.314 303.676 14.314C302.234 14.314 301.17 13.292 301.03 11.906H306.784V11.388C306.784 9.456 305.496 8.042 303.522 8.042C301.534 8.042 300.176 9.624 300.176 11.584C300.176 13.614 301.674 15.14 303.676 15.14ZM301.058 11.206C301.184 9.89 302.108 8.868 303.522 8.868C304.894 8.868 305.888 9.792 305.916 11.206H301.058ZM308.273 5.088V15H309.141V5.088H308.273ZM314.037 15.14C315.283 15.14 316.347 14.58 316.963 13.46L316.291 13.096C315.801 13.964 314.961 14.314 314.037 14.314C312.595 14.314 311.531 13.292 311.391 11.906H317.145V11.388C317.145 9.456 315.857 8.042 313.883 8.042C311.895 8.042 310.537 9.624 310.537 11.584C310.537 13.614 312.035 15.14 314.037 15.14ZM311.419 11.206C311.545 9.89 312.469 8.868 313.883 8.868C315.255 8.868 316.249 9.792 316.277 11.206H311.419ZM321.322 15.14C322.526 15.14 323.618 14.608 324.248 13.46L323.52 13.054C323.03 13.908 322.232 14.314 321.322 14.314C319.922 14.314 318.732 13.082 318.732 11.598C318.732 10.114 319.922 8.882 321.322 8.882C322.232 8.882 323.03 9.288 323.52 10.156L324.248 9.736C323.618 8.588 322.526 8.056 321.322 8.056C319.446 8.056 317.864 9.638 317.864 11.598C317.864 13.558 319.446 15.154 321.322 15.14ZM328.198 15.14C329.402 15.14 330.494 14.608 331.124 13.46L330.396 13.054C329.906 13.908 329.108 14.314 328.198 14.314C326.798 14.314 325.608 13.082 325.608 11.598C325.608 10.114 326.798 8.882 328.198 8.882C329.108 8.882 329.906 9.288 330.396 10.156L331.124 9.736C330.494 8.588 329.402 8.056 328.198 8.056C326.322 8.056 324.74 9.638 324.74 11.598C324.74 13.558 326.322 15.154 328.198 15.14ZM332.82 6.572C333.17 6.572 333.436 6.292 333.436 5.928C333.436 5.564 333.17 5.284 332.82 5.284C332.47 5.284 332.19 5.564 332.19 5.928C332.19 6.292 332.47 6.572 332.82 6.572ZM332.386 8.21V15H333.254V8.21H332.386ZM338.22 15.14C340.222 15.14 341.776 13.544 341.776 11.584C341.776 9.652 340.25 8.056 338.22 8.056C336.232 8.056 334.65 9.638 334.65 11.584C334.65 13.544 336.204 15.14 338.22 15.14ZM338.22 14.314C336.708 14.314 335.518 13.082 335.518 11.598C335.518 10.114 336.708 8.882 338.22 8.882C339.718 8.882 340.908 10.114 340.908 11.598C340.908 13.082 339.718 14.314 338.22 14.314ZM346.125 8.882C347.707 8.882 348.561 10.156 348.561 11.612V15H349.429V11.514C349.429 9.554 348.211 8.056 346.125 8.056C344.081 8.056 342.891 9.568 342.891 11.528V15H343.759V11.598C343.759 10.156 344.585 8.882 346.125 8.882ZM353.992 15.14C355.28 15.14 356.33 14.44 356.848 13.418V15H357.674V11.584C357.674 9.596 356.106 8.056 354.104 8.056C352.074 8.056 350.548 9.652 350.548 11.584C350.548 13.544 352.032 15.14 353.992 15.14ZM354.104 14.314C352.606 14.314 351.416 13.082 351.416 11.598C351.416 10.114 352.606 8.882 354.104 8.882C355.616 8.882 356.806 10.114 356.806 11.598C356.806 13.082 355.616 14.314 354.104 14.314ZM360.149 15V10.856C360.149 9.694 360.793 8.952 361.829 8.952C362.221 8.952 362.599 9.05 362.935 9.246V8.364C362.585 8.196 362.179 8.112 361.759 8.112C360.191 8.112 359.281 9.232 359.281 10.814V15H360.149ZM370.47 15.112C372.948 15.112 374.138 13.53 374.138 11.01V5.648H373.242V10.996C373.242 13.026 372.346 14.258 370.47 14.258C368.594 14.258 367.698 13.026 367.698 10.996V5.648H366.802V11.01C366.802 13.53 367.978 15.112 370.47 15.112ZM379.473 15.154C381.503 15.154 383.029 13.558 383.029 11.612C383.029 9.61 381.517 8.056 379.501 8.056C378.353 8.056 377.345 8.644 376.771 9.512V5.088H375.903V11.612C375.903 13.6 377.471 15.154 379.473 15.154ZM379.473 14.328C377.961 14.328 376.771 13.096 376.771 11.612C376.771 10.128 377.961 8.882 379.473 8.882C380.971 8.882 382.161 10.128 382.161 11.612C382.161 13.096 380.971 14.328 379.473 14.328ZM384.86 6.572C385.21 6.572 385.476 6.292 385.476 5.928C385.476 5.564 385.21 5.284 384.86 5.284C384.51 5.284 384.23 5.564 384.23 5.928C384.23 6.292 384.51 6.572 384.86 6.572ZM384.426 8.21V15H385.294V8.21H384.426ZM390.148 15.14C391.352 15.14 392.444 14.608 393.074 13.46L392.346 13.054C391.856 13.908 391.058 14.314 390.148 14.314C388.748 14.314 387.558 13.082 387.558 11.598C387.558 10.114 388.748 8.882 390.148 8.882C391.058 8.882 391.856 9.288 392.346 10.156L393.074 9.736C392.444 8.588 391.352 8.056 390.148 8.056C388.272 8.056 386.69 9.638 386.69 11.598C386.69 13.558 388.272 15.154 390.148 15.14ZM397.01 15.14C398.298 15.14 399.348 14.44 399.866 13.418V15H400.692V11.584C400.692 9.596 399.124 8.056 397.122 8.056C395.092 8.056 393.566 9.652 393.566 11.584C393.566 13.544 395.05 15.14 397.01 15.14ZM397.122 14.314C395.624 14.314 394.434 13.082 394.434 11.598C394.434 10.114 395.624 8.882 397.122 8.882C398.634 8.882 399.824 10.114 399.824 11.598C399.824 13.082 398.634 14.314 397.122 14.314ZM405.267 15.14C406.471 15.14 407.563 14.608 408.193 13.46L407.465 13.054C406.975 13.908 406.177 14.314 405.267 14.314C403.867 14.314 402.677 13.082 402.677 11.598C402.677 10.114 403.867 8.882 405.267 8.882C406.177 8.882 406.975 9.288 407.465 10.156L408.193 9.736C407.563 8.588 406.471 8.056 405.267 8.056C403.391 8.056 401.809 9.638 401.809 11.598C401.809 13.558 403.391 15.154 405.267 15.14ZM409.889 6.572C410.239 6.572 410.505 6.292 410.505 5.928C410.505 5.564 410.239 5.284 409.889 5.284C409.539 5.284 409.259 5.564 409.259 5.928C409.259 6.292 409.539 6.572 409.889 6.572ZM409.455 8.21V15H410.323V8.21H409.455ZM415.695 6.964L417.305 4.99H416.381L414.785 6.964H415.695ZM415.289 15.14C417.291 15.14 418.845 13.544 418.845 11.584C418.845 9.652 417.319 8.056 415.289 8.056C413.301 8.056 411.719 9.638 411.719 11.584C411.719 13.544 413.273 15.14 415.289 15.14ZM415.289 14.314C413.777 14.314 412.587 13.082 412.587 11.598C412.587 10.114 413.777 8.882 415.289 8.882C416.787 8.882 417.977 10.114 417.977 11.598C417.977 13.082 416.787 14.314 415.289 14.314ZM423.193 8.882C424.775 8.882 425.629 10.156 425.629 11.612V15H426.497V11.514C426.497 9.554 425.279 8.056 423.193 8.056C421.149 8.056 419.959 9.568 419.959 11.528V15H420.827V11.598C420.827 10.156 421.653 8.882 423.193 8.882Z" fill="#0099AB"/>
<path d="M377.144 70.112C378.936 70.112 380.308 69.048 380.308 67.452C380.308 65.576 378.726 65.156 377.312 64.848C376.08 64.582 374.932 64.33 374.932 63.098C374.932 62.118 375.884 61.404 376.99 61.404C378.096 61.404 378.922 61.908 379.342 62.818L380.084 62.426C379.566 61.194 378.362 60.55 377.018 60.55C375.394 60.55 374.036 61.656 374.036 63.126C374.036 64.988 375.646 65.408 377.06 65.716C378.292 65.968 379.412 66.206 379.412 67.452C379.412 68.6 378.432 69.258 377.144 69.258C375.94 69.258 375.016 68.74 374.61 67.816L373.854 68.194C374.372 69.426 375.66 70.112 377.144 70.112ZM384.746 70.14C386.748 70.14 388.302 68.544 388.302 66.584C388.302 64.652 386.776 63.056 384.746 63.056C382.758 63.056 381.176 64.638 381.176 66.584C381.176 68.544 382.73 70.14 384.746 70.14ZM384.746 69.314C383.234 69.314 382.044 68.082 382.044 66.598C382.044 65.114 383.234 63.882 384.746 63.882C386.244 63.882 387.434 65.114 387.434 66.598C387.434 68.082 386.244 69.314 384.746 69.314ZM389.697 60.088V70H390.565V60.088H389.697ZM393.165 61.572C393.515 61.572 393.781 61.292 393.781 60.928C393.781 60.564 393.515 60.284 393.165 60.284C392.815 60.284 392.535 60.564 392.535 60.928C392.535 61.292 392.815 61.572 393.165 61.572ZM392.731 63.21V70H393.599V63.21H392.731ZM398.453 70.14C399.657 70.14 400.749 69.608 401.379 68.46L400.651 68.054C400.161 68.908 399.363 69.314 398.453 69.314C397.053 69.314 395.863 68.082 395.863 66.598C395.863 65.114 397.053 63.882 398.453 63.882C399.363 63.882 400.161 64.288 400.651 65.156L401.379 64.736C400.749 63.588 399.657 63.056 398.453 63.056C396.577 63.056 394.995 64.638 394.995 66.598C394.995 68.558 396.577 70.154 398.453 70.14ZM403.075 61.572C403.425 61.572 403.691 61.292 403.691 60.928C403.691 60.564 403.425 60.284 403.075 60.284C402.725 60.284 402.445 60.564 402.445 60.928C402.445 61.292 402.725 61.572 403.075 61.572ZM402.641 63.21V70H403.509V63.21H402.641ZM408.139 70.154C408.643 70.154 409.147 69.986 409.497 69.72V68.88C409.161 69.16 408.699 69.342 408.209 69.342C407.313 69.342 406.725 68.754 406.725 67.746V63.994H409.497V63.21H406.725V61.404H405.857V63.21H404.415V63.994H405.857V67.774C405.857 69.216 406.697 70.154 408.139 70.154ZM413.707 70.14C414.995 70.14 416.045 69.44 416.563 68.418V70H417.389V66.584C417.389 64.596 415.821 63.056 413.819 63.056C411.789 63.056 410.263 64.652 410.263 66.584C410.263 68.544 411.747 70.14 413.707 70.14ZM413.819 69.314C412.321 69.314 411.131 68.082 411.131 66.598C411.131 65.114 412.321 63.882 413.819 63.882C415.331 63.882 416.521 65.114 416.521 66.598C416.521 68.082 415.331 69.314 413.819 69.314ZM419.864 70V65.856C419.864 64.694 420.508 63.952 421.544 63.952C421.936 63.952 422.314 64.05 422.65 64.246V63.364C422.3 63.196 421.894 63.112 421.474 63.112C419.906 63.112 418.996 64.232 418.996 65.814V70H419.864Z" fill="#0099AB"/>
<path d="M352.714 125V124.16H347.296V120.744H352.336V119.904H347.296V116.488H352.588V115.648H347.296C346.624 115.648 346.4 115.984 346.4 116.53V124.118C346.4 124.664 346.624 125 347.296 125H352.714ZM354.288 115.088V125H355.156V115.088H354.288ZM360.052 125.14C361.298 125.14 362.362 124.58 362.978 123.46L362.306 123.096C361.816 123.964 360.976 124.314 360.052 124.314C358.61 124.314 357.546 123.292 357.406 121.906H363.16V121.388C363.16 119.456 361.872 118.042 359.898 118.042C357.91 118.042 356.552 119.624 356.552 121.584C356.552 123.614 358.05 125.14 360.052 125.14ZM357.434 121.206C357.56 119.89 358.484 118.868 359.898 118.868C361.27 118.868 362.264 119.792 362.292 121.206H357.434ZM367.351 128.276C369.479 128.276 371.005 126.764 371.005 124.44V121.584C371.005 119.596 369.437 118.056 367.435 118.056C365.405 118.056 363.879 119.652 363.879 121.584C363.879 123.558 365.405 125.112 367.351 125.112C368.653 125.112 369.661 124.412 370.137 123.46V124.412C370.137 126.246 368.989 127.45 367.337 127.45C366.273 127.45 365.363 126.988 364.873 126.134L364.145 126.54C364.761 127.674 365.979 128.276 367.351 128.276ZM367.435 124.286C365.951 124.286 364.747 123.068 364.747 121.57C364.747 120.086 365.951 118.882 367.435 118.882C368.933 118.882 370.137 120.086 370.137 121.57C370.137 123.068 368.933 124.286 367.435 124.286ZM373.326 116.572C373.676 116.572 373.942 116.292 373.942 115.928C373.942 115.564 373.676 115.284 373.326 115.284C372.976 115.284 372.696 115.564 372.696 115.928C372.696 116.292 372.976 116.572 373.326 116.572ZM372.892 118.21V125H373.76V118.21H372.892ZM376.514 125V120.856C376.514 119.694 377.158 118.952 378.194 118.952C378.586 118.952 378.964 119.05 379.3 119.246V118.364C378.95 118.196 378.544 118.112 378.124 118.112C376.556 118.112 375.646 119.232 375.646 120.814V125H376.514ZM388.921 115.648H382.075V116.488H385.043V125H385.939V116.488H388.921V115.648ZM390.302 116.572C390.652 116.572 390.918 116.292 390.918 115.928C390.918 115.564 390.652 115.284 390.302 115.284C389.952 115.284 389.672 115.564 389.672 115.928C389.672 116.292 389.952 116.572 390.302 116.572ZM389.868 118.21V125H390.736V118.21H389.868ZM395.632 125.14C396.878 125.14 397.942 124.58 398.558 123.46L397.886 123.096C397.396 123.964 396.556 124.314 395.632 124.314C394.19 124.314 393.126 123.292 392.986 121.906H398.74V121.388C398.74 119.456 397.452 118.042 395.478 118.042C393.49 118.042 392.132 119.624 392.132 121.584C392.132 123.614 393.63 125.14 395.632 125.14ZM393.014 121.206C393.14 119.89 394.064 118.868 395.478 118.868C396.85 118.868 397.844 119.792 397.872 121.206H393.014ZM403.183 118.882C404.765 118.882 405.619 120.156 405.619 121.612V125H406.487V121.514C406.487 119.554 405.269 118.056 403.183 118.056C401.139 118.056 399.949 119.568 399.949 121.528V125H400.817V121.598C400.817 120.156 401.643 118.882 403.183 118.882ZM411.162 125.154C413.164 125.154 414.732 123.6 414.732 121.612V115.088H413.864L413.85 119.512C413.276 118.644 412.268 118.056 411.12 118.056C409.118 118.056 407.606 119.61 407.606 121.612C407.606 123.558 409.132 125.154 411.162 125.154ZM411.162 124.328C409.664 124.328 408.474 123.096 408.474 121.612C408.474 120.128 409.664 118.882 411.162 118.882C412.674 118.882 413.864 120.128 413.864 121.612C413.864 123.096 412.674 124.328 411.162 124.328ZM419.293 125.14C420.581 125.14 421.631 124.44 422.149 123.418V125H422.975V121.584C422.975 119.596 421.407 118.056 419.405 118.056C417.375 118.056 415.849 119.652 415.849 121.584C415.849 123.544 417.333 125.14 419.293 125.14ZM419.405 124.314C417.907 124.314 416.717 123.082 416.717 121.598C416.717 120.114 417.907 118.882 419.405 118.882C420.917 118.882 422.107 120.114 422.107 121.598C422.107 123.082 420.917 124.314 419.405 124.314Z" fill="#0099AB"/>
<path d="M43.422 125V121.248H44.906C46.432 121.248 46.95 122.2 47.608 123.516L48.35 125H49.316L48.518 123.39C47.916 122.172 47.44 121.276 46.544 120.912C47.958 120.674 48.84 119.736 48.84 118.35C48.84 116.502 47.356 115.648 45.494 115.648H42.54V125H43.422ZM45.494 116.488C46.824 116.488 47.93 117.062 47.93 118.42C47.93 119.764 46.88 120.422 45.466 120.422H43.436V116.488H45.494ZM52.9902 125.14C54.2362 125.14 55.3002 124.58 55.9162 123.46L55.2442 123.096C54.7542 123.964 53.9142 124.314 52.9902 124.314C51.5482 124.314 50.4842 123.292 50.3442 121.906H56.0982V121.388C56.0982 119.456 54.8102 118.042 52.8362 118.042C50.8482 118.042 49.4902 119.624 49.4902 121.584C49.4902 123.614 50.9882 125.14 52.9902 125.14ZM50.3722 121.206C50.4982 119.89 51.4222 118.868 52.8362 118.868C54.2082 118.868 55.2022 119.792 55.2302 121.206H50.3722ZM60.2753 125.14C61.4793 125.14 62.5713 124.608 63.2013 123.46L62.4733 123.054C61.9833 123.908 61.1853 124.314 60.2753 124.314C58.8753 124.314 57.6853 123.082 57.6853 121.598C57.6853 120.114 58.8753 118.882 60.2753 118.882C61.1853 118.882 61.9833 119.288 62.4733 120.156L63.2013 119.736C62.5713 118.588 61.4793 118.056 60.2753 118.056C58.3993 118.056 56.8173 119.638 56.8173 121.598C56.8173 123.558 58.3993 125.154 60.2753 125.14ZM67.2631 125.14C69.2651 125.14 70.8191 123.544 70.8191 121.584C70.8191 119.652 69.2931 118.056 67.2631 118.056C65.2751 118.056 63.6931 119.638 63.6931 121.584C63.6931 123.544 65.2471 125.14 67.2631 125.14ZM67.2631 124.314C65.7511 124.314 64.5611 123.082 64.5611 121.598C64.5611 120.114 65.7511 118.882 67.2631 118.882C68.7611 118.882 69.9511 120.114 69.9511 121.598C69.9511 123.082 68.7611 124.314 67.2631 124.314ZM74.916 128.276C77.044 128.276 78.57 126.764 78.57 124.44V121.584C78.57 119.596 77.002 118.056 75 118.056C72.97 118.056 71.444 119.652 71.444 121.584C71.444 123.558 72.97 125.112 74.916 125.112C76.218 125.112 77.226 124.412 77.702 123.46V124.412C77.702 126.246 76.554 127.45 74.902 127.45C73.838 127.45 72.928 126.988 72.438 126.134L71.71 126.54C72.326 127.674 73.544 128.276 74.916 128.276ZM75 124.286C73.516 124.286 72.312 123.068 72.312 121.57C72.312 120.086 73.516 118.882 75 118.882C76.498 118.882 77.702 120.086 77.702 121.57C77.702 123.068 76.498 124.286 75 124.286ZM80.891 116.572C81.241 116.572 81.507 116.292 81.507 115.928C81.507 115.564 81.241 115.284 80.891 115.284C80.541 115.284 80.261 115.564 80.261 115.928C80.261 116.292 80.541 116.572 80.891 116.572ZM80.457 118.21V125H81.325V118.21H80.457ZM86.2771 125.154C88.2791 125.154 89.8471 123.6 89.8471 121.612V115.088H88.9791L88.9651 119.512C88.3911 118.644 87.3831 118.056 86.2351 118.056C84.2331 118.056 82.7211 119.61 82.7211 121.612C82.7211 123.558 84.2471 125.154 86.2771 125.154ZM86.2771 124.328C84.7791 124.328 83.5891 123.096 83.5891 121.612C83.5891 120.128 84.7791 118.882 86.2771 118.882C87.7891 118.882 88.9791 120.128 88.9791 121.612C88.9791 123.096 87.7891 124.328 86.2771 124.328ZM94.4081 125.14C95.6961 125.14 96.7461 124.44 97.2641 123.418V125H98.0901V121.584C98.0901 119.596 96.5221 118.056 94.5201 118.056C92.4901 118.056 90.9641 119.652 90.9641 121.584C90.9641 123.544 92.4481 125.14 94.4081 125.14ZM94.5201 124.314C93.0221 124.314 91.8321 123.082 91.8321 121.598C91.8321 120.114 93.0221 118.882 94.5201 118.882C96.0321 118.882 97.2221 120.114 97.2221 121.598C97.2221 123.082 96.0321 124.314 94.5201 124.314ZM109.681 125V124.16H104.263V120.744H109.303V119.904H104.263V116.488H109.555V115.648H104.263C103.591 115.648 103.367 115.984 103.367 116.53V124.118C103.367 124.664 103.591 125 104.263 125H109.681ZM114.208 118.882C115.79 118.882 116.644 120.156 116.644 121.612V125H117.512V121.514C117.512 119.554 116.294 118.056 114.208 118.056C112.164 118.056 110.974 119.568 110.974 121.528V125H111.842V121.598C111.842 120.156 112.668 118.882 114.208 118.882ZM128.419 115.648H121.573V116.488H124.541V125H125.437V116.488H128.419V115.648ZM129.8 116.572C130.15 116.572 130.416 116.292 130.416 115.928C130.416 115.564 130.15 115.284 129.8 115.284C129.45 115.284 129.17 115.564 129.17 115.928C129.17 116.292 129.45 116.572 129.8 116.572ZM129.366 118.21V125H130.234V118.21H129.366ZM135.13 125.14C136.376 125.14 137.44 124.58 138.056 123.46L137.384 123.096C136.894 123.964 136.054 124.314 135.13 124.314C133.688 124.314 132.624 123.292 132.484 121.906H138.238V121.388C138.238 119.456 136.95 118.042 134.976 118.042C132.988 118.042 131.63 119.624 131.63 121.584C131.63 123.614 133.128 125.14 135.13 125.14ZM132.512 121.206C132.638 119.89 133.562 118.868 134.976 118.868C136.348 118.868 137.342 119.792 137.37 121.206H132.512ZM142.681 118.882C144.263 118.882 145.117 120.156 145.117 121.612V125H145.985V121.514C145.985 119.554 144.767 118.056 142.681 118.056C140.637 118.056 139.447 119.568 139.447 121.528V125H140.315V121.598C140.315 120.156 141.141 118.882 142.681 118.882ZM150.661 125.154C152.663 125.154 154.231 123.6 154.231 121.612V115.088H153.363L153.349 119.512C152.775 118.644 151.767 118.056 150.619 118.056C148.617 118.056 147.105 119.61 147.105 121.612C147.105 123.558 148.631 125.154 150.661 125.154ZM150.661 124.328C149.163 124.328 147.973 123.096 147.973 121.612C147.973 120.128 149.163 118.882 150.661 118.882C152.173 118.882 153.363 120.128 153.363 121.612C153.363 123.096 152.173 124.328 150.661 124.328ZM158.792 125.14C160.08 125.14 161.13 124.44 161.648 123.418V125H162.474V121.584C162.474 119.596 160.906 118.056 158.904 118.056C156.874 118.056 155.348 119.652 155.348 121.584C155.348 123.544 156.832 125.14 158.792 125.14ZM158.904 124.314C157.406 124.314 156.216 123.082 156.216 121.598C156.216 120.114 157.406 118.882 158.904 118.882C160.416 118.882 161.606 120.114 161.606 121.598C161.606 123.082 160.416 124.314 158.904 124.314Z" fill="black" fill-opacity="0.74"/>
<path d="M30 17.2667C29.7806 17.7131 29.4343 17.9016 28.9448 17.8671C28.5573 17.84 28.1653 17.8812 27.7778 17.8556C27.4802 17.8358 27.3441 17.9366 27.2263 18.2316C26.7998 19.2983 26.0045 19.9128 24.8828 19.9901C23.6635 20.0741 22.7667 19.5118 22.1924 18.4054C22.1802 18.3825 22.1645 18.359 22.1609 18.3344C22.1005 17.9058 21.8415 17.8431 21.4611 17.8525C20.3277 17.8797 19.1932 17.8666 18.0598 17.8583C17.8552 17.8567 17.7495 17.9084 17.6734 18.1245C17.2696 19.2732 16.2708 19.9958 15.1191 20C13.9145 20.0042 12.9152 19.3108 12.4957 18.1506C12.4119 17.9199 12.3007 17.8504 12.0712 17.8567C11.4963 17.8729 10.9205 17.864 10.3451 17.8609C9.8957 17.8583 9.62504 17.6097 9.62098 17.2051C9.61691 16.801 9.90992 16.5227 10.3522 16.5201C10.9443 16.5169 11.537 16.5138 12.1291 16.5222C12.3053 16.5248 12.3987 16.4747 12.4617 16.2898C12.8679 15.0884 13.8815 14.3319 15.0647 14.3293C16.2703 14.3261 17.2849 15.0733 17.6972 16.2856C17.7597 16.4684 17.847 16.5237 18.0263 16.5227C19.2618 16.5164 20.4973 16.5164 21.7328 16.5227C21.9126 16.5237 22.0009 16.4668 22.0619 16.2851C22.4691 15.0801 23.4929 14.3256 24.6944 14.3293C25.8776 14.3329 26.9064 15.0999 27.302 16.2893C27.3584 16.4585 27.431 16.53 27.6057 16.5227C27.8845 16.5112 28.1648 16.5081 28.443 16.5232C28.6558 16.5347 28.7183 16.4538 28.7173 16.2392C28.7096 14.8383 28.6904 13.437 28.7254 12.0372C28.7386 11.5072 28.6502 11.089 28.1927 10.7982C28.0795 10.7262 27.9713 10.6301 27.89 10.5215C27.4538 9.93828 26.8759 9.83282 26.1914 9.85683C24.8645 9.90382 23.5345 9.87093 22.2061 9.87041C21.5073 9.87041 21.1656 9.52424 21.1636 8.79589C21.1595 7.14287 21.162 5.48985 21.162 3.83683C21.162 3.75852 21.1564 3.67968 21.1625 3.60188C21.1778 3.41392 21.1052 3.3356 20.9142 3.34135C20.5339 3.35231 20.1525 3.34448 19.7721 3.34448C16.641 3.34448 13.5103 3.34448 10.3791 3.34396C9.89367 3.34396 9.6032 3.07089 9.62047 2.63962C9.63367 2.31069 9.87133 2.04441 10.1902 2.00838C10.2908 1.9969 10.3929 2.00055 10.4944 2.00055C14.1334 2.00003 17.7724 2.00003 21.4109 2.00003C22.198 2.00003 22.4961 2.30077 22.4935 3.11997C22.4925 3.34761 22.557 3.42489 22.782 3.4181C23.2806 3.40296 23.7803 3.41288 24.2795 3.4134C25.4378 3.41549 26.3184 4.0509 26.7221 5.17606C27.1085 6.25267 27.4975 7.32927 27.8794 8.40744C27.9688 8.66014 28.113 8.86168 28.307 9.04129C28.7848 9.48352 29.2505 9.93985 29.7227 10.3883C29.8436 10.5032 29.9147 10.652 29.9995 10.7914V17.2657L30 17.2667ZM24.5009 8.52909C25.1011 8.52909 25.7014 8.52805 26.3016 8.53014C26.427 8.53014 26.523 8.53327 26.4555 8.34844C26.1091 7.4055 25.7801 6.45629 25.4246 5.51753C25.2662 5.09983 24.9478 4.85078 24.506 4.79283C23.925 4.71608 23.3405 4.7803 22.7586 4.75471C22.5595 4.74584 22.494 4.81894 22.4955 5.0236C22.5032 6.10125 22.5042 7.1789 22.495 8.25707C22.493 8.48106 22.5743 8.53692 22.7769 8.53327C23.3517 8.5223 23.9266 8.52961 24.5014 8.52961L24.5009 8.52909ZM13.652 17.1811C13.6561 18.005 14.2964 18.666 15.083 18.6571C15.8666 18.6487 16.5186 17.9773 16.5247 17.1732C16.5308 16.3514 15.8808 15.6972 15.0647 15.703C14.2548 15.7087 13.6484 16.3431 13.6525 17.1811H13.652ZM23.2517 17.1612C23.2496 17.9909 23.8707 18.6487 24.6634 18.6576C25.4515 18.666 26.1218 17.9825 26.1239 17.1685C26.1259 16.3556 25.4871 15.7051 24.6847 15.703C23.8707 15.7009 23.2537 16.3285 23.2517 17.1612Z" fill="#BBBBBB"/>
<path d="M4 9.69602C4.14777 9.39372 4.37984 9.25744 4.71449 9.25797C8.03 9.26266 11.3455 9.26005 14.6605 9.26162C15.1323 9.26162 15.4065 9.52633 15.3963 9.95917C15.3882 10.2907 15.1561 10.5565 14.8367 10.5956C14.7616 10.6045 14.6849 10.6019 14.6087 10.6019C11.3272 10.6019 8.04574 10.5993 4.76375 10.6061C4.41438 10.6066 4.15438 10.4964 4 10.1659V9.69602Z" fill="#BBBBBB"/>
<path d="M11.1596 6.99459C9.9927 6.99459 8.82625 6.99616 7.6593 6.99355C7.29062 6.99303 7.03418 6.82229 6.94074 6.52939C6.81988 6.15085 7.03316 5.74987 7.41352 5.66372C7.55215 5.63239 7.6984 5.62247 7.84109 5.62247C10.0562 5.61986 12.2718 5.62038 14.4868 5.62247C14.6046 5.62247 14.724 5.6303 14.8393 5.65171C15.213 5.72115 15.4166 5.98848 15.3948 6.36753C15.375 6.71004 15.1191 6.97371 14.7611 6.98989C14.4234 7.00503 14.0846 6.99511 13.7464 6.99564C12.8842 6.99564 12.0214 6.99564 11.1591 6.99564L11.1596 6.99459Z" fill="#BBBBBB"/>
<path d="M8.55711 12.8674C9.25941 12.8674 9.96172 12.8632 10.664 12.8694C11.119 12.8736 11.4024 13.166 11.3836 13.5931C11.3714 13.875 11.1998 14.1063 10.9352 14.1935C10.7966 14.239 10.6534 14.2447 10.5086 14.2447C9.19695 14.2437 7.88527 14.2447 6.57359 14.2437C6.48066 14.2437 6.38672 14.2437 6.29531 14.2285C5.92004 14.1674 5.65598 13.8625 5.67629 13.5221C5.69863 13.1477 5.97387 12.8788 6.37402 12.8721C6.98289 12.8616 7.59277 12.8684 8.20164 12.8679C8.31996 12.8679 8.43879 12.8679 8.55711 12.8679V12.8674Z" fill="#BBBBBB"/>
<g filter="url(#filter0_d_643_866)">
<path d="M22.9838 48.0142C24.5383 48.0142 26.0941 48.0503 27.6472 48.0013C28.7353 47.9671 29.7862 48.6102 29.9577 50.0849C30.0914 51.2324 29.8899 52.3258 29.6074 53.4231C29.1117 55.3463 28.6283 57.2734 28.1391 59.1985C28.0888 59.397 28.0484 59.5954 28.0621 59.8022C28.083 60.1231 28.0014 60.4201 27.824 60.6894C27.7268 60.837 27.6844 61.0019 27.6439 61.1694C27.5911 61.3885 27.55 61.6127 27.4737 61.824C26.9427 63.2943 27.0021 64.8207 27.019 66.3438C27.0262 66.9978 26.8847 67.1298 26.2147 67.1298C23.3341 67.1298 20.4528 67.1298 17.5722 67.1298C17.2613 67.1298 17.1058 67.2806 17.1058 67.5821C17.1058 67.6788 17.111 67.7754 17.1058 67.8721C17.0947 68.0538 17.1828 68.1085 17.3596 68.1188C18.0719 68.1581 18.1495 68.2451 18.1495 68.9493C18.1495 69.6046 18.1567 70.2592 18.1462 70.9144C18.1423 71.1399 18.2245 71.2314 18.4502 71.2095C18.6942 71.1857 18.9218 71.2533 19.1495 71.3339C20.929 71.964 22.7085 72.5948 24.4907 73.2172C25.5481 73.5863 26.231 74.2796 26.4633 75.3788C26.5083 75.5914 26.5252 75.8085 26.477 76.0179C26.4365 76.1912 26.4404 76.351 26.4717 76.5243C26.6727 77.6441 25.9518 78.7092 24.8377 78.9521C23.7353 79.1924 22.6159 78.5062 22.3322 77.409C22.2474 77.0817 22.2454 76.7479 22.3328 76.4213C22.3843 76.228 22.3432 76.1345 22.1365 76.0733C20.9916 75.7357 19.8488 75.3884 18.7092 75.0334C18.4855 74.9639 18.4078 75.0302 18.3367 75.2377C18.111 75.8949 18.1482 76.5714 18.1489 77.246C18.1489 77.6325 18.1547 78.0191 18.1462 78.4057C18.1384 78.7852 17.9434 78.9785 17.5572 78.9823C16.8945 78.9894 16.231 78.9894 15.5676 78.9823C15.1671 78.9785 14.9773 78.7833 14.9734 78.378C14.9675 77.7872 14.9545 77.1963 14.9766 76.6062C14.9943 76.1358 14.899 75.6906 14.7829 75.2428C14.7281 75.0322 14.6433 74.9606 14.4157 75.0315C13.2761 75.3872 12.1345 75.7357 10.9884 76.0714C10.7555 76.1397 10.751 76.2505 10.794 76.4483C11.0458 77.6113 10.3315 78.695 9.15865 78.9475C8.02819 79.1911 6.86642 78.4701 6.67464 77.3188C6.5657 76.6642 6.56309 75.9715 6.68247 75.3144C6.86055 74.3344 7.47568 73.6476 8.42154 73.3041C10.3289 72.6115 12.2467 71.9485 14.1593 71.2707C14.3282 71.2108 14.4998 71.1973 14.6733 71.2102C14.9016 71.2276 14.978 71.1335 14.9747 70.9112C14.9649 70.2134 14.9701 69.5157 14.9714 68.8173C14.9727 68.2844 15.1312 68.1124 15.6655 68.1208C15.9342 68.1253 16.0275 68.0422 16.0197 67.7729C15.9975 67.0306 16.0973 67.1318 15.383 67.1311C12.6759 67.1273 9.96883 67.1311 7.26237 67.1292C5.82663 67.1286 4.66225 66.3535 4.20171 65.0971C3.72813 63.8053 4.09799 62.4838 5.21084 61.5644C5.39936 61.4085 5.37066 61.2816 5.2963 61.0941C4.537 59.1876 5.6355 57.2038 7.66616 56.814C7.84554 56.7798 8.03341 56.7779 8.21736 56.7773C9.69616 56.7747 11.1743 56.7798 12.6531 56.7747C13.5252 56.7715 14.3602 56.9416 15.1534 57.2908C15.3824 57.3919 15.4496 57.3372 15.4978 57.1136C15.6825 56.2535 15.8801 55.3952 16.0771 54.5377C16.1241 54.3322 16.1071 54.1402 16.0341 53.9404C15.7523 53.1705 15.5279 52.3883 15.5624 51.5552C15.6009 50.6358 15.8325 49.7725 16.3289 48.9916C16.732 48.3576 17.3165 48.0129 18.0921 48.0135C19.7229 48.0155 21.3537 48.0135 22.9845 48.0135L22.9838 48.0142ZM21.3954 53.684C22.6994 53.684 24.0034 53.684 25.3067 53.684C25.6987 53.684 25.6968 53.6827 25.5794 53.3058C25.1658 51.9779 25.2447 50.6822 25.8507 49.4239C26.0092 49.094 26.0099 49.0914 25.6518 49.0914C23.1965 49.0908 20.7405 49.0934 18.2852 49.0895C17.7679 49.0889 17.4007 49.2892 17.1613 49.7583C16.5552 50.9464 16.5618 52.1461 17.0112 53.376C17.096 53.6073 17.203 53.6917 17.4515 53.6898C18.7659 53.6788 20.081 53.6846 21.3954 53.6846V53.684ZM10.762 66.0539C11.9349 66.0539 13.1084 66.0552 14.2813 66.0513C14.3837 66.0513 14.5233 66.1086 14.5813 66.001C14.6309 65.9089 14.5063 65.8367 14.4574 65.7581C13.7399 64.6081 13.7268 63.4561 14.4365 62.2976C14.49 62.21 14.6237 62.1288 14.5709 62.0251C14.5168 61.9188 14.3733 61.9774 14.2702 61.9774C11.9786 61.9742 9.68638 61.9735 7.39479 61.9774C7.16844 61.9774 6.93817 62.0012 6.71639 62.0444C5.70204 62.2403 4.98123 63.2686 5.14365 64.273C5.32174 65.3728 6.12669 66.0416 7.30804 66.05C8.45937 66.0584 9.61071 66.0519 10.762 66.0519V66.0539ZM20.0099 63.1938C20.1795 63.5952 20.3021 63.9895 20.2063 64.4161C20.0712 65.014 19.5663 65.4927 18.9884 65.5732C18.3165 65.6673 17.6994 65.3838 17.4046 64.7988C17.0177 64.0308 16.659 63.2486 16.2924 62.4709C16.2134 62.3041 16.1417 62.1874 15.9349 62.3343C15.3119 62.7763 14.9793 63.3813 15.0412 64.1261C15.1371 65.2846 15.9571 66.039 17.1358 66.0474C19.9708 66.0674 22.8057 66.0526 25.6407 66.0584C25.8775 66.0584 25.9381 65.9637 25.9336 65.7504C25.9231 65.2891 25.9186 64.8271 25.9349 64.3664C25.944 64.1132 25.856 64.0308 25.5989 64.034C24.5239 64.0449 23.4476 64.0114 22.3732 64.0469C21.4613 64.0765 20.6446 63.9212 20.0099 63.1945V63.1938ZM16.5722 57.4254C16.6818 57.3674 16.7294 57.3475 16.7718 57.3191C17.3478 56.9351 17.9786 56.7624 18.6772 56.7721C19.8827 56.7889 21.0882 56.7869 22.2937 56.7734C23.2206 56.7631 24.1397 56.7844 25.0256 57.0975C25.1841 57.1535 25.2565 57.1123 25.2937 56.939C25.4293 56.2992 25.5787 55.6626 25.7281 55.0254C25.7718 54.8386 25.7359 54.7555 25.5135 54.7561C22.8201 54.7625 20.1267 54.7619 17.4333 54.7574C17.2291 54.7574 17.1417 54.8399 17.1038 55.0274C17.0184 55.4474 16.9212 55.8656 16.8279 56.2844C16.7477 56.6445 16.6668 57.0047 16.5729 57.4254H16.5722ZM21.0053 57.8532C20.1149 57.8532 19.3974 57.841 18.6811 57.8558C16.9982 57.89 16.0654 59.3712 16.7731 60.875C17.2676 61.9252 17.7653 62.9741 18.2591 64.025C18.4457 64.4225 18.6524 64.561 18.9016 64.4425C19.1319 64.3329 19.1619 64.1042 18.9806 63.7054C18.5892 62.8446 18.1854 61.989 17.7979 61.1263C17.2826 59.9794 18.0223 58.8442 19.2845 58.8397C20.3276 58.8358 21.3706 58.8609 22.413 58.8332C23.7888 58.7971 24.9682 59.2295 25.9675 60.1611C26.2571 60.4311 26.5813 60.4349 26.807 60.1972C27.0314 59.9607 27.0066 59.6354 26.7235 59.3699C25.9571 58.6515 25.0588 58.1754 24.0177 57.975C22.9623 57.7721 21.8951 57.8861 21.0066 57.8539L21.0053 57.8532ZM16.1997 72.2849C15.7438 72.2849 15.2871 72.2868 14.8312 72.2836C14.6877 72.2823 14.5513 72.3029 14.4163 72.3506C12.5761 73 10.7346 73.6476 8.89512 74.2989C8.50634 74.4368 8.18083 74.6597 7.96883 75.0218C7.81488 75.2847 7.83837 75.3105 8.13974 75.3343C9.18735 75.4187 10.1815 75.2119 11.1704 74.8814C12.3524 74.4858 13.5533 74.1462 14.747 73.7848C15.3074 73.6153 15.5468 73.7506 15.7007 74.3163C15.7151 74.3679 15.7255 74.4207 15.7386 74.4729C15.9656 75.3756 15.9656 75.371 16.9036 75.3356C17.0856 75.3285 17.1795 75.2712 17.2232 75.0934C17.4333 74.239 17.6485 73.386 17.8703 72.5349C17.9218 72.3377 17.8507 72.2829 17.6661 72.2842C17.1776 72.2881 16.6883 72.2855 16.1997 72.2855V72.2849ZM28.8749 50.9676C28.8912 50.6487 28.8553 50.3188 28.8038 49.9896C28.7288 49.5102 28.4593 49.2145 28.0106 49.1275C27.6068 49.0489 27.2095 49.239 26.9858 49.6468C26.5513 50.4393 26.353 51.2775 26.4717 52.1866C26.5441 52.7362 26.7353 53.2472 26.9121 53.7639C27.0092 54.048 27.0321 54.3186 26.9603 54.6137C26.7809 55.3534 26.6616 56.1098 26.4437 56.8378C26.2747 57.4029 26.3158 57.7985 26.8997 58.0897C27.2278 58.2534 27.2121 58.301 27.3047 57.9357C27.7679 56.1053 28.2291 54.2748 28.6935 52.445C28.8155 51.9644 28.8931 51.4792 28.8742 50.9676H28.8749ZM21.1352 59.9137C20.6974 59.9137 20.3719 59.9118 20.0458 59.9137C19.7633 59.9156 19.4789 59.9034 19.1997 59.933C18.9512 59.9595 18.7555 60.1154 18.7522 60.3699C18.749 60.6134 18.807 60.8827 19.1051 60.9568C19.8638 61.145 20.3785 61.6166 20.749 62.2744C20.9571 62.6442 21.278 62.8652 21.7072 62.92C22.3896 63.007 23.0745 62.9419 23.7581 62.958C23.9094 62.9612 23.9577 62.8691 23.9864 62.7383C24.141 62.036 24.2969 61.3344 24.4639 60.6353C24.5017 60.4768 24.4522 60.3918 24.3165 60.3261C24.0614 60.203 23.7992 60.1038 23.5233 60.0381C22.6981 59.8415 21.8573 59.9395 21.1352 59.9131V59.9137ZM10.6675 57.8526C9.77444 57.8526 9.05754 57.8391 8.3413 57.8552C6.90425 57.888 6.02102 58.8912 6.20693 60.2591C6.28325 60.8209 6.39479 60.9188 6.93883 60.9014C6.96035 60.9008 6.98253 60.8982 7.00406 60.9008C7.24019 60.9304 7.31391 60.8608 7.29107 60.6005C7.19975 59.5684 7.88794 58.841 8.93165 58.8384C10.0941 58.8352 11.2558 58.8403 12.4183 58.8377C13.0484 58.8364 13.6401 58.9911 14.218 59.2288C14.4535 59.3261 14.7059 59.6218 14.8997 59.5078C15.098 59.3912 15.038 59.0175 15.1241 58.7662C15.1926 58.5665 15.1162 58.4705 14.9401 58.3932C14.522 58.2095 14.0967 58.0549 13.6446 57.9724C12.5996 57.7817 11.5435 57.879 10.6681 57.8532L10.6675 57.8526ZM24.2056 75.3305C24.5578 75.3305 24.8077 75.326 25.0575 75.3317C25.2624 75.3363 25.2754 75.2486 25.1939 75.0946C25.0034 74.7358 24.7111 74.489 24.3341 74.3428C24.0308 74.2248 23.7222 74.1224 23.4156 74.0135C22.0758 73.54 20.7333 73.0748 19.3987 72.5883C19.1032 72.4807 18.9871 72.5439 18.9408 72.8415C18.9029 73.0844 18.8384 73.3254 18.7633 73.5599C18.6864 73.7996 18.7659 73.9059 19.0053 73.9768C20.2226 74.3363 21.4385 74.7003 22.6479 75.0837C23.1912 75.2557 23.7314 75.3962 24.2056 75.3298V75.3305ZM11.6022 60.8995C12.5239 60.8995 13.4463 60.9001 14.368 60.8982C14.4496 60.8982 14.5657 60.9369 14.599 60.8363C14.6303 60.7416 14.5246 60.6894 14.4581 60.6411C13.959 60.2803 13.4085 60.0355 12.7901 59.9736C11.5135 59.8467 10.2324 59.9401 8.95383 59.9189C8.86968 59.9176 8.78096 59.9414 8.70138 59.9717C8.42806 60.0774 8.37783 60.2938 8.42349 60.5509C8.4672 60.7958 8.59375 60.9098 8.86837 60.9053C9.779 60.8905 10.6903 60.8995 11.6016 60.8995H11.6022ZM8.75487 76.4084C8.5383 76.4084 8.32108 76.4187 8.10582 76.4058C7.8886 76.3929 7.79727 76.4921 7.75226 76.6906C7.67007 77.0482 7.81162 77.4566 8.11951 77.6873C8.44437 77.9308 8.90099 77.9566 9.24932 77.7511C9.5944 77.5475 9.77835 77.15 9.72356 76.7692C9.68768 76.5205 9.59244 76.3749 9.30673 76.4051C9.12473 76.4245 8.93882 76.409 8.75487 76.409V76.4084ZM24.4046 76.4084C24.188 76.4084 23.9714 76.4161 23.7555 76.4058C23.5592 76.3961 23.462 76.476 23.4137 76.6648C23.323 77.0211 23.4528 77.4328 23.7542 77.6705C24.0706 77.9205 24.5305 77.9586 24.8827 77.7633C25.2304 77.5707 25.4287 77.1699 25.385 76.793C25.3524 76.5108 25.2343 76.3646 24.9238 76.4039C24.7535 76.4251 24.5781 76.4077 24.4046 76.4077V76.4084ZM17.0588 70.2173C17.0588 70.0994 17.0608 69.9809 17.0588 69.8629C17.0438 69.102 17.1926 69.2 16.3583 69.1916C16.3367 69.1916 16.3145 69.1935 16.293 69.1916C16.126 69.1819 16.0601 69.2631 16.0608 69.4242C16.0647 69.9396 16.0621 70.4551 16.0621 70.9705C16.0621 71.0845 16.0797 71.1735 16.2239 71.2057C16.8697 71.35 17.0588 71.2095 17.0588 70.571C17.0588 70.4531 17.0588 70.3346 17.0588 70.2167V70.2173ZM25.1188 62.777C25.0804 62.9361 25.1723 62.9638 25.3015 62.9606C25.4417 62.9574 25.5839 62.9464 25.7222 62.9632C25.9708 62.9928 26.0712 62.873 26.1169 62.6507C26.173 62.3794 26.2389 62.1088 26.3211 61.844C26.3961 61.6005 26.4019 61.4388 26.068 61.4304C25.9251 61.4272 25.7809 61.344 25.644 61.2828C25.5305 61.2319 25.4698 61.2332 25.4398 61.373C25.338 61.8421 25.2271 62.3086 25.1195 62.7763L25.1188 62.777ZM17.0588 77.1835C17.0367 76.2943 17.2239 76.4213 16.3335 76.4058C16.1423 76.4026 16.0536 76.4657 16.0588 76.6648C16.068 76.9869 16.0699 77.3091 16.0582 77.6312C16.0504 77.8426 16.1365 77.9141 16.3459 77.9109C17.1952 77.8967 17.0425 77.9953 17.0582 77.2479C17.0582 77.2266 17.0582 77.2047 17.0582 77.1835H17.0588Z" fill="#BBBBBB"/>
</g>
<path d="M18.8016 107.075C18.934 107.075 19.066 107.075 19.1984 107.075C19.2772 107.121 19.3536 107.171 19.4349 107.211C23.1306 109.028 26.8268 110.846 30.5244 112.659C30.7788 112.783 30.9256 112.937 30.9251 113.251C30.9187 117.75 30.9192 122.249 30.9246 126.748C30.9246 127.033 30.8125 127.199 30.569 127.319C27.652 128.748 24.7359 130.179 21.8218 131.615C20.945 132.047 20.0563 132.454 19.1979 132.924H18.8011C18.6707 132.852 18.5428 132.774 18.4093 132.709C14.7578 130.913 11.1068 129.117 7.45278 127.327C7.18944 127.199 7.0729 127.026 7.0734 126.722C7.07984 122.24 7.07984 117.758 7.0734 113.275C7.0734 112.971 7.18944 112.799 7.45278 112.67C11.1301 110.87 14.8034 109.063 18.4768 107.256C18.5879 107.202 18.6935 107.136 18.8016 107.075ZM8.45952 113.142C8.52647 113.179 8.58301 113.211 8.64202 113.24C11.1271 114.461 13.6127 115.682 16.0983 116.903C16.2025 116.954 16.3096 117.002 16.4068 117.064C16.5997 117.189 16.6622 117.4 16.5734 117.588C16.4846 117.777 16.2823 117.86 16.0696 117.789C15.9838 117.76 15.9019 117.718 15.8201 117.678C13.268 116.423 10.716 115.168 8.16444 113.913C7.96376 113.814 7.86325 113.878 7.86292 114.104C7.86292 118.16 7.8649 122.215 7.85746 126.27C7.85746 126.526 7.93532 126.658 8.16345 126.77C11.5596 128.43 14.9512 130.101 18.3439 131.768C18.579 131.884 18.5869 131.878 18.5914 131.613C18.5918 131.571 18.5914 131.529 18.5914 131.487C18.5914 127.482 18.5914 123.477 18.5914 119.472C18.5914 119.396 18.5869 119.321 18.5914 119.245C18.5993 119.101 18.5393 119.009 18.4098 118.948C18.1698 118.836 17.9318 118.717 17.6967 118.595C17.4393 118.46 17.3525 118.26 17.4477 118.043C17.5479 117.815 17.7706 117.741 18.0349 117.861C18.269 117.967 18.5036 118.074 18.7262 118.201C18.9206 118.313 19.0908 118.3 19.2842 118.197C19.6576 117.999 20.0405 117.819 20.4198 117.632C20.8146 117.439 21.2069 117.241 21.6061 117.058C21.8238 116.959 22.0336 117.042 22.1338 117.239C22.234 117.437 22.168 117.646 21.9582 117.777C21.8883 117.821 21.8119 117.855 21.7375 117.892C21.0462 118.233 20.3569 118.579 19.6616 118.912C19.481 118.998 19.4057 119.108 19.4057 119.317C19.4106 123.414 19.4091 127.512 19.4096 131.609C19.4096 131.879 19.421 131.886 19.6521 131.772C23.0602 130.098 26.4677 128.421 29.8767 126.749C30.0503 126.664 30.1425 126.567 30.142 126.351C30.1361 122.245 30.1371 118.139 30.1401 114.033C30.1401 113.834 30.1078 113.775 29.9065 113.876C28.9578 114.351 28.0066 114.822 27.0484 115.277C26.8163 115.387 26.7464 115.529 26.7484 115.782C26.7603 117.136 26.7514 118.491 26.7558 119.845C26.7568 120.088 26.6834 120.269 26.4608 120.378C25.5745 120.811 24.6913 121.251 23.8021 121.678C23.4658 121.84 23.2085 121.681 23.1678 121.307C23.1559 121.199 23.1599 121.088 23.1599 120.979C23.1594 119.684 23.1564 118.388 23.1628 117.092C23.1638 116.889 23.0989 116.773 22.9144 116.683C19.3625 114.944 15.8132 113.2 12.2658 111.45C12.0902 111.364 11.9494 111.368 11.7783 111.453C10.7239 111.977 9.66562 112.492 8.60929 113.011C8.5592 113.036 8.49671 113.048 8.45952 113.14V113.142ZM29.5484 113.139C29.482 113.035 29.3967 113.016 29.3243 112.981C25.9698 111.331 22.6143 109.683 19.2618 108.03C19.0813 107.941 18.9335 107.933 18.7515 108.025C17.9228 108.444 17.0877 108.849 16.256 109.261C16.1861 109.296 16.0948 109.306 16.0606 109.397C16.0983 109.464 16.1663 109.479 16.2238 109.508C19.608 111.172 22.9932 112.834 26.376 114.501C26.5347 114.579 26.6651 114.571 26.8188 114.495C27.6718 114.069 28.5288 113.652 29.3838 113.231C29.4348 113.205 29.4834 113.175 29.5484 113.139V113.139ZM12.9869 110.883C13.0851 110.94 13.1317 110.973 13.1818 110.997C16.5729 112.664 19.9651 114.33 23.3548 116C23.5065 116.075 23.6295 116.064 23.7738 115.991C24.2916 115.73 24.8148 115.479 25.3335 115.219C25.4188 115.176 25.5616 115.163 25.5661 115.06C25.5711 114.948 25.4253 114.938 25.3414 114.897C23.7287 114.101 22.1139 113.31 20.4997 112.517C18.7818 111.672 17.0644 110.826 15.346 109.983C15.2304 109.926 15.1164 109.835 14.9735 109.905C14.3278 110.223 13.6826 110.541 12.9864 110.883H12.9869ZM23.9752 118.717C23.9752 119.289 23.9796 119.861 23.9727 120.432C23.9702 120.624 24.0183 120.676 24.1998 120.585C24.7176 120.323 25.2393 120.07 25.7615 119.818C25.8904 119.756 25.942 119.66 25.942 119.519C25.9405 118.367 25.941 117.215 25.943 116.063C25.943 115.902 25.8979 115.845 25.7377 115.925C25.212 116.19 24.6848 116.45 24.1547 116.705C24.0124 116.774 23.9727 116.877 23.9737 117.027C23.9786 117.591 23.9757 118.154 23.9752 118.717V118.717Z" fill="#BBBBBB"/>
<path d="M19.2172 133H18.7828L18.7664 132.991C18.7248 132.968 18.6831 132.944 18.6419 132.921C18.5561 132.872 18.4669 132.821 18.3781 132.777L17.7899 132.488C14.3928 130.817 10.8797 129.09 7.42154 127.396C7.12547 127.252 7 127.05 7 126.723C7.00645 122.256 7.00645 117.732 7 113.276C7 112.949 7.12547 112.748 7.42154 112.603C10.8514 110.923 14.3363 109.209 17.7061 107.552L18.4446 107.189C18.5185 107.152 18.5918 107.11 18.6628 107.069C18.697 107.049 18.7312 107.029 18.7659 107.01L18.7828 107H19.2182L19.2351 107.01C19.2604 107.024 19.2857 107.039 19.3109 107.055C19.3645 107.086 19.4146 107.117 19.4672 107.143L20.1094 107.458C23.5328 109.142 27.0732 110.883 30.5571 112.591C30.7763 112.698 31.0005 112.861 31 113.251C30.9936 117.521 30.9935 121.936 30.9995 126.749C30.9995 127.056 30.8775 127.253 30.6018 127.387C27.2101 129.049 24.4304 130.415 21.8551 131.684C21.6041 131.808 21.3482 131.931 21.1008 132.05C20.4833 132.348 19.8451 132.656 19.2336 132.991L19.2172 133ZM18.8205 132.849H19.1795C19.789 132.515 20.4233 132.209 21.0368 131.914C21.2838 131.794 21.5397 131.671 21.7901 131.548C24.366 130.278 27.1451 128.913 30.5373 127.251C30.76 127.142 30.8507 126.996 30.8507 126.749C30.8448 121.936 30.8453 117.521 30.8512 113.251C30.8512 112.997 30.7545 112.855 30.4927 112.727C27.0088 111.019 23.4683 109.278 20.0449 107.594L19.4027 107.279C19.3447 107.25 19.2891 107.217 19.2356 107.185C19.2167 107.173 19.1979 107.162 19.1785 107.151H18.821C18.7927 107.167 18.7644 107.183 18.7367 107.2C18.6633 107.242 18.5879 107.287 18.5095 107.325L17.7711 107.688C14.4008 109.346 10.9159 111.059 7.48601 112.739C7.24301 112.858 7.14828 113.009 7.14878 113.276C7.15523 117.732 7.15523 122.256 7.14878 126.723C7.14878 126.991 7.24301 127.141 7.48601 127.26C10.9441 128.953 14.4573 130.681 17.8544 132.352L18.4426 132.641C18.5358 132.687 18.6266 132.738 18.7143 132.788C18.7496 132.809 18.7853 132.829 18.821 132.849H18.8205ZM19.4701 131.918C19.4468 131.918 19.4255 131.913 19.4052 131.899C19.3352 131.854 19.3352 131.757 19.3352 131.609V128.385C19.3352 125.413 19.3352 122.34 19.3313 119.317C19.3313 119.082 19.4176 118.946 19.6298 118.844C20.1466 118.596 20.6688 118.337 21.1737 118.087C21.3507 117.999 21.5278 117.912 21.7048 117.824L21.7544 117.8C21.8124 117.772 21.8675 117.746 21.9185 117.713C22.0946 117.602 22.1501 117.438 22.0668 117.274C21.981 117.104 21.8114 117.047 21.6359 117.128C21.3299 117.267 21.0224 117.419 20.7248 117.566C20.6336 117.611 20.5423 117.656 20.4511 117.701C20.3598 117.746 20.2686 117.79 20.1773 117.834C19.8937 117.972 19.6001 118.115 19.3174 118.265C19.0898 118.386 18.8959 118.387 18.6891 118.268C18.4763 118.146 18.2531 118.043 18.0042 117.93C17.782 117.83 17.599 117.884 17.5147 118.075C17.414 118.304 17.5762 118.448 17.7294 118.528C17.9655 118.651 18.2045 118.77 18.4396 118.88C18.5978 118.954 18.6732 119.079 18.6643 119.25C18.6618 119.297 18.6628 119.344 18.6638 119.394C18.6643 119.421 18.6648 119.447 18.6648 119.473V131.525C18.6648 131.555 18.6648 131.585 18.6648 131.615C18.6623 131.765 18.6608 131.855 18.5923 131.898C18.5234 131.941 18.4436 131.902 18.3107 131.837L16.0829 130.741C13.4773 129.46 10.7829 128.135 8.13022 126.839C7.87879 126.716 7.78109 126.556 7.78208 126.27C7.78803 123 7.78803 119.676 7.78754 116.461V114.104C7.78754 113.901 7.78754 113.809 7.85994 113.762C7.93235 113.716 8.01467 113.756 8.19569 113.845L8.48233 113.986C10.9387 115.194 13.395 116.403 15.8513 117.61L15.8806 117.625C15.9525 117.661 16.0205 117.694 16.0914 117.718C16.2654 117.776 16.4316 117.711 16.5045 117.556C16.5784 117.399 16.5238 117.232 16.3651 117.129C16.2907 117.081 16.2114 117.043 16.1266 117.002C16.1058 116.992 16.0849 116.982 16.0641 116.972L8.60929 113.308C8.56912 113.289 8.52945 113.266 8.48729 113.243C8.46745 113.232 8.44663 113.22 8.4248 113.209L8.36529 113.177L8.39108 113.113C8.43373 113.007 8.50663 112.976 8.55474 112.955C8.56267 112.951 8.57011 112.948 8.57705 112.945C8.92768 112.772 9.27879 112.6 9.62942 112.428C10.3237 112.088 11.0418 111.736 11.746 111.386C11.9409 111.289 12.1061 111.288 12.299 111.383C15.8389 113.129 19.4215 114.889 22.9471 116.615C23.1549 116.717 23.2387 116.855 23.2377 117.093C23.2328 118.116 23.2337 119.157 23.2342 120.162V121.045C23.2337 121.134 23.2333 121.217 23.2422 121.299C23.2595 121.459 23.3215 121.577 23.4162 121.631C23.5095 121.684 23.632 121.677 23.7708 121.611C24.3486 121.333 24.9338 121.045 25.4996 120.767C25.8091 120.614 26.1186 120.462 26.4285 120.31C26.6066 120.223 26.6819 120.085 26.6814 119.846C26.6795 119.306 26.68 118.765 26.68 118.225C26.68 117.424 26.681 116.596 26.6735 115.783C26.671 115.488 26.7672 115.327 27.0167 115.209C28.0338 114.726 29.0317 114.23 29.8737 113.808C29.9645 113.763 30.0587 113.727 30.1326 113.774C30.2085 113.822 30.2149 113.929 30.2149 114.034C30.211 118.863 30.2115 122.776 30.2169 126.351C30.2169 126.628 30.0696 126.739 29.9095 126.817C27.3832 128.056 24.8158 129.319 22.3326 130.539L19.6849 131.84C19.5956 131.884 19.5277 131.918 19.4706 131.918L19.4701 131.918ZM21.7886 116.941C21.9587 116.941 22.1129 117.035 22.1992 117.204C22.3183 117.439 22.2389 117.689 21.9969 117.842C21.9389 117.878 21.8774 117.908 21.8184 117.937L21.7698 117.961C21.5927 118.048 21.4157 118.136 21.2386 118.224C20.7333 118.474 20.2106 118.734 19.6928 118.981C19.5331 119.057 19.4796 119.142 19.4796 119.317C19.483 122.34 19.4835 125.413 19.4835 128.386V131.61C19.4835 131.653 19.4835 131.726 19.4895 131.763C19.5232 131.752 19.5837 131.722 19.6199 131.705L22.2677 130.403C24.7508 129.183 27.3182 127.921 29.8445 126.682C30.0136 126.599 30.0677 126.519 30.0677 126.352C30.0627 122.778 30.0617 118.863 30.0657 114.034C30.0657 113.944 30.0577 113.914 30.0528 113.904C30.0453 113.904 30.0136 113.908 29.9392 113.944C29.0966 114.366 28.0983 114.863 27.0797 115.347C26.8828 115.44 26.8203 115.546 26.8228 115.782C26.8297 116.596 26.8292 117.425 26.8292 118.226C26.8292 118.766 26.8287 119.306 26.8307 119.846C26.8317 120.144 26.7246 120.335 26.4935 120.448C26.1835 120.599 25.8741 120.751 25.5646 120.903C24.9983 121.182 24.4131 121.47 23.8343 121.749C23.6528 121.836 23.4787 121.841 23.3438 121.765C23.206 121.686 23.1172 121.527 23.0944 121.317C23.0845 121.226 23.085 121.134 23.0855 121.045V120.163C23.0845 119.157 23.0835 118.117 23.0889 117.093C23.0899 116.915 23.0379 116.829 22.8826 116.752C19.3571 115.026 15.774 113.265 12.234 111.52C12.0833 111.446 11.9647 111.446 11.8115 111.523C11.1068 111.873 10.3887 112.225 9.69438 112.565C9.34327 112.737 8.99264 112.909 8.64202 113.082C8.6326 113.086 8.62268 113.091 8.61276 113.095C8.5959 113.102 8.58152 113.108 8.56962 113.116C8.60582 113.136 8.63954 113.155 8.67426 113.172L16.1306 116.835C16.1509 116.845 16.1712 116.854 16.192 116.865C16.2769 116.905 16.3646 116.948 16.4465 117C16.6696 117.144 16.7475 117.394 16.6404 117.621C16.5352 117.844 16.2907 117.943 16.0462 117.861C15.9659 117.834 15.89 117.796 15.8166 117.76L15.7879 117.746C13.3315 116.538 10.8752 115.33 8.41885 114.122L8.13221 113.981C8.05782 113.944 7.98144 113.907 7.94475 113.897C7.9378 113.935 7.9378 114.021 7.9378 114.104V116.46C7.9378 119.675 7.9383 123 7.93235 126.27C7.93235 126.499 7.99632 126.604 8.19618 126.702C10.8489 127.999 13.5433 129.324 16.1489 130.605L18.3766 131.7C18.4158 131.72 18.4763 131.749 18.51 131.761C18.5155 131.725 18.5165 131.657 18.5175 131.613C18.5175 131.583 18.5175 131.554 18.5175 131.525V119.473C18.5175 119.448 18.5175 119.423 18.5165 119.397C18.5155 119.347 18.5145 119.294 18.5175 119.242C18.5234 119.132 18.4832 119.067 18.3791 119.018C18.142 118.906 17.901 118.787 17.663 118.663C17.3738 118.512 17.2677 118.269 17.3803 118.014C17.4983 117.745 17.7676 117.658 18.0657 117.792C18.3181 117.907 18.5447 118.012 18.7634 118.136C18.9261 118.23 19.0674 118.228 19.2504 118.131C19.5356 117.98 19.8302 117.837 20.1153 117.698C20.2066 117.654 20.2973 117.61 20.3886 117.565C20.4799 117.52 20.5706 117.475 20.6619 117.43C20.9604 117.283 21.2689 117.131 21.5768 116.99C21.6483 116.957 21.7207 116.941 21.7906 116.941L21.7886 116.941ZM24.0634 120.705C24.0347 120.705 24.0069 120.698 23.9816 120.682C23.9062 120.634 23.8973 120.528 23.8983 120.431C23.9032 120.021 23.9023 119.604 23.9013 119.201C23.9013 119.039 23.9008 118.878 23.9008 118.717C23.9008 118.574 23.9008 118.43 23.9013 118.287C23.9018 117.874 23.9028 117.448 23.8993 117.028C23.8983 116.897 23.9226 116.733 24.1225 116.637C24.6184 116.399 25.1361 116.144 25.7045 115.858C25.7679 115.827 25.8607 115.79 25.9346 115.837C26.008 115.883 26.0174 115.983 26.0174 116.064C26.0154 117.216 26.0154 118.378 26.0164 119.519C26.0164 119.694 25.944 119.814 25.7937 119.887C25.3221 120.114 24.7741 120.38 24.233 120.653C24.1815 120.678 24.121 120.704 24.0634 120.704V120.705ZM24.0496 118.717C24.0496 118.878 24.0495 119.039 24.05 119.2C24.051 119.604 24.052 120.022 24.0471 120.433C24.0461 120.53 24.06 120.552 24.0619 120.554C24.0619 120.553 24.0862 120.557 24.1666 120.517C24.7086 120.243 25.2576 119.978 25.7298 119.749C25.8289 119.701 25.8676 119.637 25.8676 119.519C25.8661 118.378 25.8666 117.215 25.8686 116.063C25.8686 115.986 25.8567 115.966 25.8547 115.963C25.8542 115.964 25.8314 115.962 25.7704 115.993C25.2011 116.279 24.6833 116.534 24.1859 116.773C24.0828 116.823 24.0466 116.889 24.0476 117.026C24.051 117.446 24.0505 117.873 24.0496 118.286C24.0496 118.43 24.0495 118.573 24.0491 118.717L24.0496 118.717ZM23.5531 116.127C23.4772 116.127 23.4024 116.108 23.3225 116.068C20.7149 114.783 18.0627 113.48 15.4973 112.219L13.1495 111.065C13.1148 111.048 13.0826 111.028 13.0384 111.002C13.0136 110.986 12.9854 110.969 12.9497 110.949L12.8282 110.877L13.1669 110.71C13.7828 110.407 14.3626 110.122 14.9418 109.837C15.0951 109.762 15.222 109.831 15.3242 109.886C15.3425 109.895 15.3604 109.905 15.3787 109.914C16.4594 110.444 17.5395 110.976 18.6201 111.507C19.2574 111.821 19.8952 112.135 20.5329 112.448C21.0631 112.708 21.5937 112.969 22.1239 113.23C23.2075 113.762 24.2916 114.294 25.3747 114.828C25.3915 114.837 25.4143 114.844 25.4386 114.852C25.517 114.878 25.6479 114.921 25.6415 115.062C25.636 115.19 25.5145 115.232 25.4342 115.26C25.4089 115.269 25.3856 115.277 25.3672 115.286C25.1351 115.402 24.9021 115.517 24.669 115.631C24.3858 115.77 24.0937 115.913 23.8075 116.058C23.7173 116.104 23.635 116.126 23.5536 116.126L23.5531 116.127ZM13.1441 110.89C13.1713 110.907 13.1927 110.919 13.2145 110.929L15.5622 112.083C18.1272 113.344 20.7799 114.647 23.3875 115.932C23.51 115.993 23.6092 115.99 23.7411 115.923C24.0277 115.779 24.3208 115.635 24.604 115.496C24.8366 115.382 25.0692 115.268 25.3013 115.152C25.3281 115.138 25.3573 115.128 25.3856 115.118C25.4456 115.098 25.4912 115.079 25.4922 115.057C25.4932 115.036 25.4714 115.023 25.3915 114.997C25.3638 114.987 25.335 114.978 25.3092 114.965C24.2261 114.431 23.1425 113.899 22.0589 113.367C21.5287 113.106 20.9981 112.846 20.4679 112.585C19.8302 112.272 19.1929 111.958 18.5552 111.645C17.475 111.113 16.3949 110.582 15.3143 110.051C15.2944 110.042 15.2746 110.031 15.2547 110.02C15.1541 109.966 15.0881 109.934 15.0068 109.974C14.427 110.259 13.8478 110.544 13.2318 110.847L13.1446 110.89H13.1441ZM26.5882 114.632C26.5079 114.632 26.428 114.611 26.3427 114.569C23.7927 113.312 21.1985 112.037 18.6895 110.804L16.1911 109.576C16.1801 109.57 16.1687 109.566 16.1573 109.561C16.1043 109.538 16.0383 109.51 15.9962 109.435L15.9783 109.404L15.9912 109.37C16.0289 109.269 16.1142 109.237 16.1767 109.213C16.1925 109.207 16.2089 109.201 16.2238 109.193C16.5208 109.046 16.8184 108.899 17.1155 108.753C17.6421 108.494 18.1862 108.227 18.7188 107.958C18.9152 107.859 19.0873 107.86 19.2951 107.962C21.6755 109.136 24.0972 110.327 26.4389 111.478C27.4119 111.956 28.3845 112.435 29.3575 112.913C29.3704 112.92 29.3843 112.925 29.3976 112.931C29.4636 112.959 29.5459 112.995 29.6114 113.098L29.655 113.166L29.5846 113.206C29.5633 113.218 29.5435 113.229 29.5246 113.24C29.4859 113.262 29.4522 113.281 29.416 113.299C29.1656 113.422 28.9146 113.545 28.6642 113.668C28.0696 113.96 27.4541 114.262 26.8516 114.562C26.7588 114.609 26.6735 114.632 26.5892 114.632H26.5882ZM16.1544 109.39C16.1702 109.401 16.1901 109.41 16.2149 109.42C16.2287 109.426 16.2421 109.432 16.2555 109.438L18.7545 110.667C21.2634 111.9 23.8576 113.175 26.4077 114.432C26.5401 114.497 26.6462 114.495 26.7856 114.426C27.3891 114.125 28.0041 113.823 28.5992 113.531C28.8496 113.408 29.1006 113.285 29.351 113.162C29.3768 113.149 29.4026 113.135 29.4304 113.119C29.4026 113.098 29.3719 113.085 29.3386 113.07C29.3228 113.063 29.3069 113.056 29.2915 113.049C28.319 112.57 27.346 112.092 26.373 111.614C24.0312 110.463 21.6096 109.272 19.2291 108.098C19.0635 108.016 18.9385 108.015 18.7843 108.093C18.2511 108.362 17.7061 108.63 17.1794 108.889C16.8819 109.036 16.5848 109.182 16.2878 109.329C16.2689 109.339 16.2486 109.346 16.2283 109.354C16.1955 109.367 16.1712 109.377 16.1539 109.39H16.1544Z" fill="#BBBBBB"/>
<path d="M12.7052 124.474C12.6997 124.774 12.4155 124.958 12.1334 124.843C11.9499 124.769 11.7743 124.674 11.5958 124.586C10.7343 124.162 9.87292 123.738 9.01198 123.312C8.93809 123.276 8.86122 123.238 8.80121 123.182C8.66533 123.056 8.62863 122.897 8.70649 122.724C8.78832 122.542 8.9366 122.465 9.13051 122.498C9.20242 122.51 9.27384 122.539 9.33979 122.572C10.351 123.067 11.3607 123.565 12.3719 124.059C12.5529 124.148 12.6953 124.262 12.7052 124.474Z" fill="#BBBBBB"/>
<path d="M12.3045 124.953C12.2385 124.953 12.1715 124.94 12.1056 124.914C11.9662 124.857 11.8304 124.789 11.6989 124.722C11.6538 124.7 11.6087 124.677 11.563 124.654C10.7016 124.23 9.83969 123.805 8.97925 123.379C8.90189 123.341 8.81758 123.3 8.75113 123.237C8.58846 123.086 8.54829 122.893 8.63855 122.692C8.73426 122.48 8.91329 122.384 9.14241 122.422C9.21085 122.434 9.28375 122.459 9.37203 122.502C9.87738 122.75 10.3827 122.998 10.8881 123.247C11.3934 123.495 11.8983 123.743 12.4041 123.991C12.5723 124.073 12.7672 124.202 12.7796 124.47V124.475C12.7766 124.639 12.7012 124.784 12.5718 124.872C12.4919 124.926 12.4002 124.953 12.305 124.953H12.3045ZM9.04769 122.566C8.92272 122.566 8.83097 122.63 8.77394 122.756C8.71096 122.896 8.73724 123.02 8.8513 123.126C8.90189 123.173 8.97281 123.209 9.04124 123.242C9.90466 123.67 10.7661 124.094 11.628 124.518C11.6736 124.541 11.7193 124.564 11.7649 124.587C11.8933 124.652 12.0267 124.719 12.1606 124.773C12.2757 124.82 12.3952 124.81 12.4889 124.746C12.5762 124.687 12.6278 124.588 12.6303 124.475C12.6223 124.325 12.538 124.224 12.3392 124.128C11.8338 123.88 11.3285 123.632 10.8231 123.383C10.3178 123.135 9.81291 122.887 9.30706 122.639C9.23218 122.602 9.17167 122.581 9.11811 122.572C9.09332 122.568 9.07001 122.566 9.04769 122.566Z" fill="#BBBBBB"/>
<path d="M10.7145 125.921C10.6421 125.894 10.5469 125.867 10.4586 125.824C9.96119 125.582 9.46427 125.338 8.96933 125.09C8.69161 124.951 8.59788 124.728 8.71046 124.504C8.81857 124.288 9.04075 124.225 9.30607 124.353C9.84167 124.611 10.3748 124.875 10.9059 125.142C11.1008 125.24 11.1767 125.411 11.1237 125.624C11.0751 125.819 10.9278 125.902 10.714 125.922L10.7145 125.921Z" fill="#BBBBBB"/>
<path d="M10.7046 125.998L10.6887 125.992C10.6679 125.984 10.6446 125.976 10.6203 125.968C10.5603 125.947 10.4923 125.924 10.4264 125.892C10.0172 125.693 9.47816 125.429 8.9366 125.157C8.76799 125.073 8.65541 124.956 8.61078 124.82C8.57408 124.707 8.58549 124.586 8.64401 124.468C8.77295 124.21 9.03876 124.139 9.33781 124.284C9.82085 124.516 10.3445 124.774 10.9392 125.073C11.1643 125.186 11.258 125.394 11.1961 125.642C11.1425 125.857 10.9873 125.972 10.721 125.997L10.7041 125.998H10.7046ZM9.04868 124.362C8.92966 124.362 8.83543 124.421 8.77691 124.537C8.73625 124.619 8.72782 124.698 8.75212 124.772C8.78386 124.869 8.87064 124.955 9.00256 125.022C9.54312 125.293 10.0822 125.557 10.4908 125.756C10.5484 125.784 10.6119 125.806 10.6679 125.824C10.6872 125.831 10.7061 125.837 10.7239 125.844C10.9144 125.823 11.016 125.749 11.0517 125.605C11.0969 125.425 11.0369 125.291 10.8732 125.209C10.2791 124.911 9.75637 124.654 9.27433 124.421C9.1925 124.381 9.11663 124.362 9.04819 124.362H9.04868Z" fill="#BBBBBB"/>
<defs>
<filter id="filter0_d_643_866" x="0" y="48" width="34" height="39" filterUnits="userSpaceOnUse" color-interpolation-filters="sRGB">
<feFlood flood-opacity="0" result="BackgroundImageFix"/>
<feColorMatrix in="SourceAlpha" type="matrix" values="0 0 0 0 0 0 0 0 0 0 0 0 0 0 0 0 0 0 127 0" result="hardAlpha"/>
<feOffset dy="4"/>
<feGaussianBlur stdDeviation="2"/>
<feComposite in2="hardAlpha" operator="out"/>
<feColorMatrix type="matrix" values="0 0 0 0 0 0 0 0 0 0 0 0 0 0 0 0 0 0 0.25 0"/>
<feBlend mode="normal" in2="BackgroundImageFix" result="effect1_dropShadow_643_866"/>
<feBlend mode="normal" in="SourceGraphic" in2="effect1_dropShadow_643_866" result="shape"/>
</filter>
</defs>
</svg>
