<svg width="26" height="18" viewBox="0 0 26 18" fill="none" xmlns="http://www.w3.org/2000/svg">
<path d="M26 15.2667C25.7806 15.7131 25.4343 15.9016 24.9448 15.8671C24.5573 15.84 24.1653 15.8812 23.7778 15.8556C23.4802 15.8358 23.3441 15.9366 23.2263 16.2316C22.7998 17.2983 22.0045 17.9128 20.8828 17.9901C19.6635 18.0741 18.7667 17.5118 18.1924 16.4054C18.1802 16.3825 18.1645 16.359 18.1609 16.3344C18.1005 15.9058 17.8415 15.8431 17.4611 15.8525C16.3277 15.8797 15.1932 15.8666 14.0598 15.8583C13.8552 15.8567 13.7495 15.9084 13.6734 16.1245C13.2696 17.2732 12.2708 17.9958 11.1191 18C9.91453 18.0042 8.91516 17.3108 8.4957 16.1506C8.41191 15.9199 8.3007 15.8504 8.07117 15.8567C7.49633 15.8729 6.92047 15.864 6.34512 15.8609C5.8957 15.8583 5.62504 15.6097 5.62098 15.2051C5.61691 14.801 5.90992 14.5227 6.35223 14.5201C6.94434 14.5169 7.53695 14.5138 8.12906 14.5222C8.30527 14.5248 8.39871 14.4747 8.46168 14.2898C8.86793 13.0884 9.88152 12.3319 11.0647 12.3293C12.2703 12.3261 13.2849 13.0733 13.6972 14.2856C13.7597 14.4684 13.847 14.5237 14.0263 14.5227C15.2618 14.5164 16.4973 14.5164 17.7328 14.5227C17.9126 14.5237 18.0009 14.4668 18.0619 14.2851C18.4691 13.0801 19.4929 12.3256 20.6944 12.3293C21.8776 12.3329 22.9064 13.0999 23.302 14.2893C23.3584 14.4585 23.431 14.53 23.6057 14.5227C23.8845 14.5112 24.1648 14.5081 24.443 14.5232C24.6558 14.5347 24.7183 14.4538 24.7173 14.2392C24.7096 12.8383 24.6904 11.437 24.7254 10.0372C24.7386 9.50724 24.6502 9.08903 24.1927 8.79821C24.0795 8.72616 23.9713 8.63009 23.89 8.52149C23.4538 7.93828 22.8759 7.83282 22.1914 7.85683C20.8645 7.90382 19.5345 7.87093 18.2061 7.87041C17.5073 7.87041 17.1656 7.52424 17.1636 6.79589C17.1595 5.14287 17.162 3.48985 17.162 1.83683C17.162 1.75852 17.1564 1.67968 17.1625 1.60188C17.1778 1.41392 17.1052 1.3356 16.9142 1.34135C16.5339 1.35231 16.1525 1.34448 15.7721 1.34448C12.641 1.34448 9.51031 1.34448 6.37914 1.34396C5.89367 1.34396 5.6032 1.07089 5.62047 0.639623C5.63367 0.31069 5.87133 0.0444105 6.19023 0.00838447C6.29078 -0.00310208 6.39285 0.000552734 6.49441 0.000552734C10.1334 3.0618e-05 13.7724 3.0618e-05 17.4109 3.0618e-05C18.198 3.0618e-05 18.4961 0.300769 18.4935 1.11997C18.4925 1.34761 18.557 1.42489 18.782 1.4181C19.2806 1.40296 19.7803 1.41288 20.2795 1.4134C21.4378 1.41549 22.3184 2.0509 22.7221 3.17606C23.1085 4.25267 23.4975 5.32927 23.8794 6.40744C23.9688 6.66014 24.113 6.86168 24.307 7.04129C24.7848 7.48352 25.2505 7.93985 25.7227 8.38835C25.8436 8.50321 25.9147 8.65202 25.9995 8.79142V15.2657L26 15.2667ZM20.5009 6.52909C21.1011 6.52909 21.7014 6.52805 22.3016 6.53014C22.427 6.53014 22.523 6.53327 22.4555 6.34844C22.1091 5.4055 21.7801 4.45629 21.4246 3.51753C21.2662 3.09983 20.9478 2.85078 20.506 2.79283C19.925 2.71608 19.3405 2.7803 18.7586 2.75471C18.5595 2.74584 18.494 2.81894 18.4955 3.0236C18.5032 4.10125 18.5042 5.1789 18.495 6.25707C18.493 6.48106 18.5743 6.53692 18.7769 6.53327C19.3517 6.5223 19.9266 6.52961 20.5014 6.52961L20.5009 6.52909ZM9.65199 15.1811C9.65606 16.005 10.2964 16.666 11.083 16.6571C11.8666 16.6487 12.5186 15.9773 12.5247 15.1732C12.5308 14.3514 11.8808 13.6972 11.0647 13.703C10.2548 13.7087 9.64844 14.3431 9.6525 15.1811H9.65199ZM19.2517 15.1612C19.2496 15.9909 19.8707 16.6487 20.6634 16.6576C21.4515 16.666 22.1218 15.9825 22.1239 15.1685C22.1259 14.3556 21.4871 13.7051 20.6847 13.703C19.8707 13.7009 19.2537 14.3285 19.2517 15.1612Z" fill="#BBBBBB"/>
<path d="M0 7.69602C0.147773 7.39372 0.379844 7.25744 0.714492 7.25797C4.03 7.26266 7.34551 7.26005 10.6605 7.26162C11.1323 7.26162 11.4065 7.52633 11.3963 7.95917C11.3882 8.29071 11.1561 8.55647 10.8367 8.59563C10.7616 8.6045 10.6849 8.60189 10.6087 8.60189C7.32723 8.60189 4.04574 8.59928 0.76375 8.60607C0.414375 8.60659 0.154375 8.49642 0 8.16593V7.69602Z" fill="#BBBBBB"/>
<path d="M7.15965 4.99459C5.9927 4.99459 4.82625 4.99616 3.6593 4.99355C3.29062 4.99303 3.03418 4.82229 2.94074 4.52939C2.81988 4.15085 3.03316 3.74987 3.41352 3.66372C3.55215 3.63239 3.6984 3.62247 3.84109 3.62247C6.05617 3.61986 8.27176 3.62038 10.4868 3.62247C10.6046 3.62247 10.724 3.6303 10.8393 3.65171C11.213 3.72115 11.4166 3.98848 11.3948 4.36753C11.375 4.71004 11.1191 4.97371 10.7611 4.98989C10.4234 5.00503 10.0846 4.99511 9.74644 4.99564C8.88418 4.99564 8.02141 4.99564 7.15914 4.99564L7.15965 4.99459Z" fill="#BBBBBB"/>
<path d="M4.55711 10.8674C5.25941 10.8674 5.96172 10.8632 6.66402 10.8694C7.11902 10.8736 7.40238 11.166 7.38359 11.5931C7.37141 11.875 7.19977 12.1063 6.9352 12.1935C6.79656 12.239 6.65336 12.2447 6.50863 12.2447C5.19695 12.2437 3.88527 12.2447 2.57359 12.2437C2.48066 12.2437 2.38672 12.2437 2.29531 12.2285C1.92004 12.1674 1.65598 11.8625 1.67629 11.5221C1.69863 11.1477 1.97387 10.8788 2.37402 10.8721C2.98289 10.8616 3.59277 10.8684 4.20164 10.8679C4.31996 10.8679 4.43879 10.8679 4.55711 10.8679V10.8674Z" fill="#BBBBBB"/>
</svg>
