<svg width="22" height="19" viewBox="0 0 22 19" fill="none" xmlns="http://www.w3.org/2000/svg">
<path d="M0.00959011 9.1452C0.333125 8.23328 0.986079 7.86732 1.93236 7.8703C6.81364 7.88369 11.6949 7.88517 16.5762 7.87476C16.7236 7.87476 16.871 7.906 17.028 7.83311C16.9859 7.67914 16.8577 7.59806 16.7597 7.49913C15.229 5.95423 13.6916 4.41602 12.1654 2.86665C11.3458 2.03581 11.4438 0.858354 12.3651 0.255121C12.6332 0.0779692 12.9492 -0.0108074 13.2695 0.00105044C13.5897 0.0129083 13.8984 0.124817 14.153 0.321321C14.3364 0.46421 14.5088 0.620854 14.6689 0.789924C16.7673 2.91327 18.865 5.0381 20.962 7.16442C21.6754 7.88368 22.0542 8.71825 21.9937 9.75066C21.9458 10.6031 21.5626 11.2814 20.9855 11.8668C18.7938 14.0888 16.5993 16.3081 14.4021 18.5247C14.1902 18.7311 13.9397 18.8927 13.6651 19H12.7807C12.4181 18.8631 12.1012 18.666 11.886 18.3268C11.4144 17.583 11.5175 16.8236 12.2096 16.1222C13.7282 14.5825 15.2491 13.0453 16.7722 11.5105C16.8614 11.4205 16.9933 11.3558 17.0066 11.1974C16.8592 11.123 16.7118 11.158 16.5718 11.158C11.691 11.158 6.80945 11.158 1.9272 11.158C0.996392 11.158 0.317639 10.8106 0 9.88603L0.00959011 9.1452Z" fill="white"/>
</svg>
