<svg width="1512" height="122" viewBox="0 0 1512 122" fill="none" xmlns="http://www.w3.org/2000/svg">
<rect width="1513" height="106.75" fill="#0099AB"/>
<path d="M185.471 57.7114C186.767 56.1753 188.302 55.0801 190.204 54.588C196.812 52.8809 201.803 57.3834 202.655 62.3479C202.753 62.9027 202.805 63.465 202.808 64.0287C202.818 70.2789 202.818 76.5298 202.808 82.7812C202.808 82.9575 202.794 83.1233 202.783 83.3314H198.182V82.626C198.182 76.5697 198.182 70.5147 198.182 64.4608C198.182 61.7042 196.496 59.5632 193.95 59.0412C190.867 58.401 187.843 60.8983 187.843 64.0833C187.843 70.256 187.843 76.4286 187.843 82.6013V83.3314H183.214C183.202 83.0739 183.181 82.8288 183.181 82.5837C183.181 76.4698 183.181 70.3559 183.181 64.2421C183.181 61.8189 181.517 59.6408 179.269 59.0976C175.89 58.2828 172.795 60.7924 172.79 64.3708C172.779 70.4271 172.779 76.4821 172.79 82.536V83.3279H168.159C168.149 83.1357 168.128 82.9487 168.128 82.7618C168.128 76.6861 168.169 70.6105 168.114 64.5366C168.063 58.8331 171.99 55.3993 175.316 54.5933C179.236 53.648 182.694 54.4646 185.471 57.7114Z" fill="white"/>
<path d="M187.843 51.5035H183.179V50.7381C183.179 44.6454 183.179 38.5515 183.179 32.4565C183.179 30.0438 181.555 27.8711 179.34 27.312C175.946 26.4461 172.795 28.9486 172.788 32.5446C172.775 38.5985 172.775 44.6536 172.788 50.7099V51.4947H168.126V50.8739C168.126 44.837 168.178 38.8019 168.112 32.7669C168.051 27.2221 171.811 23.6948 175.231 22.8165C179.044 21.8395 182.453 22.5714 185.198 25.626L185.424 25.8729C186.031 25.3226 186.581 24.716 187.229 24.2557C190.26 22.1164 193.564 21.8042 196.894 23.268C200.224 24.7318 202.225 27.3684 202.712 31.0791C202.783 31.6583 202.816 32.2415 202.811 32.8251C202.811 38.8025 202.811 44.7794 202.811 50.7557V51.4964H198.182V50.8245C198.182 44.7706 198.182 38.7155 198.182 32.6593C198.182 29.9592 196.539 27.8182 194.067 27.2573C190.954 26.5431 187.843 29.0421 187.843 32.2713C187.835 38.4428 187.835 44.6154 187.843 50.7892V51.5035Z" fill="white"/>
<path d="M223.424 22.4162C224.935 22.4162 226.371 22.4162 227.806 22.4321C227.917 22.4321 228.065 22.6384 228.122 22.7848C228.155 22.9366 228.16 23.0933 228.136 23.2469C228.136 28.5218 228.121 33.7968 228.136 39.0718C228.147 41.5885 227.804 44.0099 226.397 46.1439C223.744 50.1667 220.012 51.9638 215.269 51.4559C210.469 50.9374 206.672 47.0151 205.74 42.853C205.527 41.886 205.419 40.8984 205.418 39.9077C205.388 34.2818 205.404 28.6559 205.404 23.0317V22.4674H210.099V23.2204C210.099 28.8264 210.099 34.4329 210.099 40.04C210.105 41.4004 210.512 42.7279 211.268 43.8518C212.023 44.9757 213.093 45.8445 214.34 46.3467C218.611 48.0362 223.349 44.8511 223.382 40.204C223.429 34.5393 223.4 28.8746 223.403 23.2098L223.424 22.4162Z" fill="white"/>
<path d="M210.226 83.3667C208.72 83.3667 207.303 83.3667 205.879 83.3526C205.78 83.3526 205.616 83.1568 205.597 83.0334C205.571 82.7402 205.565 82.4455 205.581 82.1516C205.581 76.6614 205.557 71.1731 205.581 65.6829C205.607 61.2157 207.569 57.7661 211.396 55.6427C212.968 54.7471 214.729 54.2491 216.531 54.1911C218.332 54.1331 220.121 54.5168 221.746 55.3095C223.37 56.1023 224.782 57.2807 225.861 58.7449C226.941 60.209 227.656 61.9157 227.947 63.72C228.029 64.2184 228.073 64.7226 228.075 65.2279C228.084 71.069 228.084 76.9095 228.075 82.7494V83.335C227.848 83.3455 227.663 83.3632 227.481 83.3632C226.406 83.3632 225.331 83.3632 224.257 83.3632C223.441 83.3632 223.44 83.3632 223.44 82.5625C223.44 76.9948 223.426 71.427 223.44 65.8593C223.45 63.1575 222.29 61.1311 220.042 59.7801C216.001 57.3534 210.572 60.3092 210.273 65.0569C210.233 65.6777 210.215 66.3002 210.214 66.921C210.214 72.119 210.214 77.3169 210.214 82.5149L210.226 83.3667Z" fill="white"/>
<path d="M213.274 70.5629C213.283 68.5047 214.848 66.9704 216.926 66.9862C217.395 66.9863 217.86 67.0818 218.293 67.267C218.726 67.4522 219.117 67.7235 219.445 68.0647C219.773 68.4059 220.03 68.8103 220.201 69.2539C220.372 69.6975 220.454 70.1713 220.442 70.6475C220.434 71.6094 220.051 72.529 219.376 73.2052C218.702 73.8814 217.791 74.2592 216.842 74.2559C216.367 74.2562 215.897 74.1604 215.459 73.974C215.022 73.7876 214.625 73.5144 214.292 73.1704C213.96 72.8264 213.699 72.4186 213.524 71.9708C213.349 71.523 213.264 71.0444 213.274 70.5629Z" fill="white"/>
<path d="M1179.29 45.5833V44.9833H1175.42V42.5433H1179.02V41.9433H1175.42V39.5033H1179.2V38.9033H1175.42C1174.94 38.9033 1174.78 39.1433 1174.78 39.5333V44.9533C1174.78 45.3433 1174.94 45.5833 1175.42 45.5833H1179.29ZM1182.77 41.2133C1183.9 41.2133 1184.51 42.1233 1184.51 43.1633V45.5833H1185.13V43.0933C1185.13 41.6933 1184.26 40.6233 1182.77 40.6233C1181.31 40.6233 1180.46 41.7033 1180.46 43.1033V45.5833H1181.08V43.1533C1181.08 42.1233 1181.67 41.2133 1182.77 41.2133ZM1187.46 45.0933C1187.61 45.4933 1187.92 45.6933 1188.27 45.6933C1188.63 45.6933 1188.92 45.4933 1189.07 45.0933L1190.71 40.7333H1190.05L1188.5 44.9333C1188.46 45.0433 1188.39 45.1133 1188.27 45.1133C1188.16 45.1133 1188.08 45.0433 1188.04 44.9333L1186.49 40.7333H1185.83L1187.46 45.0933ZM1191.97 39.5633C1192.22 39.5633 1192.41 39.3633 1192.41 39.1033C1192.41 38.8433 1192.22 38.6433 1191.97 38.6433C1191.72 38.6433 1191.52 38.8433 1191.52 39.1033C1191.52 39.3633 1191.72 39.5633 1191.97 39.5633ZM1191.66 40.7333V45.5833H1192.28V40.7333H1191.66ZM1195.98 45.6833C1196.9 45.6833 1197.65 45.1833 1198.02 44.4533V45.5833H1198.61V43.1433C1198.61 41.7233 1197.49 40.6233 1196.06 40.6233C1194.61 40.6233 1193.52 41.7633 1193.52 43.1433C1193.52 44.5433 1194.58 45.6833 1195.98 45.6833ZM1196.06 45.0933C1194.99 45.0933 1194.14 44.2133 1194.14 43.1533C1194.14 42.0933 1194.99 41.2133 1196.06 41.2133C1197.14 41.2133 1197.99 42.0933 1197.99 43.1533C1197.99 44.2133 1197.14 45.0933 1196.06 45.0933ZM1200.63 45.5833V42.6233C1200.63 41.7933 1201.09 41.2633 1201.83 41.2633C1202.11 41.2633 1202.38 41.3333 1202.62 41.4733V40.8433C1202.37 40.7233 1202.08 40.6633 1201.78 40.6633C1200.66 40.6633 1200.01 41.4633 1200.01 42.5933V45.5833H1200.63ZM1207.88 45.6833C1208.8 45.6833 1209.55 45.1833 1209.92 44.4533V45.5833H1210.51V43.1433C1210.51 41.7233 1209.39 40.6233 1207.96 40.6233C1206.51 40.6233 1205.42 41.7633 1205.42 43.1433C1205.42 44.5433 1206.48 45.6833 1207.88 45.6833ZM1207.96 45.0933C1206.89 45.0933 1206.04 44.2133 1206.04 43.1533C1206.04 42.0933 1206.89 41.2133 1207.96 41.2133C1209.04 41.2133 1209.89 42.0933 1209.89 43.1533C1209.89 44.2133 1209.04 45.0933 1207.96 45.0933ZM1212.41 41.5533C1212.66 41.5533 1212.86 41.3533 1212.86 41.0933C1212.86 40.8433 1212.66 40.6533 1212.41 40.6533C1212.16 40.6533 1211.96 40.8433 1211.96 41.0933C1211.96 41.3533 1212.16 41.5533 1212.41 41.5533ZM1212.41 45.6633C1212.66 45.6633 1212.86 45.4633 1212.86 45.2033C1212.86 44.9533 1212.66 44.7633 1212.41 44.7633C1212.16 44.7633 1211.96 44.9533 1211.96 45.2033C1211.96 45.4633 1212.16 45.6633 1212.41 45.6633Z" fill="#AAD3D1"/>
<path d="M1175.55 61.7806L1176.81 53.5766C1176.87 53.2406 1177.01 53.0726 1177.22 53.0726C1177.43 53.0726 1177.53 53.2126 1177.61 53.5066L1179.7 60.6746C1179.81 61.0946 1180.19 61.3186 1180.58 61.3186C1180.99 61.3186 1181.34 61.0946 1181.46 60.6606L1183.53 53.5346C1183.6 53.2546 1183.74 53.0866 1183.94 53.0866C1184.19 53.0866 1184.28 53.2826 1184.32 53.5906L1185.47 61.7666H1186.36L1185.14 53.3386C1185.05 52.6526 1184.56 52.2886 1183.98 52.2886C1183.45 52.2886 1182.97 52.5686 1182.81 53.1706L1180.8 60.2546C1180.75 60.4646 1180.71 60.5486 1180.58 60.5486C1180.45 60.5486 1180.41 60.4646 1180.36 60.2546L1178.34 53.1426C1178.17 52.5406 1177.7 52.2746 1177.18 52.2746C1176.59 52.2746 1176.1 52.6246 1175.99 53.2966L1174.64 61.7806H1175.55ZM1191.08 61.9066C1192.33 61.9066 1193.39 61.3466 1194.01 60.2266L1193.33 59.8626C1192.84 60.7306 1192 61.0806 1191.08 61.0806C1189.64 61.0806 1188.57 60.0586 1188.43 58.6726H1194.19V58.1546C1194.19 56.2226 1192.9 54.8086 1190.93 54.8086C1188.94 54.8086 1187.58 56.3906 1187.58 58.3506C1187.58 60.3806 1189.08 61.9066 1191.08 61.9066ZM1188.46 57.9726C1188.59 56.6566 1189.51 55.6346 1190.93 55.6346C1192.3 55.6346 1193.29 56.5586 1193.32 57.9726H1188.46ZM1198.81 61.9206C1200.81 61.9206 1202.38 60.3666 1202.38 58.3786V51.8546H1201.51L1201.5 56.2786C1200.93 55.4106 1199.92 54.8226 1198.77 54.8226C1196.77 54.8226 1195.26 56.3766 1195.26 58.3786C1195.26 60.3246 1196.78 61.9206 1198.81 61.9206ZM1198.81 61.0946C1197.31 61.0946 1196.12 59.8626 1196.12 58.3786C1196.12 56.8946 1197.31 55.6486 1198.81 55.6486C1200.32 55.6486 1201.51 56.8946 1201.51 58.3786C1201.51 59.8626 1200.32 61.0946 1198.81 61.0946ZM1207.35 61.9066C1208.6 61.9066 1209.66 61.3466 1210.28 60.2266L1209.6 59.8626C1209.11 60.7306 1208.27 61.0806 1207.35 61.0806C1205.91 61.0806 1204.84 60.0586 1204.7 58.6726H1210.46V58.1546C1210.46 56.2226 1209.17 54.8086 1207.2 54.8086C1205.21 54.8086 1203.85 56.3906 1203.85 58.3506C1203.85 60.3806 1205.35 61.9066 1207.35 61.9066ZM1204.73 57.9726C1204.86 56.6566 1205.78 55.6346 1207.2 55.6346C1208.57 55.6346 1209.56 56.5586 1209.59 57.9726H1204.73ZM1212.3 51.8546V61.7666H1213.16V51.8546H1212.3ZM1215.68 51.8546V61.7666H1216.55V51.8546H1215.68ZM1219.9 53.7306L1221.51 51.7566H1220.59L1218.99 53.7306H1219.9ZM1219.06 54.9766V61.7666H1219.93V54.9766H1219.06ZM1225.4 55.6486C1226.98 55.6486 1227.84 56.9226 1227.84 58.3786V61.7666H1228.71V58.2806C1228.71 56.3206 1227.49 54.8226 1225.4 54.8226C1223.36 54.8226 1222.17 56.3346 1222.17 58.2946V61.7666H1223.04V58.3646C1223.04 56.9226 1223.86 55.6486 1225.4 55.6486Z" fill="white"/>
<path d="M1155.84 38.6333H1157.7C1158.05 38.691 1158.39 38.7279 1158.73 38.8089C1162.66 39.742 1165.24 42.152 1166.42 46.0895C1166.62 46.7685 1166.7 47.4698 1166.77 48.1716V49.2126C1166.74 49.4378 1166.71 49.664 1166.67 49.8874C1166.44 51.1177 1166 52.2737 1165.47 53.3971C1164.25 55.9699 1162.69 58.3231 1161.05 60.6328C1160.78 61.025 1160.45 61.3755 1160.08 61.6738C1159.04 62.5047 1157.85 62.8915 1156.53 62.8341C1155.02 62.765 1153.75 62.1527 1152.77 60.9886C1151.84 59.8733 1151.07 58.6297 1150.29 57.3994C1149.2 55.6907 1148.21 53.9304 1147.48 52.0296C1147.07 50.9412 1146.74 49.8235 1146.76 48.6391C1146.76 47.8915 1146.86 47.1472 1147.04 46.4226C1147.95 42.8594 1150.12 40.4475 1153.51 39.1685C1154.26 38.8822 1155.05 38.7402 1155.84 38.6333ZM1156.21 40.8687C1155.47 40.8748 1154.24 41.1687 1153.1 41.8075C1151.26 42.8372 1150 44.3685 1149.36 46.4013C1149.08 47.2619 1148.96 48.1682 1149.01 49.0725C1149.06 49.8599 1149.3 50.6 1149.6 51.3193C1150.79 54.2242 1152.47 56.8377 1154.33 59.3357C1155.62 61.0728 1158.08 60.9872 1159.32 59.2184C1159.84 58.4682 1160.36 57.7111 1160.86 56.947C1162.01 55.1905 1163.08 53.3838 1163.9 51.4357C1164.46 50.1013 1164.69 48.7385 1164.42 47.2961C1163.71 43.5768 1160.5 40.8692 1156.21 40.8687H1156.21Z" fill="#AAD3D1"/>
<path d="M1156.78 44.6604C1158.86 44.6443 1160.78 46.3223 1160.77 48.7176C1160.76 51.1224 1158.87 52.7687 1156.77 52.7682C1154.66 52.7682 1152.78 51.1002 1152.77 48.7157C1152.77 48.1806 1152.87 47.6499 1153.07 47.1547C1153.27 46.6596 1153.57 46.2099 1153.94 45.8321C1154.31 45.4544 1154.76 45.1561 1155.24 44.9549C1155.73 44.7537 1156.26 44.6536 1156.78 44.6604ZM1158.71 48.7153C1158.71 48.1905 1158.51 47.6864 1158.15 47.3138C1157.78 46.9411 1157.29 46.7303 1156.77 46.7278C1156.26 46.7309 1155.77 46.9388 1155.4 47.3065C1155.04 47.6743 1154.84 48.1722 1154.83 48.6926C1154.83 49.8017 1155.67 50.6719 1156.76 50.68C1157.02 50.6828 1157.27 50.634 1157.51 50.5365C1157.74 50.4389 1157.96 50.2946 1158.14 50.1118C1158.32 49.929 1158.47 49.7114 1158.56 49.4716C1158.66 49.2319 1158.71 48.9748 1158.71 48.7153Z" fill="#AAD3D1"/>
<path d="M1280.39 46.3147V55.6667H1281.28V46.3147H1280.39ZM1286.9 49.5487C1288.48 49.5487 1289.33 50.8227 1289.33 52.2787V55.6667H1290.2V52.1807C1290.2 50.2207 1288.98 48.7227 1286.9 48.7227C1284.85 48.7227 1283.66 50.2347 1283.66 52.1947V55.6667H1284.53V52.2647C1284.53 50.8227 1285.36 49.5487 1286.9 49.5487ZM1295.14 58.9427C1297.27 58.9427 1298.8 57.4307 1298.8 55.1067V52.2507C1298.8 50.2627 1297.23 48.7227 1295.23 48.7227C1293.2 48.7227 1291.67 50.3187 1291.67 52.2507C1291.67 54.2247 1293.2 55.7787 1295.14 55.7787C1296.45 55.7787 1297.45 55.0787 1297.93 54.1267V55.0787C1297.93 56.9127 1296.78 58.1167 1295.13 58.1167C1294.07 58.1167 1293.16 57.6547 1292.67 56.8007L1291.94 57.2067C1292.55 58.3407 1293.77 58.9427 1295.14 58.9427ZM1295.23 54.9527C1293.74 54.9527 1292.54 53.7347 1292.54 52.2367C1292.54 50.7527 1293.74 49.5487 1295.23 49.5487C1296.73 49.5487 1297.93 50.7527 1297.93 52.2367C1297.93 53.7347 1296.73 54.9527 1295.23 54.9527ZM1301.62 55.6667V51.5227C1301.62 50.3607 1302.27 49.6187 1303.3 49.6187C1303.69 49.6187 1304.07 49.7167 1304.41 49.9127V49.0307C1304.06 48.8627 1303.65 48.7787 1303.23 48.7787C1301.66 48.7787 1300.75 49.8987 1300.75 51.4807V55.6667H1301.62ZM1308.2 55.8067C1309.45 55.8067 1310.51 55.2467 1311.13 54.1267L1310.45 53.7627C1309.96 54.6307 1309.12 54.9807 1308.2 54.9807C1306.76 54.9807 1305.69 53.9587 1305.55 52.5727H1311.31V52.0547C1311.31 50.1227 1310.02 48.7087 1308.05 48.7087C1306.06 48.7087 1304.7 50.2907 1304.7 52.2507C1304.7 54.2807 1306.2 55.8067 1308.2 55.8067ZM1305.58 51.8727C1305.71 50.5567 1306.63 49.5347 1308.05 49.5347C1309.42 49.5347 1310.41 50.4587 1310.44 51.8727H1305.58ZM1315.14 55.7927C1316.48 55.7927 1317.64 55.0227 1317.64 53.7907C1317.64 51.2147 1313.61 52.3487 1313.61 50.6967C1313.61 49.9967 1314.34 49.5907 1315.09 49.5907C1315.81 49.5907 1316.4 49.7867 1316.76 50.4727L1317.47 50.0667C1317.03 49.2547 1316.19 48.7787 1315.08 48.7787C1313.78 48.7787 1312.74 49.5767 1312.74 50.7107C1312.74 53.2867 1316.77 52.0967 1316.77 53.8047C1316.77 54.5887 1316.02 54.9807 1315.11 54.9807C1314.28 54.9807 1313.65 54.7007 1313.25 53.9167L1312.53 54.3087C1313.04 55.3027 1313.99 55.7927 1315.14 55.7927ZM1322.21 55.8067C1323.5 55.8067 1324.55 55.1067 1325.07 54.0847V55.6667H1325.9V52.2507C1325.9 50.2627 1324.33 48.7227 1322.33 48.7227C1320.3 48.7227 1318.77 50.3187 1318.77 52.2507C1318.77 54.2107 1320.25 55.8067 1322.21 55.8067ZM1322.33 54.9807C1320.83 54.9807 1319.64 53.7487 1319.64 52.2647C1319.64 50.7807 1320.83 49.5487 1322.33 49.5487C1323.84 49.5487 1325.03 50.7807 1325.03 52.2647C1325.03 53.7487 1323.84 54.9807 1322.33 54.9807ZM1328.72 55.6667V51.5227C1328.72 50.3607 1329.36 49.6187 1330.4 49.6187C1330.79 49.6187 1331.17 49.7167 1331.51 49.9127V49.0307C1331.16 48.8627 1330.75 48.7787 1330.33 48.7787C1328.76 48.7787 1327.85 49.8987 1327.85 51.4807V55.6667H1328.72Z" fill="white"/>
<path d="M1263.54 37.6167C1264.21 37.7409 1264.87 37.8896 1265.48 38.2054C1267.35 39.1703 1268.48 40.6938 1268.79 42.7738C1269.23 45.7073 1267.51 48.4723 1264.72 49.4009C1261.31 50.5339 1257.65 48.393 1256.93 44.8552C1256.33 41.84 1258.09 38.8082 1261 37.8763C1261.37 37.7574 1261.76 37.6913 1262.14 37.6167H1263.54ZM1262.82 47.6372C1265.01 47.6372 1266.8 45.8518 1266.81 43.6679C1266.81 43.1427 1266.71 42.6219 1266.51 42.1358C1266.31 41.6496 1266.02 41.2077 1265.65 40.8354C1265.29 40.4631 1264.85 40.1679 1264.36 39.9668C1263.88 39.7657 1263.36 39.6626 1262.84 39.6637C1262.32 39.6611 1261.81 39.7614 1261.33 39.9587C1260.85 40.156 1260.41 40.4465 1260.04 40.8136C1259.67 41.1807 1259.38 41.6172 1259.18 42.0981C1258.98 42.579 1258.87 43.095 1258.87 43.6164C1258.86 45.8324 1260.64 47.6358 1262.82 47.6372Z" fill="#AAD3D1"/>
<path d="M1271.84 61.0335C1271.74 61.2025 1271.66 61.3843 1271.51 61.5146C1271.19 61.7809 1270.83 61.8451 1270.46 61.6888C1270.05 61.5198 1269.82 61.1889 1269.81 60.7357C1269.79 59.8741 1269.66 59.0314 1269.34 58.2298C1268.46 56.0512 1266.91 54.6122 1264.65 53.9862C1262.67 53.4363 1260.79 53.7502 1259.07 54.8615C1257.33 55.9874 1256.3 57.6095 1255.97 59.6659C1255.91 60.0222 1255.88 60.3818 1255.87 60.7423C1255.86 61.3456 1255.4 61.7672 1254.79 61.7563C1254.25 61.7469 1253.83 61.2941 1253.83 60.7177C1253.79 56.5983 1256.74 52.6649 1261.15 51.8302C1266.03 50.9078 1270.7 54.049 1271.7 58.9781C1271.76 59.2689 1271.79 59.5644 1271.84 59.858L1271.84 61.0335Z" fill="#AAD3D1"/>
<path d="M351.535 87.3373C353.103 87.3373 354.489 86.5533 355.231 85.2653L354.503 84.8313C353.873 85.8673 352.753 86.4833 351.507 86.4833C349.449 86.4833 347.783 84.7333 347.783 82.4933C347.783 80.2813 349.463 78.5313 351.507 78.5313C352.753 78.5313 353.873 79.1613 354.503 80.1973L355.231 79.7633C354.489 78.4753 353.103 77.6773 351.535 77.6773C348.973 77.6773 346.859 79.8193 346.859 82.4933C346.859 85.1953 348.973 87.3373 351.535 87.3373ZM359.456 87.3233C360.744 87.3233 361.794 86.6233 362.312 85.6013V87.1833H363.138V83.7673C363.138 81.7793 361.57 80.2393 359.568 80.2393C357.538 80.2393 356.012 81.8353 356.012 83.7673C356.012 85.7273 357.496 87.3233 359.456 87.3233ZM359.568 86.4973C358.07 86.4973 356.88 85.2653 356.88 83.7813C356.88 82.2973 358.07 81.0653 359.568 81.0653C361.08 81.0653 362.27 82.2973 362.27 83.7813C362.27 85.2653 361.08 86.4973 359.568 86.4973ZM367.839 87.3373C368.343 87.3373 368.847 87.1693 369.197 86.9033V86.0633C368.861 86.3433 368.399 86.5253 367.909 86.5253C367.013 86.5253 366.425 85.9373 366.425 84.9293V81.1773H369.197V80.3933H366.425V78.5873H365.557V80.3933H364.115V81.1773H365.557V84.9573C365.557 86.3993 366.397 87.3373 367.839 87.3373ZM373.813 87.3233C375.059 87.3233 376.123 86.7633 376.739 85.6433L376.067 85.2793C375.577 86.1473 374.737 86.4973 373.813 86.4973C372.371 86.4973 371.307 85.4753 371.167 84.0893H376.921V83.5713C376.921 81.6393 375.633 80.2253 373.659 80.2253C371.671 80.2253 370.313 81.8073 370.313 83.7673C370.313 85.7973 371.811 87.3233 373.813 87.3233ZM371.195 83.3893C371.321 82.0733 372.245 81.0513 373.659 81.0513C375.031 81.0513 376.025 81.9753 376.053 83.3893H371.195ZM381.462 90.4593C383.59 90.4593 385.116 88.9473 385.116 86.6233V83.7673C385.116 81.7793 383.548 80.2393 381.546 80.2393C379.516 80.2393 377.99 81.8353 377.99 83.7673C377.99 85.7413 379.516 87.2953 381.462 87.2953C382.764 87.2953 383.772 86.5953 384.248 85.6433V86.5953C384.248 88.4293 383.1 89.6333 381.448 89.6333C380.384 89.6333 379.474 89.1713 378.984 88.3173L378.256 88.7233C378.872 89.8573 380.09 90.4593 381.462 90.4593ZM381.546 86.4693C380.062 86.4693 378.858 85.2513 378.858 83.7533C378.858 82.2693 380.062 81.0653 381.546 81.0653C383.044 81.0653 384.248 82.2693 384.248 83.7533C384.248 85.2513 383.044 86.4693 381.546 86.4693ZM390.154 87.3233C392.156 87.3233 393.71 85.7273 393.71 83.7673C393.71 81.8353 392.184 80.2393 390.154 80.2393C388.166 80.2393 386.584 81.8213 386.584 83.7673C386.584 85.7273 388.138 87.3233 390.154 87.3233ZM390.154 86.4973C388.642 86.4973 387.452 85.2653 387.452 83.7813C387.452 82.2973 388.642 81.0653 390.154 81.0653C391.652 81.0653 392.842 82.2973 392.842 83.7813C392.842 85.2653 391.652 86.4973 390.154 86.4973ZM396.042 87.1833V83.0393C396.042 81.8773 396.686 81.1353 397.722 81.1353C398.114 81.1353 398.492 81.2333 398.828 81.4293V80.5473C398.478 80.3793 398.072 80.2953 397.652 80.2953C396.084 80.2953 395.174 81.4153 395.174 82.9973V87.1833H396.042ZM400.622 79.1473L402.232 77.1733H401.308L399.712 79.1473H400.622ZM399.782 80.3933V87.1833H400.65V80.3933H399.782ZM405.84 87.3233C407.128 87.3233 408.178 86.6233 408.696 85.6013V87.1833H409.522V83.7673C409.522 81.7793 407.954 80.2393 405.952 80.2393C403.922 80.2393 402.396 81.8353 402.396 83.7673C402.396 85.7273 403.88 87.3233 405.84 87.3233ZM405.952 86.4973C404.454 86.4973 403.264 85.2653 403.264 83.7813C403.264 82.2973 404.454 81.0653 405.952 81.0653C407.464 81.0653 408.654 82.2973 408.654 83.7813C408.654 85.2653 407.464 86.4973 405.952 86.4973ZM413.747 87.3093C415.091 87.3093 416.253 86.5393 416.253 85.3073C416.253 82.7313 412.221 83.8653 412.221 82.2133C412.221 81.5133 412.949 81.1073 413.705 81.1073C414.419 81.1073 415.007 81.3033 415.371 81.9893L416.085 81.5833C415.637 80.7713 414.797 80.2953 413.691 80.2953C412.389 80.2953 411.353 81.0933 411.353 82.2273C411.353 84.8033 415.385 83.6133 415.385 85.3213C415.385 86.1053 414.629 86.4973 413.719 86.4973C412.893 86.4973 412.263 86.2173 411.857 85.4333L411.143 85.8253C411.647 86.8193 412.599 87.3093 413.747 87.3093Z" fill="white"/>
<path d="M470.452 87.2953C472.244 87.2953 473.616 86.2313 473.616 84.6353C473.616 82.7593 472.034 82.3393 470.62 82.0313C469.388 81.7653 468.24 81.5133 468.24 80.2813C468.24 79.3013 469.192 78.5873 470.298 78.5873C471.404 78.5873 472.23 79.0913 472.65 80.0013L473.392 79.6093C472.874 78.3773 471.67 77.7333 470.326 77.7333C468.702 77.7333 467.344 78.8393 467.344 80.3093C467.344 82.1713 468.954 82.5913 470.368 82.8993C471.6 83.1513 472.72 83.3893 472.72 84.6353C472.72 85.7833 471.74 86.4413 470.452 86.4413C469.248 86.4413 468.324 85.9233 467.918 84.9993L467.162 85.3773C467.68 86.6093 468.968 87.2953 470.452 87.2953ZM478.404 87.3233C480.406 87.3233 481.96 85.7273 481.96 83.7673C481.96 81.8353 480.434 80.2393 478.404 80.2393C476.416 80.2393 474.834 81.8213 474.834 83.7673C474.834 85.7273 476.388 87.3233 478.404 87.3233ZM478.404 86.4973C476.892 86.4973 475.702 85.2653 475.702 83.7813C475.702 82.2973 476.892 81.0653 478.404 81.0653C479.902 81.0653 481.092 82.2973 481.092 83.7813C481.092 85.2653 479.902 86.4973 478.404 86.4973ZM483.705 77.2713V87.1833H484.573V77.2713H483.705ZM489.973 86.4973C488.503 86.4973 487.677 85.2233 487.677 83.7813V80.3933H486.809V83.8513C486.809 85.8113 487.999 87.3233 489.973 87.3233C491.975 87.3233 493.179 85.8253 493.179 83.8653V80.3933H492.311V83.7673C492.311 85.2233 491.457 86.4973 489.973 86.4973ZM498.11 87.3233C499.314 87.3233 500.406 86.7913 501.036 85.6433L500.308 85.2373C499.818 86.0913 499.02 86.4973 498.11 86.4973C496.71 86.4973 495.52 85.2653 495.52 83.7813C495.52 82.2973 496.71 81.0653 498.11 81.0653C499.02 81.0653 499.818 81.4713 500.308 82.3393L501.036 81.9193C500.406 80.7713 499.314 80.2393 498.11 80.2393C496.234 80.2393 494.652 81.8213 494.652 83.7813C494.652 85.7413 496.234 87.3373 498.11 87.3233ZM503.082 78.7553C503.432 78.7553 503.698 78.4753 503.698 78.1113C503.698 77.7473 503.432 77.4673 503.082 77.4673C502.732 77.4673 502.452 77.7473 502.452 78.1113C502.452 78.4753 502.732 78.7553 503.082 78.7553ZM502.648 80.3933V87.1833H503.516V80.3933H502.648ZM508.832 87.3233C510.834 87.3233 512.388 85.7273 512.388 83.7673C512.388 81.8353 510.862 80.2393 508.832 80.2393C506.844 80.2393 505.262 81.8213 505.262 83.7673C505.262 85.7273 506.816 87.3233 508.832 87.3233ZM508.832 86.4973C507.32 86.4973 506.13 85.2653 506.13 83.7813C506.13 82.2973 507.32 81.0653 508.832 81.0653C510.33 81.0653 511.52 82.2973 511.52 83.7813C511.52 85.2653 510.33 86.4973 508.832 86.4973ZM517.087 81.0653C518.669 81.0653 519.523 82.3393 519.523 83.7953V87.1833H520.391V83.6973C520.391 81.7373 519.173 80.2393 517.087 80.2393C515.043 80.2393 513.853 81.7513 513.853 83.7113V87.1833H514.721V83.7813C514.721 82.3393 515.547 81.0653 517.087 81.0653ZM525.36 87.3233C526.606 87.3233 527.67 86.7633 528.286 85.6433L527.614 85.2793C527.124 86.1473 526.284 86.4973 525.36 86.4973C523.918 86.4973 522.854 85.4753 522.714 84.0893H528.468V83.5713C528.468 81.6393 527.18 80.2253 525.206 80.2253C523.218 80.2253 521.86 81.8073 521.86 83.7673C521.86 85.7973 523.358 87.3233 525.36 87.3233ZM522.742 83.3893C522.868 82.0733 523.792 81.0513 525.206 81.0513C526.578 81.0513 527.572 81.9753 527.6 83.3893H522.742ZM532.295 87.3093C533.639 87.3093 534.801 86.5393 534.801 85.3073C534.801 82.7313 530.769 83.8653 530.769 82.2133C530.769 81.5133 531.497 81.1073 532.253 81.1073C532.967 81.1073 533.555 81.3033 533.919 81.9893L534.633 81.5833C534.185 80.7713 533.345 80.2953 532.239 80.2953C530.937 80.2953 529.901 81.0933 529.901 82.2273C529.901 84.8033 533.933 83.6133 533.933 85.3213C533.933 86.1053 533.177 86.4973 532.267 86.4973C531.441 86.4973 530.811 86.2173 530.405 85.4333L529.691 85.8253C530.195 86.8193 531.147 87.3093 532.295 87.3093ZM543.113 90.4593C545.297 90.4593 546.459 88.8913 546.459 86.6933V80.3933H545.591V83.7533C545.591 85.2513 544.709 86.4693 543.239 86.4693C541.769 86.4693 540.999 85.4333 540.999 83.9073V80.3933H540.131V83.9913C540.131 85.9513 541.167 87.2953 543.155 87.2953C544.345 87.2953 545.171 86.6793 545.591 85.7413V86.6933C545.605 88.3453 544.779 89.6333 543.099 89.6333C542.133 89.6333 541.223 89.2273 540.747 88.3733L540.019 88.7793C540.635 89.9133 541.825 90.4593 543.113 90.4593ZM553.616 87.1833V84.2993H555.45C557.732 84.2993 559.44 83.2913 559.44 81.0513C559.44 78.8813 557.802 77.8313 555.422 77.8313H552.72V87.1833H553.616ZM555.436 78.6713C557.242 78.6713 558.516 79.3993 558.516 81.0513C558.516 82.7733 557.158 83.4593 555.436 83.4593H553.616V78.6713H555.436ZM561.651 87.1833V83.0393C561.651 81.8773 562.295 81.1353 563.331 81.1353C563.723 81.1353 564.101 81.2333 564.437 81.4293V80.5473C564.087 80.3793 563.681 80.2953 563.261 80.2953C561.693 80.2953 560.783 81.4153 560.783 82.9973V87.1833H561.651ZM568.3 87.3233C570.302 87.3233 571.856 85.7273 571.856 83.7673C571.856 81.8353 570.33 80.2393 568.3 80.2393C566.312 80.2393 564.73 81.8213 564.73 83.7673C564.73 85.7273 566.284 87.3233 568.3 87.3233ZM568.3 86.4973C566.788 86.4973 565.598 85.2653 565.598 83.7813C565.598 82.2973 566.788 81.0653 568.3 81.0653C569.798 81.0653 570.988 82.2973 570.988 83.7813C570.988 85.2653 569.798 86.4973 568.3 86.4973ZM576.387 87.3373C578.389 87.3373 579.957 85.7833 579.957 83.7953V77.2713H579.089L579.075 81.6953C578.501 80.8273 577.493 80.2393 576.345 80.2393C574.343 80.2393 572.831 81.7933 572.831 83.7953C572.831 85.7413 574.357 87.3373 576.387 87.3373ZM576.387 86.5113C574.889 86.5113 573.699 85.2793 573.699 83.7953C573.699 82.3113 574.889 81.0653 576.387 81.0653C577.899 81.0653 579.089 82.3113 579.089 83.7953C579.089 85.2793 577.899 86.5113 576.387 86.5113ZM585.078 86.4973C583.608 86.4973 582.782 85.2233 582.782 83.7813V80.3933H581.914V83.8513C581.914 85.8113 583.104 87.3233 585.078 87.3233C587.08 87.3233 588.284 85.8253 588.284 83.8653V80.3933H587.416V83.7673C587.416 85.2233 586.562 86.4973 585.078 86.4973ZM593.215 87.3233C594.419 87.3233 595.511 86.7913 596.141 85.6433L595.413 85.2373C594.923 86.0913 594.125 86.4973 593.215 86.4973C591.815 86.4973 590.625 85.2653 590.625 83.7813C590.625 82.2973 591.815 81.0653 593.215 81.0653C594.125 81.0653 594.923 81.4713 595.413 82.3393L596.141 81.9193C595.511 80.7713 594.419 80.2393 593.215 80.2393C591.339 80.2393 589.757 81.8213 589.757 83.7813C589.757 85.7413 591.339 87.3373 593.215 87.3233ZM600.217 87.3373C600.721 87.3373 601.225 87.1693 601.575 86.9033V86.0633C601.239 86.3433 600.777 86.5253 600.287 86.5253C599.391 86.5253 598.803 85.9373 598.803 84.9293V81.1773H601.575V80.3933H598.803V78.5873H597.935V80.3933H596.493V81.1773H597.935V84.9573C597.935 86.3993 598.775 87.3373 600.217 87.3373ZM606.262 87.3233C608.264 87.3233 609.818 85.7273 609.818 83.7673C609.818 81.8353 608.292 80.2393 606.262 80.2393C604.274 80.2393 602.692 81.8213 602.692 83.7673C602.692 85.7273 604.246 87.3233 606.262 87.3233ZM606.262 86.4973C604.75 86.4973 603.56 85.2653 603.56 83.7813C603.56 82.2973 604.75 81.0653 606.262 81.0653C607.76 81.0653 608.95 82.2973 608.95 83.7813C608.95 85.2653 607.76 86.4973 606.262 86.4973ZM613.55 87.3093C614.894 87.3093 616.056 86.5393 616.056 85.3073C616.056 82.7313 612.024 83.8653 612.024 82.2133C612.024 81.5133 612.752 81.1073 613.508 81.1073C614.222 81.1073 614.81 81.3033 615.174 81.9893L615.888 81.5833C615.44 80.7713 614.6 80.2953 613.494 80.2953C612.192 80.2953 611.156 81.0933 611.156 82.2273C611.156 84.8033 615.188 83.6133 615.188 85.3213C615.188 86.1053 614.432 86.4973 613.522 86.4973C612.696 86.4973 612.066 86.2173 611.66 85.4333L610.946 85.8253C611.45 86.8193 612.402 87.3093 613.55 87.3093Z" fill="white"/>
<path d="M671.746 87.3373C673.314 87.3373 674.7 86.5533 675.442 85.2653L674.714 84.8313C674.084 85.8673 672.964 86.4833 671.718 86.4833C669.66 86.4833 667.994 84.7333 667.994 82.4933C667.994 80.2813 669.674 78.5313 671.718 78.5313C672.964 78.5313 674.084 79.1613 674.714 80.1973L675.442 79.7633C674.7 78.4753 673.314 77.6773 671.746 77.6773C669.184 77.6773 667.07 79.8193 667.07 82.4933C667.07 85.1953 669.184 87.3373 671.746 87.3373ZM679.668 87.3233C680.956 87.3233 682.006 86.6233 682.524 85.6013V87.1833H683.35V83.7673C683.35 81.7793 681.782 80.2393 679.78 80.2393C677.75 80.2393 676.224 81.8353 676.224 83.7673C676.224 85.7273 677.708 87.3233 679.668 87.3233ZM679.78 86.4973C678.282 86.4973 677.092 85.2653 677.092 83.7813C677.092 82.2973 678.282 81.0653 679.78 81.0653C681.292 81.0653 682.482 82.2973 682.482 83.7813C682.482 85.2653 681.292 86.4973 679.78 86.4973ZM693.623 80.2253C692.265 80.2253 691.313 81.0513 691.005 82.2413C690.697 81.0513 689.689 80.2253 688.275 80.2253C686.385 80.2253 685.307 81.7093 685.307 83.6133V87.1833H686.175V83.7113C686.175 82.2973 686.875 81.0513 688.331 81.0513C689.759 81.0513 690.543 82.2413 690.543 83.6833V87.1833H691.411V83.6693C691.411 82.2413 692.181 81.0513 693.581 81.0513C695.037 81.0513 695.779 82.2973 695.779 83.7253V87.1833H696.647V83.5993C696.647 81.7093 695.541 80.2253 693.623 80.2253ZM699.471 90.3053V85.8673C700.045 86.7493 701.053 87.3373 702.201 87.3373C704.217 87.3373 705.729 85.7693 705.729 83.7673C705.729 81.8353 704.203 80.2393 702.173 80.2393C700.171 80.2393 698.603 81.7793 698.603 83.7673V90.3053H699.471ZM702.173 86.5113C700.661 86.5113 699.471 85.2653 699.471 83.7813C699.471 82.2973 700.661 81.0653 702.173 81.0653C703.671 81.0653 704.861 82.2973 704.861 83.7813C704.861 85.2653 703.671 86.5113 702.173 86.5113ZM710.36 86.4973C708.89 86.4973 708.064 85.2233 708.064 83.7813V80.3933H707.196V83.8513C707.196 85.8113 708.386 87.3233 710.36 87.3233C712.362 87.3233 713.566 85.8253 713.566 83.8653V80.3933H712.698V83.7673C712.698 85.2233 711.844 86.4973 710.36 86.4973ZM717.798 87.3093C719.142 87.3093 720.304 86.5393 720.304 85.3073C720.304 82.7313 716.272 83.8653 716.272 82.2133C716.272 81.5133 717 81.1073 717.756 81.1073C718.47 81.1073 719.058 81.3033 719.422 81.9893L720.136 81.5833C719.688 80.7713 718.848 80.2953 717.742 80.2953C716.44 80.2953 715.404 81.0933 715.404 82.2273C715.404 84.8033 719.436 83.6133 719.436 85.3213C719.436 86.1053 718.68 86.4973 717.77 86.4973C716.944 86.4973 716.314 86.2173 715.908 85.4333L715.194 85.8253C715.698 86.8193 716.65 87.3093 717.798 87.3093ZM729.105 87.3373C729.847 87.3373 730.435 86.8893 730.715 85.9933L733.221 77.8313H732.297L729.875 85.8113C729.735 86.2733 729.497 86.5253 729.105 86.5253C728.713 86.5253 728.475 86.2733 728.335 85.8113L725.899 77.8313H724.975L727.481 85.9933C727.761 86.8893 728.349 87.3373 729.105 87.3373ZM735.214 78.7553C735.564 78.7553 735.83 78.4753 735.83 78.1113C735.83 77.7473 735.564 77.4673 735.214 77.4673C734.864 77.4673 734.584 77.7473 734.584 78.1113C734.584 78.4753 734.864 78.7553 735.214 78.7553ZM734.78 80.3933V87.1833H735.648V80.3933H734.78ZM738.752 87.1833V83.0393C738.752 81.8773 739.396 81.1353 740.432 81.1353C740.824 81.1353 741.202 81.2333 741.538 81.4293V80.5473C741.188 80.3793 740.782 80.2953 740.362 80.2953C738.794 80.2953 737.884 81.4153 737.884 82.9973V87.1833H738.752ZM745.557 87.3373C746.061 87.3373 746.565 87.1693 746.915 86.9033V86.0633C746.579 86.3433 746.117 86.5253 745.627 86.5253C744.731 86.5253 744.143 85.9373 744.143 84.9293V81.1773H746.915V80.3933H744.143V78.5873H743.275V80.3933H741.833V81.1773H743.275V84.9573C743.275 86.3993 744.115 87.3373 745.557 87.3373ZM751.891 86.4973C750.421 86.4973 749.595 85.2233 749.595 83.7813V80.3933H748.727V83.8513C748.727 85.8113 749.917 87.3233 751.891 87.3233C753.893 87.3233 755.097 85.8253 755.097 83.8653V80.3933H754.229V83.7673C754.229 85.2233 753.375 86.4973 751.891 86.4973ZM760.014 87.3233C761.302 87.3233 762.352 86.6233 762.87 85.6013V87.1833H763.696V83.7673C763.696 81.7793 762.128 80.2393 760.126 80.2393C758.096 80.2393 756.57 81.8353 756.57 83.7673C756.57 85.7273 758.054 87.3233 760.014 87.3233ZM760.126 86.4973C758.628 86.4973 757.438 85.2653 757.438 83.7813C757.438 82.2973 758.628 81.0653 760.126 81.0653C761.638 81.0653 762.828 82.2973 762.828 83.7813C762.828 85.2653 761.638 86.4973 760.126 86.4973ZM765.933 77.2713V87.1833H766.801V77.2713H765.933Z" fill="white"/>
<path d="M824.848 87.3373C826.416 87.3373 827.802 86.5533 828.544 85.2653L827.816 84.8313C827.186 85.8673 826.066 86.4833 824.82 86.4833C822.762 86.4833 821.096 84.7333 821.096 82.4933C821.096 80.2813 822.776 78.5313 824.82 78.5313C826.066 78.5313 827.186 79.1613 827.816 80.1973L828.544 79.7633C827.802 78.4753 826.416 77.6773 824.848 77.6773C822.286 77.6773 820.172 79.8193 820.172 82.4933C820.172 85.1953 822.286 87.3373 824.848 87.3373ZM832.895 87.3233C834.897 87.3233 836.451 85.7273 836.451 83.7673C836.451 81.8353 834.925 80.2393 832.895 80.2393C830.907 80.2393 829.325 81.8213 829.325 83.7673C829.325 85.7273 830.879 87.3233 832.895 87.3233ZM832.895 86.4973C831.383 86.4973 830.193 85.2653 830.193 83.7813C830.193 82.2973 831.383 81.0653 832.895 81.0653C834.393 81.0653 835.583 82.2973 835.583 83.7813C835.583 85.2653 834.393 86.4973 832.895 86.4973ZM846.232 80.2253C844.874 80.2253 843.922 81.0513 843.614 82.2413C843.306 81.0513 842.298 80.2253 840.884 80.2253C838.994 80.2253 837.916 81.7093 837.916 83.6133V87.1833H838.784V83.7113C838.784 82.2973 839.484 81.0513 840.94 81.0513C842.368 81.0513 843.152 82.2413 843.152 83.6833V87.1833H844.02V83.6693C844.02 82.2413 844.79 81.0513 846.19 81.0513C847.646 81.0513 848.388 82.2973 848.388 83.7253V87.1833H849.256V83.5993C849.256 81.7093 848.15 80.2253 846.232 80.2253ZM852.08 90.3053V85.8673C852.654 86.7493 853.662 87.3373 854.81 87.3373C856.826 87.3373 858.338 85.7693 858.338 83.7673C858.338 81.8353 856.812 80.2393 854.782 80.2393C852.78 80.2393 851.212 81.7793 851.212 83.7673V90.3053H852.08ZM854.782 86.5113C853.27 86.5113 852.08 85.2653 852.08 83.7813C852.08 82.2973 853.27 81.0653 854.782 81.0653C856.28 81.0653 857.47 82.2973 857.47 83.7813C857.47 85.2653 856.28 86.5113 854.782 86.5113ZM862.759 87.3233C864.047 87.3233 865.097 86.6233 865.615 85.6013V87.1833H866.441V83.7673C866.441 81.7793 864.873 80.2393 862.871 80.2393C860.841 80.2393 859.315 81.8353 859.315 83.7673C859.315 85.7273 860.799 87.3233 862.759 87.3233ZM862.871 86.4973C861.373 86.4973 860.183 85.2653 860.183 83.7813C860.183 82.2973 861.373 81.0653 862.871 81.0653C864.383 81.0653 865.573 82.2973 865.573 83.7813C865.573 85.2653 864.383 86.4973 862.871 86.4973ZM869.98 78.7693C870.036 78.3913 870.26 78.0413 870.666 78.0413C871.366 78.0413 871.898 78.7273 872.78 78.7273C873.466 78.7273 873.886 78.1393 873.928 77.4533L873.27 77.2993C873.242 77.6913 873.032 78.0413 872.612 78.0413C871.884 78.0413 871.352 77.3553 870.498 77.3553C869.826 77.3553 869.378 77.9573 869.336 78.6013L869.98 78.7693ZM871.632 81.0653C873.214 81.0653 874.068 82.3393 874.068 83.7953V87.1833H874.936V83.6973C874.936 81.7373 873.718 80.2393 871.632 80.2393C869.588 80.2393 868.398 81.7513 868.398 83.7113V87.1833H869.266V83.7813C869.266 82.3393 870.092 81.0653 871.632 81.0653ZM878.016 79.1473L879.626 77.1733H878.702L877.106 79.1473H878.016ZM877.176 80.3933V87.1833H878.044V80.3933H877.176ZM883.234 87.3233C884.522 87.3233 885.572 86.6233 886.09 85.6013V87.1833H886.916V83.7673C886.916 81.7793 885.348 80.2393 883.346 80.2393C881.316 80.2393 879.79 81.8353 879.79 83.7673C879.79 85.7273 881.274 87.3233 883.234 87.3233ZM883.346 86.4973C881.848 86.4973 880.658 85.2653 880.658 83.7813C880.658 82.2973 881.848 81.0653 883.346 81.0653C884.858 81.0653 886.048 82.2973 886.048 83.7813C886.048 85.2653 884.858 86.4973 883.346 86.4973Z" fill="white"/>
<path d="M946.06 87.1833C948.174 87.1833 949.966 86.6513 949.966 84.6353C949.966 83.3893 949.252 82.7173 948.02 82.4933C949.126 82.2273 949.798 81.4713 949.798 80.2393C949.798 78.6713 948.412 77.8313 946.158 77.8313H943.162V87.1833H946.06ZM944.058 78.6153H946.2C947.88 78.6153 948.902 79.1613 948.902 80.2953C948.902 81.5693 948.104 82.1153 946.144 82.1153H944.058V78.6153ZM944.058 82.8993H946.144C948.16 82.8993 949.07 83.3613 949.07 84.5793C949.07 86.1473 947.642 86.3993 946.088 86.3993H944.058V82.8993ZM951.93 77.2713V87.1833H952.798V77.2713H951.93ZM958.114 87.3233C960.116 87.3233 961.67 85.7273 961.67 83.7673C961.67 81.8353 960.144 80.2393 958.114 80.2393C956.126 80.2393 954.544 81.8213 954.544 83.7673C954.544 85.7273 956.098 87.3233 958.114 87.3233ZM958.114 86.4973C956.602 86.4973 955.412 85.2653 955.412 83.7813C955.412 82.2973 956.602 81.0653 958.114 81.0653C959.612 81.0653 960.802 82.2973 960.802 83.7813C960.802 85.2653 959.612 86.4973 958.114 86.4973ZM966.116 90.4593C968.244 90.4593 969.77 88.9473 969.77 86.6233V83.7673C969.77 81.7793 968.202 80.2393 966.2 80.2393C964.17 80.2393 962.644 81.8353 962.644 83.7673C962.644 85.7413 964.17 87.2953 966.116 87.2953C967.418 87.2953 968.426 86.5953 968.902 85.6433V86.5953C968.902 88.4293 967.754 89.6333 966.102 89.6333C965.038 89.6333 964.128 89.1713 963.638 88.3173L962.91 88.7233C963.526 89.8573 964.744 90.4593 966.116 90.4593ZM966.2 86.4693C964.716 86.4693 963.512 85.2513 963.512 83.7533C963.512 82.2693 964.716 81.0653 966.2 81.0653C967.698 81.0653 968.902 82.2693 968.902 83.7533C968.902 85.2513 967.698 86.4693 966.2 86.4693Z" fill="white"/>
<path d="M1032.99 87.3373C1034.55 87.3373 1035.94 86.5533 1036.68 85.2653L1035.95 84.8313C1035.32 85.8673 1034.2 86.4833 1032.96 86.4833C1030.9 86.4833 1029.23 84.7333 1029.23 82.4933C1029.23 80.2813 1030.91 78.5313 1032.96 78.5313C1034.2 78.5313 1035.32 79.1613 1035.95 80.1973L1036.68 79.7633C1035.94 78.4753 1034.55 77.6773 1032.99 77.6773C1030.42 77.6773 1028.31 79.8193 1028.31 82.4933C1028.31 85.1953 1030.42 87.3373 1032.99 87.3373ZM1041.03 87.3233C1043.03 87.3233 1044.59 85.7273 1044.59 83.7673C1044.59 81.8353 1043.06 80.2393 1041.03 80.2393C1039.04 80.2393 1037.46 81.8213 1037.46 83.7673C1037.46 85.7273 1039.02 87.3233 1041.03 87.3233ZM1041.03 86.4973C1039.52 86.4973 1038.33 85.2653 1038.33 83.7813C1038.33 82.2973 1039.52 81.0653 1041.03 81.0653C1042.53 81.0653 1043.72 82.2973 1043.72 83.7813C1043.72 85.2653 1042.53 86.4973 1041.03 86.4973ZM1049.29 81.0653C1050.87 81.0653 1051.72 82.3393 1051.72 83.7953V87.1833H1052.59V83.6973C1052.59 81.7373 1051.37 80.2393 1049.29 80.2393C1047.24 80.2393 1046.05 81.7513 1046.05 83.7113V87.1833H1046.92V83.7813C1046.92 82.3393 1047.75 81.0653 1049.29 81.0653ZM1057.29 87.3373C1057.8 87.3373 1058.3 87.1693 1058.65 86.9033V86.0633C1058.32 86.3433 1057.85 86.5253 1057.36 86.5253C1056.47 86.5253 1055.88 85.9373 1055.88 84.9293V81.1773H1058.65V80.3933H1055.88V78.5873H1055.01V80.3933H1053.57V81.1773H1055.01V84.9573C1055.01 86.3993 1055.85 87.3373 1057.29 87.3373ZM1063.21 87.3233C1064.5 87.3233 1065.55 86.6233 1066.07 85.6013V87.1833H1066.9V83.7673C1066.9 81.7793 1065.33 80.2393 1063.33 80.2393C1061.3 80.2393 1059.77 81.8353 1059.77 83.7673C1059.77 85.7273 1061.25 87.3233 1063.21 87.3233ZM1063.33 86.4973C1061.83 86.4973 1060.64 85.2653 1060.64 83.7813C1060.64 82.2973 1061.83 81.0653 1063.33 81.0653C1064.84 81.0653 1066.03 82.2973 1066.03 83.7813C1066.03 85.2653 1064.84 86.4973 1063.33 86.4973ZM1071.82 87.3233C1073.02 87.3233 1074.12 86.7913 1074.75 85.6433L1074.02 85.2373C1073.53 86.0913 1072.73 86.4973 1071.82 86.4973C1070.42 86.4973 1069.23 85.2653 1069.23 83.7813C1069.23 82.2973 1070.42 81.0653 1071.82 81.0653C1072.73 81.0653 1073.53 81.4713 1074.02 82.3393L1074.75 81.9193C1074.12 80.7713 1073.02 80.2393 1071.82 80.2393C1069.94 80.2393 1068.36 81.8213 1068.36 83.7813C1068.36 85.7413 1069.94 87.3373 1071.82 87.3233ZM1078.82 87.3373C1079.33 87.3373 1079.83 87.1693 1080.18 86.9033V86.0633C1079.84 86.3433 1079.38 86.5253 1078.89 86.5253C1078 86.5253 1077.41 85.9373 1077.41 84.9293V81.1773H1080.18V80.3933H1077.41V78.5873H1076.54V80.3933H1075.1V81.1773H1076.54V84.9573C1076.54 86.3993 1077.38 87.3373 1078.82 87.3373ZM1084.87 87.3233C1086.87 87.3233 1088.42 85.7273 1088.42 83.7673C1088.42 81.8353 1086.9 80.2393 1084.87 80.2393C1082.88 80.2393 1081.3 81.8213 1081.3 83.7673C1081.3 85.7273 1082.85 87.3233 1084.87 87.3233ZM1084.87 86.4973C1083.35 86.4973 1082.16 85.2653 1082.16 83.7813C1082.16 82.2973 1083.35 81.0653 1084.87 81.0653C1086.36 81.0653 1087.55 82.2973 1087.55 83.7813C1087.55 85.2653 1086.36 86.4973 1084.87 86.4973Z" fill="white"/>
<path d="M622.877 80.3167H622.971C623.129 80.3513 623.252 80.449 623.365 80.5774C624.075 81.381 624.788 82.1825 625.501 82.9819C625.79 83.3065 626.036 83.3062 626.325 82.9819C627.037 82.1809 627.749 81.3794 628.461 80.5774C628.574 80.4498 628.697 80.3516 628.855 80.3169H628.949C629.199 80.3723 629.354 80.5388 629.416 80.8164V80.9752C629.382 81.1436 629.3 81.2762 629.192 81.3969C628.474 82.2037 627.757 83.0118 627.04 83.821C626.946 83.9314 626.841 84.0297 626.727 84.1141C626.113 84.5537 625.348 84.4492 624.806 83.8427C624.072 83.0216 623.341 82.1978 622.613 81.3712C622.576 81.3322 622.543 81.2893 622.513 81.2431C622.436 81.1168 622.394 80.9784 622.418 80.8228C622.464 80.5287 622.631 80.3778 622.877 80.3167Z" fill="white"/>
<path d="M422.745 81.3333H422.838C422.997 81.3679 423.12 81.4656 423.233 81.594C423.943 82.3976 424.655 83.1991 425.369 83.9985C425.658 84.3231 425.904 84.3228 426.192 83.9985C426.905 83.1975 427.617 82.396 428.328 81.594C428.441 81.4664 428.564 81.3682 428.723 81.3335H428.817C429.066 81.3889 429.222 81.5554 429.283 81.833V81.9918C429.25 82.1602 429.167 82.2928 429.06 82.4135C428.342 83.2203 427.624 84.0284 426.908 84.8376C426.813 84.948 426.708 85.0463 426.595 85.1307C425.981 85.5703 425.216 85.4658 424.673 84.8593C423.94 84.0382 423.209 83.2144 422.48 82.3878C422.444 82.3488 422.41 82.3059 422.381 82.2597C422.304 82.1334 422.261 81.995 422.286 81.8394C422.331 81.5453 422.499 81.3944 422.745 81.3333Z" fill="white"/>
<path fill-rule="evenodd" clip-rule="evenodd" d="M516 12C504.954 12 496 20.9543 496 32C496 43.0457 504.954 52 516 52H588H761H979V12H761H588H516Z" fill="white"/>
<path d="M518.716 37L520.406 26.8182H523.842C524.504 26.8182 525.038 26.9342 525.442 27.1662C525.847 27.3982 526.125 27.7147 526.278 28.1158C526.433 28.5168 526.467 28.9725 526.377 29.483C526.308 29.9072 526.177 30.2701 525.984 30.5717C525.792 30.87 525.558 31.1136 525.283 31.3026C525.012 31.4882 524.718 31.6224 524.403 31.7053L524.388 31.7848C524.713 31.808 525.013 31.924 525.288 32.1328C525.563 32.3383 525.769 32.6267 525.905 32.9979C526.044 33.3691 526.072 33.8132 525.989 34.3303C525.903 34.844 525.711 35.303 525.413 35.7074C525.118 36.1084 524.713 36.425 524.2 36.657C523.689 36.8857 523.069 37 522.34 37H518.716ZM519.785 36.1648H522.479C523.265 36.1648 523.875 35.9908 524.309 35.6428C524.743 35.2947 525.007 34.8572 525.099 34.3303C525.162 33.9425 525.126 33.5911 524.99 33.2763C524.854 32.9581 524.632 32.7062 524.324 32.5206C524.016 32.335 523.633 32.2422 523.175 32.2422H520.441L519.785 36.1648ZM520.58 31.4169H523.17C523.571 31.4169 523.936 31.334 524.264 31.1683C524.592 31.0026 524.864 30.7739 525.08 30.4822C525.295 30.1906 525.433 29.8575 525.492 29.483C525.585 28.9427 525.484 28.5036 525.189 28.1655C524.897 27.8241 524.402 27.6534 523.702 27.6534H521.197L520.58 31.4169ZM532.231 34.0817L533.021 29.3636H533.906L532.634 37H531.749L531.957 35.7322H531.893C531.654 36.1233 531.316 36.4498 530.879 36.7116C530.444 36.9702 529.947 37.0994 529.387 37.0994C528.9 37.0994 528.484 36.9934 528.139 36.7812C527.798 36.5658 527.554 36.2509 527.408 35.8366C527.263 35.4223 527.239 34.9136 527.339 34.3104L528.169 29.3636H529.054L528.239 34.2557C528.143 34.8523 528.239 35.3329 528.527 35.6974C528.819 36.0587 529.24 36.2393 529.79 36.2393C530.135 36.2393 530.479 36.1565 530.824 35.9908C531.172 35.825 531.474 35.5831 531.729 35.2649C531.987 34.9434 532.155 34.549 532.231 34.0817ZM530.784 28.3047L532.43 26.0476H533.484L531.59 28.3047H530.784ZM540.401 31.0391L539.551 31.2578C539.508 31.0291 539.429 30.8236 539.313 30.6413C539.2 30.4557 539.036 30.3099 538.821 30.2038C538.608 30.0945 538.33 30.0398 537.985 30.0398C537.468 30.0398 537.022 30.1657 536.648 30.4176C536.273 30.6662 536.055 30.9844 535.992 31.3722C535.939 31.697 536.007 31.9605 536.196 32.1626C536.388 32.3648 536.709 32.5239 537.16 32.6399L538.274 32.9233C538.89 33.0824 539.329 33.331 539.591 33.669C539.856 34.0071 539.947 34.4347 539.865 34.9517C539.792 35.3826 539.608 35.7637 539.313 36.0952C539.021 36.4266 538.647 36.6868 538.189 36.8757C537.735 37.0646 537.228 37.1591 536.668 37.1591C535.915 37.1591 535.324 36.9901 534.893 36.652C534.465 36.3139 534.237 35.8267 534.207 35.1903L535.097 34.9915C535.123 35.4422 535.277 35.7836 535.559 36.0156C535.844 36.2476 536.245 36.3636 536.762 36.3636C537.352 36.3636 537.848 36.2294 538.249 35.9609C538.65 35.6925 538.88 35.361 538.94 34.9666C538.996 34.6551 538.938 34.3965 538.766 34.1911C538.597 33.9856 538.308 33.8331 537.901 33.7337L536.713 33.4354C536.073 33.273 535.62 33.0194 535.355 32.6747C535.093 32.3267 535.006 31.8975 535.092 31.3871C535.161 30.9661 535.337 30.5966 535.619 30.2784C535.901 29.9602 536.257 29.7116 536.688 29.5327C537.119 29.3504 537.589 29.2592 538.1 29.2592C538.802 29.2592 539.338 29.4183 539.705 29.7365C540.073 30.0514 540.305 30.4856 540.401 31.0391ZM543.717 37.1591C543.028 37.1591 542.459 36.9884 542.012 36.647C541.565 36.3056 541.251 35.8383 541.072 35.245C540.897 34.6484 540.872 33.9723 540.998 33.2166C541.124 32.4477 541.377 31.7666 541.758 31.1733C542.14 30.5767 542.61 30.1094 543.17 29.7713C543.734 29.4299 544.349 29.2592 545.015 29.2592C545.529 29.2592 545.976 29.3587 546.357 29.5575C546.738 29.7531 547.033 30.0298 547.242 30.3878C547.451 30.7424 547.55 31.1567 547.54 31.6307H546.646C546.622 31.1899 546.462 30.8187 546.163 30.517C545.868 30.2154 545.451 30.0646 544.91 30.0646C544.417 30.0646 543.959 30.1972 543.538 30.4624C543.117 30.7242 542.761 31.0904 542.469 31.5611C542.181 32.0284 541.987 32.5703 541.888 33.1868C541.782 33.8066 541.792 34.3551 541.918 34.8324C542.044 35.3063 542.269 35.6776 542.594 35.946C542.922 36.2145 543.336 36.3487 543.837 36.3487C544.178 36.3487 544.499 36.2857 544.801 36.1598C545.103 36.0305 545.37 35.8482 545.602 35.6129C545.834 35.3743 546.011 35.0942 546.133 34.7727H547.028C546.879 35.2367 546.644 35.6477 546.322 36.0057C546.004 36.3636 545.623 36.6454 545.179 36.8509C544.735 37.0563 544.248 37.1591 543.717 37.1591ZM549.96 37.174C549.499 37.174 549.093 37.0845 548.742 36.9055C548.391 36.7232 548.129 36.4614 547.957 36.12C547.788 35.7753 547.741 35.3577 547.817 34.8672C547.884 34.4893 548.01 34.1712 548.195 33.9126C548.384 33.6541 548.623 33.442 548.911 33.2763C549.199 33.1072 549.531 32.9747 549.905 32.8786C550.28 32.7824 550.688 32.7095 551.128 32.6598C551.559 32.6068 551.927 32.5604 552.232 32.5206C552.537 32.4808 552.774 32.4179 552.943 32.3317C553.112 32.2455 553.213 32.1063 553.246 31.9141L553.276 31.7351C553.362 31.2147 553.283 30.8054 553.038 30.5071C552.792 30.2055 552.381 30.0547 551.805 30.0547C551.254 30.0547 550.777 30.1773 550.373 30.4226C549.972 30.6645 549.673 30.9479 549.478 31.2727L548.692 30.9695C548.931 30.5518 549.224 30.2187 549.572 29.9702C549.92 29.7183 550.293 29.5376 550.691 29.4283C551.089 29.3156 551.481 29.2592 551.869 29.2592C552.161 29.2592 552.458 29.2973 552.759 29.3736C553.061 29.4498 553.331 29.5824 553.569 29.7713C553.811 29.9569 553.989 30.2171 554.101 30.5518C554.217 30.8833 554.234 31.3042 554.151 31.8146L553.286 37H552.401L552.605 35.7919H552.55C552.411 36.0173 552.219 36.236 551.974 36.4482C551.732 36.6603 551.442 36.8343 551.104 36.9702C550.766 37.1061 550.384 37.174 549.96 37.174ZM550.184 36.3636C550.654 36.3636 551.08 36.2592 551.462 36.0504C551.846 35.8416 552.161 35.5649 552.406 35.2202C552.655 34.8722 552.814 34.4893 552.883 34.0717L553.067 32.968C552.994 33.031 552.875 33.0874 552.709 33.1371C552.547 33.1868 552.363 33.2315 552.158 33.2713C551.955 33.3078 551.752 33.3393 551.546 33.3658C551.344 33.3923 551.165 33.4155 551.009 33.4354C550.568 33.4884 550.184 33.5713 549.856 33.6839C549.531 33.7966 549.271 33.9524 549.075 34.1513C548.88 34.3468 548.757 34.5987 548.707 34.907C548.631 35.371 548.732 35.7306 549.011 35.9858C549.292 36.2377 549.683 36.3636 550.184 36.3636ZM554.94 37L556.213 29.3636H557.073L556.874 30.5369H556.939C557.151 30.1525 557.467 29.8426 557.888 29.6072C558.313 29.3686 558.765 29.2493 559.246 29.2493C559.318 29.2493 559.4 29.2509 559.489 29.2543C559.579 29.2543 559.653 29.2576 559.713 29.2642L559.559 30.1641C559.519 30.1574 559.449 30.1475 559.35 30.1342C559.254 30.121 559.146 30.1143 559.027 30.1143C558.629 30.1143 558.261 30.1989 557.923 30.3679C557.588 30.5336 557.307 30.764 557.078 31.0589C556.853 31.3539 556.707 31.6903 556.64 32.0682L555.825 37H554.94ZM562.004 39.8636L563.764 29.3636H564.624L564.386 30.8203H564.49C564.629 30.5916 564.81 30.3563 565.032 30.1143C565.257 29.8724 565.537 29.6702 565.872 29.5078C566.21 29.3421 566.615 29.2592 567.085 29.2592C567.715 29.2592 568.237 29.4233 568.651 29.7514C569.069 30.0795 569.361 30.5402 569.526 31.1335C569.695 31.7268 569.714 32.4162 569.581 33.2017C569.452 33.9905 569.205 34.6816 568.84 35.2749C568.476 35.8681 568.03 36.3305 567.503 36.6619C566.979 36.9934 566.406 37.1591 565.783 37.1591C565.322 37.1591 564.949 37.0762 564.664 36.9105C564.382 36.7448 564.167 36.541 564.018 36.299C563.869 36.0537 563.761 35.8151 563.695 35.5831H563.615L562.899 39.8636H562.004ZM564.003 33.1868C563.903 33.8033 563.903 34.3501 564.003 34.8274C564.102 35.3014 564.303 35.6742 564.604 35.946C564.906 36.2145 565.304 36.3487 565.798 36.3487C566.305 36.3487 566.757 36.2095 567.155 35.9311C567.553 35.6494 567.884 35.2699 568.149 34.7926C568.414 34.3153 568.597 33.7801 568.696 33.1868C568.789 32.6001 568.786 32.0715 568.686 31.6009C568.587 31.1302 568.388 30.7573 568.09 30.4822C567.791 30.2038 567.385 30.0646 566.871 30.0646C566.374 30.0646 565.927 30.1989 565.529 30.4673C565.135 30.7325 564.807 31.1004 564.545 31.571C564.283 32.0384 564.102 32.5769 564.003 33.1868ZM570.19 37L571.463 29.3636H572.323L572.124 30.5369H572.188C572.4 30.1525 572.717 29.8426 573.138 29.6072C573.562 29.3686 574.015 29.2493 574.495 29.2493C574.568 29.2493 574.649 29.2509 574.739 29.2543C574.828 29.2543 574.903 29.2576 574.963 29.2642L574.808 30.1641C574.769 30.1574 574.699 30.1475 574.6 30.1342C574.503 30.121 574.396 30.1143 574.276 30.1143C573.879 30.1143 573.511 30.1989 573.173 30.3679C572.838 30.5336 572.556 30.764 572.328 31.0589C572.102 31.3539 571.956 31.6903 571.89 32.0682L571.075 37H570.19ZM577.264 37.1591C576.595 37.1591 576.031 36.9901 575.574 36.652C575.116 36.3106 574.793 35.8383 574.604 35.2351C574.415 34.6319 574.384 33.9358 574.51 33.147C574.636 32.3781 574.886 31.7019 575.261 31.1186C575.638 30.532 576.102 30.0762 576.653 29.7514C577.203 29.4233 577.801 29.2592 578.447 29.2592C579.12 29.2592 579.684 29.4299 580.138 29.7713C580.595 30.1127 580.918 30.585 581.107 31.1882C581.299 31.7914 581.333 32.4891 581.207 33.2812C581.081 34.0469 580.829 34.7214 580.451 35.3047C580.073 35.8847 579.609 36.3388 579.059 36.6669C578.512 36.995 577.914 37.1591 577.264 37.1591ZM577.274 36.3487C577.818 36.3487 578.302 36.2045 578.726 35.9162C579.153 35.6245 579.506 35.2367 579.785 34.7528C580.063 34.2656 580.25 33.7304 580.346 33.147C580.436 32.5902 580.426 32.0781 580.317 31.6108C580.207 31.1435 579.997 30.7689 579.685 30.4872C579.374 30.2055 578.959 30.0646 578.442 30.0646C577.902 30.0646 577.418 30.2121 576.991 30.5071C576.563 30.7988 576.21 31.1899 575.932 31.6804C575.653 32.1676 575.468 32.7012 575.375 33.2812C575.282 33.8414 575.289 34.3535 575.395 34.8175C575.504 35.2815 575.715 35.6527 576.026 35.9311C576.341 36.2095 576.757 36.3487 577.274 36.3487ZM584.567 37.1591C583.941 37.1591 583.419 36.9934 583.001 36.6619C582.583 36.3305 582.292 35.8681 582.126 35.2749C581.96 34.6816 581.942 33.9905 582.071 33.2017C582.204 32.4162 582.451 31.7285 582.812 31.1385C583.177 30.5452 583.623 30.0845 584.15 29.7564C584.68 29.425 585.258 29.2592 585.885 29.2592C586.352 29.2592 586.725 29.3421 587.003 29.5078C587.285 29.6702 587.499 29.8724 587.645 30.1143C587.79 30.3563 587.895 30.5916 587.958 30.8203H588.037L588.703 26.8182H589.593L587.903 37H587.043L587.282 35.5831H587.172C587.03 35.8151 586.842 36.0537 586.61 36.299C586.382 36.541 586.1 36.7448 585.765 36.9105C585.431 37.0762 585.031 37.1591 584.567 37.1591ZM584.761 36.3487C585.255 36.3487 585.701 36.2145 586.098 35.946C586.499 35.6742 586.834 35.3014 587.103 34.8274C587.374 34.3501 587.56 33.8033 587.659 33.1868C587.762 32.5769 587.761 32.0384 587.654 31.571C587.548 31.1004 587.343 30.7325 587.038 30.4673C586.733 30.1989 586.33 30.0646 585.83 30.0646C585.323 30.0646 584.872 30.2038 584.478 30.4822C584.083 30.7573 583.757 31.1302 583.498 31.6009C583.243 32.0715 583.066 32.6001 582.966 33.1868C582.87 33.7801 582.87 34.3153 582.966 34.7926C583.062 35.2699 583.258 35.6494 583.553 35.9311C583.851 36.2095 584.254 36.3487 584.761 36.3487ZM595.053 34.0817L595.844 29.3636H596.729L595.456 37H594.571L594.78 35.7322H594.715C594.476 36.1233 594.138 36.4498 593.701 36.7116C593.267 36.9702 592.77 37.0994 592.209 37.0994C591.722 37.0994 591.306 36.9934 590.962 36.7812C590.62 36.5658 590.377 36.2509 590.231 35.8366C590.085 35.4223 590.062 34.9136 590.161 34.3104L590.991 29.3636H591.876L591.061 34.2557C590.965 34.8523 591.061 35.3329 591.349 35.6974C591.641 36.0587 592.062 36.2393 592.612 36.2393C592.957 36.2393 593.302 36.1565 593.646 35.9908C593.994 35.825 594.296 35.5831 594.551 35.2649C594.81 34.9434 594.977 34.549 595.053 34.0817ZM600.062 37.1591C599.372 37.1591 598.804 36.9884 598.357 36.647C597.909 36.3056 597.596 35.8383 597.417 35.245C597.241 34.6484 597.216 33.9723 597.342 33.2166C597.468 32.4477 597.722 31.7666 598.103 31.1733C598.484 30.5767 598.955 30.1094 599.515 29.7713C600.078 29.4299 600.693 29.2592 601.359 29.2592C601.873 29.2592 602.321 29.3587 602.702 29.5575C603.083 29.7531 603.378 30.0298 603.587 30.3878C603.795 30.7424 603.895 31.1567 603.885 31.6307H602.99C602.967 31.1899 602.806 30.8187 602.508 30.517C602.213 30.2154 601.795 30.0646 601.255 30.0646C600.761 30.0646 600.304 30.1972 599.883 30.4624C599.462 30.7242 599.106 31.0904 598.814 31.5611C598.526 32.0284 598.332 32.5703 598.232 33.1868C598.126 33.8066 598.136 34.3551 598.262 34.8324C598.388 35.3063 598.613 35.6776 598.938 35.946C599.266 36.2145 599.681 36.3487 600.181 36.3487C600.523 36.3487 600.844 36.2857 601.146 36.1598C601.447 36.0305 601.714 35.8482 601.946 35.6129C602.178 35.3743 602.355 35.0942 602.478 34.7727H603.373C603.224 35.2367 602.988 35.6477 602.667 36.0057C602.349 36.3636 601.968 36.6454 601.523 36.8509C601.079 37.0563 600.592 37.1591 600.062 37.1591ZM608.472 29.3636L608.348 30.1342H604.699L604.828 29.3636H608.472ZM606.265 27.5341H607.155L605.912 35.0064C605.859 35.3246 605.872 35.5748 605.952 35.7571C606.031 35.9361 606.154 36.0637 606.32 36.1399C606.485 36.2128 606.668 36.2493 606.866 36.2493C606.982 36.2493 607.082 36.2427 607.165 36.2294C607.251 36.2128 607.327 36.1963 607.393 36.1797L607.458 36.9801C607.362 37.0133 607.248 37.0431 607.115 37.0696C606.982 37.0994 606.823 37.1143 606.638 37.1143C606.313 37.1143 606.013 37.0431 605.738 36.9006C605.463 36.758 605.254 36.5459 605.111 36.2642C604.969 35.9825 604.931 35.6328 604.997 35.2152L606.265 27.5341ZM611.43 37.1591C610.761 37.1591 610.197 36.9901 609.74 36.652C609.282 36.3106 608.959 35.8383 608.77 35.2351C608.581 34.6319 608.55 33.9358 608.676 33.147C608.802 32.3781 609.052 31.7019 609.427 31.1186C609.804 30.532 610.268 30.0762 610.819 29.7514C611.369 29.4233 611.967 29.2592 612.613 29.2592C613.286 29.2592 613.85 29.4299 614.304 29.7713C614.761 30.1127 615.084 30.585 615.273 31.1882C615.465 31.7914 615.499 32.4891 615.373 33.2812C615.247 34.0469 614.995 34.7214 614.617 35.3047C614.239 35.8847 613.775 36.3388 613.225 36.6669C612.678 36.995 612.08 37.1591 611.43 37.1591ZM611.44 36.3487C611.984 36.3487 612.468 36.2045 612.892 35.9162C613.319 35.6245 613.672 35.2367 613.951 34.7528C614.229 34.2656 614.416 33.7304 614.512 33.147C614.602 32.5902 614.592 32.0781 614.483 31.6108C614.373 31.1435 614.163 30.7689 613.851 30.4872C613.54 30.2055 613.125 30.0646 612.608 30.0646C612.068 30.0646 611.584 30.2121 611.157 30.5071C610.729 30.7988 610.376 31.1899 610.098 31.6804C609.819 32.1676 609.634 32.7012 609.541 33.2812C609.448 33.8414 609.455 34.3535 609.561 34.8175C609.67 35.2815 609.881 35.6527 610.192 35.9311C610.507 36.2095 610.923 36.3487 611.44 36.3487ZM622.124 31.0391L621.274 31.2578C621.231 31.0291 621.151 30.8236 621.035 30.6413C620.922 30.4557 620.758 30.3099 620.543 30.2038C620.331 30.0945 620.052 30.0398 619.708 30.0398C619.191 30.0398 618.745 30.1657 618.37 30.4176C617.996 30.6662 617.777 30.9844 617.714 31.3722C617.661 31.697 617.729 31.9605 617.918 32.1626C618.11 32.3648 618.432 32.5239 618.882 32.6399L619.996 32.9233C620.612 33.0824 621.052 33.331 621.313 33.669C621.579 34.0071 621.67 34.4347 621.587 34.9517C621.514 35.3826 621.33 35.7637 621.035 36.0952C620.743 36.4266 620.369 36.6868 619.911 36.8757C619.457 37.0646 618.95 37.1591 618.39 37.1591C617.638 37.1591 617.046 36.9901 616.615 36.652C616.188 36.3139 615.959 35.8267 615.929 35.1903L616.819 34.9915C616.846 35.4422 617 35.7836 617.281 36.0156C617.566 36.2476 617.968 36.3636 618.485 36.3636C619.075 36.3636 619.57 36.2294 619.971 35.9609C620.372 35.6925 620.602 35.361 620.662 34.9666C620.718 34.6551 620.66 34.3965 620.488 34.1911C620.319 33.9856 620.031 33.8331 619.623 33.7337L618.435 33.4354C617.795 33.273 617.343 33.0194 617.078 32.6747C616.816 32.3267 616.728 31.8975 616.814 31.3871C616.884 30.9661 617.059 30.5966 617.341 30.2784C617.623 29.9602 617.979 29.7116 618.41 29.5327C618.841 29.3504 619.311 29.2592 619.822 29.2592C620.525 29.2592 621.06 29.4183 621.428 29.7365C621.796 30.0514 622.028 30.4856 622.124 31.0391Z" fill="#AAD3D1"/>
<path d="M1048 32C1048 20.9543 1039.05 12 1028 12H986V52H1028C1039.05 52 1048 43.0457 1048 32Z" fill="#AAD3D1"/>
<path d="M1014.29 22.0019C1014.9 22.0954 1015.51 22.2088 1016.09 22.4275C1018.8 23.4498 1020.57 25.3471 1021.39 28.1271C1021.63 28.9652 1021.73 29.8396 1021.68 30.7112C1021.57 32.4281 1021.03 33.9894 1019.98 35.3654C1019.78 35.6305 1019.78 35.5633 1020.01 35.7956C1021.56 37.3506 1023.12 38.9046 1024.67 40.4576C1024.85 40.6289 1024.98 40.8159 1025 41.0623C1025.02 41.4283 1024.88 41.708 1024.56 41.8883C1024.41 41.9741 1024.24 42.012 1024.07 41.9967C1023.9 41.9813 1023.74 41.9135 1023.61 41.8026C1023.53 41.7369 1023.46 41.6607 1023.38 41.5871C1021.84 40.0422 1020.29 38.4966 1018.75 36.9501C1018.64 36.8473 1018.58 36.8121 1018.44 36.9177C1017.38 37.7605 1016.13 38.3198 1014.79 38.5427C1012.32 38.9632 1010.08 38.4012 1008.11 36.8484C1006.6 35.6603 1005.64 34.1076 1005.18 32.2459C1005.1 31.9439 1005.06 31.635 1005 31.3295V29.2997C1005.01 29.2754 1005.02 29.2504 1005.02 29.225C1005.24 27.6492 1005.84 26.2381 1006.85 25.0092C1007.89 23.7541 1009.18 22.8647 1010.73 22.3614C1011.24 22.1944 1011.77 22.0915 1012.3 22L1014.29 22.0019ZM1013.35 23.6935C1009.66 23.7209 1006.72 26.6268 1006.7 30.2833C1006.68 34.061 1009.68 36.967 1013.33 36.9599C1017.1 36.9529 1019.96 33.9456 1019.96 30.3185C1019.95 26.5865 1016.97 23.7381 1013.35 23.6935Z" fill="white"/>
<rect x="367" y="13" width="114" height="39" rx="19.5" fill="#A5DBD6"/>
<path d="M395.16 38.208C398.344 38.208 400.776 35.808 400.776 32.624C400.776 29.456 398.36 27.04 395.16 27.04C391.976 27.04 389.56 29.456 389.56 32.624C389.56 35.808 391.976 38.208 395.16 38.208ZM395.16 36C393.368 36 391.96 34.528 391.96 32.624C391.96 30.72 393.368 29.248 395.16 29.248C396.968 29.248 398.36 30.72 398.36 32.624C398.36 34.528 396.952 36 395.16 36ZM404.657 38V34.352H409.681V32.208H404.657V29.392H410.049V27.232H404.385C402.913 27.232 402.321 28.016 402.321 29.248V38H404.657ZM419.309 38V35.904H413.789V33.664H418.877V31.568H413.789V29.328H419.213V27.232H413.517C412.029 27.232 411.453 28.016 411.453 29.248V36C411.453 37.232 412.029 38 413.517 38H419.309ZM423.581 38L423.597 34.56H424.509C425.725 34.56 426.189 35.088 426.685 36.08L427.645 38H430.173L429.133 35.872C428.573 34.752 428.173 34.016 427.485 33.632C428.861 33.264 429.725 32.128 429.725 30.656C429.725 28.368 427.853 27.232 425.421 27.232H421.277V38H423.581ZM425.453 29.392C426.509 29.392 427.325 29.84 427.325 30.896C427.325 31.904 426.525 32.48 425.421 32.48H423.597L423.613 29.392H425.453ZM439.475 27.232H430.803V29.392H433.971V38H436.307V29.392H439.475V27.232ZM439.034 38H441.418L442.042 35.808L446.41 35.792L447.034 38H449.418L446.57 28.752C446.202 27.584 445.242 27.024 444.218 27.024C443.21 27.024 442.25 27.584 441.882 28.752L439.034 38ZM443.882 29.44C443.946 29.216 444.058 29.12 444.234 29.12C444.426 29.12 444.522 29.216 444.586 29.44L445.802 33.712H442.65L443.882 29.44ZM454.398 38.208C456.686 38.208 458.51 36.8 458.51 34.864C458.51 32.416 456.398 31.84 454.798 31.568C453.63 31.36 452.734 31.136 452.734 30.272C452.734 29.616 453.342 29.2 454.222 29.2C455.31 29.2 456.014 29.68 456.366 30.368L458.318 29.392C457.63 27.856 456.094 27.04 454.318 27.04C452.094 27.04 450.398 28.48 450.398 30.368C450.398 32.8 452.59 33.376 454.206 33.648C455.326 33.84 456.174 33.984 456.174 34.88C456.174 35.648 455.406 36.064 454.398 36.064C453.278 36.064 452.526 35.664 452.174 34.88L450.222 35.856C450.91 37.392 452.462 38.208 454.398 38.208Z" fill="white"/>
</svg>
