<?xml version="1.0" encoding="utf-8"?>
<!-- Generator: Adobe Illustrator 26.0.1, SVG Export Plug-In . SVG Version: 6.00 Build 0)  -->
<svg version="1.1" id="Capa_1" xmlns="http://www.w3.org/2000/svg" xmlns:xlink="http://www.w3.org/1999/xlink" x="0px" y="0px"
	 viewBox="0 0 30 30" style="enable-background:new 0 0 30 30;" xml:space="preserve">
<style type="text/css">
	.st0{fill:#3B3A3A;stroke:#3B3A3A;stroke-miterlimit:10;}
</style>
<path class="st0" d="M23,5.84h-5.66V4.36c0-0.2-0.17-0.37-0.37-0.37h-3.94c-0.2,0-0.37,0.17-0.37,0.37v1.48H7
	c-0.88,0-1.6,0.72-1.6,1.6v1.09c0,0.2,0.17,0.37,0.37,0.37h1.01l1.12,15c0.09,1.18,1.09,2.11,2.27,2.11h9.67
	c1.19,0,2.19-0.93,2.27-2.11l1.12-15h1.01c0.2,0,0.37-0.17,0.37-0.37V7.44C24.6,6.56,23.88,5.84,23,5.84z M13.4,4.73h3.2v1.11h-3.2
	V4.73z M21.37,23.85c-0.06,0.8-0.73,1.43-1.54,1.43h-9.67c-0.8,0-1.48-0.63-1.54-1.43L7.52,8.9h14.96L21.37,23.85z M23.86,8.16H6.14
	V7.44c0-0.48,0.39-0.86,0.86-0.86h6.03h3.94H23c0.48,0,0.86,0.39,0.86,0.86V8.16z M10.12,10.77l0.95,12.35 M15,10.77l0,12.35
	 M20.17,10.77l-1.66,12.35"/>
</svg>
