<?xml version="1.0" encoding="utf-8"?>
<!-- Generator: Adobe Illustrator 26.0.1, SVG Export Plug-In . SVG Version: 6.00 Build 0)  -->
<svg version="1.1" id="Capa_1" xmlns="http://www.w3.org/2000/svg" xmlns:xlink="http://www.w3.org/1999/xlink" x="0px" y="0px"
	 viewBox="0 0 30 30" style="enable-background:new 0 0 30 30;" xml:space="preserve">
<style type="text/css">
	.st0{fill:#020203;}
	.st1{fill-rule:evenodd;clip-rule:evenodd;fill:#020203;}
</style>
<g>
	<path class="st0" d="M4.72,75.85l1.77-6.6c-1-1.81-1.53-3.83-1.53-5.89c0-6.72,5.47-12.2,12.2-12.2c6.72,0,12.2,5.47,12.2,12.2
		c0,6.72-5.47,12.2-12.2,12.2c-2.02,0-4.01-0.51-5.8-1.48L4.72,75.85z M11.68,71.59l0.42,0.25c1.53,0.91,3.28,1.4,5.05,1.4
		c5.45,0,9.89-4.44,9.89-9.89c0-5.45-4.44-9.89-9.89-9.89c-5.45,0-9.89,4.44-9.89,9.89c0,1.8,0.5,3.57,1.45,5.13l0.26,0.42
		l-0.99,3.69L11.68,71.59z"/>
	<path class="st1" d="M21.69,65.05c-0.5-0.3-1.16-0.64-1.75-0.39c-0.45,0.19-0.74,0.9-1.04,1.26c-0.15,0.19-0.33,0.22-0.56,0.12
		c-1.7-0.68-3.01-1.82-3.95-3.38c-0.16-0.24-0.13-0.44,0.06-0.66c0.28-0.33,0.64-0.71,0.72-1.16c0.08-0.45-0.13-0.98-0.32-1.38
		c-0.24-0.51-0.5-1.24-1.02-1.53c-0.47-0.27-1.09-0.12-1.51,0.23c-0.73,0.59-1.08,1.52-1.07,2.43c0,0.26,0.04,0.52,0.1,0.77
		c0.15,0.61,0.43,1.17,0.74,1.71c0.24,0.41,0.5,0.8,0.77,1.18c0.91,1.24,2.04,2.31,3.36,3.12c0.66,0.4,1.36,0.75,2.09,1
		c0.82,0.27,1.55,0.55,2.44,0.38c0.93-0.18,1.84-0.75,2.21-1.64c0.11-0.26,0.16-0.56,0.1-0.84C22.94,65.67,22.16,65.32,21.69,65.05z
		"/>
</g>
<path class="st0" d="M24.43,4.58H5.57c-2.11,0-3.83,1.72-3.83,3.83v13.18c0,2.11,1.72,3.83,3.83,3.83h18.86
	c2.11,0,3.83-1.72,3.83-3.83V8.41C28.26,6.3,26.54,4.58,24.43,4.58z M24.43,6.41c0.16,0,0.31,0.02,0.45,0.05l-7.96,9.03
	c-0.49,0.55-1.19,0.87-1.93,0.87c-0.74,0-1.44-0.32-1.93-0.87L5.11,6.47c0.15-0.03,0.3-0.05,0.45-0.05H24.43z M26.43,21.59
	c0,1.1-0.9,2-2,2H5.57c-1.1,0-2-0.9-2-2V8.41c0-0.27,0.05-0.52,0.15-0.76l7.98,9.05c0.84,0.95,2.04,1.49,3.3,1.49
	c1.26,0,2.47-0.54,3.3-1.49l7.98-9.05c0.1,0.23,0.15,0.49,0.15,0.76V21.59z"/>
<path class="st1" d="M-9.28,59.31c-0.84-0.5-1.93-1.06-2.93-0.66c-0.76,0.31-1.24,1.5-1.74,2.11c-0.25,0.31-0.55,0.36-0.94,0.2
	c-2.85-1.14-5.04-3.04-6.61-5.66c-0.27-0.41-0.22-0.73,0.1-1.11c0.48-0.56,1.07-1.2,1.2-1.95c0.13-0.75-0.23-1.64-0.54-2.31
	c-0.4-0.86-0.84-2.08-1.7-2.57c-0.79-0.45-1.83-0.2-2.54,0.38c-1.22,0.99-1.8,2.54-1.78,4.08c0,0.44,0.06,0.87,0.16,1.29
	c0.25,1.01,0.71,1.96,1.24,2.86c0.4,0.68,0.83,1.34,1.3,1.97c1.53,2.07,3.42,3.87,5.62,5.22c1.1,0.67,2.28,1.26,3.51,1.67
	c1.37,0.45,2.6,0.93,4.08,0.64c1.55-0.29,3.08-1.26,3.7-2.75c0.18-0.44,0.27-0.94,0.17-1.4C-7.19,60.35-8.5,59.78-9.28,59.31z"/>
</svg>
