<?xml version="1.0" encoding="utf-8"?>
<!-- Generator: Adobe Illustrator 26.0.1, SVG Export Plug-In . SVG Version: 6.00 Build 0)  -->
<svg version="1.1" id="Capa_1" xmlns="http://www.w3.org/2000/svg" xmlns:xlink="http://www.w3.org/1999/xlink" x="0px" y="0px"
	 viewBox="0 0 30 30" style="enable-background:new 0 0 30 30;" xml:space="preserve">
<style type="text/css">
	.st0{fill:#020203;}
	.st1{fill-rule:evenodd;clip-rule:evenodd;fill:#020203;}
</style>
<g>
	<path class="st0" d="M4.72,75.85l1.77-6.6c-1-1.81-1.53-3.83-1.53-5.89c0-6.72,5.47-12.2,12.2-12.2c6.72,0,12.2,5.47,12.2,12.2
		c0,6.72-5.47,12.2-12.2,12.2c-2.02,0-4.01-0.51-5.8-1.48L4.72,75.85z M11.68,71.59l0.42,0.25c1.53,0.91,3.28,1.4,5.05,1.4
		c5.45,0,9.89-4.44,9.89-9.89c0-5.45-4.44-9.89-9.89-9.89c-5.45,0-9.89,4.44-9.89,9.89c0,1.8,0.5,3.57,1.45,5.13l0.26,0.42
		l-0.99,3.69L11.68,71.59z"/>
	<path class="st1" d="M21.69,65.05c-0.5-0.3-1.16-0.64-1.75-0.39c-0.45,0.19-0.74,0.9-1.04,1.26c-0.15,0.19-0.33,0.22-0.56,0.12
		c-1.7-0.68-3.01-1.82-3.95-3.38c-0.16-0.24-0.13-0.44,0.06-0.66c0.28-0.33,0.64-0.71,0.72-1.16c0.08-0.45-0.13-0.98-0.32-1.38
		c-0.24-0.51-0.5-1.24-1.02-1.53c-0.47-0.27-1.09-0.12-1.51,0.23c-0.73,0.59-1.08,1.52-1.07,2.43c0,0.26,0.04,0.52,0.1,0.77
		c0.15,0.61,0.43,1.17,0.74,1.71c0.24,0.41,0.5,0.8,0.77,1.18c0.91,1.24,2.04,2.31,3.36,3.12c0.66,0.4,1.36,0.75,2.09,1
		c0.82,0.27,1.55,0.55,2.44,0.38c0.93-0.18,1.84-0.75,2.21-1.64c0.11-0.26,0.16-0.56,0.1-0.84C22.94,65.67,22.16,65.32,21.69,65.05z
		"/>
</g>
<path class="st0" d="M-32.25,7.05h-18.86c-2.11,0-3.83,1.72-3.83,3.83v13.18c0,2.11,1.72,3.83,3.83,3.83h18.86
	c2.11,0,3.83-1.72,3.83-3.83V10.88C-28.42,8.76-30.14,7.05-32.25,7.05z M-32.25,8.88c0.16,0,0.31,0.02,0.45,0.05l-7.96,9.03
	c-0.49,0.55-1.19,0.87-1.93,0.87c-0.74,0-1.44-0.32-1.93-0.87l-7.96-9.03c0.15-0.03,0.3-0.05,0.45-0.05H-32.25z M-30.25,24.05
	c0,1.1-0.9,2-2,2h-18.86c-1.1,0-2-0.9-2-2V10.88c0-0.27,0.05-0.52,0.15-0.76l7.98,9.05c0.84,0.95,2.04,1.49,3.3,1.49
	c1.26,0,2.47-0.54,3.3-1.49l7.98-9.05c0.1,0.23,0.15,0.49,0.15,0.76V24.05z"/>
<path class="st1" d="M25.12,18.96c-1.13-0.67-2.59-1.42-3.91-0.88c-1.02,0.42-1.67,2.01-2.32,2.82c-0.34,0.42-0.74,0.48-1.26,0.27
	c-3.82-1.52-6.74-4.07-8.85-7.58c-0.36-0.55-0.29-0.98,0.14-1.48c0.64-0.75,1.44-1.6,1.61-2.61c0.17-1.01-0.3-2.19-0.72-3.09
	C9.27,5.27,8.67,3.63,7.52,2.98c-1.06-0.6-2.45-0.26-3.39,0.5C2.5,4.81,1.72,6.88,1.74,8.94c0.01,0.58,0.08,1.17,0.21,1.73
	c0.33,1.36,0.96,2.62,1.66,3.83c0.53,0.91,1.11,1.79,1.73,2.64c2.04,2.77,4.58,5.18,7.52,6.98c1.47,0.9,3.05,1.69,4.69,2.23
	c1.84,0.61,3.48,1.24,5.46,0.86c2.08-0.39,4.13-1.68,4.95-3.68c0.24-0.59,0.37-1.25,0.23-1.88C27.92,20.36,26.17,19.59,25.12,18.96z
	"/>
</svg>
