<?xml version="1.0" encoding="utf-8"?>
<!-- Generator: Adobe Illustrator 26.0.1, SVG Export Plug-In . SVG Version: 6.00 Build 0)  -->
<svg version="1.1" id="Capa_1" xmlns="http://www.w3.org/2000/svg" xmlns:xlink="http://www.w3.org/1999/xlink" x="0px" y="0px"
	 viewBox="0 0 30 30" style="enable-background:new 0 0 30 30;" xml:space="preserve">
<style type="text/css">
	.st0{fill:#020203;}
	.st1{fill-rule:evenodd;clip-rule:evenodd;fill:#020203;}
</style>
<g>
	<path class="st0" d="M1.74,28.29l1.91-7.11C2.57,19.23,2,17.05,2,14.84C2,7.6,7.89,1.71,15.13,1.71c7.24,0,13.13,5.89,13.13,13.13
		c0,7.24-5.89,13.13-13.13,13.13c-2.17,0-4.32-0.55-6.24-1.59L1.74,28.29z M9.24,23.71l0.45,0.27c1.65,0.98,3.53,1.51,5.44,1.51
		c5.87,0,10.65-4.78,10.65-10.65c0-5.87-4.78-10.65-10.65-10.65c-5.87,0-10.65,4.78-10.65,10.65c0,1.94,0.54,3.85,1.56,5.52
		l0.28,0.45l-1.06,3.97L9.24,23.71z"/>
	<path class="st1" d="M20.01,16.66c-0.54-0.32-1.24-0.68-1.88-0.42c-0.49,0.2-0.8,0.96-1.12,1.35c-0.16,0.2-0.36,0.23-0.61,0.13
		c-1.83-0.73-3.24-1.95-4.25-3.64c-0.17-0.26-0.14-0.47,0.07-0.71c0.31-0.36,0.69-0.77,0.77-1.25c0.08-0.48-0.14-1.05-0.35-1.48
		c-0.26-0.55-0.54-1.34-1.1-1.65c-0.51-0.29-1.18-0.13-1.63,0.24c-0.78,0.64-1.16,1.63-1.15,2.62c0,0.28,0.04,0.56,0.1,0.83
		c0.16,0.65,0.46,1.26,0.8,1.84c0.26,0.44,0.53,0.86,0.83,1.27c0.98,1.33,2.2,2.49,3.61,3.36c0.71,0.43,1.47,0.81,2.25,1.07
		c0.88,0.29,1.67,0.6,2.62,0.41c1-0.19,1.98-0.81,2.38-1.77c0.12-0.28,0.18-0.6,0.11-0.9C21.36,17.33,20.52,16.97,20.01,16.66z"/>
</g>
<path class="st0" d="M-32.25,7.05h-18.86c-2.11,0-3.83,1.72-3.83,3.83v13.18c0,2.11,1.72,3.83,3.83,3.83h18.86
	c2.11,0,3.83-1.72,3.83-3.83V10.88C-28.42,8.76-30.14,7.05-32.25,7.05z M-32.25,8.88c0.16,0,0.31,0.02,0.45,0.05l-7.96,9.03
	c-0.49,0.55-1.19,0.87-1.93,0.87c-0.74,0-1.44-0.32-1.93-0.87l-7.96-9.03c0.15-0.03,0.3-0.05,0.45-0.05H-32.25z M-30.25,24.05
	c0,1.1-0.9,2-2,2h-18.86c-1.1,0-2-0.9-2-2V10.88c0-0.27,0.05-0.52,0.15-0.76l7.98,9.05c0.84,0.95,2.04,1.49,3.3,1.49
	c1.26,0,2.47-0.54,3.3-1.49l7.98-9.05c0.1,0.23,0.15,0.49,0.15,0.76V24.05z"/>
</svg>
