<?xml version="1.0" encoding="utf-8"?>
<!-- Generator: Adobe Illustrator 26.0.1, SVG Export Plug-In . SVG Version: 6.00 Build 0)  -->
<svg version="1.1" id="Capa_1" xmlns="http://www.w3.org/2000/svg" xmlns:xlink="http://www.w3.org/1999/xlink" x="0px" y="0px"
	 viewBox="0 0 220.18 24.75" style="enable-background:new 0 0 220.18 24.75;" xml:space="preserve">
<style type="text/css">
	.st0{fill:#ffffff;}
</style>
<g>
	<g>
		<g>
			<g>
				<g>
					<path class="st0" d="M184.25,10.83c0.02-0.03,0.03-0.07,0.04-0.13C184.26,10.75,184.25,10.79,184.25,10.83z"/>
					<path class="st0" d="M168.24,9.98l0.19-0.06C168.3,9.93,168.26,9.95,168.24,9.98z"/>
					<path class="st0" d="M193.85,11.18c-0.01,0.01-0.01,0.02-0.02,0.03c0.15,0.01,0.35,0.01,0.67,0.02L193.85,11.18z"/>
					<path class="st0" d="M134.08,9.04l0.21,0C134.2,9.03,134.13,9.02,134.08,9.04z"/>
					<path class="st0" d="M154.32,9.67c-0.06,0.05-0.17,0.07-0.27,0.09C154.18,9.77,154.29,9.76,154.32,9.67z"/>
					<path class="st0" d="M198.92,14.01l-0.27-0.19C198.65,13.9,198.75,13.98,198.92,14.01z"/>
					<path class="st0" d="M208.65,13.24c-0.01-0.01-0.01-0.03-0.03-0.04C208.61,13.21,208.63,13.22,208.65,13.24z"/>
					<path class="st0" d="M204.85,12.47c-0.08,0.02-0.18,0.05-0.27,0.08C204.69,12.55,204.84,12.55,204.85,12.47z"/>
					<path class="st0" d="M204.45,12.6c0.04-0.02,0.09-0.03,0.13-0.05C204.5,12.56,204.45,12.57,204.45,12.6z"/>
					<path class="st0" d="M10,9.98c-0.28-0.01-0.52,0.14-0.77,0.26L10,9.98z"/>
					<path class="st0" d="M103.15,8.93l0.06-0.08C103.15,8.87,103.14,8.9,103.15,8.93z"/>
					<path class="st0" d="M9.65,11.63l-0.2-0.04C9.52,11.62,9.59,11.63,9.65,11.63z"/>
					<path class="st0" d="M193.76,14.52c-0.28,0.19-0.86-0.04-0.85,0.14C193.21,14.63,193.63,14.77,193.76,14.52z"/>
					<path class="st0" d="M96.61,15.97l-0.19,0.01C96.51,15.98,96.57,15.98,96.61,15.97z"/>
					<path class="st0" d="M9.65,11.63l0.23,0.04c-0.02-0.04-0.05-0.06-0.07-0.09C9.76,11.61,9.7,11.63,9.65,11.63z"/>
					<path class="st0" d="M70.94,8.85c0,0,0.01,0,0.01,0c0.02-0.01,0.04-0.02,0.06-0.03L70.94,8.85z"/>
					<path class="st0" d="M69.23,8.54c0.12-0.02,0.24-0.04,0.36-0.06C69.4,8.46,69.3,8.49,69.23,8.54z"/>
					<path class="st0" d="M9.23,10.23l-0.44,0.15C8.94,10.36,9.09,10.3,9.23,10.23z"/>
					<path class="st0" d="M50.81,8.82c0.06-0.01,0.11-0.01,0.17-0.02C50.91,8.79,50.85,8.8,50.81,8.82z"/>
					<path class="st0" d="M155.62,9.78c0.04,0.02,0.1,0.03,0.15,0.04C155.79,9.78,155.78,9.75,155.62,9.78z"/>
					<polygon class="st0" points="142.9,14.75 142.89,14.75 142.89,14.75 					"/>
					<path class="st0" d="M143.57,14.52c-0.21-0.04-0.52,0.09-0.68,0.23C143.11,14.75,143.31,14.71,143.57,14.52z"/>
					<path class="st0" d="M141.44,14.65c0.03,0.01,0.05,0.01,0.08,0.02C141.49,14.66,141.46,14.65,141.44,14.65z"/>
					<path class="st0" d="M155.11,15.02c0-0.01,0-0.01,0-0.02C155.1,15.01,155.1,15.01,155.11,15.02L155.11,15.02z"/>
					<path class="st0" d="M152.4,15.05c-0.05-0.04-0.11-0.06-0.19-0.08C152.26,15.01,152.32,15.04,152.4,15.05z"/>
					<path class="st0" d="M134.7,15.18C134.7,15.18,134.7,15.17,134.7,15.18c0-0.01,0-0.01-0.01-0.01
						C134.69,15.18,134.69,15.18,134.7,15.18z"/>
					<path class="st0" d="M109.18,16.56c2.56-0.11,5.88-0.49,8.42-0.38c0.55-0.39,1.36-0.4,2.17-0.48l0.09,0.51l0.67-0.16
						c0.27,0.15-0.52,0.1-0.03,0.29l0.25-0.32c0.05,0.18,1.73,0.12,0.6,0.49l2.62,0c0.58,0.02,0.34-0.43,0.98-0.3
						c0.13,0.15-0.23,0.1-0.18,0.29c1.92,0.38,2.22-0.99,4.02-0.76l-0.15,0.07c0.31-0.14,0.89-0.12,0.89-0.19
						c-0.23-0.52-0.32,0.28-0.87-0.02c0.05-0.43,0.68-0.23,0.65-0.56c0.42,0.16,0.67-0.09,1.03-0.12c0.62,0.27,1.52,0.08,1.99,0.42
						c0.31-0.14,0.65-0.56,1.31-0.58c0.47,0.34-0.11,0.32,0.53,0.45l0.1-0.25c0.53,0.04,0.44,0.11,0.42,0.23
						c0.56,0.01,0.47-0.35,1.17-0.18l-0.39,0.24c0.52-0.1,0.73-0.05,1.46-0.03c-0.02,0.14-0.31,0.13-0.52,0.09
						c0.39,0.37,0.68-0.16,0.89-0.12c-0.06-0.11-0.56-0.16-0.32-0.41c0.36,0.05,0.77-0.34,1.02-0.04l-0.39,0.24
						c0.75-0.2,0.4-0.31,1.26-0.22c-0.05,0.02-0.02,0.08-0.04,0.13c0.55-0.32,1.26-0.03,2.07-0.01l-0.15,0.07
						c0.33-0.09,0.5-0.31,0.68-0.29c-0.46-0.15-0.33-0.22-0.38-0.46c0.61,0.42,0.93-0.48,1.92-0.23c-0.02,0.14-0.26,0.32-0.53,0.17
						c-0.34,0.43-0.38,0.79-0.99,0.99c0.38-0.1,0.82-0.16,0.73,0.02l0.12-0.4c0.23-0.01,0.41,0.01,0.58,0.01
						c0.1-0.25-0.46-0.41,0.07-0.57c0.6-0.13,0.32,0.41,0.41,0.23c0.82-0.16,0.34-0.43,1.13-0.29c-0.08,0.03-0.23,0.1-0.3,0.06
						c0.57,0.16,1.39-0.07,1.56,0.41c-0.08,0.11-0.1,0.25-0.31,0.21l0.01-0.07c-0.62,0.35,0.52-0.09,0.32,0.34
						c-0.04-0.26,0.75-0.2,1.11-0.15l-0.11-0.29c1.19-0.87-0.06,0.58,1.12,0.47c0.75-0.2-0.28-0.08,0.18-0.29
						c0.51,0.05,0.69,0.31,1.44,0.18c0.21,0.12,0.63,0.27,0.66,0.6c0.45-0.13,1.37,0.15,1.62-0.17c-0.77-0.28-0.77,0.34-1.67-0.08
						l0.25-0.32c0.62,0.02,1.42-0.14,1.85-0.03c-0.09-0.06-0.13-0.14-0.07-0.21c0.89-0.12,1.14-0.44,2-0.34
						c0.11,0.29-0.39,0.24-0.76,0.27c0.56,0.23,0.58,0.02,1.44,0.11c0.05,0.26-0.58-0.02-0.68,0.23l0.96-0.08c0,0.02,0,0.03,0,0.05
						c0.14-0.43,0.73,0.04,1.31-0.09c1.38,0,1.6-0.57,2.36-0.91c0.21,0.12,0.27,0.22,0.18,0.33c-0.34-0.19-0.28-0.04-0.4,0.07
						c0.47-0.04,1.02,0.42,0.76,0.59c0.74-0.12-0.27-0.23,0.19-0.36l1.02,0.03c-0.12-0.22-0.48-0.27,0.05-0.43
						c0.44-0.06,0.66-0.02,1.24,0c-0.08,0.11,0.18,0.33-0.25,0.32c0.28,0.08,0.72,0.09,0.89-0.12c-0.63-0.2,1.04-0.19,0.57-0.53
						l0.63,0.2c-0.14,0-0.16,0.14-0.37,0.1c0.18,0.33,0.52-0.09,0.74-0.13c0.22,0.06,0.8,0.09,0.85,0.22
						c0.2-0.09,0.69-0.02,0.78,0.15c0.3-0.07,0.02-0.22,0.11-0.32l1.01,0.03c0.05,0.18,0.14,0.69-0.01,0.76
						c0.38-0.17,0.14-0.54,0.72-0.52c-0.33,0.35,0.77,0.27,0.28,0.7c0.33,0.26,1.28,0.25,1.8,0.16c0.32-0.28-0.56-0.16-0.53-0.45
						c1.47-0.1,1.56-0.9,2.63-0.76l-0.28-0.08c0.67-0.16,0.6-0.13,0.99-0.37c-0.19,0.36,0.76,0.96,1.87,0.89
						c0.09-0.18-0.62-0.34-0.44-0.63l0.73-0.05c0.05,0.03-0.03,0.09-0.12,0.13c0.66-0.13,1.22,0.47,1.41,0.05l0.67,0.53l-0.26-0.22
						c0.09-0.18,0.83-0.23,0.98-0.3c0.75-0.2,1.03-0.04,1.44,0.19c-0.13-0.15-0.46-0.48,0.13-0.54c-0.01,0.58,1.24,0.22,1.22,0.52
						c0.24-0.01,0.66,0.17,0.69-0.07l-0.04,0.36c0.06-0.51,0.93-0.48,1.59-0.57c-0.15,0.69,0.73-0.05,1.03,0.57
						c0.13-0.47,1.18-0.18,1.3-0.58c0.51-0.02,0.46,0.41,0.59,0.56l0.24-0.17c0.26,0.22,1.22,0.25,1.8,0.4l0.53-0.41l0.2,0.19
						c0.09-0.1,0.53-0.17,0.25-0.32l0.29,0.02c0.02-0.45,0.4-0.12,0.98-0.31c0.13,0.07,0.1,0.18-0.03,0.24
						c0.29,0,0.16,0.23,0.32,0.39c-0.2-0.12,1.04-0.8,0.26-1.01c-0.05-0.18,0.4-0.32,0.68-0.24l0.17,0.4l0.34-0.43
						c0.44-0.06,0.63,0.2,0.99,0.25c-0.37,0.02-0.82,0.78,0.13,0.77c-0.5,0.05-0.74,0.28-1,0.36c0.2,0.02,0.29,0.06-0.01,0.23
						c0.74-0.12,0.25-0.25,0.98-0.3c-0.04,0.36,0.16,0.48,0.81,0.6l-0.48-0.27c0.02-0.04,0.06-0.08,0.09-0.1
						c-0.18-0.04-0.23-0.1-0.27-0.23c0.14,0,0.85-0.45,0.97-0.23c-0.74-0.56,1.29-0.43,0.82-0.77c0.08-0.1,0.6-0.13,0.65,0.06
						c-0.61,0.27,0.46,0.41,0.36,0.66c0.23-0.1-0.48-0.27-0.17-0.4c0.37-0.02,0.63,0.2,0.84,0.31l-0.15,0.07l0.56,0.16
						c0.09-0.18-0.55-0.31-0.03-0.4c0.14,0.08,0.66-0.02,0.64,0.13c-0.25,0.25-0.07,0.58-0.51,0.64c0.37-0.03,1.54-0.07,1.07-0.41
						l0.44,0.01c-0.28-0.15-1.05-0.43-0.17-0.48l-0.01,0.07l0.61-0.27l0.27,0.19c-0.01-0.09,0.09-0.18,0.32-0.17
						c0.06,0.11,0.27,0.15,0.26,0.3c0.66-0.02,0.6-0.2,0.69-0.31c0.37-0.03,0.51,0.05,0.33,0.26c0.5,0.05,1.38,0,1.73,0.19
						c0.67-0.16-0.14-0.08,0.26-0.32c0.58,0.63,2.23,0.24,3.33,0.17c-0.3-0.55,0.3-0.06,0.5-0.56c-0.24,0.17,1.04,0.43,0.08,0.58
						l0.59-0.06c0.4,0.3-0.97,0.23-0.37,0.64c0.66-0.02,1.09-0.62,1.87-0.42c-0.26,0.39,0.6-0.13,0.4,0.3
						c-0.16,0.14-0.38,0.1-0.6,0.13l0.14,0.08c1.44,0.11,0.42-0.46,1.17-0.73c0.88-0.05,0.69,0.31,0.75,0.49
						c0.14,0.08,0.58,0.02,0.81-0.09c-0.54,0.24-0.99-0.25-0.75-0.49c0.39,0.45,1.31,0.04,1.55-0.14c-1.26-0.47-0.87-0.02-2.05-0.53
						c-0.16,0.14-0.13,0.54-0.84,0.38c0.44-0.2-0.03-0.22-0.16-0.29c0.14,0.23-0.49,0.1-0.71,0.19c-0.2-0.19,0.42-0.53-0.29-0.62
						l-0.14,0.54c-0.28-0.08,0.12-0.4-0.48-0.27c0.32-0.28-0.1-0.44,0.71-0.52c-0.97-0.46-1.48,0.25-2.23,0.44
						c0.08-0.03,0.09-0.11,0.16-0.14c-0.16,0.14-0.45,0.13-0.67,0.16c-0.5-0.12,0.39-0.24,0.26-0.39l-0.8,0.01
						c-0.02-0.02-0.02-0.03-0.02-0.04c-0.21,0.07-0.41,0.12-0.49-0.01c0.24-0.17,0.33-0.35,0.49-0.49l-0.84,0.38
						c0.09-0.18-0.69-0.31-0.1-0.44l-1.25,0.07l-0.11-0.37c-0.3,0.06-0.31,0.14,0.05,0.18c-0.43-0.08-1.89,0.64-1.66-0.08
						c-0.98,0.3-1.33,0.18-2.52,0.36c0.91-0.34-1.04-0.43-0.08-0.58c-0.57-0.16-0.68,0.23-1.13,0.3c-0.42-0.16-0.23-0.51,0.22-0.65
						l-0.53,0.17l0.01-0.07l-0.46,0.21c-0.49-0.2-0.1-0.37-0.61-0.42l-0.11,0.32l-0.34-0.19c0.13,0.15-0.17,0.21-0.54,0.24
						l0.01-0.07l-0.45,0.06c0.44-0.2-0.41-0.07-0.2-0.3c-0.38-0.02-0.39-0.01-1.08,0.05l0.12,0.22c-0.9,0.19-0.04-0.33-0.76-0.35
						l0.05,0.25c-1.04-0.43-1.77,0.24-2.55-0.04c0.44-0.06,0.33-0.35,0.32-0.28c-0.67,0.09-1.75,0.02-2.44,0.33
						c-0.25-0.37-0.31-0.48-1.02-0.64c-0.51,0.02-0.59,0.06-0.76,0.27c-0.5-0.14-1.43,0.07-1.46-0.2c-0.12,0.21-0.45-0.04-0.72,0.14
						l-0.06-0.11l0.04,0.25c-0.88-0.57-1.49,0.32-2.38-0.18l0.15-0.07l-0.38,0.1c-0.06-0.11,0.09-0.18,0.11-0.32l-1.74-0.05
						l0.34,0.19c-0.37,0.03-0.61,0.27-1.03,0.12c0.7-0.38-0.58-0.02-0.69-0.31l0.37-0.1c-0.51,0.02-0.51,0.02-0.47,0.28
						c-0.66,0.09-0.45-0.49-1.07-0.21l0.44,0.01c0.13,0.15-0.18,0.36-0.48,0.35c-0.07-0.04-0.28-0.15-0.05-0.18
						c-0.52,0.1-1.31-0.04-1.54,0.07c-0.28-0.08-0.19-0.26-0.04-0.33c-1.12,0.22-0.5-0.05-1.62,0.17l0.02-0.14l-0.38,0.17
						l-0.55-0.31l0.2,0.19c-0.37,0.03-0.6,0.13-1.02,0.04l0.17-0.21c-1.04,0.12-1.2-0.36-2.18-0.06c-0.07-0.04,0.09-0.11,0.16-0.14
						c-0.91,0.34-0.69-0.38-1.61,0.03c0.06-0.07-0.04-0.16-0.01-0.22l-0.42,0.14l0.03-0.29l-0.34,0.43l-0.26-0.3l-0.16,0.14
						c-0.45-0.55-1.08-0.14-1.69-0.55l0.1,0.37c-1.54,0.75-3.52-0.43-5.38-0.08l0.03-0.29l-0.77,0.34c-0.41-0.23,0.25-0.25,0.12-0.4
						c-0.82,0.16-0.34,0.43-1.3,0.51c-0.49-0.2,0.17-0.21,0.4-0.32c-0.89,0.14-2.22,0.3-2.85,0.14c-0.01,0.04-0.05,0.09-0.02,0.11
						c-0.6,0.13-1.38,0-2.04,0.02c0.02-0.13,0.18-0.15,0.34-0.18c-0.24-0.02-0.56-0.11-0.76,0.03l0.25-0.25
						c-0.5-0.05-1.48,0.18-1.59-0.12c0.06,0.11,0.04,0.33-0.4,0.31c-0.24-0.44-1.19,0.19-1.89-0.05c0.08-0.11,0.6-0.13,0.45-0.13
						c-0.35-0.12-0.67,0.09-0.97,0.23l0.09-0.18l-1.63,0.24c-0.24-0.44-1.54,0.06-1.43-0.26c-0.58-0.02,0.49,0.2-0.25,0.25
						c-0.2-0.18-0.67,0.09-0.63-0.2l0.08-0.03l-0.51,0.02l0.32-0.28c-0.44,0.06-0.77,0.34-0.79,0.56c-0.42-0.16-1.02-0.03-1.21-0.29
						l0.16-0.07c-1.18,0.11-1.95-0.78-2.88-0.3c-0.07-0.04-0.06-0.11,0.08-0.11l-0.73-0.02l0.17-0.21l-1.21,0.33l0.02-0.14
						c-0.8-0.06-2.04,0.02-3.06,0.06l0.15-0.07c-1.12,0.22-1.08-0.14-1.9,0.02c0.03-0.04,0.06-0.05,0.09-0.06l-0.74,0.01l0.16-0.14
						c-0.54,0.31-1.56-0.41-1.22-0.14c-0.31,0.14-0.84,0.3-0.93,0.48c-0.8,0.02-0.2-0.19-0.69-0.31c-0.58-0.02-0.68,0.23-1.47,0.1
						l0.02-0.14c-0.37,0.03-0.6,0.13-1.11,0.15l0.15-0.07c-0.84,0.3-1.04-0.43-1.7,0.21c-0.35-0.12-1.02-0.03-0.98-0.32
						c-1.04,0.19-1.85,0.27-2.88,0.39c-0.17-0.48-0.22,0.03-0.85-0.24l0.05,0.25c-1.46,0.03-3.14-0.6-4.75-0.49l-0.04-0.26
						l-0.32,0.28c-1.74-0.12-3.98-0.22-5.36-0.22c-0.45,0.13-1.14,0.44-1.86,0.35l0.08-0.04c-1.25,0.15-2.58,0.25-3.95,0.11
						c0.08-0.11-0.05-0.18,0.1-0.25c-0.32,0.28-0.8,0.01-1.1,0.01l0.34,0.19c-0.39,0.24-0.95,0.01-1.14-0.18l-0.62,0.27
						c-0.04-0.03-0.1-0.07-0.11-0.11l-0.11,0.13l-0.33-0.34c-0.15,0.07-0.97,0.15-1.22,0.48c-0.06-0.11-0.63-0.2-0.19-0.26
						l-2.25-0.1l0.35,0.12c0.04,0.25-0.63,0.42-0.98,0.3c0.46-0.21,0.04-0.36-0.16-0.55c-0.31,0.14,0.27,0.23,0.1,0.36
						c-0.38,0.17-1.2,0.26-1.4,0.14l0.23-0.1c-0.52,0.09-0.76-0.35-1.27-0.33c-0.46,0.2-0.8,0.02-0.71,0.45
						c-0.67,0.09-0.26-0.3-0.47-0.34c-0.31,0.21-1.25,0.07-1.36-0.15c-0.37,0.64-1.8-0.23-1.93,0.31l-0.55-0.31
						c-0.02,0.14-0.13,0.47-0.57,0.53c-0.42-0.16-0.32-0.41-0.45-0.56l-0.28,0.54c-2.41-0.58-5.59-0.19-8.23-0.67
						c-1.18,0.11-2.66,0.36-4.04,0.29l0.15-0.07l-1.37-0.15l0.99,0.25c-0.3,0.06-0.53,0.17-0.82,0.16c-1.5-0.22-3.5-0.5-5.35-0.22
						c-1.2,0.62-0.79-0.55-1.94-0.1c0.1-0.06,0.13-0.14,0.22-0.21c-1.23,0.21-1.9,0.31-3.14,0.67c0.14-0.61-0.8,0.01-0.69-0.31
						l-0.1,0.25c-0.27-0.15-0.92-0.21-0.83-0.39l-0.55,0.31l-0.05-0.26c-0.72-0.02-2.28,0.19-2.66-0.33
						c-1.79,0.38-4.62,0.27-6.87,0.17c-0.32,0.21-0.97,0.23-1.49,0.25l-0.55-0.3c-0.52,0.09-1.08,0.48-1.56,0.28
						c0-0.04,0.02-0.06,0.06-0.08c-0.53,0.06-1.03-0.1-1.53,0.18c-0.58-0.02-1.14-0.18-0.97-0.46c-0.06,0.51-1.23-0.07-1.23-0.07
						S17.27,7.23,10,9.98c-0.24,0.25-0.92,0.41-0.66,0.71c-0.52,0.09-0.76-0.35-0.86-0.1c0.71,0.17-0.22,0.65,0.47,0.96L8.5,11.6
						c-0.09,0.18,0.61-0.2,0.5,0.12l0.13-0.47c0.36,0.07,0.56,0.17,0.69,0.33c0.34-0.18,0.56-0.81,1.37-0.54l-0.22,0.03
						c0.66-0.02,0.4,0.3,0.54,0.38l-0.15,0l0.56,0.23c-0.42-0.16-1.12,0.22-0.75,0.19c0.79,0.13-0.2-0.11,0.39-0.17
						c0.37-0.02,0.26,0.22,0.25,0.37l0.66-0.02c-0.02,0.22-0.44-0.01-0.17,0.21l0.83-0.23c0.15,0.55,0.9-0.26,1.28,0.25
						c-0.6,0.13,0.05,0.18-0.04,0.36l1.46-0.03c0.14,0.08-0.38,0.17-0.16,0.14c0.28,0.15,0.45-0.13,0.6-0.13
						c0.13,0.15,1.09-0.01,1.05,0.36c0.99,0.24,0.42-0.46,1.34-0.25c0.12,0.22-0.73,0.05-0.32,0.28l0.96-0.08
						c-0.09,0.11-0.19,0.36-0.55,0.31c2.59,0.29,3.99,1.45,6.35,1.16c0.33,0.26-0.24,0.18-0.48,0.35c1.71-0.35,2.41,0.58,3.87,0.54
						l0.03-0.22c2.03,0.67,4.48,0.27,6.78,0.55L35,15.49c0.32-0.21,0.83-0.23,1.2-0.33c0.06,0.11-0.27,0.46,0.39,0.37
						c-0.14-0.08-0.42-0.16-0.34-0.26c1.98,0.56,6.14,0.43,9.39,0.7c4.39-0.17,9.15,0.26,13.46,0.12c-0.66,0.02-0.38-0.52,0.12-0.39
						c1.35,0.91,2.35-0.15,3.73,0.47c2.51-0.29,4.75,0.5,7.09-0.2l0.05,0.26c0.35,0.12,0.44-0.06,0.81-0.09l-0.01,0.07
						c0.87,0.1,1.91-0.16,2.41-0.04l0.03-0.29c0.51-0.02,0.27,0.22,0.79,0.06l-0.02,0.14l0.61-0.27c-0.06,0.51,1.45,0.04,1.86,0.27
						c0.67-0.09,1.93-0.31,2.94-0.21c0.19,0.26,1.43,0.26,2.21,0.39c1.54-0.06,3.73-0.15,5.69-0.06l-0.04-0.33l0.51-0.02
						c-0.01,0.07,0.06,0.11-0.02,0.14c0.4,0.37,1.18-0.11,1.59,0.12c-0.26-0.3-0.36-0.05-0.65-0.05c-0.42-0.16-0.02-0.47,0.55-0.31
						l-0.01,0.07l0.39-0.17c0.04,0.26,0.39,0.38,0.44,0.63c1.68-0.06,2.83-0.5,4.56-0.38c-0.18,0.29,1.25-0.07,0.9,0.42
						c1.04-0.19-0.17-0.4,0.3-0.75c0.29,0.01,0.6-0.13,0.65,0.06c-0.14,0.12,0.24,0.3,0,0.35l0.7-0.04
						c0.07,0.04-0.09,0.11-0.16,0.14c1.42-0.29,2.51,0.32,3.78,0.04c0.09-0.18-0.5-0.05-0.41-0.23c1.28-0.36,1.13,0.32,2.32,0.07
						l-0.25,0.25c0.39-0.17,0.55-0.38,1.19-0.18c0.11,0.29-0.54,0.24-0.84,0.38c0.44,0.01,1.54-0.06,1.2-0.33
						c0.52-0.1,0.71,0.16,0.99,0.24c0.01-0.07-0.49-0.19-0.18-0.33c0.71,0.16,1.81,0.16,2.67,0.18c-0.01,0.07,0.05,0.18-0.02,0.22
						C108.3,15.99,108.22,16.64,109.18,16.56z"/>
					<path class="st0" d="M155.46,15.07l-0.35-0.04c0,0.06-0.02,0.14-0.18,0.21L155.46,15.07z"/>
					<path class="st0" d="M138.84,14.88c-0.04,0.02-0.09,0.04-0.13,0.08C138.8,14.95,138.83,14.92,138.84,14.88z"/>
					<path class="st0" d="M134.81,15.39c0.29-0.06,0.03-0.14-0.11-0.22C134.69,15.24,134.7,15.31,134.81,15.39z"/>
					<path class="st0" d="M164.87,14.3c-0.06,0.03-0.1,0.07-0.09,0.13C164.86,14.37,164.88,14.33,164.87,14.3z"/>
					<path class="st0" d="M190.89,14.51c-0.03-0.01-0.06-0.02-0.1-0.04C190.8,14.49,190.84,14.5,190.89,14.51z"/>
					<path class="st0" d="M189.44,14.05c-0.07,0-0.16,0.01-0.29,0.04C189.28,14.11,189.37,14.09,189.44,14.05z"/>
					<path class="st0" d="M158.57,14.4c-0.1,0.01-0.19,0.03-0.27,0.09C158.44,14.49,158.52,14.45,158.57,14.4z"/>
					<path class="st0" d="M188.85,14.16l-0.36-0.03c0,0.02-0.01,0.03-0.01,0.06L188.85,14.16z"/>
					<path class="st0" d="M191.34,14.55c-0.14-0.01-0.33-0.01-0.46-0.04C191.07,14.59,191.21,14.59,191.34,14.55z"/>
					<path class="st0" d="M174.42,13.93c-0.01,0-0.02,0-0.04,0.01C174.1,14.06,174.28,14.01,174.42,13.93z"/>
					<path class="st0" d="M187.26,14.66c-0.01,0-0.03-0.01-0.05-0.01l-0.11,0.08L187.26,14.66z"/>
					<path class="st0" d="M192.91,14.66c-0.07,0.01-0.13,0.02-0.18,0.05c0.06,0.01,0.12,0.02,0.21,0.03
						C192.92,14.71,192.91,14.68,192.91,14.66z"/>
					<path class="st0" d="M179.87,14.38c0.1-0.11,0.14-0.18,0.14-0.24C179.89,14.14,179.81,14.19,179.87,14.38z"/>
				</g>
			</g>
		</g>
	</g>
</g>
</svg>
