<svg width="1512" height="47" viewBox="0 0 1512 47" fill="none" xmlns="http://www.w3.org/2000/svg">
<rect width="1513" height="47" fill="#A5DBD6"/>
<path d="M174.858 30.216C176.928 30.216 178.818 29.172 179.736 27.408L178.242 26.544C177.558 27.75 176.334 28.488 174.786 28.488C172.428 28.488 170.61 26.526 170.61 23.952C170.61 21.414 172.446 19.47 174.786 19.47C176.334 19.47 177.54 20.208 178.242 21.414L179.736 20.55C178.818 18.786 176.928 17.724 174.858 17.724C171.456 17.724 168.72 20.478 168.72 23.952C168.72 27.462 171.456 30.216 174.858 30.216ZM184.934 30.216C186.374 30.216 187.544 29.532 188.21 28.452V30H189.902V25.572C189.902 22.944 187.868 20.964 185.204 20.964C182.522 20.964 180.506 23.052 180.506 25.572C180.506 28.128 182.378 30.216 184.934 30.216ZM185.204 28.524C183.566 28.524 182.288 27.192 182.288 25.59C182.288 23.97 183.566 22.638 185.204 22.638C186.86 22.638 188.12 23.97 188.12 25.59C188.12 27.192 186.86 28.524 185.204 28.524ZM196.109 30.234C196.757 30.234 197.459 30.036 197.909 29.73V28.092C197.477 28.398 196.847 28.614 196.271 28.614C195.209 28.614 194.525 27.93 194.525 26.778V22.728H197.909V21.18H194.525V18.894H192.743V21.18H190.997V22.728H192.743V26.832C192.743 28.848 193.913 30.234 196.109 30.234ZM203.785 30.198C205.513 30.198 206.935 29.388 207.709 27.876L206.341 27.174C205.819 28.146 204.847 28.614 203.767 28.614C202.183 28.614 201.031 27.552 200.833 26.04H207.889V25.32C207.889 22.854 206.233 20.928 203.569 20.928C200.923 20.928 199.105 22.998 199.105 25.536C199.105 28.254 201.103 30.198 203.785 30.198ZM200.905 24.888C201.085 23.574 202.057 22.53 203.551 22.53C205.009 22.53 206.035 23.484 206.107 24.888H200.905ZM213.634 34.266C216.442 34.266 218.494 32.268 218.494 29.208V25.572C218.494 22.944 216.46 20.964 213.796 20.964C211.114 20.964 209.098 23.034 209.098 25.554C209.098 28.146 211.078 30.126 213.58 30.126C215.056 30.126 216.136 29.442 216.712 28.524V29.226C216.712 31.296 215.452 32.628 213.598 32.628C212.32 32.628 211.348 32.016 210.826 31.062L209.332 31.872C210.142 33.438 211.726 34.266 213.634 34.266ZM213.778 28.452C212.176 28.452 210.862 27.156 210.862 25.536C210.862 23.916 212.176 22.656 213.778 22.656C215.398 22.656 216.694 23.916 216.694 25.536C216.694 27.156 215.398 28.452 213.778 28.452ZM224.845 30.216C227.491 30.216 229.525 28.128 229.525 25.572C229.525 23.052 227.509 20.964 224.845 20.964C222.199 20.964 220.129 23.034 220.129 25.572C220.129 28.128 222.181 30.216 224.845 30.216ZM224.845 28.524C223.189 28.524 221.911 27.192 221.911 25.59C221.911 23.97 223.189 22.638 224.845 22.638C226.483 22.638 227.743 23.97 227.743 25.59C227.743 27.192 226.483 28.524 224.845 28.524ZM232.937 30V24.816C232.937 23.52 233.657 22.71 234.845 22.71C235.331 22.71 235.835 22.836 236.267 23.088V21.324C235.817 21.108 235.241 21 234.683 21C232.379 21 231.155 22.602 231.155 24.744V30H232.937ZM238.189 19.434C238.837 19.434 239.341 18.912 239.341 18.264C239.341 17.616 238.837 17.076 238.189 17.076C237.541 17.076 237.019 17.616 237.019 18.264C237.019 18.912 237.541 19.434 238.189 19.434ZM237.307 21.18V30H239.089V21.18H237.307ZM245.502 30.216C246.942 30.216 248.112 29.532 248.778 28.452V30H250.47V25.572C250.47 22.944 248.436 20.964 245.772 20.964C243.09 20.964 241.074 23.052 241.074 25.572C241.074 28.128 242.946 30.216 245.502 30.216ZM245.772 28.524C244.134 28.524 242.856 27.192 242.856 25.59C242.856 23.97 244.134 22.638 245.772 22.638C247.428 22.638 248.688 23.97 248.688 25.59C248.688 27.192 247.428 28.524 245.772 28.524ZM255.831 30.198C257.703 30.198 259.323 29.136 259.323 27.462C259.323 24.132 254.265 25.446 254.265 23.646C254.265 22.944 254.985 22.512 255.813 22.512C256.623 22.512 257.343 22.782 257.721 23.556L259.089 22.782C258.531 21.756 257.415 21 255.777 21C253.851 21 252.483 22.134 252.483 23.682C252.483 27.048 257.541 25.644 257.541 27.498C257.541 28.272 256.767 28.686 255.759 28.686C254.787 28.686 254.067 28.362 253.617 27.48L252.249 28.236C252.933 29.55 254.193 30.198 255.831 30.198ZM263.992 32.97H265.81L270.22 17.13H268.384L263.992 32.97ZM277.68 30.018L279.174 19.938C279.21 19.65 279.336 19.524 279.498 19.524C279.66 19.524 279.75 19.632 279.822 19.884L282.288 28.578C282.486 29.262 283.098 29.622 283.746 29.622C284.43 29.622 285.006 29.262 285.204 28.542L287.688 19.902C287.742 19.668 287.85 19.542 288.012 19.542C288.21 19.542 288.282 19.704 288.318 19.956L289.65 30H291.504L289.974 19.38C289.812 18.318 289.074 17.742 288.12 17.742C287.256 17.742 286.482 18.174 286.23 19.128L283.926 27.498C283.872 27.66 283.854 27.714 283.746 27.714C283.656 27.714 283.62 27.66 283.584 27.498L281.262 19.092C280.992 18.138 280.254 17.724 279.39 17.724C278.418 17.724 277.662 18.282 277.5 19.326L275.808 30.018H277.68ZM297.578 30.216C300.224 30.216 302.258 28.128 302.258 25.572C302.258 23.052 300.242 20.964 297.578 20.964C294.932 20.964 292.862 23.034 292.862 25.572C292.862 28.128 294.914 30.216 297.578 30.216ZM297.578 28.524C295.922 28.524 294.644 27.192 294.644 25.59C294.644 23.97 295.922 22.638 297.578 22.638C299.216 22.638 300.476 23.97 300.476 25.59C300.476 27.192 299.216 28.524 297.578 28.524ZM308.586 30.216C311.25 30.216 313.266 28.146 313.266 25.608C313.266 22.926 311.34 20.964 308.658 20.964C307.47 20.964 306.39 21.486 305.67 22.278V17.13H303.888V25.608C303.888 28.218 305.922 30.216 308.586 30.216ZM308.586 28.542C306.93 28.542 305.67 27.21 305.67 25.59C305.67 23.988 306.93 22.656 308.586 22.656C310.224 22.656 311.484 23.988 311.484 25.59C311.484 27.21 310.224 28.542 308.586 28.542ZM316.16 19.434C316.808 19.434 317.312 18.912 317.312 18.264C317.312 17.616 316.808 17.076 316.16 17.076C315.512 17.076 314.99 17.616 314.99 18.264C314.99 18.912 315.512 19.434 316.16 19.434ZM315.278 21.18V30H317.06V21.18H315.278ZM319.875 17.13V30H321.657V17.13H319.875ZM325.442 19.434C326.09 19.434 326.594 18.912 326.594 18.264C326.594 17.616 326.09 17.076 325.442 17.076C324.794 17.076 324.272 17.616 324.272 18.264C324.272 18.912 324.794 19.434 325.442 19.434ZM324.56 21.18V30H326.342V21.18H324.56ZM332.755 30.216C334.195 30.216 335.365 29.532 336.031 28.452V30H337.723V25.572C337.723 22.944 335.689 20.964 333.025 20.964C330.343 20.964 328.327 23.052 328.327 25.572C328.327 28.128 330.199 30.216 332.755 30.216ZM333.025 28.524C331.387 28.524 330.109 27.192 330.109 25.59C330.109 23.97 331.387 22.638 333.025 22.638C334.681 22.638 335.941 23.97 335.941 25.59C335.941 27.192 334.681 28.524 333.025 28.524ZM341.698 30V24.816C341.698 23.52 342.418 22.71 343.606 22.71C344.092 22.71 344.596 22.836 345.028 23.088V21.324C344.578 21.108 344.002 21 343.444 21C341.14 21 339.916 22.602 339.916 24.744V30H341.698ZM346.95 19.434C347.598 19.434 348.102 18.912 348.102 18.264C348.102 17.616 347.598 17.076 346.95 17.076C346.302 17.076 345.78 17.616 345.78 18.264C345.78 18.912 346.302 19.434 346.95 19.434ZM346.068 21.18V30H347.85V21.18H346.068ZM354.551 30.216C357.197 30.216 359.231 28.128 359.231 25.572C359.231 23.052 357.215 20.964 354.551 20.964C351.905 20.964 349.835 23.034 349.835 25.572C349.835 28.128 351.887 30.216 354.551 30.216ZM354.551 28.524C352.895 28.524 351.617 27.192 351.617 25.59C351.617 23.97 352.895 22.638 354.551 22.638C356.189 22.638 357.449 23.97 357.449 25.59C357.449 27.192 356.189 28.524 354.551 28.524ZM368.01 30V24.834H374.4V30H376.236V17.94H374.4V23.142H368.01V17.94H366.174V30H368.01ZM383.125 30.216C385.771 30.216 387.805 28.128 387.805 25.572C387.805 23.052 385.789 20.964 383.125 20.964C380.479 20.964 378.409 23.034 378.409 25.572C378.409 28.128 380.461 30.216 383.125 30.216ZM383.125 28.524C381.469 28.524 380.191 27.192 380.191 25.59C380.191 23.97 381.469 22.638 383.125 22.638C384.763 22.638 386.023 23.97 386.023 25.59C386.023 27.192 384.763 28.524 383.125 28.524ZM393.414 34.266C396.222 34.266 398.274 32.268 398.274 29.208V25.572C398.274 22.944 396.24 20.964 393.576 20.964C390.894 20.964 388.878 23.034 388.878 25.554C388.878 28.146 390.858 30.126 393.36 30.126C394.836 30.126 395.916 29.442 396.492 28.524V29.226C396.492 31.296 395.232 32.628 393.378 32.628C392.1 32.628 391.128 32.016 390.606 31.062L389.112 31.872C389.922 33.438 391.506 34.266 393.414 34.266ZM393.558 28.452C391.956 28.452 390.642 27.156 390.642 25.536C390.642 23.916 391.956 22.656 393.558 22.656C395.178 22.656 396.474 23.916 396.474 25.536C396.474 27.156 395.178 28.452 393.558 28.452ZM404.336 30.216C405.776 30.216 406.946 29.532 407.612 28.452V30H409.304V25.572C409.304 22.944 407.27 20.964 404.606 20.964C401.924 20.964 399.908 23.052 399.908 25.572C399.908 28.128 401.78 30.216 404.336 30.216ZM404.606 28.524C402.968 28.524 401.69 27.192 401.69 25.59C401.69 23.97 402.968 22.638 404.606 22.638C406.262 22.638 407.522 23.97 407.522 25.59C407.522 27.192 406.262 28.524 404.606 28.524ZM413.279 30V24.816C413.279 23.52 413.999 22.71 415.187 22.71C415.673 22.71 416.177 22.836 416.609 23.088V21.324C416.159 21.108 415.583 21 415.025 21C412.721 21 411.497 22.602 411.497 24.744V30H413.279ZM420.172 32.97H421.99L426.4 17.13H424.564L420.172 32.97ZM436.416 30.198C438.846 30.198 440.736 28.722 440.736 26.598C440.736 24.042 438.54 23.448 436.74 23.088C435.282 22.8 434.004 22.512 434.004 21.216C434.004 20.19 434.994 19.47 436.218 19.47C437.55 19.47 438.468 20.082 438.954 21.072L440.484 20.28C439.764 18.624 438.126 17.76 436.29 17.76C434.004 17.76 432.186 19.272 432.186 21.27C432.186 23.826 434.436 24.42 436.254 24.78C437.676 25.05 438.9 25.284 438.9 26.616C438.9 27.804 437.82 28.47 436.416 28.47C434.994 28.47 433.968 27.912 433.5 26.868L431.952 27.624C432.672 29.28 434.382 30.198 436.416 30.198ZM443.863 19.434C444.511 19.434 445.015 18.912 445.015 18.264C445.015 17.616 444.511 17.076 443.863 17.076C443.215 17.076 442.693 17.616 442.693 18.264C442.693 18.912 443.215 19.434 443.863 19.434ZM442.981 21.18V30H444.763V21.18H442.981ZM447.578 17.13V30H449.36V17.13H447.578ZM452.263 17.13V30H454.045V17.13H452.263ZM460.458 30.216C461.898 30.216 463.068 29.532 463.734 28.452V30H465.426V25.572C465.426 22.944 463.392 20.964 460.728 20.964C458.046 20.964 456.03 23.052 456.03 25.572C456.03 28.128 457.902 30.216 460.458 30.216ZM460.728 28.524C459.09 28.524 457.812 27.192 457.812 25.59C457.812 23.97 459.09 22.638 460.728 22.638C462.384 22.638 463.644 23.97 463.644 25.59C463.644 27.192 462.384 28.524 460.728 28.524ZM471.257 30.09C474.227 30.09 475.739 28.416 475.739 25.608V17.94H473.903V25.734C473.903 27.354 473.057 28.308 471.257 28.308V30.09ZM482.448 28.488C480.828 28.488 479.946 27.066 479.946 25.446V21.18H478.164V25.626C478.164 28.182 479.712 30.216 482.448 30.216C485.22 30.216 486.768 28.2 486.768 25.644V21.18H484.986V25.428C484.986 27.066 484.086 28.488 482.448 28.488ZM492.876 34.266C495.684 34.266 497.736 32.268 497.736 29.208V25.572C497.736 22.944 495.702 20.964 493.038 20.964C490.356 20.964 488.34 23.034 488.34 25.554C488.34 28.146 490.32 30.126 492.822 30.126C494.298 30.126 495.378 29.442 495.954 28.524V29.226C495.954 31.296 494.694 32.628 492.84 32.628C491.562 32.628 490.59 32.016 490.068 31.062L488.574 31.872C489.384 33.438 490.968 34.266 492.876 34.266ZM493.02 28.452C491.418 28.452 490.104 27.156 490.104 25.536C490.104 23.916 491.418 22.656 493.02 22.656C494.64 22.656 495.936 23.916 495.936 25.536C495.936 27.156 494.64 28.452 493.02 28.452ZM503.798 30.216C505.238 30.216 506.408 29.532 507.074 28.452V30H508.766V25.572C508.766 22.944 506.732 20.964 504.068 20.964C501.386 20.964 499.37 23.052 499.37 25.572C499.37 28.128 501.242 30.216 503.798 30.216ZM504.068 28.524C502.43 28.524 501.152 27.192 501.152 25.59C501.152 23.97 502.43 22.638 504.068 22.638C505.724 22.638 506.984 23.97 506.984 25.59C506.984 27.192 505.724 28.524 504.068 28.524Z" fill="white"/>
</svg>
