<svg width="21" height="26" viewBox="0 0 21 26" fill="none" xmlns="http://www.w3.org/2000/svg">
<mask id="path-1-inside-1_369_1278" fill="white">
<path d="M2.23973 25.9995C1.77181 25.7761 1.60318 25.4023 1.61179 24.8889C1.63103 23.7047 1.61786 22.52 1.61837 21.3358C1.61837 21.2429 1.61381 21.1479 1.63103 21.0576C1.66952 20.8621 1.7946 20.7366 1.9921 20.7214C2.18909 20.7062 2.32886 20.8118 2.40432 20.9951C2.45091 21.1073 2.44534 21.2272 2.44534 21.3455C2.44534 22.4621 2.44534 23.5788 2.44534 24.6955C2.44534 24.763 2.43875 24.8315 2.44686 24.8986C2.46053 25.0138 2.39267 25.1895 2.58004 25.2027C2.75374 25.2149 2.74412 25.0362 2.7745 24.9224C2.84388 24.6614 2.9006 24.3964 2.96339 24.1333C3.39334 22.3245 3.82379 20.5157 4.25271 18.7064C4.32564 18.3982 4.31956 18.3906 4.00457 18.3896C3.59134 18.388 3.1771 18.4038 2.76438 18.384C2.49851 18.3713 2.42204 18.4754 2.44129 18.7232C2.458 18.942 2.44888 19.1629 2.44281 19.3828C2.4347 19.7038 2.25948 19.9135 2.01286 19.9079C1.77131 19.9028 1.6209 19.7068 1.61786 19.3859C1.61482 19.0985 1.61584 18.8105 1.61685 18.5231C1.61685 18.4165 1.60571 18.3225 1.48974 18.2733C0.792921 17.9767 0.610613 17.3851 0.556428 16.694C0.418178 14.934 0.257139 13.1754 0.108761 11.4164C0.0657163 10.9035 0.0100112 10.3896 0.000389409 9.87473C-0.0193606 8.76264 0.713921 7.84403 1.79561 7.60485C1.97032 7.56626 2.04629 7.46927 2.10959 7.31896C2.80236 5.68434 3.52652 4.06293 4.18638 2.41511C4.70595 1.12072 5.56989 0.278276 6.94935 0H14.0391C15.4191 0.276752 16.282 1.12123 16.8011 2.4146C17.4655 4.06902 18.1917 5.69856 18.889 7.34029C18.9406 7.46216 18.9943 7.56626 19.1417 7.59266C20.2477 7.78969 21.145 8.81952 20.9805 10.3038C20.8361 11.6048 20.748 12.9114 20.6346 14.2159C20.5495 15.1919 20.4751 16.1694 20.3728 17.1434C20.3226 17.6177 20.0669 17.9894 19.6344 18.1981C19.4253 18.2992 19.365 18.4231 19.366 18.6465C19.3741 20.7275 19.362 22.808 19.3766 24.8889C19.3802 25.4013 19.2161 25.7755 18.7487 25.999H18.0904C17.7116 25.8477 17.5034 25.5613 17.4295 25.1662C17.4123 25.0748 17.3875 24.9849 17.3657 24.8945C16.875 22.8308 16.3802 20.7681 15.8996 18.7019C15.8419 18.4535 15.7356 18.3657 15.4884 18.385C15.2454 18.4038 14.9992 18.3936 14.7546 18.387C14.425 18.3789 14.2254 18.2098 14.2341 17.9579C14.2427 17.7111 14.4336 17.5603 14.7521 17.5583C15.216 17.5552 15.6804 17.5583 16.1442 17.5563C16.2263 17.5563 16.3463 17.5852 16.3747 17.4979C16.4425 17.2866 16.4435 17.0561 16.3817 16.8489C16.3336 16.6864 16.1473 16.757 16.0222 16.757C12.3355 16.7534 8.64835 16.7544 4.96169 16.7544C4.92776 16.7544 4.89383 16.7575 4.86041 16.7544C4.65936 16.7341 4.55352 16.8098 4.57783 17.0266C4.58441 17.085 4.57834 17.1449 4.57884 17.2043C4.57986 17.5573 4.57986 17.5583 4.9232 17.5583C7.53881 17.5583 10.1539 17.5583 12.7695 17.5588C12.8708 17.5588 12.9736 17.5527 13.0724 17.569C13.2825 17.603 13.4056 17.7421 13.4208 17.9473C13.436 18.1453 13.323 18.2809 13.1382 18.353C13.0166 18.4002 12.889 18.3901 12.7629 18.3901C10.3499 18.3901 7.93735 18.3946 5.52431 18.3845C5.25743 18.3835 5.14501 18.4561 5.08221 18.7273C4.58745 20.8595 4.07142 22.9867 3.57261 25.1179C3.4774 25.5237 3.30016 25.8421 2.89807 26H2.23973V25.9995ZM10.4846 15.9288C11.9694 15.9288 13.4547 15.9288 14.9395 15.9288C15.5553 15.9288 16.1716 15.9323 16.7874 15.9272C17.2285 15.9237 17.4877 15.7053 17.5409 15.2681C17.59 14.8649 17.5769 14.4576 17.5455 14.0524C17.5232 13.766 17.3743 13.5624 17.1064 13.4532C16.9611 13.3943 16.8071 13.4095 16.6562 13.4095C13.8548 13.4085 11.0538 13.4095 8.25234 13.408C7.83101 13.408 7.64718 13.2826 7.6406 13.0018C7.63401 12.7083 7.82037 12.5788 8.25335 12.5788C10.869 12.5788 13.4846 12.5757 16.1002 12.5833C16.3458 12.5839 16.4177 12.5082 16.4142 12.266C16.4015 11.4626 16.4035 10.6583 16.4111 9.85492C16.4202 8.88756 16.9935 8.04258 17.8787 7.70946C18.0853 7.63176 18.101 7.55712 18.0185 7.36669C17.3115 5.72903 16.6142 4.0873 15.9158 2.44608C15.452 1.35583 14.6139 0.799281 13.4496 0.786078C11.4756 0.764243 9.50064 0.765766 7.52666 0.786078C6.46218 0.796742 5.61243 1.2624 5.1678 2.2521C4.39552 3.97152 3.67996 5.71633 2.93807 7.44946C2.88895 7.56423 2.8925 7.62313 3.0267 7.67645C4.09725 8.09894 4.58492 8.9094 4.57986 10.0454C4.57631 10.8065 4.5834 11.5682 4.57682 12.33C4.5753 12.5138 4.63404 12.5991 4.82395 12.5813C4.92421 12.5722 5.02651 12.5798 5.12779 12.5798C5.54963 12.5803 5.97147 12.5737 6.39331 12.5849C6.64297 12.5915 6.80451 12.7555 6.8111 12.9738C6.81819 13.1978 6.67538 13.3593 6.42623 13.3968C6.33507 13.4106 6.24139 13.409 6.14871 13.409C5.49038 13.4106 4.83255 13.4055 4.17422 13.4121C3.74023 13.4166 3.48905 13.6274 3.446 14.0595C3.41258 14.3947 3.42271 14.7354 3.42777 15.0731C3.43739 15.6733 3.70427 15.9288 4.30893 15.9288C6.36748 15.9293 8.42655 15.9288 10.4851 15.9288H10.4846ZM3.74884 11.0686H3.74782C3.74782 10.6456 3.75491 10.2226 3.7463 9.80008C3.72504 8.73116 2.59068 8.03496 1.63761 8.51636C1.06436 8.8058 0.775703 9.29025 0.825332 9.94227C0.904331 10.9868 0.997511 12.0298 1.08411 13.0739C1.18944 14.3449 1.29123 15.6165 1.40163 16.887C1.44265 17.3597 1.6685 17.5542 2.14959 17.5573C2.48686 17.5598 2.82464 17.5618 3.16191 17.5573C3.83847 17.5481 3.73466 17.6598 3.75238 16.9657C3.75694 16.7808 3.70174 16.6859 3.52298 16.6051C2.9482 16.3457 2.64385 15.8866 2.62967 15.2498C2.62106 14.8776 2.62764 14.5054 2.62815 14.1332C2.62815 13.4527 2.94162 12.9703 3.55944 12.6981C3.71288 12.6306 3.75289 12.5392 3.75086 12.3878C3.74529 11.9481 3.74884 11.5083 3.74884 11.0686ZM18.1967 17.5578C18.416 17.5578 18.6353 17.5598 18.8545 17.5578C19.3179 17.5527 19.5438 17.3587 19.5858 16.8966C19.679 15.8704 19.76 14.8431 19.8481 13.8163C19.9438 12.6971 20.0456 11.5784 20.1363 10.4587C20.1646 10.1063 20.2178 9.74829 20.112 9.39993C19.8977 8.69409 19.2227 8.28937 18.4469 8.39296C17.7779 8.48233 17.2482 9.09931 17.2421 9.81582C17.2345 10.6699 17.2447 11.5246 17.2361 12.3787C17.234 12.5615 17.3059 12.6417 17.467 12.7154C18.0412 12.9784 18.3441 13.437 18.3588 14.0732C18.3679 14.4703 18.3669 14.8685 18.3588 15.2656C18.3476 15.8384 18.0929 16.2984 17.5845 16.5381C17.275 16.6839 17.1991 16.8636 17.2386 17.1592C17.2477 17.2257 17.2431 17.2942 17.2406 17.3618C17.2345 17.5019 17.3009 17.5598 17.4386 17.5578C17.6918 17.5537 17.9445 17.5568 18.1977 17.5578H18.1967ZM18.5421 21.8101C18.5421 20.762 18.538 19.7144 18.5456 18.6663C18.5472 18.4581 18.4778 18.3809 18.2676 18.3865C17.8382 18.3982 17.4082 18.3885 16.9783 18.3901C16.6694 18.3911 16.6618 18.4012 16.7357 18.7105C17.2269 20.7803 17.7187 22.8501 18.2109 24.9199C18.2266 24.9854 18.2433 25.0519 18.2686 25.1139C18.2965 25.1829 18.3537 25.2195 18.4297 25.2058C18.497 25.1936 18.5284 25.1433 18.534 25.0794C18.5401 25.0037 18.5426 24.9275 18.5426 24.8519C18.5431 23.8378 18.5426 22.8237 18.5426 21.8096L18.5421 21.8101Z"/>
</mask>
<path d="M2.23973 25.9995C1.77181 25.7761 1.60318 25.4023 1.61179 24.8889C1.63103 23.7047 1.61786 22.52 1.61837 21.3358C1.61837 21.2429 1.61381 21.1479 1.63103 21.0576C1.66952 20.8621 1.7946 20.7366 1.9921 20.7214C2.18909 20.7062 2.32886 20.8118 2.40432 20.9951C2.45091 21.1073 2.44534 21.2272 2.44534 21.3455C2.44534 22.4621 2.44534 23.5788 2.44534 24.6955C2.44534 24.763 2.43875 24.8315 2.44686 24.8986C2.46053 25.0138 2.39267 25.1895 2.58004 25.2027C2.75374 25.2149 2.74412 25.0362 2.7745 24.9224C2.84388 24.6614 2.9006 24.3964 2.96339 24.1333C3.39334 22.3245 3.82379 20.5157 4.25271 18.7064C4.32564 18.3982 4.31956 18.3906 4.00457 18.3896C3.59134 18.388 3.1771 18.4038 2.76438 18.384C2.49851 18.3713 2.42204 18.4754 2.44129 18.7232C2.458 18.942 2.44888 19.1629 2.44281 19.3828C2.4347 19.7038 2.25948 19.9135 2.01286 19.9079C1.77131 19.9028 1.6209 19.7068 1.61786 19.3859C1.61482 19.0985 1.61584 18.8105 1.61685 18.5231C1.61685 18.4165 1.60571 18.3225 1.48974 18.2733C0.792921 17.9767 0.610613 17.3851 0.556428 16.694C0.418178 14.934 0.257139 13.1754 0.108761 11.4164C0.0657163 10.9035 0.0100112 10.3896 0.000389409 9.87473C-0.0193606 8.76264 0.713921 7.84403 1.79561 7.60485C1.97032 7.56626 2.04629 7.46927 2.10959 7.31896C2.80236 5.68434 3.52652 4.06293 4.18638 2.41511C4.70595 1.12072 5.56989 0.278276 6.94935 0H14.0391C15.4191 0.276752 16.282 1.12123 16.8011 2.4146C17.4655 4.06902 18.1917 5.69856 18.889 7.34029C18.9406 7.46216 18.9943 7.56626 19.1417 7.59266C20.2477 7.78969 21.145 8.81952 20.9805 10.3038C20.8361 11.6048 20.748 12.9114 20.6346 14.2159C20.5495 15.1919 20.4751 16.1694 20.3728 17.1434C20.3226 17.6177 20.0669 17.9894 19.6344 18.1981C19.4253 18.2992 19.365 18.4231 19.366 18.6465C19.3741 20.7275 19.362 22.808 19.3766 24.8889C19.3802 25.4013 19.2161 25.7755 18.7487 25.999H18.0904C17.7116 25.8477 17.5034 25.5613 17.4295 25.1662C17.4123 25.0748 17.3875 24.9849 17.3657 24.8945C16.875 22.8308 16.3802 20.7681 15.8996 18.7019C15.8419 18.4535 15.7356 18.3657 15.4884 18.385C15.2454 18.4038 14.9992 18.3936 14.7546 18.387C14.425 18.3789 14.2254 18.2098 14.2341 17.9579C14.2427 17.7111 14.4336 17.5603 14.7521 17.5583C15.216 17.5552 15.6804 17.5583 16.1442 17.5563C16.2263 17.5563 16.3463 17.5852 16.3747 17.4979C16.4425 17.2866 16.4435 17.0561 16.3817 16.8489C16.3336 16.6864 16.1473 16.757 16.0222 16.757C12.3355 16.7534 8.64835 16.7544 4.96169 16.7544C4.92776 16.7544 4.89383 16.7575 4.86041 16.7544C4.65936 16.7341 4.55352 16.8098 4.57783 17.0266C4.58441 17.085 4.57834 17.1449 4.57884 17.2043C4.57986 17.5573 4.57986 17.5583 4.9232 17.5583C7.53881 17.5583 10.1539 17.5583 12.7695 17.5588C12.8708 17.5588 12.9736 17.5527 13.0724 17.569C13.2825 17.603 13.4056 17.7421 13.4208 17.9473C13.436 18.1453 13.323 18.2809 13.1382 18.353C13.0166 18.4002 12.889 18.3901 12.7629 18.3901C10.3499 18.3901 7.93735 18.3946 5.52431 18.3845C5.25743 18.3835 5.14501 18.4561 5.08221 18.7273C4.58745 20.8595 4.07142 22.9867 3.57261 25.1179C3.4774 25.5237 3.30016 25.8421 2.89807 26H2.23973V25.9995ZM10.4846 15.9288C11.9694 15.9288 13.4547 15.9288 14.9395 15.9288C15.5553 15.9288 16.1716 15.9323 16.7874 15.9272C17.2285 15.9237 17.4877 15.7053 17.5409 15.2681C17.59 14.8649 17.5769 14.4576 17.5455 14.0524C17.5232 13.766 17.3743 13.5624 17.1064 13.4532C16.9611 13.3943 16.8071 13.4095 16.6562 13.4095C13.8548 13.4085 11.0538 13.4095 8.25234 13.408C7.83101 13.408 7.64718 13.2826 7.6406 13.0018C7.63401 12.7083 7.82037 12.5788 8.25335 12.5788C10.869 12.5788 13.4846 12.5757 16.1002 12.5833C16.3458 12.5839 16.4177 12.5082 16.4142 12.266C16.4015 11.4626 16.4035 10.6583 16.4111 9.85492C16.4202 8.88756 16.9935 8.04258 17.8787 7.70946C18.0853 7.63176 18.101 7.55712 18.0185 7.36669C17.3115 5.72903 16.6142 4.0873 15.9158 2.44608C15.452 1.35583 14.6139 0.799281 13.4496 0.786078C11.4756 0.764243 9.50064 0.765766 7.52666 0.786078C6.46218 0.796742 5.61243 1.2624 5.1678 2.2521C4.39552 3.97152 3.67996 5.71633 2.93807 7.44946C2.88895 7.56423 2.8925 7.62313 3.0267 7.67645C4.09725 8.09894 4.58492 8.9094 4.57986 10.0454C4.57631 10.8065 4.5834 11.5682 4.57682 12.33C4.5753 12.5138 4.63404 12.5991 4.82395 12.5813C4.92421 12.5722 5.02651 12.5798 5.12779 12.5798C5.54963 12.5803 5.97147 12.5737 6.39331 12.5849C6.64297 12.5915 6.80451 12.7555 6.8111 12.9738C6.81819 13.1978 6.67538 13.3593 6.42623 13.3968C6.33507 13.4106 6.24139 13.409 6.14871 13.409C5.49038 13.4106 4.83255 13.4055 4.17422 13.4121C3.74023 13.4166 3.48905 13.6274 3.446 14.0595C3.41258 14.3947 3.42271 14.7354 3.42777 15.0731C3.43739 15.6733 3.70427 15.9288 4.30893 15.9288C6.36748 15.9293 8.42655 15.9288 10.4851 15.9288H10.4846ZM3.74884 11.0686H3.74782C3.74782 10.6456 3.75491 10.2226 3.7463 9.80008C3.72504 8.73116 2.59068 8.03496 1.63761 8.51636C1.06436 8.8058 0.775703 9.29025 0.825332 9.94227C0.904331 10.9868 0.997511 12.0298 1.08411 13.0739C1.18944 14.3449 1.29123 15.6165 1.40163 16.887C1.44265 17.3597 1.6685 17.5542 2.14959 17.5573C2.48686 17.5598 2.82464 17.5618 3.16191 17.5573C3.83847 17.5481 3.73466 17.6598 3.75238 16.9657C3.75694 16.7808 3.70174 16.6859 3.52298 16.6051C2.9482 16.3457 2.64385 15.8866 2.62967 15.2498C2.62106 14.8776 2.62764 14.5054 2.62815 14.1332C2.62815 13.4527 2.94162 12.9703 3.55944 12.6981C3.71288 12.6306 3.75289 12.5392 3.75086 12.3878C3.74529 11.9481 3.74884 11.5083 3.74884 11.0686ZM18.1967 17.5578C18.416 17.5578 18.6353 17.5598 18.8545 17.5578C19.3179 17.5527 19.5438 17.3587 19.5858 16.8966C19.679 15.8704 19.76 14.8431 19.8481 13.8163C19.9438 12.6971 20.0456 11.5784 20.1363 10.4587C20.1646 10.1063 20.2178 9.74829 20.112 9.39993C19.8977 8.69409 19.2227 8.28937 18.4469 8.39296C17.7779 8.48233 17.2482 9.09931 17.2421 9.81582C17.2345 10.6699 17.2447 11.5246 17.2361 12.3787C17.234 12.5615 17.3059 12.6417 17.467 12.7154C18.0412 12.9784 18.3441 13.437 18.3588 14.0732C18.3679 14.4703 18.3669 14.8685 18.3588 15.2656C18.3476 15.8384 18.0929 16.2984 17.5845 16.5381C17.275 16.6839 17.1991 16.8636 17.2386 17.1592C17.2477 17.2257 17.2431 17.2942 17.2406 17.3618C17.2345 17.5019 17.3009 17.5598 17.4386 17.5578C17.6918 17.5537 17.9445 17.5568 18.1977 17.5578H18.1967ZM18.5421 21.8101C18.5421 20.762 18.538 19.7144 18.5456 18.6663C18.5472 18.4581 18.4778 18.3809 18.2676 18.3865C17.8382 18.3982 17.4082 18.3885 16.9783 18.3901C16.6694 18.3911 16.6618 18.4012 16.7357 18.7105C17.2269 20.7803 17.7187 22.8501 18.2109 24.9199C18.2266 24.9854 18.2433 25.0519 18.2686 25.1139C18.2965 25.1829 18.3537 25.2195 18.4297 25.2058C18.497 25.1936 18.5284 25.1433 18.534 25.0794C18.5401 25.0037 18.5426 24.9275 18.5426 24.8519C18.5431 23.8378 18.5426 22.8237 18.5426 21.8096L18.5421 21.8101Z" fill="#D9D9D9" stroke="#BBBBBB" stroke-width="2" mask="url(#path-1-inside-1_369_1278)"/>
</svg>
