<svg width="27" height="24" viewBox="0 0 27 24" fill="none" xmlns="http://www.w3.org/2000/svg">
<path d="M26.9995 11.9969C26.798 12.4449 26.4421 12.65 25.9501 12.6169C25.7049 12.6004 25.6353 12.6939 25.6363 12.9285C25.6437 15.1157 25.6405 17.3029 25.6405 19.4902C25.6405 19.5765 25.6432 19.6628 25.639 19.7485C25.6247 20.0301 25.4576 20.2146 25.2166 20.2187C24.9782 20.2229 24.7973 20.042 24.7826 19.7583C24.7689 19.5005 24.7773 19.2416 24.7768 18.9833C24.7768 18.5045 24.5331 18.2651 24.0459 18.2651C22.139 18.2651 20.2317 18.2702 18.3248 18.2594C18.0533 18.2578 17.9831 18.34 17.9852 18.5973C17.9968 20.0095 17.9947 21.4216 17.9868 22.8338C17.9858 23.0617 18.0443 23.1505 18.2964 23.1495C20.353 23.1407 22.4096 23.1412 24.4656 23.1495C24.7082 23.1505 24.7915 23.0777 24.7815 22.84C24.7652 22.4705 24.7736 22.0995 24.7789 21.7296C24.7836 21.4139 24.9545 21.2062 25.2018 21.201C25.4634 21.1953 25.6363 21.4015 25.64 21.7384C25.6442 22.1776 25.6463 22.6168 25.64 23.056C25.6316 23.6104 25.2619 23.9881 24.695 23.9902C22.4892 23.9974 20.2834 23.9974 18.0775 23.9902C17.4779 23.9881 17.1283 23.6047 17.1278 22.9852C17.1267 19.67 17.1273 16.3543 17.1273 13.0391C17.1273 12.76 16.9826 12.6204 16.6933 12.62C15.7177 12.62 14.7421 12.6257 13.7666 12.6159C13.5498 12.6138 13.4533 12.6831 13.409 12.8918C13.2809 13.4984 13.1127 14.0973 12.9993 14.706C12.8153 15.6934 11.962 16.4261 10.9026 16.3589C10.7608 16.3501 10.5836 16.2928 10.5509 16.546C10.5045 16.9004 10.4934 16.902 10.8699 16.9066C11.2475 16.9113 11.6251 16.888 12.0016 16.9418C12.7683 17.0518 13.4127 17.7845 13.3937 18.5327C13.38 19.0701 12.9508 19.4974 12.3976 19.5026C11.5454 19.5103 10.6927 19.5108 9.84004 19.5015C9.62331 19.499 9.54684 19.5666 9.55001 19.7816C9.56056 20.4445 9.56266 21.108 9.54895 21.7709C9.54421 22.0045 9.63175 22.0654 9.85639 22.0608C10.206 22.0536 10.5593 22.0231 10.9058 22.1119C11.5808 22.2856 12.0828 22.6726 12.4045 23.2807C12.4567 23.3799 12.5089 23.4848 12.492 23.6001C12.4662 23.7752 12.3712 23.9008 12.1925 23.9581C12.0206 24.0134 11.8771 23.9581 11.7648 23.8357C11.6957 23.7602 11.652 23.6626 11.5966 23.5747C11.3282 23.1474 10.9464 22.9025 10.427 22.8999C9.55686 22.8948 8.68676 22.8937 7.81666 22.901C7.28617 22.9051 6.90121 23.1619 6.63755 23.6037C6.60643 23.6559 6.58323 23.7122 6.55054 23.7628C6.42028 23.9633 6.20408 24.032 6.0058 23.938C5.79328 23.8367 5.71155 23.6223 5.79909 23.3934C6.07435 22.6736 6.91809 22.0846 7.71753 22.0592C7.97223 22.0515 8.22746 22.052 8.48216 22.0567C8.62665 22.0592 8.6894 22.0024 8.68887 21.8588C8.68624 21.1442 8.6836 20.429 8.69045 19.7144C8.69256 19.5072 8.56811 19.5036 8.41519 19.5041C7.58886 19.5062 6.76305 19.5062 5.93672 19.5046C5.1009 19.5036 4.65214 18.9197 4.8752 18.1255C5.08455 17.3794 5.70997 16.9273 6.56846 16.9071C6.84953 16.9004 7.13113 16.9071 7.4122 16.9046C7.54298 16.9035 7.70645 16.9211 7.67323 16.718C7.64686 16.5573 7.69432 16.3326 7.39321 16.3517C7.19336 16.3641 6.98453 16.3656 6.78995 16.3243C5.98734 16.1533 5.46423 15.6712 5.25751 14.893C5.08244 14.2358 4.93584 13.5708 4.79399 12.9052C4.75022 12.7011 4.67217 12.6112 4.44858 12.6164C3.69766 12.634 3.79838 12.5363 3.79733 13.2447C3.79416 16.4395 3.79627 19.6343 3.79522 22.8291C3.79522 22.9666 3.79416 23.1056 3.77465 23.241C3.70979 23.6869 3.42661 23.9556 2.96889 23.986C2.68887 24.0046 2.4057 24.0041 2.12568 23.9876C1.61417 23.9571 1.30568 23.6063 1.30568 23.0658C1.3041 20.2931 1.30515 17.52 1.30462 14.7473C1.30462 14.1273 1.29829 13.5072 1.30779 12.8872C1.31095 12.6846 1.23818 12.6056 1.03252 12.6185C0.565301 12.6474 0.214097 12.4645 0 12.0485V10.5501C0.201441 10.1274 0.536298 9.9538 1.01459 9.96259C1.98963 9.98016 2.9652 9.96259 3.94076 9.97241C4.1517 9.97447 4.2424 9.92332 4.28775 9.70423C4.59307 8.2187 5.7511 7.29379 7.29408 7.28862C8.49798 7.28449 9.70188 7.28449 10.9058 7.28862C12.4735 7.29379 13.6474 8.24919 13.9253 9.75384C13.9554 9.91609 14.0123 9.97086 14.1753 9.97034C15.6075 9.96621 17.0397 9.96621 18.472 9.97034C18.6423 9.97034 18.7309 9.91402 18.7604 9.74557C18.7989 9.52545 18.8443 9.30534 18.907 9.09039C18.9724 8.86613 18.9202 8.78759 18.6671 8.79121C17.7005 8.80361 16.7339 8.79638 15.7673 8.79638C15.6792 8.79638 15.5917 8.79845 15.5036 8.79483C14.816 8.76693 14.4036 8.37268 14.3957 7.70147C14.3841 6.7373 14.3899 5.7726 14.3946 4.80843C14.3962 4.49065 14.5259 4.31755 14.7553 4.28448C15.0322 4.2447 15.2447 4.4209 15.251 4.71852C15.2605 5.17477 15.2631 5.63154 15.251 6.08728C15.2457 6.29448 15.3248 6.35028 15.5279 6.35028C18.9898 6.34563 22.4523 6.34512 25.9142 6.35132C26.1399 6.35132 26.1948 6.27278 26.1937 6.06609C26.1868 4.44725 26.1905 2.82892 26.189 1.21007C26.189 0.892813 26.1441 0.849926 25.824 0.849409C22.4233 0.848376 19.023 0.848376 15.6223 0.849409C15.2874 0.849409 15.2568 0.879895 15.2552 1.20129C15.2531 1.718 15.2568 2.2347 15.2536 2.75089C15.2515 3.07849 15.0976 3.26864 14.8381 3.2769C14.5813 3.28465 14.4009 3.09244 14.3962 2.77208C14.3878 2.19543 14.3777 1.61775 14.3994 1.04162C14.4236 0.396256 14.8434 0.00355796 15.501 0.00304125C18.9803 -0.00160913 22.4602 0.000457707 25.9395 0.000457707C26.4442 0.000457707 26.7801 0.253128 26.9995 0.680962V8.06989C26.787 8.59538 26.3762 8.80155 25.8182 8.79793C24.7994 8.79121 23.7806 8.8 22.7618 8.79328C22.5419 8.79173 22.4502 8.84237 22.5245 9.0754C22.5867 9.27175 22.6284 9.47637 22.6548 9.68047C22.6838 9.90317 22.7887 9.97551 23.0192 9.97292C24.0026 9.96156 24.9866 9.97964 25.9701 9.96311C26.4716 9.95484 26.8139 10.1445 27 10.6012V11.9964L26.9995 11.9969ZM9.10652 8.13499V8.13603C8.43892 8.13603 7.77131 8.12621 7.10371 8.13809C5.87766 8.15979 4.89049 9.2919 5.12621 10.4679C5.41044 11.8847 5.7511 13.2912 6.08279 14.6987C6.20461 15.2154 6.63438 15.5337 7.20918 15.5394C8.46528 15.5513 9.72139 15.5513 10.9775 15.5394C11.5829 15.5343 12.0021 15.2061 12.1366 14.6362C12.4567 13.2788 12.7799 11.9219 13.0652 10.5578C13.3284 9.29707 12.347 8.14946 11.0302 8.13603C10.389 8.12931 9.74776 8.13499 9.10652 8.13499ZM21.385 17.4254C22.4038 17.4254 23.4231 17.4197 24.4419 17.4295C24.6855 17.4321 24.7831 17.3675 24.781 17.1112C24.7704 15.7172 24.7715 14.3226 24.7805 12.9285C24.782 12.6929 24.7066 12.6154 24.4646 12.6164C22.409 12.6236 20.3535 12.6242 18.2985 12.6164C18.0512 12.6154 17.9847 12.7017 17.9863 12.9326C17.9947 14.3184 17.9963 15.7042 17.9852 17.0895C17.9831 17.3474 18.0601 17.4347 18.3285 17.4311C19.3473 17.4182 20.3661 17.4259 21.3855 17.4259L21.385 17.4254ZM19.8799 11.7757C21.7773 11.7757 23.6752 11.7783 25.5725 11.7742C26.2248 11.7731 26.142 11.8641 26.1473 11.2146C26.1505 10.8146 26.1473 10.8141 25.7471 10.8141C22.0225 10.8141 18.2974 10.811 14.5729 10.8162C13.7302 10.8172 13.9511 10.6911 13.7302 11.49C13.6658 11.723 13.7344 11.7814 13.977 11.7804C15.9445 11.7716 17.9125 11.7752 19.8805 11.7752L19.8799 11.7757ZM20.7342 7.15841C19.0562 7.15841 17.3783 7.15841 15.7003 7.15841C15.3987 7.15841 15.25 7.30878 15.2542 7.6095C15.2542 7.61829 15.2552 7.62655 15.2542 7.63534C15.2326 7.86992 15.3433 7.95414 15.5801 7.95363C19.0062 7.94949 22.4328 7.95156 25.8589 7.95001C26.1684 7.95001 26.1774 7.90712 26.1953 7.4519C26.2048 7.19975 26.1041 7.15325 25.8736 7.15428C24.1603 7.16203 22.4475 7.15841 20.7342 7.15841ZM2.16734 17.8615C2.16734 19.5145 2.16734 21.1669 2.16734 22.8198C2.16734 23.1459 2.16945 23.1459 2.56284 23.1459C2.93408 23.1459 2.93567 23.1459 2.93567 22.8281C2.93619 21.3994 2.93567 19.9702 2.93567 18.541C2.93567 16.6731 2.93567 14.8052 2.93461 12.9373C2.93461 12.8453 2.97627 12.7172 2.88715 12.6701C2.69415 12.5689 2.47214 12.6009 2.27123 12.6428C2.11355 12.6758 2.16945 12.8427 2.16945 12.9548C2.16629 14.5902 2.16734 16.2261 2.16734 17.8615ZM9.06908 18.6619C10.1222 18.6619 11.1753 18.6634 12.2283 18.6609C12.5284 18.6598 12.5885 18.5704 12.492 18.2945C12.3797 17.9716 12.1018 17.7545 11.7358 17.753C9.98084 17.7463 8.22587 17.7463 6.47038 17.753C6.11232 17.754 5.85551 17.9375 5.72104 18.2666C5.59764 18.5684 5.6604 18.6609 5.9884 18.6614C7.01512 18.6634 8.04183 18.6624 9.06855 18.6619H9.06908ZM2.65987 11.7752C3.20408 11.7752 3.74776 11.7721 4.29197 11.7773C4.46493 11.7788 4.53718 11.7349 4.48022 11.5515C4.42644 11.3794 4.39374 11.2006 4.35999 11.0234C4.33046 10.8689 4.24292 10.8121 4.08472 10.8126C3.07594 10.8162 2.06662 10.8167 1.05783 10.8126C0.882229 10.8121 0.796273 10.8663 0.807875 11.0503C0.818421 11.213 0.818421 11.3773 0.807875 11.5401C0.795746 11.722 0.874846 11.7809 1.05467 11.7783C1.58991 11.7711 2.12515 11.7757 2.6604 11.7757L2.65987 11.7752ZM20.7126 9.96776C21.0195 9.96776 21.3264 9.96311 21.6328 9.96982C21.7757 9.97292 21.8516 9.94192 21.8131 9.78123C21.7493 9.51409 21.6913 9.2454 21.6339 8.97671C21.6059 8.84495 21.5268 8.79431 21.3918 8.79535C20.9446 8.79896 20.498 8.79845 20.0508 8.79535C19.9079 8.79431 19.8198 8.8434 19.7913 8.99066C19.7407 9.25212 19.6869 9.51305 19.6231 9.77141C19.5846 9.9259 19.6421 9.97189 19.7924 9.96879C20.0993 9.96311 20.4062 9.96724 20.7126 9.96724V9.96776ZM9.10178 16.3558C8.96994 16.3558 8.83811 16.3615 8.7068 16.3543C8.53806 16.3455 8.49534 16.4271 8.50852 16.5765C8.52751 16.7919 8.59343 16.9366 8.8592 16.9082C9.03269 16.8896 9.21041 16.8953 9.38495 16.9066C9.65231 16.9237 9.67657 16.7583 9.68922 16.5604C9.70504 16.3191 9.5363 16.3579 9.39075 16.3553C9.29425 16.3538 9.19775 16.3553 9.10125 16.3553L9.10178 16.3558Z" fill="#BBBBBB"/>
<path d="M21.3828 20.3014C21.6022 20.3014 21.8221 20.2931 22.041 20.3034C22.2809 20.3148 22.4507 20.477 22.4649 20.6853C22.4786 20.8883 22.3262 21.0873 22.0916 21.1126C21.6201 21.1632 21.145 21.1632 20.6741 21.1126C20.4394 21.0873 20.287 20.8883 20.3008 20.6853C20.315 20.477 20.4848 20.3153 20.7247 20.304C20.9436 20.2936 21.1635 20.3019 21.3828 20.3019V20.3014Z" fill="#BBBBBB"/>
<path d="M21.3702 15.467C21.1593 15.467 20.9478 15.4763 20.7379 15.465C20.4811 15.451 20.3113 15.2862 20.3018 15.064C20.2928 14.8511 20.4605 14.6481 20.711 14.6372C21.1582 14.6181 21.607 14.6181 22.0541 14.6372C22.3041 14.6475 22.4723 14.8501 22.4639 15.0635C22.4554 15.2852 22.2856 15.4515 22.0288 15.465C21.81 15.4769 21.5896 15.4676 21.3702 15.4676V15.467Z" fill="#BBBBBB"/>
</svg>
