<svg width="24" height="26" viewBox="0 0 24 26" fill="none" xmlns="http://www.w3.org/2000/svg">
<path d="M11.8016 0.0752248C11.934 0.0752248 12.066 0.0752248 12.1984 0.0752248C12.2772 0.120663 12.3536 0.170644 12.4349 0.210528C16.1306 2.02804 19.8268 3.84555 23.5244 5.65852C23.7788 5.78322 23.9256 5.9367 23.9251 6.25072C23.9187 10.7501 23.9192 15.2494 23.9246 19.7483C23.9246 20.0325 23.8125 20.1991 23.569 20.3188C20.652 21.748 17.7359 23.1793 14.8218 24.6152C13.945 25.0473 13.0563 25.4542 12.1979 25.9238H11.8011C11.6707 25.8521 11.5428 25.7743 11.4093 25.7087C7.75782 23.9129 4.10679 22.1171 0.452783 20.3273C0.189445 20.1986 0.0729016 20.0264 0.0733975 19.722C0.0798446 15.2398 0.0798446 10.7576 0.0733975 6.27546C0.0733975 5.97103 0.189445 5.79938 0.452783 5.67013C4.1301 3.87029 7.80345 2.06338 11.4768 0.256471C11.5879 0.201946 11.6935 0.135808 11.8016 0.0752248ZM1.45952 6.14218C1.52647 6.17853 1.58301 6.21134 1.64202 6.24012C4.12712 7.46139 6.61272 8.68165 9.09832 9.90291C9.20246 9.9539 9.30958 10.0019 9.40679 10.0645C9.5997 10.1892 9.66219 10.3997 9.57342 10.588C9.48465 10.7768 9.28231 10.8601 9.06955 10.7889C8.98376 10.7602 8.90193 10.7178 8.8201 10.6779C6.26805 9.42329 3.716 8.16769 1.16444 6.9126C0.963756 6.81398 0.863247 6.87777 0.862917 7.10394C0.862917 11.1595 0.864901 15.2146 0.857462 19.2702C0.857462 19.5256 0.935322 19.6584 1.16345 19.77C4.55957 21.4305 7.95123 23.1006 11.3439 24.7681C11.579 24.8837 11.5869 24.8777 11.5914 24.6131C11.5918 24.5712 11.5914 24.5288 11.5914 24.4869C11.5914 20.4818 11.5914 16.4773 11.5914 12.4722C11.5914 12.3964 11.5869 12.3207 11.5914 12.245C11.5993 12.1011 11.5393 12.0087 11.4098 11.9481C11.1698 11.8355 10.9318 11.7174 10.6967 11.5947C10.4393 11.4604 10.3525 11.2605 10.4477 11.0434C10.5479 10.8147 10.7706 10.741 11.0349 10.8606C11.269 10.9667 11.5036 11.0737 11.7262 11.2014C11.9206 11.313 12.0908 11.2999 12.2842 11.1974C12.6576 10.999 13.0405 10.8187 13.4198 10.6324C13.8146 10.4391 14.2069 10.2412 14.6061 10.0584C14.8238 9.95895 15.0336 10.0417 15.1338 10.2392C15.234 10.4371 15.168 10.6456 14.9582 10.7773C14.8883 10.8213 14.8119 10.8551 14.7375 10.8919C14.0462 11.2332 13.3569 11.5791 12.6616 11.9118C12.481 11.9981 12.4057 12.1082 12.4057 12.3167C12.4106 16.4141 12.4091 20.5116 12.4096 24.6091C12.4096 24.8792 12.421 24.8858 12.6521 24.7722C16.0602 23.0975 19.4677 21.4214 22.8767 19.7493C23.0503 19.664 23.1425 19.5665 23.142 19.3509C23.1361 15.2449 23.1371 11.1393 23.1401 7.03326C23.1401 6.83384 23.1078 6.77477 22.9065 6.87575C21.9578 7.35133 21.0066 7.82237 20.0484 8.27725C19.8163 8.38731 19.7464 8.52867 19.7484 8.78161C19.7603 10.1362 19.7514 11.4907 19.7558 12.8453C19.7568 13.0881 19.6834 13.2693 19.4608 13.3779C18.5745 13.8111 17.6913 14.2513 16.8021 14.6784C16.4658 14.84 16.2085 14.6809 16.1678 14.3068C16.1559 14.1988 16.1599 14.0882 16.1599 13.9792C16.1594 12.6837 16.1564 11.3877 16.1628 10.0922C16.1638 9.88928 16.0989 9.77316 15.9144 9.68279C12.3625 7.94353 8.81316 6.19973 5.26578 4.45038C5.09022 4.36405 4.94937 4.36808 4.77828 4.4529C3.72393 4.97695 2.66562 5.49191 1.60929 6.01142C1.5592 6.03616 1.49671 6.04827 1.45952 6.14016V6.14218ZM22.5484 6.13864C22.482 6.03464 22.3967 6.01647 22.3243 5.98062C18.9698 4.33073 15.6143 2.68335 12.2618 1.02992C12.0813 0.941067 11.9335 0.932989 11.7515 1.02538C10.9228 1.44391 10.0877 1.84881 9.25602 2.26129C9.1861 2.29612 9.09485 2.30622 9.06063 2.3971C9.09832 2.46374 9.16626 2.47939 9.22379 2.50766C12.608 4.17169 15.9932 5.83371 19.376 7.50077C19.5347 7.57902 19.6651 7.57145 19.8188 7.49471C20.6718 7.06911 21.5288 6.65159 22.3838 6.23053C22.4348 6.20529 22.4834 6.1755 22.5484 6.13915V6.13864ZM5.98686 3.88291C6.08505 3.94046 6.13167 3.97278 6.18176 3.99701C9.57292 5.66407 12.9651 7.32962 16.3548 9.00021C16.5065 9.07493 16.6295 9.06433 16.7738 8.99113C17.2916 8.72961 17.8148 8.47869 18.3335 8.21919C18.4188 8.17628 18.5616 8.16315 18.5661 8.05965C18.5711 7.94757 18.4253 7.93798 18.3414 7.89658C16.7287 7.10142 15.1139 6.30979 13.4997 5.51665C11.7818 4.67201 10.0644 3.82586 8.34599 2.98274C8.23044 2.92619 8.11638 2.83532 7.97355 2.90549C7.32785 3.22305 6.68265 3.54061 5.98636 3.88291H5.98686ZM16.9752 11.7174C16.9752 12.2889 16.9796 12.8609 16.9727 13.4324C16.9702 13.6243 17.0183 13.6763 17.1998 13.5849C17.7176 13.3234 18.2393 13.0704 18.7615 12.818C18.8904 12.7559 18.942 12.6605 18.942 12.5191C18.9405 11.367 18.941 10.2154 18.943 9.06332C18.943 8.90227 18.8979 8.84522 18.7377 8.92549C18.212 9.18954 17.6848 9.45005 17.1547 9.705C17.0124 9.77367 16.9727 9.87716 16.9737 10.0271C16.9786 10.5905 16.9757 11.154 16.9752 11.7169V11.7174Z" fill="#BBBBBB"/>
<path d="M12.2172 26H11.7828L11.7664 25.9909C11.7248 25.9677 11.6831 25.9445 11.6419 25.9207C11.5561 25.8718 11.4669 25.8213 11.3781 25.7774L10.7899 25.4881C7.39282 23.8175 3.87965 22.0898 0.42154 20.396C0.12547 20.2516 0 20.0502 0 19.723C0.00644708 15.256 0.00644708 10.7319 0 6.27647C0 5.94932 0.12547 5.74788 0.42154 5.60298C3.85139 3.92279 7.33628 2.20878 10.7061 0.551817L11.4446 0.188819C11.5185 0.152469 11.5918 0.11006 11.6628 0.0686615C11.697 0.0489718 11.7312 0.0287773 11.7659 0.00959242L11.7828 0H12.2182L12.2351 0.00959242C12.2604 0.0242335 12.2857 0.0393794 12.3109 0.0545253C12.3645 0.0863318 12.4146 0.116624 12.4672 0.142877L13.1094 0.458417C16.5328 2.14214 20.0732 3.88291 23.5571 5.59087C23.7763 5.6984 24.0005 5.86097 24 6.25123C23.9936 10.5209 23.9935 14.9359 23.9995 19.7488C23.9995 20.0557 23.8775 20.2526 23.6018 20.3874C20.2101 22.0494 17.4304 23.4146 14.8551 24.6838C14.6041 24.8075 14.3482 24.9312 14.1008 25.0504C13.4833 25.3482 12.8451 25.6562 12.2336 25.9909L12.2172 26ZM11.8205 25.8485H12.1795C12.789 25.5153 13.4233 25.2094 14.0368 24.9135C14.2838 24.7944 14.5397 24.6707 14.7901 24.5475C17.366 23.2783 20.1451 21.9126 23.5373 20.2506C23.76 20.1416 23.8507 19.9962 23.8507 19.7488C23.8448 14.9359 23.8453 10.5209 23.8512 6.25072C23.8512 5.99728 23.7545 5.85541 23.4927 5.72667C20.0088 4.01872 16.4683 2.27795 13.0449 0.594225L12.4027 0.278685C12.3447 0.249908 12.2891 0.216587 12.2356 0.18478C12.2167 0.173168 12.1979 0.162061 12.1785 0.150954H11.821C11.7927 0.16711 11.7644 0.183266 11.7367 0.199926C11.6633 0.242335 11.5879 0.286763 11.5095 0.325133L10.7711 0.68813C7.40075 2.3456 3.91586 4.05911 0.486011 5.7393C0.243005 5.85844 0.148283 6.00889 0.148779 6.27597C0.155226 10.7319 0.155226 15.256 0.148779 19.723C0.148779 19.9906 0.243005 20.1411 0.486011 20.2597C3.94413 21.953 7.45729 23.6812 10.8544 25.3518L11.4426 25.641C11.5358 25.687 11.6266 25.7385 11.7143 25.7885C11.7496 25.8087 11.7853 25.8289 11.821 25.8485H11.8205ZM12.4701 24.9181C12.4468 24.9181 12.4255 24.9125 12.4052 24.8994C12.3352 24.8545 12.3352 24.757 12.3352 24.6091V21.385C12.3352 18.4129 12.3352 15.3398 12.3313 12.3172C12.3313 12.0824 12.4176 11.9456 12.6298 11.8436C13.1466 11.5962 13.6688 11.3372 14.1737 11.0873C14.3507 10.9995 14.5278 10.9116 14.7048 10.8243L14.7544 10.8001C14.8124 10.7718 14.8675 10.7455 14.9185 10.7132C15.0946 10.6021 15.1501 10.4381 15.0668 10.274C14.981 10.1044 14.8114 10.0468 14.6359 10.1276C14.3299 10.2674 14.0224 10.4194 13.7248 10.5663C13.6336 10.6112 13.5423 10.6562 13.4511 10.7011C13.3598 10.7455 13.2686 10.79 13.1773 10.8344C12.8937 10.9722 12.6001 11.1151 12.3174 11.265C12.0898 11.3857 11.8959 11.3867 11.6891 11.2681C11.4763 11.1464 11.2531 11.0429 11.0042 10.9303C10.782 10.8298 10.599 10.8839 10.5147 11.0752C10.414 11.3044 10.5762 11.4478 10.7294 11.5281C10.9655 11.6513 11.2045 11.7699 11.4396 11.88C11.5978 11.9542 11.6732 12.0789 11.6643 12.25C11.6618 12.297 11.6628 12.3444 11.6638 12.3944C11.6643 12.4207 11.6648 12.4469 11.6648 12.4732V24.5248C11.6648 24.5551 11.6648 24.5854 11.6648 24.6152C11.6623 24.7651 11.6608 24.8555 11.5923 24.8984C11.5234 24.9413 11.4436 24.9019 11.3107 24.8368L9.08294 23.7412C6.47733 22.4599 3.78295 21.1351 1.13022 19.8386C0.878787 19.716 0.781089 19.5564 0.78208 19.2702C0.788032 16.0002 0.788032 12.6756 0.787536 9.46065V7.10445C0.787536 6.90099 0.787536 6.8086 0.859941 6.76215C0.932347 6.7157 1.01467 6.75609 1.19569 6.84545L1.48233 6.98631C3.93867 8.19445 6.39501 9.40259 8.85134 10.6102L8.8806 10.6249C8.95251 10.6607 9.02046 10.694 9.09137 10.7178C9.26545 10.7763 9.43158 10.7112 9.50448 10.5562C9.57838 10.3992 9.52382 10.2316 9.36513 10.1291C9.29074 10.0811 9.21139 10.0428 9.12659 10.0019C9.10576 9.99177 9.08493 9.98167 9.0641 9.97157L1.60929 6.30828C1.56912 6.28859 1.52945 6.26637 1.48729 6.24315C1.46745 6.23204 1.44663 6.22043 1.4248 6.20882L1.36529 6.17651L1.39108 6.1129C1.43373 6.00738 1.50663 5.97608 1.55474 5.95487C1.56267 5.95134 1.57011 5.94831 1.57705 5.94478C1.92768 5.77211 2.27879 5.60046 2.62942 5.4283C3.32372 5.08802 4.04182 4.73613 4.74604 4.38626C4.94094 4.28933 5.10609 4.28832 5.299 4.38323C8.83895 6.12855 12.4215 7.88901 15.9471 9.61514C16.1549 9.71662 16.2387 9.85545 16.2377 10.0932C16.2328 11.1161 16.2337 12.1566 16.2342 13.1623V14.0453C16.2337 14.1337 16.2333 14.217 16.2422 14.2993C16.2595 14.4593 16.3215 14.5774 16.4162 14.6315C16.5095 14.6845 16.632 14.6774 16.7708 14.6108C17.3486 14.3331 17.9338 14.0448 18.4996 13.7666C18.8091 13.6142 19.1186 13.4617 19.4285 13.3102C19.6066 13.2234 19.6819 13.0846 19.6814 12.8458C19.6795 12.3056 19.68 11.7649 19.68 11.2246C19.68 10.4239 19.681 9.59646 19.6735 8.78262C19.671 8.48828 19.7672 8.32723 20.0167 8.20909C21.0338 7.72594 22.0317 7.22966 22.8737 6.80809C22.9645 6.76266 23.0587 6.72681 23.1326 6.77376C23.2085 6.82172 23.2149 6.92876 23.2149 7.03377C23.211 11.8628 23.2115 15.7765 23.2169 19.3509C23.2169 19.6281 23.0696 19.7392 22.9095 19.8174C20.3832 21.0564 17.8158 22.3185 15.3326 23.5388L12.6849 24.8403C12.5956 24.8843 12.5277 24.9176 12.4706 24.9176L12.4701 24.9181ZM14.7886 9.94078C14.9587 9.94078 15.1129 10.0347 15.1992 10.2043C15.3183 10.4391 15.2389 10.6895 14.9969 10.842C14.9389 10.8783 14.8774 10.9081 14.8184 10.9369L14.7698 10.9606C14.5927 11.0479 14.4157 11.1358 14.2386 11.2236C13.7333 11.474 13.2106 11.7335 12.6928 11.9809C12.5331 12.0572 12.4796 12.142 12.4796 12.3172C12.483 15.3398 12.4835 18.4134 12.4835 21.3855V24.6096C12.4835 24.6525 12.4835 24.7257 12.4895 24.7626C12.5232 24.752 12.5837 24.7222 12.6199 24.7045L15.2677 23.403C17.7508 22.1827 20.3182 20.9206 22.8445 19.6816C23.0136 19.5988 23.0677 19.5186 23.0677 19.3519C23.0627 15.7775 23.0617 11.8633 23.0657 7.03427C23.0657 6.94441 23.0577 6.91411 23.0528 6.90402C23.0453 6.90402 23.0136 6.90755 22.9392 6.94441C22.0966 7.36647 21.0983 7.86326 20.0797 8.34692C19.8828 8.44032 19.8203 8.54584 19.8228 8.78211C19.8297 9.59646 19.8292 10.4249 19.8292 11.2257C19.8292 11.7659 19.8287 12.3061 19.8307 12.8463C19.8317 13.1436 19.7246 13.335 19.4935 13.4476C19.1835 13.599 18.8741 13.7515 18.5646 13.9035C17.9983 14.1821 17.4131 14.4704 16.8343 14.7486C16.6528 14.8359 16.4787 14.8415 16.3438 14.7648C16.206 14.686 16.1172 14.527 16.0944 14.3169C16.0845 14.2256 16.085 14.1342 16.0855 14.0453V13.1633C16.0845 12.1571 16.0835 11.1166 16.0889 10.0932C16.0899 9.91452 16.0379 9.8287 15.8826 9.75246C12.3571 8.02583 8.77398 6.26536 5.23404 4.52005C5.08327 4.44583 4.96475 4.44634 4.8115 4.52257C4.10679 4.87295 3.38868 5.22484 2.69438 5.56512C2.34327 5.73728 1.99264 5.90893 1.64202 6.08159C1.6326 6.08614 1.62268 6.09068 1.61276 6.09472C1.5959 6.10229 1.58152 6.10835 1.56962 6.11643C1.60582 6.13612 1.63954 6.1548 1.67426 6.17196L9.13055 9.83475C9.15089 9.84485 9.17122 9.85444 9.19205 9.86454C9.27685 9.90544 9.36463 9.94784 9.44646 10.0003C9.66963 10.1442 9.74749 10.3936 9.64037 10.6208C9.53523 10.844 9.29074 10.9429 9.04624 10.8606C8.9659 10.8339 8.89003 10.796 8.81663 10.7602L8.78787 10.746C6.33153 9.5384 3.87519 8.33026 1.41885 7.12212L1.13221 6.98126C1.05782 6.94441 0.981444 6.90705 0.944745 6.89695C0.937802 6.93481 0.937802 7.02064 0.937802 7.10394V9.46015C0.937802 12.6751 0.938298 16.0002 0.932347 19.2702C0.932347 19.4989 0.996322 19.6039 1.19618 19.7018C3.84891 20.9988 6.54329 22.3236 9.1489 23.6049L11.3766 24.7005C11.4158 24.7197 11.4763 24.7495 11.51 24.7606C11.5155 24.7252 11.5165 24.6571 11.5175 24.6126C11.5175 24.5834 11.5175 24.5541 11.5175 24.5253V12.4732C11.5175 12.4479 11.5175 12.4227 11.5165 12.3974C11.5155 12.347 11.5145 12.2945 11.5175 12.2419C11.5234 12.1319 11.4832 12.0668 11.3791 12.0178C11.142 11.9062 10.901 11.7871 10.663 11.6629C10.3738 11.5119 10.2677 11.2691 10.3803 11.0136C10.4983 10.7445 10.7676 10.6577 11.0657 10.7925C11.3181 10.9066 11.5447 11.0116 11.7634 11.1363C11.9261 11.2297 12.0674 11.2282 12.2504 11.1312C12.5356 10.9798 12.8302 10.8369 13.1153 10.6981C13.2066 10.6536 13.2973 10.6097 13.3886 10.5648C13.4799 10.5204 13.5706 10.4749 13.6619 10.43C13.9604 10.2826 14.2689 10.1306 14.5768 9.98975C14.6483 9.95693 14.7207 9.94128 14.7906 9.94128L14.7886 9.94078ZM17.0634 13.7045C17.0347 13.7045 17.0069 13.698 16.9816 13.6818C16.9062 13.6339 16.8973 13.5283 16.8983 13.4314C16.9032 13.0215 16.9023 12.6039 16.9013 12.2005C16.9013 12.0395 16.9008 11.8784 16.9008 11.7174C16.9008 11.574 16.9008 11.4301 16.9013 11.2867C16.9018 10.8743 16.9028 10.4477 16.8993 10.0281C16.8983 9.89685 16.9226 9.73328 17.1225 9.63735C17.6184 9.39855 18.1361 9.1441 18.7045 8.85835C18.7679 8.82654 18.8607 8.78969 18.9346 8.83664C19.008 8.88309 19.0174 8.98254 19.0174 9.06383C19.0154 10.2159 19.0154 11.3781 19.0164 12.5191C19.0164 12.6938 18.944 12.8145 18.7937 12.8867C18.3221 13.1144 17.7741 13.3799 17.233 13.6525C17.1815 13.6783 17.121 13.704 17.0634 13.704V13.7045ZM17.0496 11.7174C17.0496 11.8784 17.0495 12.0395 17.05 12.2C17.051 12.6039 17.052 13.022 17.0471 13.4329C17.0461 13.5304 17.06 13.5516 17.0619 13.5541C17.0619 13.5531 17.0862 13.5571 17.1666 13.5167C17.7086 13.2431 18.2576 12.9775 18.7298 12.7493C18.8289 12.7014 18.8676 12.6368 18.8676 12.5186C18.8661 11.3776 18.8666 10.2149 18.8686 9.06282C18.8686 8.98608 18.8567 8.96639 18.8547 8.96336C18.8542 8.96437 18.8314 8.96235 18.7704 8.99315C18.2011 9.2789 17.6833 9.53436 17.1859 9.77316C17.0828 9.82264 17.0466 9.88878 17.0476 10.0261C17.051 10.4461 17.0505 10.8733 17.0496 11.2862C17.0496 11.4296 17.0495 11.573 17.0491 11.7169L17.0496 11.7174ZM16.5531 9.12744C16.4772 9.12744 16.4024 9.10775 16.3225 9.06837C13.7149 7.78349 11.0627 6.47993 8.49725 5.21929L6.14952 4.06517C6.11481 4.048 6.08257 4.02831 6.03843 4.00155C6.01364 3.98641 5.98537 3.96924 5.94966 3.94854L5.82816 3.87685L6.16688 3.71025C6.78282 3.40733 7.36257 3.12208 7.94181 2.83734C8.09505 2.76161 8.22201 2.83077 8.32417 2.8858C8.34252 2.8954 8.36037 2.90549 8.37872 2.91408C9.45935 3.44418 10.5395 3.97581 11.6201 4.50743C12.2574 4.82095 12.8952 5.13497 13.5329 5.44799C14.0631 5.7085 14.5937 5.96901 15.1239 6.22952C16.2075 6.76165 17.2916 7.29377 18.3747 7.82792C18.3915 7.8365 18.4143 7.84408 18.4386 7.85165C18.517 7.8779 18.6479 7.92132 18.6415 8.06218C18.636 8.18991 18.5145 8.23232 18.4342 8.26008C18.4089 8.26867 18.3856 8.27725 18.3672 8.28634C18.1351 8.40246 17.9021 8.51706 17.669 8.63116C17.3858 8.77 17.0937 8.91338 16.8075 9.05827C16.7173 9.10371 16.635 9.12643 16.5536 9.12643L16.5531 9.12744ZM6.14407 3.88998C6.17134 3.90664 6.19267 3.91876 6.21449 3.92936L8.56222 5.08297C11.1272 6.34362 13.7799 7.64718 16.3875 8.93206C16.51 8.99264 16.6092 8.99012 16.7411 8.92347C17.0277 8.77858 17.3208 8.63469 17.604 8.49585C17.8366 8.38175 18.0692 8.26766 18.3013 8.15154C18.3281 8.13791 18.3573 8.12781 18.3856 8.11822C18.4456 8.09752 18.4912 8.07934 18.4922 8.05662C18.4932 8.03592 18.4714 8.0233 18.3915 7.99654C18.3638 7.98746 18.335 7.97786 18.3092 7.96524C17.2261 7.4311 16.1425 6.89897 15.0589 6.36684C14.5287 6.10633 13.9981 5.84582 13.4679 5.58531C12.8302 5.27179 12.1929 4.95827 11.5552 4.64475C10.475 4.11313 9.39488 3.58201 8.31425 3.0514C8.29442 3.04181 8.27458 3.0312 8.25474 3.0201C8.15407 2.96557 8.08811 2.93427 8.00678 2.97415C7.42704 3.2589 6.84779 3.54415 6.23185 3.84706L6.14456 3.88998H6.14407ZM19.5882 7.63203C19.5079 7.63203 19.428 7.61083 19.3427 7.56892C16.7927 6.31232 14.1985 5.03703 11.6895 3.80415L9.19106 2.57582C9.18015 2.57026 9.16874 2.56572 9.15733 2.56067C9.10427 2.53795 9.03831 2.50968 8.99616 2.43496L8.9783 2.40366L8.9912 2.36983C9.02889 2.26936 9.11419 2.23655 9.17667 2.21282C9.19254 2.20676 9.20891 2.2007 9.22379 2.19313C9.52085 2.04571 9.81841 1.8993 10.1155 1.75339C10.6421 1.4944 11.1862 1.22682 11.7188 0.957727C11.9152 0.858774 12.0873 0.859784 12.2951 0.962271C14.6755 2.13608 17.0972 3.32655 19.4389 4.47815C20.4119 4.95625 21.3845 5.43486 22.3575 5.91297C22.3704 5.91953 22.3843 5.92509 22.3976 5.93114C22.4636 5.95942 22.5459 5.99476 22.6114 6.09775L22.655 6.16641L22.5846 6.20579C22.5633 6.21791 22.5435 6.22901 22.5246 6.23962C22.4859 6.26183 22.4522 6.28101 22.416 6.29869C22.1656 6.42187 21.9146 6.54506 21.6642 6.66825C21.0696 6.96006 20.4541 7.26197 19.8516 7.56236C19.7588 7.60881 19.6735 7.63203 19.5892 7.63203H19.5882ZM9.15436 2.39003C9.17023 2.40063 9.19006 2.40972 9.21486 2.42032C9.22875 2.42638 9.24214 2.43193 9.25553 2.43849L11.7545 3.66683C14.2634 4.89971 16.8576 6.17499 19.4077 7.4316C19.5401 7.49673 19.6462 7.49521 19.7856 7.42554C20.3891 7.12464 21.0041 6.82273 21.5992 6.53092C21.8496 6.40774 22.1006 6.28505 22.351 6.16187C22.3768 6.14925 22.4026 6.13511 22.4304 6.11895C22.4026 6.09775 22.3719 6.08462 22.3386 6.06998C22.3228 6.06291 22.3069 6.05635 22.2915 6.04878C21.319 5.57017 20.346 5.09206 19.373 4.61395C17.0312 3.46286 14.6096 2.27189 12.2291 1.09808C12.0635 1.01629 11.9385 1.01478 11.7843 1.09303C11.2511 1.36212 10.7061 1.63021 10.1794 1.8892C9.88188 2.03561 9.58482 2.18152 9.28776 2.32894C9.26892 2.33853 9.24858 2.3461 9.22825 2.35418C9.19552 2.3668 9.17122 2.3769 9.15386 2.39003H9.15436Z" fill="#BBBBBB"/>
<path d="M5.70517 17.4744C5.69971 17.7737 5.41555 17.9575 5.13336 17.8434C4.94987 17.7692 4.77431 17.6743 4.59578 17.5864C3.73435 17.1624 2.87292 16.7378 2.01198 16.3122C1.93809 16.2758 1.86122 16.2379 1.80121 16.1824C1.66533 16.0562 1.62863 15.8967 1.70649 15.7245C1.78832 15.5422 1.9366 15.465 2.13051 15.4978C2.20242 15.5099 2.27384 15.5392 2.33979 15.5715C3.35099 16.0668 4.36071 16.5646 5.3719 17.0594C5.55292 17.1482 5.69525 17.2623 5.70517 17.4744Z" fill="#BBBBBB"/>
<path d="M5.30446 17.9535C5.2385 17.9535 5.17155 17.9403 5.10559 17.9136C4.96623 17.857 4.83035 17.7889 4.69893 17.7222C4.6538 17.6995 4.60867 17.6768 4.56304 17.6541C3.70162 17.23 2.83969 16.8054 1.97925 16.3793C1.90189 16.3409 1.81758 16.2995 1.75113 16.2374C1.58846 16.0865 1.54829 15.8926 1.63855 15.6922C1.73426 15.4796 1.91329 15.3837 2.14241 15.4221C2.21085 15.4337 2.28375 15.4589 2.37203 15.5024C2.87738 15.7497 3.38273 15.9981 3.88808 16.2465C4.39344 16.4949 4.89829 16.7428 5.40414 16.9907C5.57226 17.073 5.76716 17.2017 5.77956 17.4703V17.4754C5.77658 17.6395 5.7012 17.7843 5.57176 17.8717C5.49192 17.9257 5.40017 17.9535 5.30495 17.9535H5.30446ZM2.04769 15.566C1.92272 15.566 1.83097 15.6296 1.77394 15.7558C1.71096 15.8956 1.73724 16.0203 1.8513 16.1264C1.90189 16.1733 1.97281 16.2087 2.04124 16.2425C2.90466 16.6696 3.76609 17.0942 4.62801 17.5183C4.67364 17.541 4.71926 17.5637 4.76489 17.5869C4.89333 17.6521 5.02674 17.7192 5.16064 17.7732C5.27569 17.8197 5.39521 17.8096 5.48894 17.746C5.57623 17.6869 5.6278 17.5885 5.63028 17.4754C5.62235 17.3254 5.53804 17.2245 5.33917 17.1275C4.83382 16.8801 4.32847 16.6317 3.82312 16.3833C3.31777 16.135 2.81291 15.8871 2.30706 15.6392C2.23218 15.6023 2.17167 15.5811 2.11811 15.572C2.09332 15.568 2.07001 15.566 2.04769 15.566Z" fill="#BBBBBB"/>
<path d="M3.71451 18.9213C3.6421 18.894 3.54689 18.8673 3.45861 18.8244C2.96119 18.582 2.46427 18.3382 1.96933 18.0903C1.69161 17.951 1.59788 17.7283 1.71046 17.5036C1.81857 17.2876 2.04075 17.225 2.30607 17.3527C2.84167 17.6107 3.3748 17.8747 3.90594 18.1418C4.10084 18.2397 4.17672 18.4109 4.12365 18.6239C4.07505 18.8193 3.92776 18.9021 3.71401 18.9218L3.71451 18.9213Z" fill="#BBBBBB"/>
<path d="M3.70459 18.998L3.68872 18.992C3.66789 18.9839 3.64458 18.9763 3.62028 18.9677C3.56028 18.947 3.49233 18.9238 3.42637 18.892C3.01723 18.6926 2.47816 18.4291 1.9366 18.1574C1.76799 18.0731 1.65541 17.956 1.61078 17.8197C1.57408 17.7071 1.58549 17.5859 1.64401 17.4683C1.77295 17.2098 2.03876 17.1391 2.33781 17.2835C2.82085 17.5163 3.34455 17.7742 3.93917 18.0731C4.16432 18.1862 4.25805 18.3937 4.19606 18.6421C4.1425 18.8567 3.98727 18.9723 3.72096 18.9965L3.7041 18.998H3.70459ZM2.04868 17.3618C1.92966 17.3618 1.83543 17.4213 1.77691 17.5375C1.73625 17.6187 1.72782 17.698 1.75212 17.7722C1.78386 17.8692 1.87064 17.9555 2.00256 18.0221C2.54312 18.2932 3.0822 18.5568 3.49085 18.7557C3.54837 18.784 3.61185 18.8057 3.66789 18.8244C3.68723 18.8309 3.70608 18.8375 3.72393 18.8441C3.91437 18.8234 4.01603 18.7491 4.05174 18.6047C4.09687 18.4245 4.03686 18.2912 3.87321 18.2094C3.27908 17.9111 2.75637 17.6536 2.27433 17.4208C2.1925 17.3815 2.11663 17.3618 2.04819 17.3618H2.04868Z" fill="#BBBBBB"/>
</svg>
