<svg width="20" height="20" viewBox="0 0 20 20" fill="none" xmlns="http://www.w3.org/2000/svg">
<path d="M9.29216 0.00194791C9.9024 0.095423 10.5076 0.20885 11.0885 0.427479C13.7998 1.44984 15.5742 3.34711 16.3874 6.12711C16.6328 6.96521 16.7306 7.83957 16.6765 8.71117C16.5717 10.4281 16.0283 11.9894 14.9807 13.3654C14.7789 13.6305 14.7754 13.5633 15.0081 13.7956C16.5627 15.3506 18.118 16.9046 19.6742 18.4576C19.8459 18.6289 19.9789 18.8159 19.9969 19.0623C20.0239 19.4283 19.876 19.708 19.5552 19.8883C19.4079 19.9741 19.2375 20.012 19.0676 19.9967C18.8978 19.9813 18.7369 19.9135 18.6074 19.8026C18.5292 19.7369 18.4552 19.6607 18.3817 19.5871C16.8357 18.0422 15.2903 16.4966 13.7454 14.9501C13.6429 14.8473 13.5768 14.8121 13.4426 14.9177C12.3835 15.7605 11.1272 16.3198 9.79209 16.5427C7.3206 16.9632 5.07834 16.4012 3.10561 14.8484C1.59642 13.6603 0.636847 12.1076 0.17799 10.2459C0.103665 9.94394 0.0606333 9.63497 0 9.32951V7.29965C0.00944971 7.2754 0.0169095 7.25042 0.0223001 7.22495C0.24058 5.64917 0.839876 4.23805 1.8546 3.00919C2.89046 1.75412 4.17706 0.864742 5.72731 0.361384C6.24133 0.194381 6.76903 0.0915195 7.29987 0L9.29216 0.00194791ZM8.34706 1.69349C4.65782 1.72087 1.7173 4.62682 1.69696 8.28329C1.67701 12.061 4.68403 14.967 8.32829 14.9599C12.0985 14.9529 14.9639 11.9456 14.9588 8.31849C14.9549 4.58653 11.9745 1.73808 8.34706 1.69349Z" fill="white"/>
</svg>
