<svg width="25" height="30" viewBox="0 0 25 30" fill="none" xmlns="http://www.w3.org/2000/svg">
<path d="M13.7137 27.7582C14.0719 28.5905 13.9555 29.242 13.3992 29.6813C12.8768 30.0936 12.1617 30.1032 11.6291 29.7061C11.0418 29.2679 10.9212 28.6393 11.2727 27.7594C9.89891 27.9137 8.62146 28.2994 7.45186 29.0172C7.35187 29.0787 7.30097 29.1739 7.24219 29.2685C6.85798 29.8862 6.16228 30.1472 5.5181 29.9176C4.87452 29.688 4.46244 29.0256 4.55819 28.3766C4.66121 27.6799 5.21389 27.1688 5.94594 27.1326C6.15016 27.1224 6.31439 27.0621 6.48165 26.9663C7.89485 26.1575 9.42138 25.7013 11.0376 25.5362C11.3115 25.5078 11.4218 25.4078 11.4151 25.1227C11.3982 24.4098 11.4048 23.6968 11.4127 22.9838C11.4145 22.7922 11.3582 22.6668 11.1806 22.5722C10.851 22.3962 10.6092 22.1262 10.4558 21.7869C10.3934 21.6489 10.3074 21.5941 10.1565 21.5856C9.07899 21.5266 8.00091 21.4699 6.92767 21.3494C6.57679 21.3102 6.22288 21.2843 5.87807 21.215C5.36114 21.1107 4.90967 20.8654 4.55698 20.4689C4.42426 20.3194 4.27942 20.2628 4.08187 20.2652C3.73947 20.2694 3.39344 20.3038 3.05408 20.2411C2.00872 20.0464 1.28212 19.1768 1.27727 18.104C1.27061 16.4069 1.26818 14.7091 1.28151 13.012C1.28394 12.7167 1.21182 12.6094 0.898519 12.607C0.4022 12.6028 0.0198105 12.1809 0.00102434 11.6825C-0.0268519 10.9515 0.517341 10.265 1.25424 10.1734C2.0263 10.0776 2.80804 10.077 3.58009 10.1746C4.3176 10.2674 4.85271 10.9503 4.82422 11.6885C4.80423 12.202 4.41699 12.61 3.89704 12.6106C3.60615 12.6106 3.54555 12.7185 3.54737 12.9831C3.55767 14.5398 3.55101 16.0965 3.55525 17.6532C3.55525 17.7786 3.48313 17.966 3.69524 17.9949C3.88916 18.0214 4.07459 18.0449 4.21034 17.8069C4.78968 16.795 5.72838 16.3822 6.88889 16.5244C7.74881 16.6299 7.57307 16.713 7.58155 15.9308C7.59064 15.1533 7.66578 15.2787 6.93131 15.2696C5.85565 15.257 5.14298 14.5422 5.04117 13.3598C4.91391 11.8796 4.81392 10.3958 4.81998 8.91143C4.82725 7.09498 4.90482 5.28274 5.44962 3.51992C5.91564 2.01143 6.88404 1.04896 8.3936 0.589126C10.0159 0.0925235 11.6685 -0.0714035 13.3574 0.0274348C14.3894 0.0877021 15.3978 0.248616 16.3971 0.516805C18.1854 0.997738 19.2266 2.15427 19.6695 3.91588C19.9326 4.96332 20.0804 6.02584 20.1283 7.09799C20.1853 8.37144 20.1846 9.6473 20.1125 10.9219C20.061 11.8338 20.015 12.745 19.9138 13.6533C19.8138 14.5573 19.0441 15.2503 18.1285 15.2666C17.414 15.2793 17.4073 15.2793 17.4158 15.9904C17.4243 16.7112 17.2976 16.6208 18.0539 16.5316C19.2647 16.3882 20.1998 16.7618 20.8082 17.8346C20.9373 18.0624 21.1294 18.0118 21.31 17.9925C21.5051 17.972 21.447 17.7972 21.4476 17.6785C21.4512 16.0917 21.447 14.5048 21.4536 12.918C21.4542 12.7022 21.393 12.6203 21.164 12.613C20.4495 12.5895 20.0453 12.0387 20.201 11.3294C20.3349 10.7195 20.821 10.2403 21.4457 10.1686C22.199 10.0824 22.9589 10.0818 23.7116 10.1668C24.4091 10.2458 24.923 10.8062 24.9939 11.4951C25.0557 12.0929 24.6406 12.595 24.0376 12.61C23.7752 12.6167 23.7189 12.7185 23.7201 12.9542C23.7268 14.6615 23.7298 16.3689 23.7213 18.0763C23.7158 19.1665 23.0189 20.0151 21.9669 20.2338C21.6179 20.3068 21.2621 20.264 20.9094 20.2646C20.7258 20.2646 20.5852 20.3086 20.4561 20.4496C19.9695 20.9824 19.3447 21.2174 18.6345 21.2921C17.3698 21.4247 16.1026 21.5139 14.8336 21.5856C14.7003 21.5929 14.6045 21.6308 14.5476 21.761C14.3803 22.1437 14.1064 22.433 13.7331 22.6204C13.5628 22.706 13.5549 22.8416 13.5556 22.9983C13.558 23.7016 13.5725 24.4049 13.5489 25.1071C13.5386 25.4138 13.6598 25.5096 13.9404 25.5331C14.8597 25.6103 15.7523 25.8182 16.625 26.1135C17.1231 26.2817 17.6073 26.4824 18.0739 26.7228C18.4721 26.9277 18.8466 27.1423 19.3272 27.1863C19.9441 27.2423 20.4216 27.8769 20.4507 28.5085C20.4786 29.1251 20.0659 29.7157 19.4653 29.9176C18.8369 30.1285 18.1691 29.9037 17.8018 29.3312C17.6825 29.1456 17.5394 29.0076 17.3522 28.9015C16.2323 28.2663 15.0275 27.9016 13.7143 27.7594L13.7137 27.7582ZM12.4999 14.2716C14.3173 14.2716 16.1347 14.2734 17.9521 14.2704C18.5545 14.2698 18.8533 14.0112 18.9205 13.4273C19.0532 12.2804 19.1011 11.1275 19.1405 9.97515C19.1853 8.67097 19.1678 7.36558 19.026 6.06622C18.9332 5.21765 18.7872 4.38054 18.5012 3.56874C18.1642 2.6123 17.5316 1.97346 16.5686 1.63657C15.6372 1.31053 14.6773 1.14901 13.6974 1.0791C12.0557 0.96218 10.4358 1.06343 8.8384 1.49615C7.47368 1.86559 6.67678 2.73404 6.33075 4.07981C6.01866 5.29419 5.90897 6.53027 5.86049 7.77298C5.81383 8.97712 5.85686 10.1819 5.91988 11.3848C5.95442 12.0453 6.00412 12.7065 6.07744 13.3634C6.15319 14.0432 6.42711 14.2698 7.10826 14.2704C8.90567 14.2722 10.7025 14.2704 12.4999 14.2704V14.2716ZM12.8532 20.6364C13.6325 20.6087 14.7627 20.5888 15.8899 20.5213C16.8546 20.4635 17.8224 20.4026 18.7781 20.2495C19.6471 20.1103 20.1707 19.4425 20.0507 18.6759C19.9319 17.916 19.1702 17.3989 18.3369 17.508C16.8359 17.7044 15.3263 17.7978 13.8149 17.8388C11.4127 17.9039 9.01596 17.7954 6.62891 17.5043C5.8211 17.4061 5.06966 17.9256 4.95148 18.65C4.82483 19.4251 5.34175 20.1224 6.19864 20.2429C8.28876 20.537 10.3952 20.6081 12.8526 20.6364H12.8532ZM12.5181 15.2672C11.3479 15.2672 10.1771 15.2775 9.00748 15.26C8.69175 15.2552 8.59418 15.3618 8.62085 15.6584C8.64085 15.8771 8.63964 16.1007 8.62085 16.3201C8.59661 16.6033 8.71478 16.7166 8.99415 16.7329C11.0091 16.8492 13.0241 16.8956 15.0403 16.789C15.3827 16.7709 15.7244 16.7468 16.0662 16.7257C16.2832 16.7124 16.3941 16.6172 16.3808 16.3828C16.3662 16.1224 16.3632 15.8602 16.3814 15.6005C16.4001 15.3293 16.2856 15.26 16.0275 15.2624C14.8573 15.2732 13.6871 15.2672 12.5169 15.2672H12.5181ZM2.28142 15.486C2.28142 16.3086 2.27961 17.1307 2.28142 17.9533C2.28445 18.8266 2.76138 19.2889 3.63888 19.2684C3.74796 19.266 3.92067 19.3208 3.92188 19.1382C3.92309 18.9538 3.74978 19.0092 3.6413 19.0062C2.84986 18.9851 2.54928 18.685 2.54867 17.9003C2.54746 16.2351 2.54867 14.5705 2.54625 12.9053C2.54625 12.7969 2.59291 12.6281 2.40262 12.6366C2.239 12.6438 2.28385 12.7975 2.28324 12.8981C2.27961 13.7605 2.28142 14.6236 2.28142 15.486ZM22.7232 15.5191C22.7232 14.6459 22.7244 13.7726 22.7214 12.8987C22.7214 12.7981 22.7656 12.6438 22.602 12.6366C22.4105 12.6281 22.4602 12.7975 22.459 12.9059C22.4541 13.5285 22.4566 14.1511 22.4566 14.773C22.4566 15.8771 22.4614 16.9818 22.4535 18.0859C22.4493 18.6374 22.0869 18.9929 21.5476 19.0044C21.4464 19.0062 21.3458 19.0056 21.2446 19.0068C21.1567 19.008 21.0773 19.0297 21.0761 19.1358C21.0749 19.2424 21.1555 19.2557 21.2415 19.269C22.0863 19.3985 22.7184 18.8694 22.7226 18.0184C22.7268 17.1849 22.7232 16.352 22.7232 15.5185V15.5191ZM22.5784 11.6132V11.6168C22.9402 11.6168 23.3019 11.6217 23.6637 11.6138C23.7631 11.6114 23.9183 11.6801 23.9492 11.5361C23.9776 11.4041 23.871 11.2974 23.7564 11.2215C23.6777 11.1696 23.588 11.1552 23.4971 11.1552C22.8941 11.1534 22.2911 11.1534 21.6881 11.154C21.5421 11.154 21.4088 11.1944 21.31 11.3083C21.2518 11.3758 21.1785 11.4499 21.2185 11.5457C21.2567 11.6373 21.3561 11.612 21.433 11.612C21.8148 11.6144 22.1966 11.6132 22.579 11.6132H22.5784ZM2.41232 11.6132C2.41232 11.6132 2.41232 11.6156 2.41232 11.6168C2.78562 11.6168 3.15892 11.6192 3.53283 11.615C3.61827 11.6144 3.73887 11.6548 3.77523 11.5493C3.81522 11.4348 3.73038 11.3414 3.64736 11.2649C3.56131 11.1859 3.45404 11.1558 3.34072 11.1552C2.72502 11.1534 2.10992 11.1534 1.49422 11.1552C1.33363 11.1552 1.19728 11.2155 1.1082 11.3541C1.01184 11.5029 0.98942 11.6168 1.23243 11.6138C1.62573 11.6096 2.01963 11.6126 2.41293 11.6126L2.41232 11.6132ZM13.8628 26.5221C13.767 26.5462 13.6252 26.4504 13.6168 26.6204C13.6107 26.7451 13.7307 26.7367 13.818 26.7505C13.8773 26.7602 13.9367 26.7734 13.9967 26.7807C15.2281 26.9356 16.402 27.2761 17.5061 27.845C17.5897 27.8884 17.6909 27.974 17.7667 27.8408C17.8461 27.701 17.7103 27.669 17.6291 27.6268C16.4444 27.0091 15.1748 26.6752 13.8622 26.5221H13.8628ZM11.3806 26.6505C11.3812 26.5734 11.3339 26.5402 11.2673 26.536C11.1867 26.5312 11.1049 26.5282 11.0255 26.5384C9.75529 26.7005 8.53298 27.0242 7.39308 27.619C7.31127 27.6618 7.1731 27.6883 7.23916 27.8275C7.31612 27.989 7.42823 27.8806 7.51852 27.8354C8.0506 27.566 8.60024 27.343 9.17231 27.1718C9.82074 26.9778 10.4825 26.8482 11.1527 26.7566C11.2364 26.7451 11.3424 26.7638 11.3806 26.6499V26.6505ZM5.99321 28.1578C5.7605 28.156 5.56416 28.3374 5.5581 28.5598C5.55143 28.7936 5.75565 28.9883 6.0023 28.984C6.24349 28.9792 6.42105 28.802 6.41923 28.5682C6.41741 28.341 6.22894 28.1596 5.99381 28.1578H5.99321ZM12.9156 28.5664C12.9132 28.3181 12.7453 28.1554 12.495 28.159C12.246 28.162 12.0866 28.3271 12.0872 28.5797C12.0872 28.831 12.249 28.9871 12.5072 28.9847C12.7599 28.9822 12.9186 28.8201 12.9162 28.5664H12.9156ZM19.4471 28.5694C19.4484 28.3428 19.255 28.1554 19.0187 28.1548C18.7824 28.1542 18.5872 28.3398 18.5866 28.5658C18.5854 28.7924 18.7799 28.9798 19.0157 28.981C19.2532 28.9816 19.4465 28.7978 19.4477 28.5694H19.4471ZM12.4738 27.0284H12.5296V22.8766H12.4738V27.0284Z" fill="#BBBBBB"/>
</svg>
