<svg width="19" height="18" viewBox="0 0 19 18" fill="none" xmlns="http://www.w3.org/2000/svg">
<path d="M9.93831 0C10.2768 0.111213 10.626 0.196624 10.9228 0.405603C11.3861 0.732702 11.7439 1.13503 11.9222 1.67511C12.2565 2.69275 12.5968 3.7082 12.9253 4.72802C12.9724 4.8734 13.0386 4.92574 13.1976 4.92465C14.2972 4.91811 15.397 4.91726 16.497 4.92211C17.8608 4.92647 18.9861 6.0426 18.9998 7.37861C19.0084 8.24688 18.6685 8.94142 17.9596 9.45423C17.0913 10.0842 16.2183 10.7081 15.3408 11.326C15.1922 11.431 15.1551 11.5193 15.2145 11.6952C15.5481 12.6751 15.8731 13.6574 16.1894 14.6424C16.484 15.559 16.338 16.4029 15.6841 17.1323C15.4695 17.3799 15.2054 17.5817 14.9079 17.7255C14.6105 17.8693 14.2861 17.9519 13.9547 17.9682C13.2719 18.0115 12.6678 17.828 12.1209 17.4256C11.311 16.8299 10.4889 16.2502 9.67825 15.656C9.54302 15.5572 9.45534 15.5452 9.31194 15.6506C8.48792 16.2572 7.65202 16.8499 6.82467 17.4522C6.31607 17.8229 5.75063 18.026 5.11571 17.9973C3.69765 17.9344 2.58944 16.7373 2.64776 15.4169C2.66485 15.0342 2.77816 14.6813 2.8937 14.3265C3.18571 13.4301 3.48292 12.5336 3.78533 11.6371C3.82731 11.5124 3.80799 11.4448 3.69765 11.367C2.92157 10.8186 2.16183 10.2473 1.37459 9.71446C0.668721 9.23617 0.154549 8.64594 0 7.79876V7.10821C0.00854477 7.07187 0.0200617 7.03843 0.0256344 7.00318C0.215477 5.83289 1.32592 4.89521 2.58609 4.91556C3.64787 4.93373 4.71002 4.91557 5.7718 4.92283C5.93601 4.92283 6.01031 4.8734 6.05972 4.72039C6.38034 3.72492 6.7121 2.73309 7.03606 1.74016C7.21958 1.17646 7.57586 0.744331 8.06329 0.404876C8.3605 0.197713 8.70897 0.111577 9.04705 0.000363798L9.93831 0ZM4.58594 6.50562C3.91276 6.50562 3.23921 6.50163 2.56603 6.50562C2.40781 6.50458 2.25184 6.54225 2.11229 6.6152C1.97274 6.68815 1.85405 6.79406 1.767 6.92332C1.67995 7.05257 1.62731 7.20106 1.61386 7.35529C1.60041 7.50951 1.62659 7.66458 1.69001 7.80639C1.77843 8.01137 1.94561 8.14221 2.1217 8.26796C3.14361 8.9992 4.16514 9.73106 5.1863 10.4635C5.59794 10.759 5.69044 11.045 5.53515 11.5175C5.45614 11.7598 5.37664 12.0012 5.29664 12.2418C4.98085 13.1952 4.66767 14.1492 4.34706 15.101C4.25121 15.3856 4.24526 15.6589 4.39721 15.9235C4.68179 16.4193 5.32599 16.5388 5.82381 16.1823C6.84151 15.4554 7.85697 14.7254 8.87021 13.9922C9.3398 13.6538 9.64592 13.6527 10.1111 13.9875C11.1265 14.7185 12.142 15.4487 13.1575 16.1783C13.526 16.4425 13.9725 16.4578 14.2969 16.2274C14.6554 15.9729 14.7854 15.5732 14.6457 15.137C14.5168 14.7336 14.382 14.332 14.2493 13.9297C13.9804 13.1141 13.7114 12.2983 13.4424 11.4822C13.3042 11.0599 13.3997 10.7648 13.7578 10.4937C13.8017 10.4602 13.8474 10.4294 13.8923 10.3974C14.9137 9.66491 15.9351 8.93282 16.9565 8.20109C17.1108 8.09884 17.2319 7.95542 17.3054 7.78785C17.3658 7.64638 17.3893 7.49244 17.3739 7.33987C17.3585 7.18729 17.3046 7.04084 17.2171 6.91366C17.1296 6.78649 17.0111 6.68256 16.8724 6.61122C16.7337 6.53987 16.579 6.50334 16.4223 6.5049C15.1064 6.50017 13.7905 6.5049 12.4746 6.5049C12.0169 6.5049 11.7446 6.31627 11.6016 5.8925C11.4585 5.46872 11.3266 5.05294 11.1892 4.63317C10.9291 3.84013 10.6728 3.04529 10.4064 2.25407C10.2578 1.80667 9.88852 1.55445 9.44865 1.57334C9.04296 1.59079 8.71975 1.84374 8.5782 2.27188C8.18254 3.46652 7.79245 4.66297 7.39865 5.85797C7.24633 6.31954 6.98553 6.50453 6.49662 6.5049C5.85911 6.50514 5.22221 6.50502 4.58594 6.50453V6.50562Z" fill="#AAD3D1"/>
</svg>
